<svg xmlns="http://www.w3.org/2000/svg" viewBox="0 0 887.4 95.4"><title>cmLogo--white</title><path d="M0,65.7V30.1C0,20,2.7,12.6,8.2,7.9S20.8.8,29.5.8,45.8,3,51.5,7.4A21.6,21.6,0,0,1,60,25.1c0,3.1-.7,5.3-1.9,6.4s-3.5,1.7-6.4,1.7c-5.5,0-8.3-1.7-8.4-5.2a12.3,12.3,0,0,0-.3-2.9,12.3,12.3,0,0,0-1-3.2,11,11,0,0,0-2.1-3.3,9.9,9.9,0,0,0-3.8-2.3,18.1,18.1,0,0,0-6.1-1c-8.9,0-13.4,4.9-13.4,14.8V65.7c0,9.8,4.6,14.7,13.7,14.7a16.9,16.9,0,0,0,6.8-1.2,8.1,8.1,0,0,0,4-3.7,21.7,21.7,0,0,0,1.7-4.2,19.6,19.6,0,0,0,.5-4.6c.3-3.4,3-5.2,8.2-5.2,3,0,5.2.6,6.5,1.7s2,3.3,2,6.5a22.6,22.6,0,0,1-8.5,18.4C45.8,92.7,38.4,95,29.4,95S13.5,92.6,8.1,87.9,0,75.8,0,65.7Z" style="fill:#fff"/><path d="M70.8,65.7V5.9A4.2,4.2,0,0,1,73.3,2,12.9,12.9,0,0,1,79.2.8,12.8,12.8,0,0,1,85,2a4.2,4.2,0,0,1,2.5,3.9V65.7c0,9.8,4.6,14.7,14,14.7s14.1-4.9,14.1-14.7V5.9A4.3,4.3,0,0,1,118,2a15.1,15.1,0,0,1,11.8,0,4.3,4.3,0,0,1,2.4,3.9V65.7q0,15.1-8.4,22.2c-5.5,4.7-13,7.1-22.3,7.1s-16.7-2.3-22.3-7S70.8,75.9,70.8,65.7Z" style="fill:#fff"/><path d="M142.6,79.5a9.9,9.9,0,0,1,2.2-5.9q2.3-3,5.1-3a6.1,6.1,0,0,1,3.7,1.6,33.1,33.1,0,0,1,4.1,3.5,16.9,16.9,0,0,0,5.7,3.5,20,20,0,0,0,8.2,1.6A17.3,17.3,0,0,0,181.8,78c2.8-1.9,4.1-4.6,4.1-8.3a11.4,11.4,0,0,0-2.2-6.9,17.8,17.8,0,0,0-5.9-4.9,85.4,85.4,0,0,0-8-3.9c-2.9-1.2-5.8-2.6-8.7-4.1a53.6,53.6,0,0,1-8.1-5.2,21.1,21.1,0,0,1-5.9-7.7,25.3,25.3,0,0,1-2.2-10.9,26.7,26.7,0,0,1,2.7-12.2A20.8,20.8,0,0,1,155,5.8a31.8,31.8,0,0,1,9.8-4.3A44.4,44.4,0,0,1,175.9.1a63,63,0,0,1,14.9,2,16,16,0,0,1,6.8,3.3,6.5,6.5,0,0,1,2.6,5.2,12.4,12.4,0,0,1-1.7,5.9,5.5,5.5,0,0,1-4.9,3.1c-.8,0-2.9-.8-6.3-2.5a26.4,26.4,0,0,0-11.4-2.4c-4.6,0-8.1.9-10.6,2.6a8.5,8.5,0,0,0-3.8,7.3,8.2,8.2,0,0,0,3.1,6.4,24.3,24.3,0,0,0,7.6,4.5c3,1.1,6.3,2.6,9.8,4.3a102.9,102.9,0,0,1,9.9,5.7,24.9,24.9,0,0,1,7.6,8.9,29.3,29.3,0,0,1,3,13.6c0,8.8-2.7,15.5-8.3,20.3s-13,7.1-22.1,7.1-15-1.7-20.8-5S142.6,83.5,142.6,79.5Z" style="fill:#fff"/><path d="M204.6,8a9.7,9.7,0,0,1,1.3-5.1A4.4,4.4,0,0,1,209.8.8h54.1a4.4,4.4,0,0,1,3.9,2.1A9.8,9.8,0,0,1,269.2,8a9.9,9.9,0,0,1-1.4,5.2,4.6,4.6,0,0,1-3.9,2.1H245.3V89a4.3,4.3,0,0,1-2.5,3.8,11.2,11.2,0,0,1-5.9,1.4,10.6,10.6,0,0,1-5.8-1.4,4.1,4.1,0,0,1-2.5-3.8V15.3H209.8a4.3,4.3,0,0,1-3.8-2.1A9.4,9.4,0,0,1,204.6,8Z" style="fill:#fff"/><path d="M272.5,65.7V30.1c0-10.2,2.7-17.6,8.1-22.3s12.7-7,21.8-7,16.4,2.3,21.9,7,8.2,12.1,8.2,22.3V65.7c0,10.2-2.8,17.6-8.2,22.3s-12.8,7-21.9,7-16.4-2.3-21.8-7S272.5,75.9,272.5,65.7Zm16.6,0c0,9.8,4.4,14.7,13.3,14.7s13.4-4.9,13.4-14.7V30.1c0-9.9-4.4-14.8-13.4-14.8s-13.3,4.9-13.3,14.8Z" style="fill:#fff"/><path d="M346.7,89V9.1c0-2.8.7-4.9,2.3-6.3a9.2,9.2,0,0,1,6-2,13.9,13.9,0,0,1,7.3,1.6c1.7,1.1,3.5,3.5,5.6,7.2l15.7,28.6L399.3,9.6q3.1-5.5,5.7-7.2c1.8-1.1,4.2-1.6,7.4-1.6a9,9,0,0,1,5.9,2q2.4,2.1,2.4,6.3V89a4.1,4.1,0,0,1-2.5,3.8,12.9,12.9,0,0,1-11.7,0,4.2,4.2,0,0,1-2.4-3.8V34l-15,26.6a6,6,0,0,1-5.6,3.3,5.8,5.8,0,0,1-5.5-3.3L363.3,33V89a4.3,4.3,0,0,1-2.5,3.8,12.9,12.9,0,0,1-11.7,0A4.2,4.2,0,0,1,346.7,89Z" style="fill:#fff"/><path d="M436,89V6a4.4,4.4,0,0,1,2.2-3.8A8.9,8.9,0,0,1,443.3.8h45.5a4.1,4.1,0,0,1,3.9,2.1,9.7,9.7,0,0,1,1.4,5,10,10,0,0,1-1.4,5.3,4.5,4.5,0,0,1-3.9,2.1H452.7V40.9h19.4a4.4,4.4,0,0,1,3.8,2,7.5,7.5,0,0,1,1.4,4.7A7.6,7.6,0,0,1,476,52a4.5,4.5,0,0,1-3.9,2H452.7V79.7h36.1a4.5,4.5,0,0,1,3.9,2.1,10,10,0,0,1,1.4,5.3,9.4,9.4,0,0,1-1.4,5,4.1,4.1,0,0,1-3.9,2.1H443.3a8.9,8.9,0,0,1-5.1-1.4A4.4,4.4,0,0,1,436,89Z" style="fill:#fff"/><path d="M500.6,89V5.9a4.9,4.9,0,0,1,1.5-3.6A5.4,5.4,0,0,1,506,.8h25.3q30.3,0,30.3,26.7c0,7-1.5,12.6-4.5,16.9a23.4,23.4,0,0,1-12.2,8.7l16.7,31a3.5,3.5,0,0,1,.6,2.1c0,2.1-1.1,4.1-3.3,5.9a10.4,10.4,0,0,1-7,2.8c-2.5,0-4.4-1.3-5.8-4L528,55.6H517.2V89a4.2,4.2,0,0,1-2.4,3.8,12.9,12.9,0,0,1-11.7,0A4.1,4.1,0,0,1,500.6,89Zm16.6-46.4h14.1c9.1,0,13.7-4.5,13.7-13.6s-4.6-13.7-13.7-13.7H517.2Z" style="fill:#fff"/><path d="M599.1,89V9.1c0-2.8.8-4.9,2.3-6.3a9.2,9.2,0,0,1,6-2c3.1,0,5.6.5,7.3,1.6s3.6,3.5,5.6,7.2L636,38.2,651.8,9.6c2-3.7,3.9-6.1,5.6-7.2S661.6.8,664.8.8a8.8,8.8,0,0,1,5.9,2q2.4,2.1,2.4,6.3V89a4.1,4.1,0,0,1-2.5,3.8,10.9,10.9,0,0,1-5.8,1.4,11,11,0,0,1-5.9-1.4,4.2,4.2,0,0,1-2.4-3.8V34l-15,26.6a6.3,6.3,0,0,1-11.1,0L615.7,33V89a4.1,4.1,0,0,1-2.5,3.8,12.9,12.9,0,0,1-11.7,0A4.2,4.2,0,0,1,599.1,89Z" style="fill:#fff"/><path d="M687.4,65.7V30.1c0-10.2,2.7-17.6,8.1-22.3s12.7-7,21.9-7,16.4,2.3,21.8,7,8.2,12.1,8.2,22.3V65.7c0,10.2-2.7,17.6-8.2,22.3s-12.7,7-21.8,7-16.4-2.3-21.9-7S687.4,75.9,687.4,65.7Zm16.7,0c0,9.8,4.4,14.7,13.3,14.7s13.4-4.9,13.4-14.7V30.1c0-9.9-4.5-14.8-13.4-14.8s-13.3,4.9-13.3,14.8Z" style="fill:#fff"/><path d="M761.6,89V5.9a4.8,4.8,0,0,1,1.7-3.6A6.9,6.9,0,0,1,767.9.8h25.7c8.7,0,15.8,2.3,21.1,6.9s7.9,12,7.9,21.8v.8c0,10-2.8,17.3-8.3,22s-12.7,7-21.8,7H778.2V89a4.1,4.1,0,0,1-2.5,3.8,10.9,10.9,0,0,1-5.8,1.4,11,11,0,0,1-5.9-1.4A4.2,4.2,0,0,1,761.6,89Zm16.6-42.7h14.3c4.3,0,7.6-1.2,9.9-3.7s3.6-6.2,3.6-11V30.1c0-4.9-1.2-8.6-3.6-11s-5.6-3.8-9.9-3.8H778.2Z" style="fill:#fff"/><path d="M816.1,86.9a7,7,0,0,1,.3-1.4L841.1,5.1a6.4,6.4,0,0,1,3.8-3.8A16.5,16.5,0,0,1,851.7,0a15.2,15.2,0,0,1,6.9,1.5,6.8,6.8,0,0,1,3.9,4.1l24.6,80.5a6.3,6.3,0,0,1,.3,1.2c0,1.9-1.2,3.5-3.5,4.9a13.1,13.1,0,0,1-7,2c-3.2,0-5-1.1-5.6-3.3l-4.9-17H839l-4.7,17c-.7,2.2-2.8,3.3-6.4,3.3a16.5,16.5,0,0,1-8-2.1C817.4,90.7,816.1,89,816.1,86.9Zm26.6-26h22.1L853.7,21.6Z" style="fill:#fff"/></svg>