<?xml version="1.0" encoding="utf-8"?>
<!-- Generator: Adobe Illustrator 22.0.1, SVG Export Plug-In . SVG Version: 6.00 Build 0)  -->
<svg version="1.1" id="Capa_1" xmlns="http://www.w3.org/2000/svg" xmlns:xlink="http://www.w3.org/1999/xlink" x="0px" y="0px"
	 viewBox="0 0 166 166" style="enable-background:new 0 0 166 166;" xml:space="preserve">
<style type="text/css">
	.st0{fill:#BBE4FF;}
	.st1{fill:none;stroke:#1976D2;stroke-width:3.7323;stroke-miterlimit:10;}
	.st2{fill:#FFFFFF;}
	.st3{fill:#1976D2;}
	.st4{fill:#FFFFFF;stroke:#00B1DC;stroke-width:0.4241;stroke-miterlimit:10;}
	.st5{fill-rule:evenodd;clip-rule:evenodd;fill:#1976D2;}
	.st6{fill-rule:evenodd;clip-rule:evenodd;fill:#FFFFFF;}
	.st7{fill:#FFFFFF;stroke:#42A5F5;stroke-width:3.7323;stroke-miterlimit:10;}
	.st8{fill:#42A5F5;stroke:#42A5F5;stroke-width:2.8536;stroke-miterlimit:10;}
</style>
<g>
	<ellipse class="st0" cx="82.9" cy="145.3" rx="61" ry="7.6"/>
	<g>
		<path class="st0" d="M87.6,103.8H54.5c-7.7,0-14-6.3-14-14v-9.6c0-5.3,7.9-16.4,10.9-20.3c0,0,2.5,8.1,12.7,8.6s12.7-8.6,12.7-8.6
			c3,3.9,10.9,15,10.9,20.3V103.8z"/>
		<path class="st1" d="M64.1,56.7L64.1,56.7c-13,0-23.6,10.6-23.6,23.6v15.3c0,4.6,3.7,8.3,8.3,8.3h24.9c7.7,0,14-6.3,14-14v-9.6
			C87.6,67.2,77.1,56.7,64.1,56.7z"/>
		<g>
			<circle class="st2" cx="64.1" cy="42.3" r="20"/>
			<path class="st3" d="M64.1,64.4c-12.2,0-22-9.9-22-22s9.9-22,22-22s22,9.9,22,22S76.2,64.4,64.1,64.4z M64.1,24.4
				c-9.9,0-17.9,8-17.9,17.9s8,17.9,17.9,17.9S82,52.2,82,42.3S74,24.4,64.1,24.4z"/>
		</g>
		<g>
			<g>
				<g>
					<path class="st2" d="M43.8,36c-0.8,0-1.3-0.5-1.3-1.3v-4.3c0-0.8,0.5-1.3,1.3-1.3h1.4c0,0,0.1,0,0.1-0.1V26
						c0-7.7,5-14.9,12.3-17.5C57.8,7,59,5.9,60.5,5.9h7.3c1.4,0,2.6,1.1,2.7,2.5c3.7,1.4,7,4.1,9.2,7.6l0.1,0.1
						c1.9,3.1,3,6.6,3,10.2v2.5c0,0,0,0.1,0.1,0.1h1.4c0.8,0,1.3,0.5,1.3,1.3v4.3c0,0.8-0.5,1.3-1.3,1.3H43.8z"/>
					<path class="st3" d="M84.3,38H43.8c-1.9,0-3.3-1.5-3.3-3.3v-4.3c0-1.7,1.2-3.1,2.9-3.3v-1c0-8.1,5.1-15.8,12.6-19
						c0.7-1.8,2.4-3.1,4.5-3.1h7.3c2,0,3.7,1.3,4.4,3c3.7,1.6,7,4.4,9.2,8l0.1,0.1c2.1,3.4,3.3,7.3,3.3,11.3V27
						c1.7,0.2,2.9,1.6,2.9,3.3v4.3C87.6,36.6,86.2,38,84.3,38z M44.6,33.9h38.9v-2.8h-0.7c-1.2,0-2.2-1-2.2-2.2v-2.5
						c0-3.2-0.9-6.4-2.7-9.2l-0.1-0.1c-2-3.1-4.9-5.5-8.2-6.8l-1.2-0.5l-0.1-1.3c0-0.3-0.3-0.6-0.6-0.6h-7.3c-0.4,0-0.7,0.2-0.7,0.6
						l-0.1,1.3l-1.3,0.5C52,12.8,47.5,19.2,47.5,26v2.9c0,1.2-1,2.2-2.2,2.2h-0.7V33.9z"/>
				</g>
				<g>
					<line class="st2" x1="51.5" y1="29.3" x2="76.6" y2="29.3"/>
					<path class="st3" d="M76.6,31.3H51.5c-1.1,0-2-0.9-2-2s0.9-2,2-2h25.1c1.1,0,2,0.9,2,2S77.8,31.3,76.6,31.3z"/>
				</g>
				<g>
					<line class="st2" x1="64.1" y1="5.9" x2="64.1" y2="17.2"/>
					<path class="st3" d="M64.1,19.3c-1.1,0-2-0.9-2-2V5.9c0-1.1,0.9-2,2-2c1.1,0,2,0.9,2,2v11.3C66.1,18.3,65.2,19.3,64.1,19.3z"/>
				</g>
			</g>
			<g>
				<line class="st2" x1="57.7" y1="8.5" x2="57.7" y2="13.9"/>
				<path class="st3" d="M57.7,15.9c-1.1,0-2-0.9-2-2V8.5c0-1.1,0.9-2,2-2s2,0.9,2,2v5.4C59.8,15,58.8,15.9,57.7,15.9z"/>
			</g>
			<g>
				<line class="st2" x1="70.4" y1="8.5" x2="70.4" y2="13.9"/>
				<path class="st3" d="M70.4,15.9c-1.1,0-2-0.9-2-2V8.5c0-1.1,0.9-2,2-2s2,0.9,2,2v5.4C72.4,15,71.5,15.9,70.4,15.9z"/>
			</g>
		</g>
		<path class="st4" d="M84.1,39"/>
		<g>
			<circle class="st5" cx="72.8" cy="39.9" r="2.9"/>
			<circle class="st5" cx="55.4" cy="39.9" r="2.9"/>
			<circle class="st6" cx="56.5" cy="38.7" r="1.5"/>
			<circle class="st6" cx="74.3" cy="38.7" r="1.5"/>
		</g>
		<g>
			<path class="st6" d="M62.2,53.9c0,0,4.5,1.3,10.5-2.4"/>
			<path class="st3" d="M64.3,56.1c-1.6,0-2.5-0.3-2.6-0.3c-1.1-0.3-1.7-1.4-1.4-2.5c0.3-1.1,1.4-1.7,2.5-1.4c0.2,0,3.9,0.9,8.9-2.2
				c1-0.6,2.2-0.3,2.8,0.7c0.6,1,0.3,2.2-0.7,2.8C69.9,55.6,66.5,56.1,64.3,56.1z"/>
		</g>
		<g>
			<path class="st7" d="M124,123.5h-53V82.2c0-4.6,3.7-8.3,8.3-8.3h53v41.4C132.3,119.8,128.6,123.5,124,123.5z"/>
			<circle class="st8" cx="101.7" cy="117" r="1.7"/>
			<path class="st0" d="M118.1,112.3H77V88.3c0-4.6,3.7-8.3,8.3-8.3h41.2V104C126.4,108.6,122.7,112.3,118.1,112.3z"/>
		</g>
	</g>
</g>
</svg>
