<?xml version="1.0" encoding="utf-8"?>
<!-- Generator: Adobe Illustrator 22.0.1, SVG Export Plug-In . SVG Version: 6.00 Build 0)  -->
<svg version="1.1" id="Capa_1" xmlns="http://www.w3.org/2000/svg" xmlns:xlink="http://www.w3.org/1999/xlink" x="0px" y="0px"
	 viewBox="0 0 166 166" style="enable-background:new 0 0 166 166;" xml:space="preserve">
<style type="text/css">
	.st0{fill:#BBE4FF;}
	.st1{fill:none;stroke:#42A5F5;stroke-width:4.7317;stroke-miterlimit:10;}
	.st2{fill:#42A5F5;stroke:#42A5F5;stroke-width:3.6177;stroke-miterlimit:10;}
	.st3{fill:#FFFFFF;stroke:#1976D2;stroke-width:4.732;stroke-miterlimit:10;}
	.st4{fill:#1976D2;stroke:#1976D2;stroke-width:3.6177;stroke-miterlimit:10;}
</style>
<g>
	<ellipse class="st0" cx="82.9" cy="145.3" rx="61" ry="7.6"/>
	<g>
		<g>
			<path class="st1" d="M119.3,101.1H49.9V46.5c0-4.6,3.7-8.3,8.3-8.3h69.4v54.7C127.6,97.4,123.9,101.1,119.3,101.1z"/>
			<circle class="st2" cx="88.8" cy="92.9" r="2.2"/>
			<path class="st0" d="M113.1,86.9h-57V54.2c0-4.6,3.7-8.3,8.3-8.3h57v32.7C121.4,83.2,117.7,86.9,113.1,86.9z"/>
		</g>
		<g>
			<path class="st3" d="M65.2,121.8H38.3V67.1c0-4.6,3.7-8.3,8.3-8.3h26.9v54.7C73.5,118.1,69.8,121.8,65.2,121.8z"/>
			<g>
				<circle class="st4" cx="55.9" cy="112.6" r="2.2"/>
				<path class="st0" d="M59,105H44.5V74.1c0-4.6,3.7-8.3,8.3-8.3h14.6v30.8C67.3,101.3,63.6,105,59,105z"/>
			</g>
		</g>
	</g>
</g>
</svg>
