<svg xmlns="http://www.w3.org/2000/svg" viewBox="0 0 142.8 43.9"><title>logo_tus</title><polygon points="65.1 35.5 69.8 35.5 69.8 11.2 76.8 11.2 76.8 7.7 58.1 7.7 58.1 11.2 65.1 11.2 65.1 35.5" style="fill:#00b7df;fill-rule:evenodd"/><path d="M99.1,7.7H94.4V27c0,3.2-1.3,5.6-4.9,5.6s-5-2.4-5-5.6V7.7H79.8V27c0,6.1,3.9,8.9,9.7,8.9s9.6-2.8,9.6-8.9Z" style="fill:#00b7df;fill-rule:evenodd"/><path d="M118.4,8.3a35.8,35.8,0,0,0-6.8-.7c-5.3,0-9.6,2.2-9.6,7.1,0,7.9,13.3,8.3,13.3,14.3,0,1.9-1.2,3.9-4.9,3.9s-6.2-1.7-7.9-2.7v4.9a31,31,0,0,0,7.7,1.2c6.1,0,10.3-2.7,10.3-7.9,0-8.4-13.3-9.2-13.3-14.1,0-2.3,1.9-3.4,4.2-3.4s5.1,1.1,7,1.8Z" style="fill:#00b7df;fill-rule:evenodd"/><path d="M2.7,31.4c-.5-.3-1.1-.7-1.1-1.2a1,1,0,0,1,1.1-1,5.8,5.8,0,0,1,1.7.4v-1l-1.6-.2c-1.3,0-2.4.6-2.4,1.9s.9,1.4,1.6,1.8l.6.4c.6.3,1.2.6,1.2,1.4s-.7,1-1.4,1a4.8,4.8,0,0,1-1.9-.5v1.1a13,13,0,0,0,1.8.3c1.5,0,2.6-.7,2.6-2.1s-.8-1.5-1.5-1.9Z" style="fill:#00b7df;fill-rule:evenodd"/><path d="M8.3,33.4v.3A1.3,1.3,0,0,1,7.2,35a.6.6,0,0,1-.6-.6c0-.6.8-1,1.5-1Zm0,2.2h.9V32.3a1.4,1.4,0,0,0-1.6-1.7c-1.4,0-1.8.7-1.8,1.5h.9a.8.8,0,0,1,.8-.8.8.8,0,0,1,.8.7v.8c-1.3,0-2.7.3-2.7,1.6A1.3,1.3,0,0,0,7,35.8,1.6,1.6,0,0,0,8.3,35h0Z" style="fill:#00b7df;fill-rule:evenodd"/><path d="M10.7,35.6h.9v-2c0-1,.5-2,1.3-2s.7.5.7,1.4v2.6h.9V32.2c0-.6-.2-1.6-1.3-1.6a1.8,1.8,0,0,0-1.6,1.2h0V30.7h-.9Z" style="fill:#00b7df;fill-rule:evenodd"/><path d="M18.6,35h-.5c-.7,0-.7-.5-.7-.9V31.5h1.3v-.8H17.4V29l-1,.6v1.1h-.8v.8h.8v3.1c0,.6.3,1.2,1.5,1.2h.7Z" style="fill:#00b7df;fill-rule:evenodd"/><path d="M22,33.4v.3A1.3,1.3,0,0,1,20.9,35c-.3,0-.5-.2-.5-.6s.7-1,1.4-1Zm0,2.2h.9V32.3a1.4,1.4,0,0,0-1.6-1.7c-1.3,0-1.8.7-1.8,1.5h1a.7.7,0,0,1,.8-.8c.3,0,.6.2.7.7v.8c-1.2,0-2.7.3-2.7,1.6A1.4,1.4,0,0,0,22,35h0Z" style="fill:#00b7df;fill-rule:evenodd"/><path d="M24.4,35.6h.9v-2c0-1,.6-2,1.3-2s.7.5.7,1.4v2.6h.9V32.2c0-.6-.2-1.6-1.3-1.6a1.5,1.5,0,0,0-1.5,1.2h-.1V30.7h-.9Z" style="fill:#00b7df;fill-rule:evenodd"/><path d="M30.4,33.2c0-1,.3-1.9,1-1.9s1.1,1,1.1,1.9S32.1,35,31.4,35,30.4,33.9,30.4,33.2Zm2.1,2.4h.9V28.5h-.9v2.9h-.1a1.3,1.3,0,0,0-1.3-.8c-1.1,0-1.7,1-1.7,2.7s.5,2.5,1.7,2.5a1.4,1.4,0,0,0,1.3-.9h.1Z" style="fill:#00b7df;fill-rule:evenodd"/><path d="M35.5,32.2a1,1,0,0,1,1-.9.9.9,0,0,1,.9.9Zm2.7,2.7h-.9c-1.4,0-1.8-1.3-1.8-2.2h2.8v-.2c0-1.2-.6-2-1.8-2s-2,.3-2,2.4,1,2.8,2.5,2.8l1.2-.2Z" style="fill:#00b7df;fill-rule:evenodd"/><path d="M39.5,35.6h.9v-2c0-1.5.7-2,1.5-2v-1a1.6,1.6,0,0,0-1.5,1.1h0v-1h-.9Z" style="fill:#00b7df;fill-rule:evenodd"/><path d="M5.6,18H4.5v4.8c0,.6,0,1.6-1.4,1.6s-1.3-1-1.3-1.6V18H.8v5a2.1,2.1,0,0,0,2.4,2.3A2.2,2.2,0,0,0,5.6,23Z" style="fill:#8ed300;fill-rule:evenodd"/><path d="M7.1,25.1H8v-2c0-1.5.7-2,1.5-2v-1A1.6,1.6,0,0,0,8,21.2H8v-1H7.1Z" style="fill:#8ed300;fill-rule:evenodd"/><path d="M11.3,22.7c0-.7.3-1.8,1-1.8s.9,1.1.9,1.8-.2,1.8-1,1.8S11.3,23.4,11.3,22.7Zm0-4.7h-.9v5.1c0,.6,0,2.2,1.9,2.2s2-1,2-2.6-.3-2.6-1.7-2.6a1.3,1.3,0,0,0-1.3.8h0Z" style="fill:#8ed300;fill-rule:evenodd"/><path d="M17.8,23v.2a1.3,1.3,0,0,1-1.1,1.3.6.6,0,0,1-.6-.6c0-.6.8-.9,1.5-.9Zm0,2.1h.9V21.8a1.4,1.4,0,0,0-1.6-1.7c-1.4,0-1.8.7-1.8,1.5h1a.6.6,0,0,1,.7-.7c.4,0,.7.1.8.6v.8c-1.3,0-2.7.3-2.7,1.6a1.3,1.3,0,0,0,1.4,1.4,1.4,1.4,0,0,0,1.3-.8h0Z" style="fill:#8ed300;fill-rule:evenodd"/><path d="M20.2,25.1h.9v-2c0-1,.6-2,1.3-2s.7.5.7,1.4v2.6H24V21.7c0-.6-.2-1.6-1.3-1.6a1.8,1.8,0,0,0-1.6,1.2h0V20.2h-.9Z" style="fill:#8ed300;fill-rule:evenodd"/><path d="M26.2,22.7c0-.8.1-1.8,1.2-1.8s1.1,1,1.1,1.8-.1,1.8-1.1,1.8S26.2,23.5,26.2,22.7Zm1.2,2.6c1.4,0,2.1-1.1,2.1-2.6s-.7-2.6-2.1-2.6-2.2,1-2.2,2.6S25.9,25.3,27.4,25.3Z" style="fill:#8ed300;fill-rule:evenodd"/><path d="M31.9,22.1c-.3-.2-.7-.4-.7-.7s.4-.5.8-.5a7.1,7.1,0,0,1,1.2.2v-.8L32,20.1c-1,0-1.7.5-1.7,1.4s.5,1,1,1.3l.5.3c.3.2.7.4.7.8s-.5.6-1,.6a2.5,2.5,0,0,1-1.2-.3v.9a7,7,0,0,0,1.3.2c1.1,0,1.9-.5,1.9-1.5s-.7-1.2-1.2-1.5Z" style="fill:#8ed300;fill-rule:evenodd"/><path d="M38.2,22.7c0-1,.2-1.8,1-1.8s1,.9,1,1.8-.3,1.8-1,1.8S38.2,23.4,38.2,22.7Zm2,2.4h1V18h-1v2.9h0a1.3,1.3,0,0,0-1.3-.8c-1.1,0-1.7,1-1.7,2.7s.5,2.5,1.7,2.5a1.4,1.4,0,0,0,1.3-.9h0Z" style="fill:#8ed300;fill-rule:evenodd"/><path d="M43.3,21.7a.9.9,0,0,1,1-.8.8.8,0,0,1,.9.8ZM46,24.4h-.9c-1.4,0-1.8-1.3-1.8-2.2h2.8v-.2c0-1.2-.6-2-1.8-2s-2,.3-2,2.4,1,2.8,2.5,2.8l1.2-.2Z" style="fill:#8ed300;fill-rule:evenodd"/><polygon points="1.8 14.6 2.8 14.6 2.8 8.4 4.6 8.4 4.6 7.5 0 7.5 0 8.4 1.8 8.4 1.8 14.6" style="fill:#8ed300;fill-rule:evenodd"/><path d="M5.1,14.6h1v-2c0-1.5.7-2,1.5-2v-1a1.5,1.5,0,0,0-1.5,1.1h0v-1h-1Z" style="fill:#8ed300;fill-rule:evenodd"/><path d="M10.9,12.5v.2A1.2,1.2,0,0,1,9.8,14c-.3,0-.5-.2-.5-.6s.7-.9,1.4-.9Zm0,2.1h1V11.3c0-.5,0-1.7-1.7-1.7s-1.8.7-1.8,1.5h1c0-.4.2-.7.8-.7a.6.6,0,0,1,.7.6v.8c-1.2,0-2.6.3-2.6,1.6a1.2,1.2,0,0,0,1.3,1.4,1.3,1.3,0,0,0,1.3-.8h0Z" style="fill:#8ed300;fill-rule:evenodd"/><path d="M13.3,14.6h1v-2c0-1,.5-2,1.3-2s.6.5.6,1.4v2.6h1V11.2c0-.6-.2-1.6-1.4-1.6a1.5,1.5,0,0,0-1.5,1.2h0V9.7h-1Z" style="fill:#8ed300;fill-rule:evenodd"/><path d="M19.9,11.6c-.3-.2-.7-.4-.7-.7s.4-.5.8-.5a4.2,4.2,0,0,1,1.1.2V9.8L20,9.6c-1,0-1.7.5-1.7,1.4a1.4,1.4,0,0,0,1,1.3l.4.3c.4.2.8.4.8.8s-.5.6-1,.6l-1.2-.2v.8a7,7,0,0,0,1.3.2c1.1,0,1.9-.5,1.9-1.5s-.7-1.2-1.2-1.5Z" style="fill:#8ed300;fill-rule:evenodd"/><path d="M23.4,12.2c0-.8.3-1.8,1.1-1.8s.9,1.1.9,1.8-.2,1.8-.9,1.8S23.4,13.1,23.4,12.2Zm-.9,4.6h.9V14h0a1.3,1.3,0,0,0,1.3.8c1.1,0,1.8-1,1.8-2.7S26,9.6,24.8,9.6a1.5,1.5,0,0,0-1.4.9h0V9.7h-.9Z" style="fill:#8ed300;fill-rule:evenodd"/><path d="M28.3,12.2c0-.8.1-1.8,1.1-1.8s1.2,1,1.2,1.8S30.4,14,29.4,14,28.3,13,28.3,12.2Zm1.1,2.6c1.5,0,2.2-1.1,2.2-2.6s-.7-2.6-2.2-2.6-2.1,1-2.1,2.6S28,14.8,29.4,14.8Z" style="fill:#8ed300;fill-rule:evenodd"/><path d="M32.8,14.6h.9v-2c0-1.5.7-2,1.5-2v-1a1.7,1.7,0,0,0-1.5,1.1h0v-1h-.9Z" style="fill:#8ed300;fill-rule:evenodd"/><path d="M38.8,14h-.5c-.7,0-.8-.5-.8-.9V10.5h1.4V9.7H37.5V8l-.9.6V9.7h-.9v.8h.9v3.1c0,.6.3,1.2,1.5,1.2h.7Z" style="fill:#8ed300;fill-rule:evenodd"/><path d="M40.4,11.2a.9.9,0,0,1,1-.8.8.8,0,0,1,.9.8Zm2.7,2.7h-.9c-1.4,0-1.8-1.2-1.8-2.2h2.8v-.2c0-1.2-.5-2-1.7-2s-2,.3-2,2.4.9,2.8,2.4,2.8l1.2-.2Z" style="fill:#8ed300;fill-rule:evenodd"/><path d="M45.6,11.6c-.3-.2-.7-.4-.7-.7s.4-.5.8-.5a4.2,4.2,0,0,1,1.1.2V9.8l-1.1-.2c-1,0-1.7.5-1.7,1.4a1.4,1.4,0,0,0,1,1.3l.4.3c.4.2.8.4.8.8s-.5.6-1,.6L44,13.8v.8a7,7,0,0,0,1.3.2c1.1,0,1.9-.5,1.9-1.5s-.7-1.2-1.2-1.5Z" style="fill:#8ed300;fill-rule:evenodd"/><polygon points="0 0.1 0 3.8 134.1 3.7 139.1 8.6 139.1 29.3 128.2 29.3 128.2 33 142.8 33 142.8 7.3 135.6 0 0 0.1" style="fill:#8ed300;fill-rule:evenodd"/><path d="M60.7,33H57a11.7,11.7,0,0,0,1.2,5.2,11,11,0,0,0,4.7,4.6,11.4,11.4,0,0,0,7.2.8,9.9,9.9,0,0,0,7.1-5.7,12,12,0,0,0,1.1-5H74.6a8.3,8.3,0,0,1-1.7,4.9,7.2,7.2,0,0,1-5.4,2.4,8,8,0,0,1-5.3-2.5A7.6,7.6,0,0,1,60.7,33Z" style="fill:#8ed300;fill-rule:evenodd"/></svg>