<?xml version="1.0" encoding="utf-8"?>
<!-- Generator: Adobe Illustrator 22.0.1, SVG Export Plug-In . SVG Version: 6.00 Build 0)  -->
<svg version="1.1" id="Capa_1" xmlns="http://www.w3.org/2000/svg" xmlns:xlink="http://www.w3.org/1999/xlink" x="0px" y="0px"
	 viewBox="0 0 90 90" style="enable-background:new 0 0 90 90;" xml:space="preserve">
<style type="text/css">
	.st0{fill:#88A8BC;}
</style>
<g>
	<path class="st0" d="M38.1,84.6c-1,0-1.8-0.8-1.8-1.8v-6.3l-1.1-0.4C25,72.9,17.1,65,13.8,54.8l-0.4-1.1H7.2c-1,0-1.8-0.8-1.8-1.8
		V38.1c0-1,0.8-1.8,1.8-1.8h6.3l0.4-1.1C17.1,25,25,17.1,35.2,13.9l1.1-0.4V7.2c0-1,0.8-1.8,1.8-1.8h13.7c1,0,1.8,0.8,1.8,1.8v6.3
		l1.1,0.4C65,17.1,72.9,25,76.2,35.2l0.4,1.1h6.3c1,0,1.8,0.8,1.8,1.8v13.7c0,1-0.8,1.8-1.8,1.8h-6.3l-0.4,1.1
		C72.9,65,65,72.9,54.8,76.2l-1.1,0.4v6.3c0,1-0.8,1.8-1.8,1.8H38.1z M40,80.9H50V70.9H40V80.9z M18.1,55.9c2.9,7.2,8.8,13.1,16,16
		l2.2,0.9V69c0-1,0.8-1.8,1.8-1.8h13.7c1,0,1.8,0.8,1.8,1.8v3.8l2.2-0.9c7.2-2.9,13.1-8.8,16-16l0.9-2.2H69c-1,0-1.8-0.8-1.8-1.8
		V38.1c0-1,0.8-1.8,1.8-1.8h3.8l-0.9-2.2c-2.9-7.2-8.8-13.1-16-16l-2.2-0.9V21c0,1-0.8,1.8-1.8,1.8H38.1c-1,0-1.8-0.8-1.8-1.8v-3.8
		l-2.2,0.9c-7.2,2.9-13.1,8.8-16,16l-0.9,2.2H21c1,0,1.8,0.8,1.8,1.8v13.7c0,1-0.8,1.8-1.8,1.8h-3.8L18.1,55.9z M70.9,50h10.1V40
		H70.9V50z M9.1,50h10.1V40H9.1V50z M40,19.1H50V9.1H40V19.1z"/>
	<rect x="41.6" y="72.5" class="st0" width="6.9" height="6.9"/>
	<path class="st0" d="M67.2,25.9"/>
	<path class="st0" d="M42.6,64.8"/>
</g>
</svg>
