<?xml version="1.0" encoding="utf-8"?>
<!-- Generator: Adobe Illustrator 22.0.1, SVG Export Plug-In . SVG Version: 6.00 Build 0)  -->
<svg version="1.1" id="Capa_1" xmlns="http://www.w3.org/2000/svg" xmlns:xlink="http://www.w3.org/1999/xlink" x="0px" y="0px"
	 viewBox="0 0 115.2 90" style="enable-background:new 0 0 115.2 90;" xml:space="preserve">
<style type="text/css">
	.st0{fill:#88A8BC;}
</style>
<path class="st0" d="M49,83.7c-0.7,0-1.3-0.4-1.6-0.9L30,52.4c-0.2-0.3-0.2-0.6-0.2-0.9V31.7H9.9c-0.7,0-1.4-0.4-1.7-1
	S8,29.3,8.4,28.8L25.9,7c0.3-0.4,0.8-0.7,1.4-0.7h17.4c0.6,0,1.1,0.3,1.5,0.7l12.5,16.6h46.8c0.7,0,1.4,0.4,1.7,1.1
	c0.3,0.7,0.1,1.5-0.4,2L69.1,64.4l20.1,16.1c0.6,0.5,0.8,1.3,0.6,2c-0.3,0.7-1,1.2-1.7,1.2C88.1,83.7,49,83.7,49,83.7z M53.4,80.1
	h29.4L66.5,67L53.4,80.1z M33.9,51.8l15.5,27.1l51.5-51.6H58.4L33.9,51.8z M33.5,47.1l21.7-21.8L43.7,10H33.5V47.1z M13.8,28h16V10
	L13.8,28z"/>
</svg>
