<?xml version="1.0" encoding="utf-8"?>
<!-- Generator: Adobe Illustrator 22.0.1, SVG Export Plug-In . SVG Version: 6.00 Build 0)  -->
<svg version="1.1" id="Capa_1" xmlns="http://www.w3.org/2000/svg" xmlns:xlink="http://www.w3.org/1999/xlink" x="0px" y="0px"
	 viewBox="0 0 73 90" style="enable-background:new 0 0 73 90;" xml:space="preserve">
<style type="text/css">
	.st0{fill:#6991ab;}
</style>
<g>
	<path class="st0" d="M4.4,68.1V26.3c0-5.3,4.3-9.6,9.6-9.6s9.6,4.3,9.6,9.6v41.9L14,82.6L4.4,68.1z M8.7,66.8l5.3,8l5.3-8V35.9H8.7
		V66.8z M14,20.9c-2.9,0-5.3,2.4-5.3,5.3v5.3h10.7v-5.3C19.4,23.3,17,20.9,14,20.9z"/>
	<path class="st0" d="M40.3,84.6c-3.3,0-5.9-2.6-5.9-5.9V11.3c0-3.3,2.6-5.9,5.9-5.9h22.5c3.3,0,5.9,2.6,5.9,5.9v67.4
		c0,3.3-2.6,5.9-5.9,5.9C62.8,84.6,40.3,84.6,40.3,84.6z M38.7,80.3h25.7V9.7H38.7v14.4H53v4.3H38.7v14.4H53v4.3H38.7v14.4H53v4.3
		H38.7V80.3z"/>
</g>
</svg>
