<?xml version="1.0" encoding="utf-8"?>
<!-- Generator: Adobe Illustrator 22.0.1, SVG Export Plug-In . SVG Version: 6.00 Build 0)  -->
<svg version="1.1" id="Capa_1" xmlns="http://www.w3.org/2000/svg" xmlns:xlink="http://www.w3.org/1999/xlink" x="0px" y="0px"
	 viewBox="0 0 85.4 90" style="enable-background:new 0 0 85.4 90;" xml:space="preserve">
<style type="text/css">
	.st0{fill:#88A8BC;}
</style>
<g>
	<polygon class="st0" points="60,27.8 60,23.8 72.6,23.8 58,9.3 60.8,6.5 75.4,21 75.4,8.4 79.3,8.4 79.3,27.8 	"/>
	<polygon class="st0" points="10,69.1 10,81.6 6.1,81.6 6.1,62.3 25.4,62.3 25.4,66.3 12.8,66.3 27.4,80.8 24.6,83.6 	"/>
	<path class="st0" d="M42.7,81.6c-3.2,0-5.8-2.6-5.8-5.8V41.2c0-3.2,2.6-5.8,5.8-5.8h26.9c3.2,0,5.8,2.6,5.8,5.8v34.6
		c0,3.2-2.6,5.8-5.8,5.8L42.7,81.6L42.7,81.6z M40.8,77.6h30.7V39.2H40.8V77.6z"/>
	<path class="st0" d="M15.8,54.7c-3.2,0-5.8-2.6-5.8-5.8V14.3c0-3.2,2.6-5.8,5.8-5.8h26.9c3.2,0,5.8,2.6,5.8,5.8v13.5h-3.9V12.4
		H13.9v38.4h15.4v3.9C29.3,54.7,15.8,54.7,15.8,54.7z"/>
</g>
</svg>
