<?xml version="1.0" encoding="utf-8"?>
<!-- Generator: Adobe Illustrator 22.0.1, SVG Export Plug-In . SVG Version: 6.00 Build 0)  -->
<svg version="1.1" id="Capa_1" xmlns="http://www.w3.org/2000/svg" xmlns:xlink="http://www.w3.org/1999/xlink" x="0px" y="0px"
	 viewBox="0 0 294.4 403.4" style="enable-background:new 0 0 294.4 403.4;" xml:space="preserve">
<style type="text/css">
	.st0{fill:#41D3BC;}
</style>
<g>
	<circle class="st0" cx="234.3" cy="221.2" r="2.6"/>
	<path class="st0" d="M238.6,205.5c-1.4-0.4-2.9,0.4-3.3,1.8c-0.4,1.4,0.4,2.9,1.8,3.3s2.9-0.4,3.3-1.8
		C240.9,207.4,240.1,205.9,238.6,205.5z"/>
	<path class="st0" d="M241.2,237.5c-0.4,1.4,0.4,2.9,1.8,3.3c0.7,0.2,1.4,0.1,1.9-0.2c-0.6-1.6-1.1-3.3-1.6-5
		C242.4,235.7,241.5,236.5,241.2,237.5z"/>
	<path class="st0" d="M252.7,257.6c0.2,0.1,0.4,0.1,0.6,0.1c-0.8-1.3-1.5-2.6-2.2-3.9c-0.1,0.2-0.2,0.4-0.2,0.6
		C250.4,255.8,251.3,257.2,252.7,257.6z"/>
	<circle class="st0" cx="240.1" cy="251.4" r="2.6"/>
	<path class="st0" d="M260.4,271.4c-0.4,1.4,0.4,2.9,1.8,3.3c0.6,0.2,1.2,0.1,1.8-0.1c-0.9-1.5-1.9-2.9-2.8-4.4
		C260.8,270.5,260.5,270.9,260.4,271.4z"/>
	<path class="st0" d="M250.4,265.9c-1.4-0.4-2.9,0.4-3.3,1.8c-0.4,1.4,0.4,2.9,1.8,3.3c1.4,0.4,2.9-0.4,3.3-1.8
		C252.6,267.7,251.8,266.3,250.4,265.9z"/>
	<path class="st0" d="M237.1,262.2c-1.4-0.4-2.9,0.4-3.3,1.8c-0.4,1.4,0.4,2.9,1.8,3.3c1.4,0.4,2.9-0.4,3.3-1.8
		C239.3,264,238.5,262.6,237.1,262.2z"/>
	<path class="st0" d="M270,288.2c-0.4,1.4,0.4,2.9,1.8,3.3c0.7,0.2,1.4,0.1,2-0.3c-0.8-1.6-1.6-3.1-2.5-4.6
		C270.7,286.9,270.2,287.5,270,288.2z"/>
	<path class="st0" d="M260,282.7c-1.4-0.4-2.9,0.4-3.3,1.8s0.4,2.9,1.8,3.3c1.4,0.4,2.9-0.4,3.3-1.8S261.4,283.1,260,282.7z"/>
	<path class="st0" d="M246.7,279c-1.4-0.4-2.9,0.4-3.3,1.8s0.4,2.9,1.8,3.3c1.4,0.4,2.9-0.4,3.3-1.8S248.1,279.4,246.7,279z"/>
	<circle class="st0" cx="232.8" cy="277.9" r="2.6"/>
	<path class="st0" d="M280.6,308.1c-0.3-1-0.6-2.1-0.9-3.1c0,0.1-0.1,0.1-0.1,0.2C279.3,306.4,279.7,307.5,280.6,308.1z"/>
	<path class="st0" d="M269.6,299.7c-1.4-0.4-2.9,0.4-3.3,1.8c-0.4,1.4,0.4,2.9,1.8,3.3c1.4,0.4,2.9-0.4,3.3-1.8
		C271.8,301.6,271,300.1,269.6,299.7z"/>
	<path class="st0" d="M256.3,296.1c-1.4-0.4-2.9,0.4-3.3,1.8c-0.4,1.4,0.4,2.9,1.8,3.3c1.4,0.4,2.9-0.4,3.3-1.8
		C258.5,297.9,257.7,296.5,256.3,296.1z"/>
	<path class="st0" d="M243,292.4c-1.4-0.4-2.9,0.4-3.3,1.8c-0.4,1.4,0.4,2.9,1.8,3.3c1.4,0.4,2.9-0.4,3.3-1.8
		C245.3,294.2,244.4,292.8,243,292.4z"/>
	<path class="st0" d="M229.8,288.7c-1.4-0.4-2.9,0.4-3.3,1.8c-0.4,1.4,0.4,2.9,1.8,3.3c1.4,0.4,2.9-0.4,3.3-1.8
		C232,290.6,231.2,289.1,229.8,288.7z"/>
	<path class="st0" d="M279.2,316.6c-1.4-0.4-2.9,0.4-3.3,1.8c-0.4,1.4,0.4,2.9,1.8,3.3s2.9-0.4,3.3-1.8S280.6,317,279.2,316.6z"/>
	<path class="st0" d="M265.9,312.9c-1.4-0.4-2.9,0.4-3.3,1.8s0.4,2.9,1.8,3.3c1.4,0.4,2.9-0.4,3.3-1.8S267.3,313.3,265.9,312.9z"/>
	<path class="st0" d="M252.7,309.2c-1.4-0.4-2.9,0.4-3.3,1.8s0.4,2.9,1.8,3.3c1.4,0.4,2.9-0.4,3.3-1.8
		C254.9,311.1,254.1,309.6,252.7,309.2z"/>
	<path class="st0" d="M239.4,305.5c-1.4-0.4-2.9,0.4-3.3,1.8s0.4,2.9,1.8,3.3c1.4,0.4,2.9-0.4,3.3-1.8S240.8,305.9,239.4,305.5z"/>
	<circle class="st0" cx="225.4" cy="304.4" r="2.6"/>
	<path class="st0" d="M275.5,329.9c-1.4-0.4-2.9,0.4-3.3,1.8c-0.4,1.4,0.4,2.9,1.8,3.3s2.9-0.4,3.3-1.8
		C277.7,331.8,276.9,330.3,275.5,329.9z"/>
	<path class="st0" d="M262.2,326.3c-1.4-0.4-2.9,0.4-3.3,1.8c-0.4,1.4,0.4,2.9,1.8,3.3c1.4,0.4,2.9-0.4,3.3-1.8
		C264.5,328.1,263.6,326.6,262.2,326.3z"/>
	<path class="st0" d="M249,322.6c-1.4-0.4-2.9,0.4-3.3,1.8c-0.4,1.4,0.4,2.9,1.8,3.3c1.4,0.4,2.9-0.4,3.3-1.8
		C251.2,324.4,250.4,323,249,322.6z"/>
	<path class="st0" d="M235.7,318.9c-1.4-0.4-2.9,0.4-3.3,1.8c-0.4,1.4,0.4,2.9,1.8,3.3c1.4,0.4,2.9-0.4,3.3-1.8
		C237.9,320.7,237.1,319.3,235.7,318.9z"/>
	<path class="st0" d="M222.4,315.2c-1.4-0.4-2.9,0.4-3.3,1.8c-0.4,1.4,0.4,2.9,1.8,3.3c1.4,0.4,2.9-0.4,3.3-1.8
		C224.6,317.1,223.8,315.6,222.4,315.2z"/>
	<circle class="st0" cx="218.1" cy="330.9" r="2.6"/>
	<path class="st0" d="M232,332c-1.4-0.4-2.9,0.4-3.3,1.8c-0.4,1.4,0.4,2.9,1.8,3.3c1.4,0.4,2.9-0.4,3.3-1.8
		C234.3,333.9,233.4,332.4,232,332z"/>
	<path class="st0" d="M245.3,335.7c-1.4-0.4-2.9,0.4-3.3,1.8s0.4,2.9,1.8,3.3c1.4,0.4,2.9-0.4,3.3-1.8S246.7,336.1,245.3,335.7z"/>
	<path class="st0" d="M258.6,339.4c-1.4-0.4-2.9,0.4-3.3,1.8c-0.4,1.4,0.4,2.9,1.8,3.3c1.4,0.4,2.9-0.4,3.3-1.8
		S260,339.8,258.6,339.4z"/>
	<path class="st0" d="M271.8,343.1c-1.4-0.4-2.9,0.4-3.3,1.8s0.4,2.9,1.8,3.3c1.4,0.4,2.9-0.4,3.3-1.8S273.3,343.5,271.8,343.1z"/>
	<path class="st0" d="M281.9,348.6c-0.4,1.4,0.4,2.9,1.8,3.3c0.9,0.3,1.9,0,2.5-0.7c-0.1-1.3-0.2-2.7-0.3-4
		c-0.3-0.2-0.5-0.3-0.9-0.4C283.7,346.4,282.3,347.2,281.9,348.6z"/>
	<circle class="st0" cx="204.9" cy="327.3" r="2.6"/>
	<path class="st0" d="M231.3,232c-1.4-0.4-2.9,0.4-3.3,1.8c-0.4,1.4,0.4,2.9,1.8,3.3s2.9-0.4,3.3-1.8
		C233.5,233.9,232.7,232.4,231.3,232z"/>
	<circle class="st0" cx="227" cy="247.7" r="2.6"/>
	<path class="st0" d="M224,258.6c-1.4-0.4-2.9,0.4-3.3,1.8c-0.4,1.4,0.4,2.9,1.8,3.3c1.4,0.4,2.9-0.4,3.3-1.8
		C226.2,260.4,225.4,258.9,224,258.6z"/>
	<circle class="st0" cx="219.6" cy="274.3" r="2.6"/>
	<path class="st0" d="M216.6,285.1c-1.4-0.4-2.9,0.4-3.3,1.8c-0.4,1.4,0.4,2.9,1.8,3.3c1.4,0.4,2.9-0.4,3.3-1.8
		C218.8,286.9,218,285.5,216.6,285.1z"/>
	<circle class="st0" cx="212.3" cy="300.8" r="2.6"/>
	<path class="st0" d="M209.3,311.6c-1.4-0.4-2.9,0.4-3.3,1.8c-0.4,1.4,0.4,2.9,1.8,3.3c1.4,0.4,2.9-0.4,3.3-1.8
		C211.5,313.4,210.7,312,209.3,311.6z"/>
	<path class="st0" d="M281.4,360.1c-1.4-0.4-2.9,0.4-3.3,1.8c-0.4,1.4,0.4,2.9,1.8,3.3c1.4,0.4,2.9-0.4,3.3-1.8
		C283.6,362,282.8,360.5,281.4,360.1z"/>
	<path class="st0" d="M268.1,356.4c-1.4-0.4-2.9,0.4-3.3,1.8c-0.4,1.4,0.4,2.9,1.8,3.3c1.4,0.4,2.9-0.4,3.3-1.8
		C270.4,358.3,269.6,356.8,268.1,356.4z"/>
	<path class="st0" d="M254.9,352.8c-1.4-0.4-2.9,0.4-3.3,1.8c-0.4,1.4,0.4,2.9,1.8,3.3c1.4,0.4,2.9-0.4,3.3-1.8
		C257.1,354.6,256.3,353.2,254.9,352.8z"/>
	<path class="st0" d="M241.6,349.1c-1.4-0.4-2.9,0.4-3.3,1.8c-0.4,1.4,0.4,2.9,1.8,3.3c1.4,0.4,2.9-0.4,3.3-1.8
		C243.8,350.9,243,349.5,241.6,349.1z"/>
	<path class="st0" d="M228.3,345.4c-1.4-0.4-2.9,0.4-3.3,1.8c-0.4,1.4,0.4,2.9,1.8,3.3c1.4,0.4,2.9-0.4,3.3-1.8
		C230.6,347.3,229.7,345.8,228.3,345.4z"/>
	<path class="st0" d="M215.1,341.7c-1.4-0.4-2.9,0.4-3.3,1.8c-0.4,1.4,0.4,2.9,1.8,3.3c1.4,0.4,2.9-0.4,3.3-1.8
		C217.3,343.6,216.5,342.1,215.1,341.7z"/>
	<path class="st0" d="M277.8,373.3c-1.4-0.4-2.9,0.4-3.3,1.8s0.4,2.9,1.8,3.3c1.4,0.4,2.9-0.4,3.3-1.8
		C280,375.1,279.2,373.7,277.8,373.3z"/>
	<path class="st0" d="M264.5,369.6c-1.4-0.4-2.9,0.4-3.3,1.8c-0.4,1.4,0.4,2.9,1.8,3.3s2.9-0.4,3.3-1.8
		C266.7,371.4,265.9,370,264.5,369.6z"/>
	<path class="st0" d="M251.2,365.9c-1.4-0.4-2.9,0.4-3.3,1.8s0.4,2.9,1.8,3.3c1.4,0.4,2.9-0.4,3.3-1.8S252.6,366.3,251.2,365.9z"/>
	<path class="st0" d="M238,362.2c-1.4-0.4-2.9,0.4-3.3,1.8c-0.4,1.4,0.4,2.9,1.8,3.3c1.4,0.4,2.9-0.4,3.3-1.8S239.4,362.6,238,362.2
		z"/>
	<path class="st0" d="M224.7,358.6c-1.4-0.4-2.9,0.4-3.3,1.8s0.4,2.9,1.8,3.3c1.4,0.4,2.9-0.4,3.3-1.8S226.1,358.9,224.7,358.6z"/>
	<circle class="st0" cx="210.7" cy="357.4" r="2.6"/>
	<path class="st0" d="M272.7,391.7c1.4,0.4,2.9-0.4,3.3-1.8c0.4-1.4-0.4-2.9-1.8-3.3c-1.4-0.4-2.9,0.4-3.3,1.8
		C270.4,389.9,271.3,391.3,272.7,391.7z"/>
	<path class="st0" d="M260.8,383c-1.4-0.4-2.9,0.4-3.3,1.8c-0.4,1.4,0.4,2.9,1.8,3.3s2.9-0.4,3.3-1.8
		C263,384.8,262.2,383.3,260.8,383z"/>
	<path class="st0" d="M247.5,379.3c-1.4-0.4-2.9,0.4-3.3,1.8c-0.4,1.4,0.4,2.9,1.8,3.3c1.4,0.4,2.9-0.4,3.3-1.8
		C249.8,381.1,248.9,379.7,247.5,379.3z"/>
	<path class="st0" d="M234.3,375.6c-1.4-0.4-2.9,0.4-3.3,1.8c-0.4,1.4,0.4,2.9,1.8,3.3c1.4,0.4,2.9-0.4,3.3-1.8
		C236.5,377.4,235.7,376,234.3,375.6z"/>
	<path class="st0" d="M221,371.9c-1.4-0.4-2.9,0.4-3.3,1.8c-0.4,1.4,0.4,2.9,1.8,3.3c1.4,0.4,2.9-0.4,3.3-1.8
		C223.2,373.8,222.4,372.3,221,371.9z"/>
	<path class="st0" d="M207.7,368.2c-1.4-0.4-2.9,0.4-3.3,1.8c-0.4,1.4,0.4,2.9,1.8,3.3c1.4,0.4,2.9-0.4,3.3-1.8
		C210,370.1,209.1,368.6,207.7,368.2z"/>
	<path class="st0" d="M257.2,396.1c-1.4-0.4-2.9,0.4-3.3,1.8s0.4,2.9,1.8,3.3c1.4,0.4,2.9-0.4,3.3-1.8S258.6,396.5,257.2,396.1z"/>
	<path class="st0" d="M242.5,397.5c1.4,0.4,2.9-0.4,3.3-1.8s-0.4-2.9-1.8-3.3c-1.4-0.4-2.9,0.4-3.3,1.8S241.1,397.1,242.5,397.5z"/>
	<path class="st0" d="M230.6,388.7c-1.4-0.4-2.9,0.4-3.3,1.8s0.4,2.9,1.8,3.3c1.4,0.4,2.9-0.4,3.3-1.8S232,389.1,230.6,388.7z"/>
	<path class="st0" d="M217.3,385.1c-1.4-0.4-2.9,0.4-3.3,1.8s0.4,2.9,1.8,3.3c1.4,0.4,2.9-0.4,3.3-1.8
		C219.6,386.9,218.8,385.5,217.3,385.1z"/>
	<circle class="st0" cx="203.4" cy="383.9" r="2.6"/>
	<path class="st0" d="M201.9,338.1c-1.4-0.4-2.9,0.4-3.3,1.8c-0.4,1.4,0.4,2.9,1.8,3.3s2.9-0.4,3.3-1.8
		C204.1,339.9,203.3,338.5,201.9,338.1z"/>
	<circle class="st0" cx="197.6" cy="353.8" r="2.6"/>
	<path class="st0" d="M194.6,364.6c-1.4-0.4-2.9,0.4-3.3,1.8c-0.4,1.4,0.4,2.9,1.8,3.3s2.9-0.4,3.3-1.8
		C196.8,366.4,196,365,194.6,364.6z"/>
	<path class="st0" d="M190.9,377.7c-1.4-0.4-2.8,0.4-3.2,1.8c1.5,0.9,3,1.7,4.5,2.5c0.3-0.3,0.5-0.6,0.6-1.1
		C193.2,379.6,192.3,378.1,190.9,377.7z"/>
	<path class="st0" d="M194.3,56c0.5,0.1,1,0.1,1.5,0c-1-1.4-1.9-2.8-2.9-4.1c-0.2,0.3-0.3,0.5-0.4,0.9
		C192.1,54.2,192.9,55.6,194.3,56z"/>
	<circle class="st0" cx="181.8" cy="49.8" r="2.6"/>
	<path class="st0" d="M202.1,69.6c-0.4,1.4,0.4,2.9,1.8,3.3c0.8,0.2,1.7,0,2.3-0.5c-0.9-1.5-1.8-3-2.7-4.5
		C202.9,68.2,202.3,68.8,202.1,69.6z"/>
	<path class="st0" d="M192.1,64.1c-1.4-0.4-2.9,0.4-3.3,1.8c-0.4,1.4,0.4,2.9,1.8,3.3c1.4,0.4,2.9-0.4,3.3-1.8
		C194.3,65.9,193.5,64.5,192.1,64.1z"/>
	<circle class="st0" cx="178.1" cy="62.9" r="2.6"/>
	<path class="st0" d="M211.7,86.6c-0.4,1.4,0.4,2.9,1.8,3.3c1.1,0.3,2.3-0.2,2.9-1.1c-0.9-1.4-1.7-2.7-2.6-4.1
		C212.9,84.9,212,85.6,211.7,86.6z"/>
	<path class="st0" d="M201.7,81.1c-1.4-0.4-2.9,0.4-3.3,1.8c-0.4,1.4,0.4,2.9,1.8,3.3c1.4,0.4,2.9-0.4,3.3-1.8
		C203.9,83,203.1,81.5,201.7,81.1z"/>
	<path class="st0" d="M188.4,77.4c-1.4-0.4-2.9,0.4-3.3,1.8s0.4,2.9,1.8,3.3c1.4,0.4,2.9-0.4,3.3-1.8S189.8,77.8,188.4,77.4z"/>
	<circle class="st0" cx="174.4" cy="76.3" r="2.6"/>
	<circle class="st0" cx="170.8" cy="89.5" r="2.6"/>
	<path class="st0" d="M184.8,90.6c-1.4-0.4-2.9,0.4-3.3,1.8c-0.4,1.4,0.4,2.9,1.8,3.3c1.4,0.4,2.9-0.4,3.3-1.8S186.2,91,184.8,90.6z
		"/>
	<path class="st0" d="M211.3,97.9c-1.4-0.4-2.9,0.4-3.3,1.8c-0.4,1.4,0.4,2.9,1.8,3.3c1.4,0.4,2.9-0.4,3.3-1.8
		S212.7,98.3,211.3,97.9z"/>
	<path class="st0" d="M221.3,103.5c-0.4,1.4,0.4,2.9,1.8,3.3c1.3,0.4,2.7-0.4,3.2-1.7c-0.6-1.2-1.2-2.3-1.9-3.5
		C223.1,101.3,221.7,102.1,221.3,103.5z"/>
	<circle class="st0" cx="157.6" cy="85.8" r="2.6"/>
	<circle class="st0" cx="168.6" cy="46.2" r="2.6"/>
	<circle class="st0" cx="165" cy="59.3" r="2.6"/>
	<circle class="st0" cx="161.3" cy="72.7" r="2.6"/>
	<path class="st0" d="M196.6,99.4c1.4,0.4,2.9-0.4,3.3-1.8c0.4-1.4-0.4-2.9-1.8-3.3c-1.4-0.4-2.9,0.4-3.3,1.8S195.2,99,196.6,99.4z"
		/>
	<path class="st0" d="M230.9,120.5c-0.4,1.4,0.4,2.9,1.8,3.3c0.5,0.1,0.9,0.1,1.4,0c-0.5-1.7-1.1-3.3-1.7-5
		C231.7,119.1,231.1,119.7,230.9,120.5z"/>
	<path class="st0" d="M220.9,115c-1.4-0.4-2.9,0.4-3.3,1.8c-0.4,1.4,0.4,2.9,1.8,3.3s2.9-0.4,3.3-1.8
		C223.1,116.8,222.3,115.4,220.9,115z"/>
	<path class="st0" d="M207.6,111.3c-1.4-0.4-2.9,0.4-3.3,1.8c-0.4,1.4,0.4,2.9,1.8,3.3c1.4,0.4,2.9-0.4,3.3-1.8
		C209.8,113.1,209,111.7,207.6,111.3z"/>
	<path class="st0" d="M192.9,112.7c1.4,0.4,2.9-0.4,3.3-1.8c0.4-1.4-0.4-2.9-1.8-3.3c-1.4-0.4-2.9,0.4-3.3,1.8
		C190.7,110.9,191.5,112.3,192.9,112.7z"/>
	<path class="st0" d="M181.1,103.9c-1.4-0.4-2.9,0.4-3.3,1.8c-0.4,1.4,0.4,2.9,1.8,3.3c1.4,0.4,2.9-0.4,3.3-1.8
		C183.3,105.8,182.5,104.3,181.1,103.9z"/>
	<path class="st0" d="M167.8,100.3c-1.4-0.4-2.9,0.4-3.3,1.8c-0.4,1.4,0.4,2.9,1.8,3.3c1.4,0.4,2.9-0.4,3.3-1.8
		C170,102.1,169.2,100.7,167.8,100.3z"/>
	<path class="st0" d="M230.5,131.8c-1.4-0.4-2.9,0.4-3.3,1.8c-0.4,1.4,0.4,2.9,1.8,3.3c1.4,0.4,2.9-0.4,3.3-1.8
		C232.7,133.6,231.9,132.2,230.5,131.8z"/>
	<path class="st0" d="M217.2,128.1c-1.4-0.4-2.9,0.4-3.3,1.8s0.4,2.9,1.8,3.3c1.4,0.4,2.9-0.4,3.3-1.8S218.6,128.5,217.2,128.1z"/>
	<path class="st0" d="M204,124.5c-1.4-0.4-2.9,0.4-3.3,1.8s0.4,2.9,1.8,3.3c1.4,0.4,2.9-0.4,3.3-1.8S205.4,124.8,204,124.5z"/>
	<path class="st0" d="M190.7,120.8c-1.4-0.4-2.9,0.4-3.3,1.8c-0.4,1.4,0.4,2.9,1.8,3.3c1.4,0.4,2.9-0.4,3.3-1.8
		C192.9,122.6,192.1,121.2,190.7,120.8z"/>
	<path class="st0" d="M177.4,117.1c-1.4-0.4-2.9,0.4-3.3,1.8s0.4,2.9,1.8,3.3c1.4,0.4,2.9-0.4,3.3-1.8S178.8,117.5,177.4,117.1z"/>
	<circle class="st0" cx="163.4" cy="116" r="2.6"/>
	<path class="st0" d="M236.8,150.7c-0.4,1.4,0.4,2.9,1.8,3.3c0.7,0.2,1.4,0.1,1.9-0.2c-0.2-1.6-0.4-3.3-0.7-4.9
		C238.6,148.5,237.2,149.3,236.8,150.7z"/>
	<path class="st0" d="M226.8,145.2c-1.4-0.4-2.9,0.4-3.3,1.8c-0.4,1.4,0.4,2.9,1.8,3.3c1.4,0.4,2.9-0.4,3.3-1.8
		C229,147,228.2,145.6,226.8,145.2z"/>
	<path class="st0" d="M213.5,141.5c-1.4-0.4-2.9,0.4-3.3,1.8c-0.4,1.4,0.4,2.9,1.8,3.3c1.4,0.4,2.9-0.4,3.3-1.8
		C215.8,143.3,214.9,141.9,213.5,141.5z"/>
	<path class="st0" d="M200.3,137.8c-1.4-0.4-2.9,0.4-3.3,1.8c-0.4,1.4,0.4,2.9,1.8,3.3c1.4,0.4,2.9-0.4,3.3-1.8
		C202.5,139.7,201.7,138.2,200.3,137.8z"/>
	<path class="st0" d="M187,134.1c-1.4-0.4-2.9,0.4-3.3,1.8c-0.4,1.4,0.4,2.9,1.8,3.3c1.4,0.4,2.9-0.4,3.3-1.8
		C189.2,136,188.4,134.5,187,134.1z"/>
	<path class="st0" d="M173.7,130.5c-1.4-0.4-2.9,0.4-3.3,1.8c-0.4,1.4,0.4,2.9,1.8,3.3c1.4,0.4,2.9-0.4,3.3-1.8
		C175.9,132.3,175.1,130.8,173.7,130.5z"/>
	<path class="st0" d="M160.4,126.8c-1.4-0.4-2.9,0.4-3.3,1.8c-0.4,1.4,0.4,2.9,1.8,3.3c1.4,0.4,2.9-0.4,3.3-1.8
		C162.7,128.6,161.9,127.2,160.4,126.8z"/>
	<path class="st0" d="M236.4,162c-1.4-0.4-2.9,0.4-3.3,1.8s0.4,2.9,1.8,3.3c1.4,0.4,2.9-0.4,3.3-1.8
		C238.7,163.8,237.8,162.4,236.4,162z"/>
	<path class="st0" d="M223.2,158.3c-1.4-0.4-2.9,0.4-3.3,1.8c-0.4,1.4,0.4,2.9,1.8,3.3c1.4,0.4,2.9-0.4,3.3-1.8
		C225.4,160.2,224.6,158.7,223.2,158.3z"/>
	<path class="st0" d="M209.9,154.6c-1.4-0.4-2.9,0.4-3.3,1.8s0.4,2.9,1.8,3.3c1.4,0.4,2.9-0.4,3.3-1.8
		C212.1,156.5,211.3,155,209.9,154.6z"/>
	<path class="st0" d="M196.6,151c-1.4-0.4-2.9,0.4-3.3,1.8s0.4,2.9,1.8,3.3c1.4,0.4,2.9-0.4,3.3-1.8S198,151.4,196.6,151z"/>
	<path class="st0" d="M183.3,147.3c-1.4-0.4-2.9,0.4-3.3,1.8s0.4,2.9,1.8,3.3c1.4,0.4,2.9-0.4,3.3-1.8
		C185.6,149.1,184.7,147.7,183.3,147.3z"/>
	<path class="st0" d="M170.1,143.6c-1.4-0.4-2.9,0.4-3.3,1.8c-0.4,1.4,0.4,2.9,1.8,3.3c1.4,0.4,2.9-0.4,3.3-1.8
		C172.3,145.5,171.5,144,170.1,143.6z"/>
	<circle class="st0" cx="156.1" cy="142.5" r="2.6"/>
	<path class="st0" d="M232.7,175.4c-1.4-0.4-2.9,0.4-3.3,1.8c-0.4,1.4,0.4,2.9,1.8,3.3c1.4,0.4,2.9-0.4,3.3-1.8
		C235,177.2,234.1,175.7,232.7,175.4z"/>
	<path class="st0" d="M219.5,171.7c-1.4-0.4-2.9,0.4-3.3,1.8c-0.4,1.4,0.4,2.9,1.8,3.3c1.4,0.4,2.9-0.4,3.3-1.8
		C221.7,173.5,220.9,172.1,219.5,171.7z"/>
	<path class="st0" d="M206.2,168c-1.4-0.4-2.9,0.4-3.3,1.8c-0.4,1.4,0.4,2.9,1.8,3.3c1.4,0.4,2.9-0.4,3.3-1.8
		C208.4,169.8,207.6,168.4,206.2,168z"/>
	<path class="st0" d="M192.9,164.3c-1.4-0.4-2.9,0.4-3.3,1.8c-0.4,1.4,0.4,2.9,1.8,3.3c1.4,0.4,2.9-0.4,3.3-1.8
		C195.1,166.2,194.3,164.7,192.9,164.3z"/>
	<path class="st0" d="M179.6,160.6c-1.4-0.4-2.9,0.4-3.3,1.8c-0.4,1.4,0.4,2.9,1.8,3.3c1.4,0.4,2.9-0.4,3.3-1.8
		C181.9,162.5,181,161,179.6,160.6z"/>
	<path class="st0" d="M166.4,157c-1.4-0.4-2.9,0.4-3.3,1.8c-0.4,1.4,0.4,2.9,1.8,3.3c1.4,0.4,2.9-0.4,3.3-1.8
		C168.6,158.8,167.8,157.4,166.4,157z"/>
	<path class="st0" d="M153.1,153.3c-1.4-0.4-2.9,0.4-3.3,1.8c-0.4,1.4,0.4,2.9,1.8,3.3c1.4,0.4,2.9-0.4,3.3-1.8
		C155.3,155.1,154.5,153.7,153.1,153.3z"/>
	<path class="st0" d="M229.1,188.5c-1.4-0.4-2.9,0.4-3.3,1.8c-0.4,1.4,0.4,2.9,1.8,3.3c1.4,0.4,2.9-0.4,3.3-1.8
		C231.3,190.3,230.5,188.9,229.1,188.5z"/>
	<path class="st0" d="M215.8,184.8c-1.4-0.4-2.9,0.4-3.3,1.8c-0.4,1.4,0.4,2.9,1.8,3.3c1.4,0.4,2.9-0.4,3.3-1.8
		C218,186.7,217.2,185.2,215.8,184.8z"/>
	<path class="st0" d="M202.5,181.1c-1.4-0.4-2.9,0.4-3.3,1.8c-0.4,1.4,0.4,2.9,1.8,3.3c1.4,0.4,2.9-0.4,3.3-1.8
		S203.9,181.5,202.5,181.1z"/>
	<path class="st0" d="M189.3,177.5c-1.4-0.4-2.9,0.4-3.3,1.8s0.4,2.9,1.8,3.3c1.4,0.4,2.9-0.4,3.3-1.8
		C191.5,179.3,190.7,177.9,189.3,177.5z"/>
	<path class="st0" d="M176,173.8c-1.4-0.4-2.9,0.4-3.3,1.8s0.4,2.9,1.8,3.3c1.4,0.4,2.9-0.4,3.3-1.8S177.4,174.2,176,173.8z"/>
	<path class="st0" d="M162.7,170.1c-1.4-0.4-2.9,0.4-3.3,1.8c-0.4,1.4,0.4,2.9,1.8,3.3c1.4,0.4,2.9-0.4,3.3-1.8
		C165,172,164.1,170.5,162.7,170.1z"/>
	<circle class="st0" cx="148.8" cy="169" r="2.6"/>
	<path class="st0" d="M225.4,201.9c-1.4-0.4-2.9,0.4-3.3,1.8c-0.4,1.4,0.4,2.9,1.8,3.3c1.4,0.4,2.9-0.4,3.3-1.8
		C227.6,203.7,226.8,202.3,225.4,201.9z"/>
	<path class="st0" d="M212.1,198.2c-1.4-0.4-2.9,0.4-3.3,1.8c-0.4,1.4,0.4,2.9,1.8,3.3c1.4,0.4,2.9-0.4,3.3-1.8
		C214.3,200,213.5,198.6,212.1,198.2z"/>
	<path class="st0" d="M198.8,194.5c-1.4-0.4-2.9,0.4-3.3,1.8c-0.4,1.4,0.4,2.9,1.8,3.3c1.4,0.4,2.9-0.4,3.3-1.8
		C201.1,196.4,200.2,194.9,198.8,194.5z"/>
	<path class="st0" d="M185.6,190.8c-1.4-0.4-2.9,0.4-3.3,1.8c-0.4,1.4,0.4,2.9,1.8,3.3c1.4,0.4,2.9-0.4,3.3-1.8
		C187.8,192.7,187,191.2,185.6,190.8z"/>
	<path class="st0" d="M172.3,187.2c-1.4-0.4-2.9,0.4-3.3,1.8c-0.4,1.4,0.4,2.9,1.8,3.3c1.4,0.4,2.9-0.4,3.3-1.8
		C174.5,189,173.7,187.5,172.3,187.2z"/>
	<path class="st0" d="M159,183.5c-1.4-0.4-2.9,0.4-3.3,1.8c-0.4,1.4,0.4,2.9,1.8,3.3c1.4,0.4,2.9-0.4,3.3-1.8
		C161.3,185.3,160.4,183.9,159,183.5z"/>
	<path class="st0" d="M145.8,179.8c-1.4-0.4-2.9,0.4-3.3,1.8c-0.4,1.4,0.4,2.9,1.8,3.3c1.4,0.4,2.9-0.4,3.3-1.8
		C148,181.6,147.2,180.2,145.8,179.8z"/>
	<path class="st0" d="M239.1,194c-0.4,1.4,0.4,2.9,1.8,3.3c0.5,0.1,0.9,0.1,1.4,0c0.1-1.7,0.1-3.4,0.1-5.1c0,0-0.1,0-0.1,0
		C240.9,191.8,239.5,192.6,239.1,194z"/>
	<circle class="st0" cx="141.4" cy="195.5" r="2.6"/>
	<path class="st0" d="M155.4,196.6c-1.4-0.4-2.9,0.4-3.3,1.8c-0.4,1.4,0.4,2.9,1.8,3.3c1.4,0.4,2.9-0.4,3.3-1.8
		S156.8,197,155.4,196.6z"/>
	<path class="st0" d="M168.7,200.3c-1.4-0.4-2.9,0.4-3.3,1.8s0.4,2.9,1.8,3.3c1.4,0.4,2.9-0.4,3.3-1.8
		C170.9,202.1,170.1,200.7,168.7,200.3z"/>
	<path class="st0" d="M181.9,204c-1.4-0.4-2.9,0.4-3.3,1.8c-0.4,1.4,0.4,2.9,1.8,3.3c1.4,0.4,2.9-0.4,3.3-1.8S183.3,204.4,181.9,204
		z"/>
	<path class="st0" d="M195.2,207.7c-1.4-0.4-2.9,0.4-3.3,1.8s0.4,2.9,1.8,3.3c1.4,0.4,2.9-0.4,3.3-1.8S196.6,208,195.2,207.7z"/>
	<path class="st0" d="M208.5,211.3c-1.4-0.4-2.9,0.4-3.3,1.8c-0.4,1.4,0.4,2.9,1.8,3.3c1.4,0.4,2.9-0.4,3.3-1.8
		S209.9,211.7,208.5,211.3z"/>
	<path class="st0" d="M221.7,215c-1.4-0.4-2.9,0.4-3.3,1.8s0.4,2.9,1.8,3.3c1.4,0.4,2.9-0.4,3.3-1.8
		C224,216.9,223.1,215.4,221.7,215z"/>
	<circle class="st0" cx="128.3" cy="191.9" r="2.6"/>
	<path class="st0" d="M154.6,96.6c-1.4-0.4-2.9,0.4-3.3,1.8c-0.4,1.4,0.4,2.9,1.8,3.3c1.4,0.4,2.9-0.4,3.3-1.8
		C156.9,98.5,156,97,154.6,96.6z"/>
	<circle class="st0" cx="150.3" cy="112.3" r="2.6"/>
	<path class="st0" d="M147.3,123.1c-1.4-0.4-2.9,0.4-3.3,1.8c-0.4,1.4,0.4,2.9,1.8,3.3s2.9-0.4,3.3-1.8
		C149.5,125,148.7,123.5,147.3,123.1z"/>
	<circle class="st0" cx="142.9" cy="138.8" r="2.6"/>
	<path class="st0" d="M140,149.6c-1.4-0.4-2.9,0.4-3.3,1.8c-0.4,1.4,0.4,2.9,1.8,3.3c1.4,0.4,2.9-0.4,3.3-1.8
		C142.2,151.5,141.4,150,140,149.6z"/>
	<circle class="st0" cx="135.6" cy="165.3" r="2.6"/>
	<path class="st0" d="M132.6,176.2c-1.4-0.4-2.9,0.4-3.3,1.8c-0.4,1.4,0.4,2.9,1.8,3.3s2.9-0.4,3.3-1.8
		C134.8,178,134,176.5,132.6,176.2z"/>
	<path class="st0" d="M218,228.4c-1.4-0.4-2.9,0.4-3.3,1.8c-0.4,1.4,0.4,2.9,1.8,3.3c1.4,0.4,2.9-0.4,3.3-1.8
		C220.3,230.2,219.4,228.8,218,228.4z"/>
	<path class="st0" d="M204.8,224.7c-1.4-0.4-2.9,0.4-3.3,1.8c-0.4,1.4,0.4,2.9,1.8,3.3c1.4,0.4,2.9-0.4,3.3-1.8
		C207,226.5,206.2,225.1,204.8,224.7z"/>
	<path class="st0" d="M191.5,221c-1.4-0.4-2.9,0.4-3.3,1.8c-0.4,1.4,0.4,2.9,1.8,3.3s2.9-0.4,3.3-1.8
		C193.7,222.9,192.9,221.4,191.5,221z"/>
	<path class="st0" d="M178.2,217.3c-1.4-0.4-2.9,0.4-3.3,1.8c-0.4,1.4,0.4,2.9,1.8,3.3c1.4,0.4,2.9-0.4,3.3-1.8
		C180.4,219.2,179.6,217.7,178.2,217.3z"/>
	<path class="st0" d="M165,213.7c-1.4-0.4-2.9,0.4-3.3,1.8c-0.4,1.4,0.4,2.9,1.8,3.3c1.4,0.4,2.9-0.4,3.3-1.8
		C167.2,215.5,166.4,214.1,165,213.7z"/>
	<path class="st0" d="M151.7,210c-1.4-0.4-2.9,0.4-3.3,1.8c-0.4,1.4,0.4,2.9,1.8,3.3c1.4,0.4,2.9-0.4,3.3-1.8
		C153.9,211.8,153.1,210.4,151.7,210z"/>
	<path class="st0" d="M138.4,206.3c-1.4-0.4-2.9,0.4-3.3,1.8c-0.4,1.4,0.4,2.9,1.8,3.3c1.4,0.4,2.9-0.4,3.3-1.8
		C140.6,208.2,139.8,206.7,138.4,206.3z"/>
	<path class="st0" d="M214.4,241.5c-1.4-0.4-2.9,0.4-3.3,1.8s0.4,2.9,1.8,3.3c1.4,0.4,2.9-0.4,3.3-1.8
		C216.6,243.4,215.8,241.9,214.4,241.5z"/>
	<path class="st0" d="M201.1,237.8c-1.4-0.4-2.9,0.4-3.3,1.8c-0.4,1.4,0.4,2.9,1.8,3.3c1.4,0.4,2.9-0.4,3.3-1.8
		S202.5,238.2,201.1,237.8z"/>
	<path class="st0" d="M187.8,234.2c-1.4-0.4-2.9,0.4-3.3,1.8s0.4,2.9,1.8,3.3c1.4,0.4,2.9-0.4,3.3-1.8S189.3,234.6,187.8,234.2z"/>
	<path class="st0" d="M174.6,230.5c-1.4-0.4-2.9,0.4-3.3,1.8s0.4,2.9,1.8,3.3c1.4,0.4,2.9-0.4,3.3-1.8S176,230.9,174.6,230.5z"/>
	<path class="st0" d="M161.3,226.8c-1.4-0.4-2.9,0.4-3.3,1.8c-0.4,1.4,0.4,2.9,1.8,3.3c1.4,0.4,2.9-0.4,3.3-1.8
		C163.5,228.7,162.7,227.2,161.3,226.8z"/>
	<path class="st0" d="M148,223.1c-1.4-0.4-2.9,0.4-3.3,1.8c-0.4,1.4,0.4,2.9,1.8,3.3c1.4,0.4,2.9-0.4,3.3-1.8S149.4,223.5,148,223.1
		z"/>
	<circle class="st0" cx="134.1" cy="222" r="2.6"/>
	<path class="st0" d="M210.7,254.9c-1.4-0.4-2.9,0.4-3.3,1.8c-0.4,1.4,0.4,2.9,1.8,3.3c1.4,0.4,2.9-0.4,3.3-1.8
		C212.9,256.7,212.1,255.3,210.7,254.9z"/>
	<path class="st0" d="M197.4,251.2c-1.4-0.4-2.9,0.4-3.3,1.8c-0.4,1.4,0.4,2.9,1.8,3.3c1.4,0.4,2.9-0.4,3.3-1.8
		C199.6,253,198.8,251.6,197.4,251.2z"/>
	<path class="st0" d="M184.1,247.5c-1.4-0.4-2.9,0.4-3.3,1.8c-0.4,1.4,0.4,2.9,1.8,3.3s2.9-0.4,3.3-1.8
		C186.4,249.4,185.6,247.9,184.1,247.5z"/>
	<path class="st0" d="M170.9,243.9c-1.4-0.4-2.9,0.4-3.3,1.8c-0.4,1.4,0.4,2.9,1.8,3.3c1.4,0.4,2.9-0.4,3.3-1.8
		C173.1,245.7,172.3,244.2,170.9,243.9z"/>
	<path class="st0" d="M157.6,240.2c-1.4-0.4-2.9,0.4-3.3,1.8c-0.4,1.4,0.4,2.9,1.8,3.3c1.4,0.4,2.9-0.4,3.3-1.8
		C159.8,242,159,240.6,157.6,240.2z"/>
	<path class="st0" d="M144.3,236.5c-1.4-0.4-2.9,0.4-3.3,1.8c-0.4,1.4,0.4,2.9,1.8,3.3c1.4,0.4,2.9-0.4,3.3-1.8
		C146.6,238.3,145.7,236.9,144.3,236.5z"/>
	<path class="st0" d="M131.1,232.8c-1.4-0.4-2.9,0.4-3.3,1.8c-0.4,1.4,0.4,2.9,1.8,3.3c1.4,0.4,2.9-0.4,3.3-1.8
		C133.3,234.7,132.5,233.2,131.1,232.8z"/>
	<path class="st0" d="M207,268c-1.4-0.4-2.9,0.4-3.3,1.8s0.4,2.9,1.8,3.3c1.4,0.4,2.9-0.4,3.3-1.8C209.3,269.9,208.4,268.4,207,268z
		"/>
	<path class="st0" d="M193.8,264.4c-1.4-0.4-2.9,0.4-3.3,1.8s0.4,2.9,1.8,3.3c1.4,0.4,2.9-0.4,3.3-1.8S195.2,264.7,193.8,264.4z"/>
	<path class="st0" d="M180.5,260.7c-1.4-0.4-2.9,0.4-3.3,1.8c-0.4,1.4,0.4,2.9,1.8,3.3s2.9-0.4,3.3-1.8
		C182.7,262.5,181.9,261.1,180.5,260.7z"/>
	<path class="st0" d="M167.2,257c-1.4-0.4-2.9,0.4-3.3,1.8s0.4,2.9,1.8,3.3c1.4,0.4,2.9-0.4,3.3-1.8S168.6,257.4,167.2,257z"/>
	<path class="st0" d="M154,253.3c-1.4-0.4-2.9,0.4-3.3,1.8c-0.4,1.4,0.4,2.9,1.8,3.3c1.4,0.4,2.9-0.4,3.3-1.8
		C156.2,255.2,155.4,253.7,154,253.3z"/>
	<path class="st0" d="M140.7,249.6c-1.4-0.4-2.9,0.4-3.3,1.8s0.4,2.9,1.8,3.3c1.4,0.4,2.9-0.4,3.3-1.8S142.1,250,140.7,249.6z"/>
	<circle class="st0" cx="126.7" cy="248.5" r="2.6"/>
	<path class="st0" d="M203.3,281.4c-1.4-0.4-2.9,0.4-3.3,1.8c-0.4,1.4,0.4,2.9,1.8,3.3c1.4,0.4,2.9-0.4,3.3-1.8
		C205.6,283.2,204.7,281.8,203.3,281.4z"/>
	<path class="st0" d="M190.1,277.7c-1.4-0.4-2.9,0.4-3.3,1.8c-0.4,1.4,0.4,2.9,1.8,3.3c1.4,0.4,2.9-0.4,3.3-1.8
		C192.3,279.6,191.5,278.1,190.1,277.7z"/>
	<path class="st0" d="M176.8,274c-1.4-0.4-2.9,0.4-3.3,1.8c-0.4,1.4,0.4,2.9,1.8,3.3s2.9-0.4,3.3-1.8
		C179,275.9,178.2,274.4,176.8,274z"/>
	<path class="st0" d="M163.5,270.4c-1.4-0.4-2.9,0.4-3.3,1.8c-0.4,1.4,0.4,2.9,1.8,3.3c1.4,0.4,2.9-0.4,3.3-1.8
		C165.8,272.2,164.9,270.8,163.5,270.4z"/>
	<path class="st0" d="M150.3,266.7c-1.4-0.4-2.9,0.4-3.3,1.8c-0.4,1.4,0.4,2.9,1.8,3.3c1.4,0.4,2.9-0.4,3.3-1.8
		C152.5,268.5,151.7,267.1,150.3,266.7z"/>
	<path class="st0" d="M137,263c-1.4-0.4-2.9,0.4-3.3,1.8c-0.4,1.4,0.4,2.9,1.8,3.3c1.4,0.4,2.9-0.4,3.3-1.8
		C139.2,264.9,138.4,263.4,137,263z"/>
	<path class="st0" d="M123.7,259.3c-1.4-0.4-2.9,0.4-3.3,1.8c-0.4,1.4,0.4,2.9,1.8,3.3c1.4,0.4,2.9-0.4,3.3-1.8
		C125.9,261.2,125.1,259.7,123.7,259.3z"/>
	<path class="st0" d="M199.7,294.5c-1.4-0.4-2.9,0.4-3.3,1.8c-0.4,1.4,0.4,2.9,1.8,3.3c1.4,0.4,2.9-0.4,3.3-1.8
		S201.1,294.9,199.7,294.5z"/>
	<path class="st0" d="M186.4,290.9c-1.4-0.4-2.9,0.4-3.3,1.8c-0.4,1.4,0.4,2.9,1.8,3.3c1.4,0.4,2.9-0.4,3.3-1.8
		C188.7,292.7,187.8,291.3,186.4,290.9z"/>
	<path class="st0" d="M173.2,287.2c-1.4-0.4-2.9,0.4-3.3,1.8c-0.4,1.4,0.4,2.9,1.8,3.3s2.9-0.4,3.3-1.8
		C175.4,289,174.6,287.6,173.2,287.2z"/>
	<path class="st0" d="M159.9,283.5c-1.4-0.4-2.9,0.4-3.3,1.8c-0.4,1.4,0.4,2.9,1.8,3.3c1.4,0.4,2.9-0.4,3.3-1.8
		C162.1,285.4,161.3,283.9,159.9,283.5z"/>
	<path class="st0" d="M146.6,279.8c-1.4-0.4-2.9,0.4-3.3,1.8s0.4,2.9,1.8,3.3c1.4,0.4,2.9-0.4,3.3-1.8S148,280.2,146.6,279.8z"/>
	<path class="st0" d="M133.3,276.2c-1.4-0.4-2.9,0.4-3.3,1.8c-0.4,1.4,0.4,2.9,1.8,3.3c1.4,0.4,2.9-0.4,3.3-1.8
		C135.6,278,134.8,276.5,133.3,276.2z"/>
	<circle class="st0" cx="119.4" cy="275" r="2.6"/>
	<path class="st0" d="M196,307.9c-1.4-0.4-2.9,0.4-3.3,1.8c-0.4,1.4,0.4,2.9,1.8,3.3c1.4,0.4,2.9-0.4,3.3-1.8
		C198.2,309.7,197.4,308.3,196,307.9z"/>
	<path class="st0" d="M182.7,304.2c-1.4-0.4-2.9,0.4-3.3,1.8c-0.4,1.4,0.4,2.9,1.8,3.3c1.4,0.4,2.9-0.4,3.3-1.8
		C185,306.1,184.1,304.6,182.7,304.2z"/>
	<path class="st0" d="M169.5,300.5c-1.4-0.4-2.9,0.4-3.3,1.8c-0.4,1.4,0.4,2.9,1.8,3.3c1.4,0.4,2.9-0.4,3.3-1.8
		C171.7,302.4,170.9,300.9,169.5,300.5z"/>
	<path class="st0" d="M156.2,296.9c-1.4-0.4-2.9,0.4-3.3,1.8c-0.4,1.4,0.4,2.9,1.8,3.3c1.4,0.4,2.9-0.4,3.3-1.8
		C158.4,298.7,157.6,297.3,156.2,296.9z"/>
	<path class="st0" d="M142.9,293.2c-1.4-0.4-2.9,0.4-3.3,1.8c-0.4,1.4,0.4,2.9,1.8,3.3c1.4,0.4,2.9-0.4,3.3-1.8
		C145.1,295,144.3,293.6,142.9,293.2z"/>
	<path class="st0" d="M129.6,289.5c-1.4-0.4-2.9,0.4-3.3,1.8c-0.4,1.4,0.4,2.9,1.8,3.3c1.4,0.4,2.9-0.4,3.3-1.8
		C131.9,291.4,131,289.9,129.6,289.5z"/>
	<path class="st0" d="M116.4,285.8c-1.4-0.4-2.9,0.4-3.3,1.8c-0.4,1.4,0.4,2.9,1.8,3.3c1.4,0.4,2.9-0.4,3.3-1.8
		C118.6,287.7,117.8,286.2,116.4,285.8z"/>
	<path class="st0" d="M126,302.7c-1.4-0.4-2.9,0.4-3.3,1.8c-0.4,1.4,0.4,2.9,1.8,3.3c1.4,0.4,2.9-0.4,3.3-1.8
		C128.2,304.5,127.4,303.1,126,302.7z"/>
	<path class="st0" d="M139.3,306.3c-1.4-0.4-2.9,0.4-3.3,1.8c-0.4,1.4,0.4,2.9,1.8,3.3c1.4,0.4,2.9-0.4,3.3-1.8
		S140.7,306.7,139.3,306.3z"/>
	<path class="st0" d="M152.5,310c-1.4-0.4-2.9,0.4-3.3,1.8c-0.4,1.4,0.4,2.9,1.8,3.3c1.4,0.4,2.9-0.4,3.3-1.8S153.9,310.4,152.5,310
		z"/>
	<path class="st0" d="M165.8,313.7c-1.4-0.4-2.9,0.4-3.3,1.8c-0.4,1.4,0.4,2.9,1.8,3.3c1.4,0.4,2.9-0.4,3.3-1.8
		S167.2,314.1,165.8,313.7z"/>
	<path class="st0" d="M179.1,317.4c-1.4-0.4-2.9,0.4-3.3,1.8c-0.4,1.4,0.4,2.9,1.8,3.3c1.4,0.4,2.9-0.4,3.3-1.8
		S180.5,317.8,179.1,317.4z"/>
	<path class="st0" d="M192.4,321.1c-1.4-0.4-2.9,0.4-3.3,1.8s0.4,2.9,1.8,3.3c1.4,0.4,2.9-0.4,3.3-1.8S193.8,321.4,192.4,321.1z"/>
	<path class="st0" d="M125.3,202.7c-1.4-0.4-2.9,0.4-3.3,1.8c-0.4,1.4,0.4,2.9,1.8,3.3c1.4,0.4,2.9-0.4,3.3-1.8
		C127.5,204.5,126.7,203.1,125.3,202.7z"/>
	<circle class="st0" cx="120.9" cy="218.4" r="2.6"/>
	<path class="st0" d="M117.9,229.2c-1.4-0.4-2.9,0.4-3.3,1.8c-0.4,1.4,0.4,2.9,1.8,3.3s2.9-0.4,3.3-1.8
		C120.1,231,119.3,229.6,117.9,229.2z"/>
	<circle class="st0" cx="113.6" cy="244.9" r="2.6"/>
	<path class="st0" d="M110.6,255.7c-1.4-0.4-2.9,0.4-3.3,1.8c-0.4,1.4,0.4,2.9,1.8,3.3c1.4,0.4,2.9-0.4,3.3-1.8
		C112.8,257.5,112,256.1,110.6,255.7z"/>
	<circle class="st0" cx="106.2" cy="271.4" r="2.6"/>
	<path class="st0" d="M188.6,334.4c-1.4-0.4-2.9,0.4-3.3,1.8c-0.4,1.4,0.4,2.9,1.8,3.3c1.4,0.4,2.9-0.4,3.3-1.8
		C190.9,336.3,190.1,334.8,188.6,334.4z"/>
	<path class="st0" d="M175.4,330.7c-1.4-0.4-2.9,0.4-3.3,1.8c-0.4,1.4,0.4,2.9,1.8,3.3c1.4,0.4,2.9-0.4,3.3-1.8
		C177.6,332.6,176.8,331.1,175.4,330.7z"/>
	<path class="st0" d="M162.1,327.1c-1.4-0.4-2.9,0.4-3.3,1.8c-0.4,1.4,0.4,2.9,1.8,3.3s2.9-0.4,3.3-1.8
		C164.3,328.9,163.5,327.4,162.1,327.1z"/>
	<path class="st0" d="M148.8,323.4c-1.4-0.4-2.9,0.4-3.3,1.8c-0.4,1.4,0.4,2.9,1.8,3.3c1.4,0.4,2.9-0.4,3.3-1.8
		C151.1,325.2,150.2,323.8,148.8,323.4z"/>
	<path class="st0" d="M135.6,319.7c-1.4-0.4-2.9,0.4-3.3,1.8c-0.4,1.4,0.4,2.9,1.8,3.3c1.4,0.4,2.9-0.4,3.3-1.8
		C137.8,321.5,137,320.1,135.6,319.7z"/>
	<path class="st0" d="M185,347.6c-1.4-0.4-2.9,0.4-3.3,1.8s0.4,2.9,1.8,3.3c1.4,0.4,2.9-0.4,3.3-1.8S186.4,347.9,185,347.6z"/>
	<path class="st0" d="M171.7,343.9c-1.4-0.4-2.9,0.4-3.3,1.8s0.4,2.9,1.8,3.3c1.4,0.4,2.9-0.4,3.3-1.8S173.1,344.3,171.7,343.9z"/>
	<path class="st0" d="M157.1,345.3c1.4,0.4,2.9-0.4,3.3-1.8s-0.4-2.9-1.8-3.3c-1.4-0.4-2.9,0.4-3.3,1.8S155.6,344.9,157.1,345.3z"/>
	<path class="st0" d="M143.8,341.6c1.4,0.4,2.9-0.4,3.3-1.8s-0.4-2.9-1.8-3.3c-1.4-0.4-2.9,0.4-3.3,1.8S142.4,341.2,143.8,341.6z"/>
	<path class="st0" d="M181.3,360.9c-1.4-0.4-2.9,0.4-3.3,1.8c-0.4,1.4,0.4,2.9,1.8,3.3c1.4,0.4,2.9-0.4,3.3-1.8
		C183.5,362.8,182.7,361.3,181.3,360.9z"/>
	<path class="st0" d="M168,357.2c-1.4-0.4-2.9,0.4-3.3,1.8c-0.4,1.4,0.4,2.9,1.8,3.3c1.4,0.4,2.9-0.4,3.3-1.8
		C170.3,359.1,169.4,357.6,168,357.2z"/>
	<path class="st0" d="M154.8,353.6c-0.8-0.2-1.7,0-2.3,0.5c1.2,1.1,2.5,2.3,3.9,3.5c0.1-0.2,0.2-0.4,0.3-0.7
		C157,355.4,156.2,354,154.8,353.6z"/>
	<path class="st0" d="M158.4,31.7c1.4,0.4,2.9-0.4,3.3-1.8c0.2-0.6,0.1-1.1-0.1-1.7c-1.4-0.4-2.8-0.7-4.3-1
		c-0.3,0.3-0.6,0.7-0.7,1.2C156.1,29.8,157,31.3,158.4,31.7z"/>
	<path class="st0" d="M145.1,28c1.4,0.4,2.8-0.4,3.2-1.7c-1.6-0.1-3.3-0.1-5-0.1C143.5,27,144.2,27.7,145.1,28z"/>
	<path class="st0" d="M156.1,39.9c-1.4-0.4-2.9,0.4-3.3,1.8c-0.4,1.4,0.4,2.9,1.8,3.3c1.4,0.4,2.9-0.4,3.3-1.8
		S157.5,40.3,156.1,39.9z"/>
	<path class="st0" d="M142.8,36.3c-1.4-0.4-2.9,0.4-3.3,1.8c-0.4,1.4,0.4,2.9,1.8,3.3c1.4,0.4,2.9-0.4,3.3-1.8
		S144.2,36.6,142.8,36.3z"/>
	<path class="st0" d="M129.5,32.6c-1.4-0.4-2.9,0.4-3.3,1.8c-0.4,1.4,0.4,2.9,1.8,3.3c1.4,0.4,2.9-0.4,3.3-1.8
		C131.8,34.4,130.9,33,129.5,32.6z"/>
	<path class="st0" d="M114.8,34c1.4,0.4,2.9-0.4,3.3-1.8c0.3-1-0.1-2-0.8-2.6c-1.5,0.4-2.9,0.8-4.3,1.2
		C112.6,32.2,113.4,33.6,114.8,34z"/>
	<path class="st0" d="M152.4,53.1c-1.4-0.4-2.9,0.4-3.3,1.8c-0.4,1.4,0.4,2.9,1.8,3.3c1.4,0.4,2.9-0.4,3.3-1.8
		C154.7,54.9,153.8,53.5,152.4,53.1z"/>
	<path class="st0" d="M139.2,49.4c-1.4-0.4-2.9,0.4-3.3,1.8c-0.4,1.4,0.4,2.9,1.8,3.3c1.4,0.4,2.9-0.4,3.3-1.8
		C141.4,51.2,140.6,49.8,139.2,49.4z"/>
	<path class="st0" d="M125.9,45.7c-1.4-0.4-2.9,0.4-3.3,1.8c-0.4,1.4,0.4,2.9,1.8,3.3c1.4,0.4,2.9-0.4,3.3-1.8
		C128.1,47.6,127.3,46.1,125.9,45.7z"/>
	<path class="st0" d="M112.6,42c-1.4-0.4-2.9,0.4-3.3,1.8c-0.4,1.4,0.4,2.9,1.8,3.3c1.4,0.4,2.9-0.4,3.3-1.8
		C114.8,43.9,114,42.4,112.6,42z"/>
	<path class="st0" d="M99.3,38.4c-0.7-0.2-1.3-0.1-1.9,0.2c-0.3,0.2-0.5,0.4-0.8,0.6c-0.3,0.3-0.5,0.6-0.6,1
		c-0.4,1.4,0.4,2.9,1.8,3.3c1.4,0.4,2.9-0.4,3.3-1.8C101.6,40.2,100.7,38.8,99.3,38.4z"/>
	<path class="st0" d="M148.7,66.4c-1.4-0.4-2.9,0.4-3.3,1.8c-0.4,1.4,0.4,2.9,1.8,3.3c1.4,0.4,2.9-0.4,3.3-1.8
		C150.9,68.3,150.1,66.8,148.7,66.4z"/>
	<path class="st0" d="M135.4,62.8c-1.4-0.4-2.9,0.4-3.3,1.8s0.4,2.9,1.8,3.3c1.4,0.4,2.9-0.4,3.3-1.8S136.9,63.2,135.4,62.8z"/>
	<path class="st0" d="M122.2,59.1c-1.4-0.4-2.9,0.4-3.3,1.8c-0.4,1.4,0.4,2.9,1.8,3.3s2.9-0.4,3.3-1.8
		C124.4,60.9,123.6,59.5,122.2,59.1z"/>
	<path class="st0" d="M108.9,55.4c-1.4-0.4-2.9,0.4-3.3,1.8c-0.4,1.4,0.4,2.9,1.8,3.3c1.4,0.4,2.9-0.4,3.3-1.8
		C111.1,57.3,110.3,55.8,108.9,55.4z"/>
	<path class="st0" d="M95.6,51.7c-1.4-0.4-2.9,0.4-3.3,1.8c-0.4,1.4,0.4,2.9,1.8,3.3c1.4,0.4,2.9-0.4,3.3-1.8S97,52.1,95.6,51.7z"/>
	<path class="st0" d="M171.6,35.3c1.3,0.3,2.5-0.3,3.1-1.4c-1.5-0.9-3-1.8-4.6-2.6c-0.1,0.2-0.3,0.5-0.3,0.7
		C169.4,33.5,170.2,34.9,171.6,35.3z"/>
	<path class="st0" d="M92,64.9c-1.4-0.4-2.9,0.4-3.3,1.8s0.4,2.9,1.8,3.3c1.4,0.4,2.9-0.4,3.3-1.8C94.2,66.7,93.4,65.3,92,64.9z"/>
	<path class="st0" d="M105.3,68.6c-1.4-0.4-2.9,0.4-3.3,1.8c-0.4,1.4,0.4,2.9,1.8,3.3c1.4,0.4,2.9-0.4,3.3-1.8
		C107.5,70.4,106.7,68.9,105.3,68.6z"/>
	<path class="st0" d="M118.5,72.2c-1.4-0.4-2.9,0.4-3.3,1.8s0.4,2.9,1.8,3.3c1.4,0.4,2.9-0.4,3.3-1.8
		C120.8,74.1,119.9,72.6,118.5,72.2z"/>
	<path class="st0" d="M131.8,75.9c-1.4-0.4-2.9,0.4-3.3,1.8c-0.4,1.4,0.4,2.9,1.8,3.3c1.4,0.4,2.9-0.4,3.3-1.8
		S133.2,76.3,131.8,75.9z"/>
	<path class="st0" d="M145.1,79.6c-1.4-0.4-2.9,0.4-3.3,1.8s0.4,2.9,1.8,3.3c1.4,0.4,2.9-0.4,3.3-1.8
		C147.3,81.4,146.5,80,145.1,79.6z"/>
	<path class="st0" d="M80.2,65.2c0.1-0.2,0.3-0.4,0.3-0.7c0.1-0.2,0.1-0.4,0.1-0.6C80.5,64.3,80.4,64.7,80.2,65.2z"/>
	<path class="st0" d="M141.4,93c-1.4-0.4-2.9,0.4-3.3,1.8c-0.4,1.4,0.4,2.9,1.8,3.3c1.4,0.4,2.9-0.4,3.3-1.8
		C143.6,94.8,142.8,93.3,141.4,93z"/>
	<path class="st0" d="M128.1,89.3c-1.4-0.4-2.9,0.4-3.3,1.8c-0.4,1.4,0.4,2.9,1.8,3.3c1.4,0.4,2.9-0.4,3.3-1.8
		C130.3,91.1,129.5,89.7,128.1,89.3z"/>
	<path class="st0" d="M114.8,85.6c-1.4-0.4-2.9,0.4-3.3,1.8c-0.4,1.4,0.4,2.9,1.8,3.3c1.4,0.4,2.9-0.4,3.3-1.8
		C117.1,87.4,116.2,86,114.8,85.6z"/>
	<path class="st0" d="M101.6,81.9c-1.4-0.4-2.9,0.4-3.3,1.8c-0.4,1.4,0.4,2.9,1.8,3.3c1.4,0.4,2.9-0.4,3.3-1.8
		C103.8,83.8,103,82.3,101.6,81.9z"/>
	<path class="st0" d="M88.3,78.2c-1.4-0.4-2.9,0.4-3.3,1.8c-0.4,1.4,0.4,2.9,1.8,3.3c1.4,0.4,2.9-0.4,3.3-1.8
		C90.5,80.1,89.7,78.6,88.3,78.2z"/>
	<path class="st0" d="M137.7,106.1c-1.4-0.4-2.9,0.4-3.3,1.8c-0.4,1.4,0.4,2.9,1.8,3.3c1.4,0.4,2.9-0.4,3.3-1.8
		C140,107.9,139.1,106.5,137.7,106.1z"/>
	<path class="st0" d="M124.5,102.4c-1.4-0.4-2.9,0.4-3.3,1.8c-0.4,1.4,0.4,2.9,1.8,3.3c1.4,0.4,2.9-0.4,3.3-1.8
		S125.9,102.8,124.5,102.4z"/>
	<path class="st0" d="M111.2,98.7c-1.4-0.4-2.9,0.4-3.3,1.8c-0.4,1.4,0.4,2.9,1.8,3.3c1.4,0.4,2.9-0.4,3.3-1.8
		C113.4,100.6,112.6,99.1,111.2,98.7z"/>
	<path class="st0" d="M97.9,95.1c-1.4-0.4-2.9,0.4-3.3,1.8c-0.4,1.4,0.4,2.9,1.8,3.3c1.4,0.4,2.9-0.4,3.3-1.8S99.3,95.5,97.9,95.1z"
		/>
	<path class="st0" d="M84.7,91.4c-1.4-0.4-2.9,0.4-3.3,1.8c-0.4,1.4,0.4,2.9,1.8,3.3c1.4,0.4,2.9-0.4,3.3-1.8
		C86.9,93.2,86.1,91.8,84.7,91.4z"/>
	<path class="st0" d="M134,119.5c-1.4-0.4-2.9,0.4-3.3,1.8c-0.4,1.4,0.4,2.9,1.8,3.3c1.4,0.4,2.9-0.4,3.3-1.8
		C136.3,121.3,135.4,119.8,134,119.5z"/>
	<path class="st0" d="M120.8,115.8c-1.4-0.4-2.9,0.4-3.3,1.8c-0.4,1.4,0.4,2.9,1.8,3.3c1.4,0.4,2.9-0.4,3.3-1.8
		C123,117.6,122.2,116.2,120.8,115.8z"/>
	<path class="st0" d="M107.5,112.1c-1.4-0.4-2.9,0.4-3.3,1.8c-0.4,1.4,0.4,2.9,1.8,3.3c1.4,0.4,2.9-0.4,3.3-1.8
		C109.7,114,108.9,112.5,107.5,112.1z"/>
	<path class="st0" d="M94.2,108.4c-1.4-0.4-2.9,0.4-3.3,1.8c-0.4,1.4,0.4,2.9,1.8,3.3c1.4,0.4,2.9-0.4,3.3-1.8
		C96.4,110.3,95.6,108.8,94.2,108.4z"/>
	<path class="st0" d="M80.9,104.8c-1.4-0.4-2.9,0.4-3.3,1.8c-0.4,1.4,0.4,2.9,1.8,3.3c1.4,0.4,2.9-0.4,3.3-1.8
		C83.2,106.6,82.4,105.1,80.9,104.8z"/>
	<path class="st0" d="M130.4,132.6c-1.4-0.4-2.9,0.4-3.3,1.8s0.4,2.9,1.8,3.3c1.4,0.4,2.9-0.4,3.3-1.8
		C132.6,134.5,131.8,133,130.4,132.6z"/>
	<path class="st0" d="M117.1,128.9c-1.4-0.4-2.9,0.4-3.3,1.8c-0.4,1.4,0.4,2.9,1.8,3.3c1.4,0.4,2.9-0.4,3.3-1.8
		C119.3,130.8,118.5,129.3,117.1,128.9z"/>
	<path class="st0" d="M103.8,125.3c-1.4-0.4-2.9,0.4-3.3,1.8c-0.4,1.4,0.4,2.9,1.8,3.3c1.4,0.4,2.9-0.4,3.3-1.8
		S105.3,125.6,103.8,125.3z"/>
	<path class="st0" d="M90.6,121.6c-1.4-0.4-2.9,0.4-3.3,1.8c-0.4,1.4,0.4,2.9,1.8,3.3c1.4,0.4,2.9-0.4,3.3-1.8
		C92.8,123.4,92,122,90.6,121.6z"/>
	<path class="st0" d="M77.3,117.9c-1.4-0.4-2.9,0.4-3.3,1.8c-0.4,1.4,0.4,2.9,1.8,3.3c1.4,0.4,2.9-0.4,3.3-1.8
		C79.5,119.7,78.7,118.3,77.3,117.9z"/>
	<path class="st0" d="M126.7,146c-1.4-0.4-2.9,0.4-3.3,1.8c-0.4,1.4,0.4,2.9,1.8,3.3c1.4,0.4,2.9-0.4,3.3-1.8
		C128.9,147.8,128.1,146.4,126.7,146z"/>
	<path class="st0" d="M113.4,142.3c-1.4-0.4-2.9,0.4-3.3,1.8c-0.4,1.4,0.4,2.9,1.8,3.3c1.4,0.4,2.9-0.4,3.3-1.8
		C115.6,144.1,114.8,142.7,113.4,142.3z"/>
	<path class="st0" d="M100.1,138.6c-1.4-0.4-2.9,0.4-3.3,1.8c-0.4,1.4,0.4,2.9,1.8,3.3c1.4,0.4,2.9-0.4,3.3-1.8
		C102.4,140.5,101.5,139,100.1,138.6z"/>
	<path class="st0" d="M86.9,134.9c-1.4-0.4-2.9,0.4-3.3,1.8c-0.4,1.4,0.4,2.9,1.8,3.3c1.4,0.4,2.9-0.4,3.3-1.8
		C89.1,136.8,88.3,135.3,86.9,134.9z"/>
	<path class="st0" d="M72.2,136.4c1.4,0.4,2.9-0.4,3.3-1.8c0.4-1.4-0.4-2.9-1.8-3.3c-1.4-0.4-2.9,0.4-3.3,1.8
		C70,134.5,70.8,136,72.2,136.4z"/>
	<path class="st0" d="M123,159.1c-1.4-0.4-2.9,0.4-3.3,1.8c-0.4,1.4,0.4,2.9,1.8,3.3c1.4,0.4,2.9-0.4,3.3-1.8
		C125.3,161,124.4,159.5,123,159.1z"/>
	<path class="st0" d="M109.8,155.4c-1.4-0.4-2.9,0.4-3.3,1.8c-0.4,1.4,0.4,2.9,1.8,3.3c1.4,0.4,2.9-0.4,3.3-1.8
		C112,157.3,111.2,155.8,109.8,155.4z"/>
	<path class="st0" d="M96.5,151.8c-1.4-0.4-2.9,0.4-3.3,1.8c-0.4,1.4,0.4,2.9,1.8,3.3c1.4,0.4,2.9-0.4,3.3-1.8
		C98.7,153.6,97.9,152.2,96.5,151.8z"/>
	<path class="st0" d="M83.2,148.1c-1.4-0.4-2.9,0.4-3.3,1.8s0.4,2.9,1.8,3.3c1.4,0.4,2.9-0.4,3.3-1.8
		C85.5,149.9,84.6,148.5,83.2,148.1z"/>
	<path class="st0" d="M68.5,149.5c1.4,0.4,2.9-0.4,3.3-1.8s-0.4-2.9-1.8-3.3c-0.6-0.2-1.3-0.1-1.8,0.2c-0.1,1.6-0.1,3.1-0.1,4.7
		C68.2,149.4,68.4,149.4,68.5,149.5z"/>
	<path class="st0" d="M119.3,172.5c-1.4-0.4-2.9,0.4-3.3,1.8c-0.4,1.4,0.4,2.9,1.8,3.3c1.4,0.4,2.9-0.4,3.3-1.8
		C121.6,174.3,120.7,172.9,119.3,172.5z"/>
	<path class="st0" d="M106.1,168.8c-1.4-0.4-2.9,0.4-3.3,1.8c-0.4,1.4,0.4,2.9,1.8,3.3c1.4,0.4,2.9-0.4,3.3-1.8
		C108.3,170.6,107.5,169.2,106.1,168.8z"/>
	<path class="st0" d="M92.8,165.1c-1.4-0.4-2.9,0.4-3.3,1.8c-0.4,1.4,0.4,2.9,1.8,3.3c1.4,0.4,2.9-0.4,3.3-1.8
		C95,167,94.2,165.5,92.8,165.1z"/>
	<path class="st0" d="M79.5,161.4c-1.4-0.4-2.9,0.4-3.3,1.8c-0.4,1.4,0.4,2.9,1.8,3.3c1.4,0.4,2.9-0.4,3.3-1.8
		C81.8,163.3,80.9,161.8,79.5,161.4z"/>
	<path class="st0" d="M68.1,159.5c0,0.5,0,1,0.1,1.4C68.2,160.4,68.2,159.9,68.1,159.5z"/>
	<path class="st0" d="M89.2,178.3c-1.4-0.4-2.9,0.4-3.3,1.8s0.4,2.9,1.8,3.3c1.4,0.4,2.9-0.4,3.3-1.8S90.6,178.7,89.2,178.3z"/>
	<path class="st0" d="M102.4,182c-1.4-0.4-2.9,0.4-3.3,1.8c-0.4,1.4,0.4,2.9,1.8,3.3c1.4,0.4,2.9-0.4,3.3-1.8
		C104.7,183.8,103.8,182.3,102.4,182z"/>
	<path class="st0" d="M115.7,185.6c-1.4-0.4-2.9,0.4-3.3,1.8s0.4,2.9,1.8,3.3c1.4,0.4,2.9-0.4,3.3-1.8
		C117.9,187.5,117.1,186,115.7,185.6z"/>
	<path class="st0" d="M74.5,179.7c1.4,0.4,2.9-0.4,3.3-1.8c0.4-1.4-0.4-2.9-1.8-3.3c-1.4-0.4-2.9,0.4-3.3,1.8
		C72.2,177.8,73.1,179.3,74.5,179.7z"/>
	<path class="st0" d="M112,199c-1.4-0.4-2.9,0.4-3.3,1.8c-0.4,1.4,0.4,2.9,1.8,3.3c1.4,0.4,2.9-0.4,3.3-1.8
		C114.2,200.8,113.4,199.4,112,199z"/>
	<path class="st0" d="M98.7,195.3c-1.4-0.4-2.9,0.4-3.3,1.8c-0.4,1.4,0.4,2.9,1.8,3.3c1.4,0.4,2.9-0.4,3.3-1.8
		C101,197.2,100.1,195.7,98.7,195.3z"/>
	<path class="st0" d="M85.5,191.6c-1.4-0.4-2.9,0.4-3.3,1.8c-0.4,1.4,0.4,2.9,1.8,3.3s2.9-0.4,3.3-1.8
		C87.7,193.5,86.9,192,85.5,191.6z"/>
	<path class="st0" d="M74,191.2c0.4-1.4-0.4-2.9-1.8-3.3c-0.3-0.1-0.7-0.1-1-0.1c0.3,1.7,0.7,3.4,1.1,5.1
		C73.1,192.7,73.8,192.1,74,191.2z"/>
	<path class="st0" d="M108.3,212.1c-1.4-0.4-2.9,0.4-3.3,1.8c-0.4,1.4,0.4,2.9,1.8,3.3c1.4,0.4,2.9-0.4,3.3-1.8
		C110.6,214,109.8,212.5,108.3,212.1z"/>
	<path class="st0" d="M95.1,208.5c-1.4-0.4-2.9,0.4-3.3,1.8c-0.4,1.4,0.4,2.9,1.8,3.3c1.4,0.4,2.9-0.4,3.3-1.8
		C97.3,210.3,96.5,208.9,95.1,208.5z"/>
	<path class="st0" d="M81.8,204.8c-1.4-0.4-2.9,0.4-3.3,1.8c-0.4,1.4,0.4,2.9,1.8,3.3c1.4,0.4,2.9-0.4,3.3-1.8
		C84,206.6,83.2,205.2,81.8,204.8z"/>
	<path class="st0" d="M104.6,225.5c-1.4-0.4-2.9,0.4-3.3,1.8c-0.4,1.4,0.4,2.9,1.8,3.3c1.4,0.4,2.9-0.4,3.3-1.8
		C106.9,227.3,106.1,225.9,104.6,225.5z"/>
	<path class="st0" d="M90,226.9c1.4,0.4,2.9-0.4,3.3-1.8c0.4-1.4-0.4-2.9-1.8-3.3c-1.4-0.4-2.9,0.4-3.3,1.8
		C87.7,225.1,88.6,226.5,90,226.9z"/>
	<path class="st0" d="M101,238.6c-1.4-0.4-2.9,0.4-3.3,1.8c-0.4,1.4,0.4,2.9,1.8,3.3c1.4,0.4,2.9-0.4,3.3-1.8
		C103.2,240.5,102.4,239,101,238.6z"/>
	<path class="st0" d="M89.6,238.2c0.4-1.4-0.4-2.9-1.8-3.3c-0.5-0.1-1-0.1-1.5,0c0.7,1.6,1.4,3.2,2,4.8
		C88.9,239.5,89.4,238.9,89.6,238.2z"/>
	<path class="st0" d="M99.1,255.3c0.4-1.4-0.4-2.9-1.8-3.3c-1.2-0.3-2.5,0.2-3,1.3c0.6,1.3,1.1,2.5,1.7,3.8
		C97.4,257.4,98.8,256.6,99.1,255.3z"/>
</g>
</svg>
