<?xml version="1.0" encoding="utf-8"?>
<!-- Generator: Adobe Illustrator 22.0.1, SVG Export Plug-In . SVG Version: 6.00 Build 0)  -->
<svg version="1.1" id="Capa_1" xmlns="http://www.w3.org/2000/svg" xmlns:xlink="http://www.w3.org/1999/xlink" x="0px" y="0px"
	 viewBox="0 0 118.5 158.7" style="enable-background:new 0 0 118.5 158.7;" xml:space="preserve">
<style type="text/css">
	.st0{fill:#41D3BC;}
</style>
<g>
	<g>
		<g>
			<polygon class="st0" points="115,158.2 115,158.2 115,158.2 			"/>
			<path class="st0" d="M116.3,155.8l0.9-0.3c-0.1,0.1-0.1,0.1-0.1,0.1c0.1,0.1,0.4,0.1,0.3,0.3c0,0,0.1,0,0.1,0
				c0.2,0-0.1,0.1-0.2,0.1c-0.3,0.2-0.3,0.1-0.4,0c0,0-0.1,0-0.2,0c-0.1,0-0.1,0.1-0.2,0.2c0.1,0,0.1,0,0.2,0c0.1,0.2,0.7-0.2,0.8,0
				c0,0,0.1,0,0.1,0c0.3-0.1,0.3,0,0.4,0c0,0,0,0,0,0.1c0,0,0.1,0,0.1,0l0.1-0.1l0-0.1c0,0,0.1,0,0.1,0c0,0.2,0,0.5,0,0.7
				c0,0.1,0.1,0.1,0.2,0.2c0,0,0,0.1-0.1,0.1c0,0-0.1,0-0.2,0.1c0,0,0-0.1,0-0.1c0,0,0-0.1,0-0.1c-0.1,0-0.2,0.1-0.2,0.1
				c0,0.1,0,0.1,0.1,0.2c0,0,0,0,0,0.1c0,0-0.1,0-0.1,0c0,0-0.1,0-0.1,0c0-0.1-0.2,0.1-0.2,0.1c0.1,0.1-1.2,0.2-0.5,0.4
				c0.1,0-0.1,0.2-0.2,0.3c0,0,0-0.1-0.1-0.1c-0.1,0-0.2,0-0.3,0.1c0,0,0,0.1,0,0.1c0,0,0.1,0,0.2,0c0,0,0.1,0,0.1,0c0,0,0,0,0,0.1
				c-0.2,0-0.3,0.1-0.5,0.1c-0.4,0.1-0.8,0.2-1.1,0.3c0,0-0.2,0-0.2,0c0.1-0.1,0.1-0.1-0.1-0.2c-0.1,0-0.1,0-0.1-0.1
				c0,0,0.1,0,0.1,0c0,0,0.1-0.1,0.1-0.1c-0.1,0-0.2,0-0.2,0c0,0,0-0.1-0.1-0.1l0.2,0l0,0c0,0,0,0,0,0c0,0,0,0,0,0c0,0,0,0,0,0
				l-0.1,0l0,0l0,0l-0.2,0c0,0-0.1,0-0.1-0.1c0.4-0.2,0.1-0.3-0.1-0.3c0,0,0,0,0.1,0c0,0,0,0,0,0c0,0,0,0,0,0c0,0,0.1,0,0.1,0
				c0,0,0,0,0.1,0c0,0,0,0,0,0c0.1-0.1-0.5,0.1,0-0.1l-0.2-0.2l-0.1,0.1l-0.1-0.1c0,0-0.1-0.1-0.1-0.1c-0.2,0,0.1-0.2,0-0.3
				c0,0-0.1,0-0.1,0c0,0,0-0.1-0.1-0.1c-0.2-0.1-0.1,0-0.1,0c0,0,0,0,0,0l-0.1-0.1c0,0,0.1,0,0.1,0c0,0,0.1,0,0.1,0
				c0,0-0.1,0-0.1-0.1c0,0-0.1,0-0.1,0c0-0.1-0.2-0.1,0.1-0.2c0,0,0,0,0.1,0c0,0,0,0-0.1,0l-0.2,0.1c0.1,0,0.2-0.1,0.3-0.1
				c0.1,0,0.2,0,0.3,0c0.1,0,0.2-0.1,0.2-0.1c0.1,0,0.1-0.1,0.2-0.1c0.1,0,0.1-0.1,0.1-0.1l1.1-0.3c-0.1,0-0.2,0.1-0.1,0.1l-0.1,0.1
				l0.2,0C116,155.9,116.2,155.8,116.3,155.8z M116.7,157.3c0,0,0,0.1,0,0.1c0,0,0.2,0,0.2,0c0-0.1,0.1-0.1,0.1-0.1
				C116.8,157.3,116.7,157.3,116.7,157.3z M116.1,157C116.1,157,116.1,157,116.1,157l0.3,0.2c0,0,0,0,0.1,0.1l0.1-0.1
				c-0.2,0,0.3-0.1,0-0.1C116.4,157.1,116.3,157,116.1,157z M116.2,156c-0.3,0.1-0.1,0.1-0.1,0.1c-0.1,0.1,0.2-0.1,0.2,0l0.1-0.2
				C116.3,156,116.2,156,116.2,156z"/>
			<path class="st0" d="M117.4,155.5c0.1,0-0.1,0.2,0.2,0.1l-0.1,0.1c0,0,0,0,0,0c0.3,0,0.2-0.1,0.3-0.2l0.1,0c-0.1,0-0.1,0-0.3,0.1
				c-0.1,0,0-0.1,0.2-0.1l0-0.1L117.4,155.5C117.3,155.5,117.3,155.5,117.4,155.5z"/>
			<path class="st0" d="M117.7,155.7c0,0.1,0,0.2,0.5,0C117.9,155.8,117.7,155.8,117.7,155.7C117.7,155.7,117.7,155.7,117.7,155.7z"
				/>
			<polygon class="st0" points="118.1,155.7 118.1,155.7 118.1,155.7 			"/>
			<path class="st0" d="M118.3,155.6c-0.1,0-0.1,0-0.2,0.1L118.3,155.6L118.3,155.6z"/>
			<path class="st0" d="M117.8,156.1C117.8,156.1,117.8,156.1,117.8,156.1c0.1-0.1,0.2-0.1,0.3-0.2c0,0-0.1,0-0.1,0
				C117.7,155.9,117.8,156,117.8,156.1z"/>
		</g>
		<g>
			<path class="st0" d="M115,152.7c0.2-0.1,0.5-0.1,0.4,0c-0.1,0.1-0.1,0.1-0.1,0.2c0,0,0.1,0,0.1,0c0.4-0.3,0.3,0.2,0.7-0.1
				c0,0.2,0.5,0,0.6,0.1c-0.3,0.1,0,0.1-0.2,0.2c-0.1,0.1-0.2-0.1-0.3,0.1c0,0,0,0-0.1,0l0-0.2c0,0-0.1,0-0.1,0l0,0.3l0.2-0.1
				c0,0.1,0.2,0.1,0.1,0.2c0,0.2,0,0.3,0.1,0.4c0,0,0.2,0,0,0.1c0,0-0.1,0.1,0.2,0c0.1-0.1,0.1-0.1,0.1-0.1c0,0,0,0,0,0
				c0,0,0.1,0,0.1,0c0,0.2,0,0.4,0.4,0.5c0,0,0,0,0,0c-0.2,0.1-0.2,0.1-0.1,0.1l0,0c-0.1-0.1,0.1-0.1,0.3-0.2l-0.2-0.1
				c0.2-0.1,0.3,0,0.4,0c0,0-0.1,0.1-0.1,0.1c0,0.1,0,0.3,0,0.4c0.1,0,0.2-0.1,0.2-0.1c0.3,0,0,0.1,0,0.1c0.3,0,0.3,0-0.1,0.1
				c0,0-0.1,0.1-0.1,0.1c0.3,0-0.1,0.2,0.1,0.2c0,0,0.1,0,0.1,0c0,0,0,0,0,0l-0.2,0.1l-0.5,0.2c0-0.1,0.1-0.2,0.1-0.3
				c-0.1,0-0.2-0.1-0.3-0.1c0,0.1,0,0.3,0,0.4c0,0,0.1,0,0.1,0l-3,1c0,0-0.1-0.1,0-0.1c0,0,0,0,0,0l-0.1,0.1l-0.1,0.1
				c0,0-0.1,0-0.1,0c0,0,0-0.1,0-0.1c0.7-0.2,0.1-0.2,0.2-0.3c0.1-0.1,0.1-0.2,0.1-0.2c0,0,0-0.1,0-0.1c0,0-0.1,0.1-0.1,0.1
				c-0.1,0-0.1,0-0.1,0c0,0,0-0.1,0-0.1c-0.1-0.2-0.2-0.3-0.3-0.5c0-0.1,0-0.1,0-0.2c-0.2-0.2-0.1-0.4,0-0.6c-0.1,0-0.1,0-0.2,0.1
				c-0.1,0-0.2,0-0.2,0c0,0,0.1-0.1,0.1-0.1c0-0.1,0.2-0.2-0.1-0.2c0,0,0-0.1,0-0.1c-0.3,0.1-0.2,0,0-0.1c-0.2-0.1,0.2-0.2,0.4-0.3
				c0.3-0.1,0.3-0.2,0.3-0.2c0,0,0.1,0,0.1,0c0,0,0,0.1,0.1,0.1c0,0,0.1,0,0.2,0c0,0,0.1-0.1,0.1-0.1c0,0,0-0.1,0-0.1
				c0,0,0,0.1,0.1,0.1c0.2,0.1,0.4-0.1,0.6-0.2c0,0-0.1-0.1,0-0.1C115,152.9,114.9,152.8,115,152.7z M116.4,155.2
				c-0.1,0.1-0.1,0.2-0.2,0.2c0,0,0.1,0,0.1,0.1c0.1-0.1,0.1-0.2,0.2-0.3L116.4,155.2z M117.2,155c0,0.1,0,0.1,0,0.2
				c0,0,0.1,0,0.1,0c0.2-0.1,0.2-0.1,0-0.1c-0.3,0,0.3-0.1,0.1-0.1C117.4,154.9,117.3,154.9,117.2,155z M116.6,154.7
				c-0.1,0-0.2,0.1-0.2,0.1c0,0,0.1,0,0.1,0.1c0,0,0,0.1,0,0.1c0,0-0.1-0.1-0.2,0c-0.1,0-0.1,0.1-0.1,0.1c0.1,0,0.1-0.1,0.3-0.1
				c0,0,0.2,0,0.2,0c0.1,0.1,0.2,0.1,0.5-0.1c0,0,0.1-0.1,0.1-0.1c-0.1,0-0.2,0-0.2,0l0,0l-0.1,0.1l-0.1-0.1L116.6,154.7z
				 M116.2,154.5c-0.1,0.1-0.2,0.3-0.1,0.3c0.1,0.1,0.1,0,0.1-0.1c0.2,0,0-0.1,0.1-0.1L116.2,154.5z"/>
			<path class="st0" d="M113.4,153.2C113.4,153.2,113.5,153.2,113.4,153.2l0.6-0.3c-0.1,0-0.2,0-0.3,0.1L113.4,153.2z"/>
		</g>
		<g>
			<polygon class="st0" points="111,147.1 111,147.1 111,147.1 			"/>
			<path class="st0" d="M112.1,144.5l0.9-0.4c-0.1,0.1-0.1,0.1-0.1,0.1c0.1,0.1,0.4,0.1,0.3,0.3c0,0,0.1,0,0.1,0
				c0.2,0-0.1,0.1-0.2,0.1c-0.3,0.2-0.3,0.1-0.4,0.1c0,0-0.1,0-0.2,0.1c-0.1,0.1-0.1,0.1-0.2,0.2c0.1,0,0.1-0.1,0.2-0.1
				c0.1,0.2,0.7-0.2,0.8-0.1c0,0,0.1,0,0.1,0c0.3-0.2,0.3,0,0.4,0c0,0,0,0,0,0.1c0,0,0,0,0.1,0l0-0.1l0-0.1c0,0,0.1,0,0.1,0
				c0,0.2,0,0.5,0,0.7c0,0.1,0.1,0.1,0.2,0.2c0,0,0,0.1-0.1,0.1c0,0-0.1,0.1-0.2,0.1c0,0,0-0.1,0-0.1c0,0,0-0.1,0-0.1
				c-0.1,0-0.2,0.1-0.2,0.1c0,0.1,0,0.1,0.1,0.2c0,0,0,0,0.1,0.1c0,0-0.1,0-0.1,0.1c0,0-0.1,0-0.1,0c-0.1-0.1-0.2,0.1-0.2,0.1
				c0.1,0.1-1.2,0.3-0.5,0.4c0.1,0-0.1,0.2-0.2,0.3c0,0,0-0.1-0.1-0.1c-0.1,0-0.2,0.1-0.3,0.1c0,0,0,0.1,0,0.1c0,0,0.1,0,0.2-0.1
				c0,0,0.1,0,0.1,0c0,0,0,0,0,0.1c-0.2,0.1-0.3,0.1-0.5,0.2c-0.4,0.1-0.7,0.2-1.1,0.4c0,0-0.2,0-0.2,0c0.1-0.1,0.1-0.1-0.1-0.1
				c-0.1,0-0.1,0-0.1-0.1c0,0,0.1,0,0.1,0c0,0,0.1-0.1,0.1-0.1c-0.1,0-0.2,0-0.2,0c0,0-0.1-0.1-0.1-0.1l0.2,0l0,0c0,0,0,0,0,0
				c0,0,0,0,0,0c0,0,0,0,0,0l-0.1,0l0,0l0,0l-0.2,0c0,0-0.1,0-0.1-0.1c0.3-0.3,0-0.3-0.1-0.3c0,0,0,0,0.1,0c0,0,0,0,0,0c0,0,0,0,0,0
				c0,0,0.1,0,0.1,0c0,0,0,0,0.1,0c0,0,0,0,0,0c0.1-0.1-0.4,0.1,0-0.1l-0.2-0.2l-0.1,0.1l-0.1,0c-0.1,0-0.1-0.1-0.1-0.1
				c-0.2,0,0-0.2,0-0.3c0,0-0.1,0-0.1,0c0,0,0-0.1-0.1-0.1c-0.2-0.1-0.1,0-0.1,0c0,0,0,0,0,0l-0.1-0.1c0,0,0.1,0,0.1-0.1
				c0,0,0.1,0,0.1,0c0,0-0.1,0-0.1,0c0,0-0.1,0-0.1,0c0-0.1-0.2-0.1,0.1-0.2c0,0,0,0,0.1,0c0,0,0,0-0.1,0l-0.2,0.1
				c0.1-0.1,0.2-0.1,0.3-0.2c0.1,0,0.2,0,0.3-0.1c0.1,0,0.2-0.1,0.2-0.1c0.1-0.1,0.1-0.1,0.1-0.2c0.1,0,0.1-0.1,0.1-0.1l1.1-0.4
				c-0.1,0.1-0.2,0.1-0.1,0.1l-0.1,0.1l0.2,0C111.8,144.7,112,144.6,112.1,144.5z M112.5,146c0,0,0,0.1,0,0.1c0,0,0.2,0,0.2,0
				c0-0.1,0.1-0.1,0.1-0.1C112.7,146,112.6,146,112.5,146z M112,145.8C112,145.8,112,145.8,112,145.8l0.3,0.2c0,0,0,0,0.1,0.1l0-0.1
				c-0.2,0,0.3-0.2,0-0.1C112.3,145.8,112.2,145.8,112,145.8z M112,144.8c-0.2,0.1-0.1,0.1-0.1,0.2c-0.1,0.1,0.2-0.1,0.2,0l0.1-0.2
				C112.1,144.7,112.1,144.8,112,144.8z"/>
			<path class="st0" d="M113.1,144.1c0.1,0-0.1,0.2,0.2,0.1l-0.1,0.1c0,0,0,0,0,0c0.3-0.1,0.2-0.2,0.3-0.2l0.1,0
				c-0.1,0-0.1,0-0.3,0.1c-0.1,0,0-0.1,0.2-0.1l0-0.1L113.1,144.1C113.1,144.1,113.1,144.1,113.1,144.1z"/>
			<path class="st0" d="M113.4,144.3c0,0.2,0,0.2,0.5,0C113.7,144.4,113.5,144.4,113.4,144.3C113.5,144.3,113.4,144.3,113.4,144.3z"
				/>
			<polygon class="st0" points="113.9,144.3 113.9,144.3 113.9,144.3 			"/>
			<path class="st0" d="M114.1,144.2c-0.1,0-0.1,0-0.2,0.1L114.1,144.2L114.1,144.2z"/>
			<path class="st0" d="M113.6,144.7C113.6,144.7,113.6,144.7,113.6,144.7c0.1-0.1,0.2-0.2,0.3-0.2c0,0-0.1,0-0.1,0
				C113.5,144.5,113.6,144.6,113.6,144.7z"/>
		</g>
		<g>
			<path class="st0" d="M110.6,141.6c0.2-0.1,0.5-0.2,0.4,0c-0.1,0.1-0.1,0.1-0.1,0.2c0,0,0.1,0,0.1,0c0.4-0.4,0.3,0.2,0.7-0.2
				c0,0.2,0.5,0,0.6,0.1c-0.3,0.1,0,0.1-0.2,0.2c-0.1,0.1-0.2-0.1-0.3,0.1c0,0,0,0-0.1,0l0-0.2c0,0-0.1,0-0.1,0l0,0.3l0.2-0.1
				c0.1,0.1,0.2,0.1,0.1,0.2c0,0.2,0,0.3,0.2,0.4c0.1,0,0.2,0,0,0.1c0,0,0,0.1,0.2,0c0.1-0.1,0.1-0.1,0.1-0.1c0,0,0,0,0,0
				c0,0,0.1,0,0.1,0c0,0.2,0,0.4,0.4,0.5c0,0,0,0,0,0c-0.2,0.1-0.2,0.1-0.1,0.1l0,0c-0.1-0.1,0.1-0.1,0.3-0.2l-0.2-0.1
				c0.2-0.1,0.3-0.1,0.4,0c0,0-0.1,0.1-0.1,0.1c0,0.1,0,0.3,0.1,0.4c0.1,0,0.2-0.1,0.2-0.1c0.3-0.1,0,0.1,0,0.1c0.3,0,0.3,0-0.1,0.1
				c0,0-0.1,0.1-0.1,0.1c0.3,0-0.1,0.2,0.1,0.2c0,0,0.1,0,0.1,0c0,0,0,0,0,0l-0.2,0.1l-0.5,0.2c0-0.1,0.1-0.2,0.1-0.3
				c-0.1,0-0.2-0.1-0.3-0.1c0,0.1,0,0.3,0,0.4c0,0,0.1,0,0.1,0l-2.9,1.2c0,0-0.1-0.1,0-0.1c0,0,0,0,0,0l0,0.1l-0.1,0.1
				c0,0-0.1,0-0.1,0c0,0,0-0.1-0.1-0.1c0.6-0.2,0.1-0.2,0.2-0.3c0.1-0.1,0.1-0.2,0.1-0.2c0,0,0-0.1,0-0.1c0,0-0.1,0.1-0.1,0.1
				c-0.1,0-0.1,0-0.1,0c0,0,0-0.1,0-0.1c-0.1-0.2-0.3-0.3-0.3-0.5c0-0.1,0-0.1-0.1-0.2c-0.2-0.1-0.1-0.4,0-0.6
				c-0.1,0-0.1,0.1-0.2,0.1c-0.1,0-0.2,0-0.2,0c0,0,0.1-0.1,0.1-0.2c0-0.1,0.2-0.3-0.1-0.2c0,0,0-0.1,0-0.1c-0.3,0.1-0.2,0,0-0.1
				c-0.2-0.1,0.2-0.2,0.4-0.3c0.3-0.1,0.3-0.2,0.2-0.2c0,0,0.1,0,0.1,0c0,0,0,0.1,0.1,0.1c0,0,0.1,0,0.2,0c0,0,0.1-0.1,0.1-0.1
				c0,0,0-0.1,0-0.1c0,0,0,0.1,0.1,0.1c0.2,0.1,0.4-0.1,0.6-0.2c0,0-0.1-0.1-0.1-0.1C110.6,141.8,110.5,141.6,110.6,141.6z
				 M112.2,144c-0.1,0.1-0.1,0.2-0.1,0.3c0,0,0.1,0,0.1,0c0.1-0.1,0.1-0.2,0.2-0.3L112.2,144z M112.9,143.6c0,0.1,0,0.1,0,0.2
				c0,0,0.1,0,0.1-0.1c0.2-0.1,0.2-0.1,0-0.1c-0.3,0,0.3-0.1,0.1-0.1C113.1,143.6,113,143.6,112.9,143.6z M112.3,143.4
				c-0.1,0-0.2,0.1-0.2,0.1c0,0,0.1,0,0.1,0.1c0,0,0,0.1,0,0.1c0,0-0.1-0.1-0.2,0c0,0.1-0.1,0.1-0.1,0.1c0.1,0,0.1-0.1,0.3-0.1
				c0,0,0.2,0,0.2,0c0.1,0.1,0.2,0.1,0.4-0.1c0,0,0.1-0.1,0.1-0.1c-0.1,0-0.2,0-0.2,0l0,0l-0.1,0.1l-0.1-0.1L112.3,143.4z
				 M111.9,143.3c0,0.1-0.2,0.3-0.1,0.3c0.1,0.1,0.1,0,0.1-0.1c0.2-0.1,0-0.1,0.1-0.1L111.9,143.3z"/>
			<path class="st0" d="M109,142.2C109,142.2,109.1,142.2,109,142.2l0.5-0.4c-0.1,0-0.2,0.1-0.3,0.1L109,142.2z"/>
		</g>
		<g>
			<polygon class="st0" points="106.3,136.2 106.2,136.2 106.3,136.2 			"/>
			<path class="st0" d="M107.3,133.5l0.8-0.4c-0.1,0.1-0.1,0.1-0.1,0.1c0.1,0.1,0.4,0.1,0.3,0.3c0,0,0.1,0,0.1,0
				c0.2,0-0.1,0.1-0.2,0.1c-0.2,0.2-0.3,0.1-0.4,0.1c0,0-0.1,0-0.2,0.1c-0.1,0.1-0.1,0.1-0.2,0.2c0.1,0,0.1-0.1,0.1-0.1
				c0.1,0.2,0.7-0.3,0.8-0.1c0,0,0.1,0,0.1,0c0.3-0.2,0.3-0.1,0.4,0c0,0,0,0,0,0.1c0,0,0,0,0.1,0l0-0.1l0-0.1c0,0,0.1,0,0.1,0
				c0,0.2,0,0.5,0.1,0.7c0,0.1,0.1,0.1,0.2,0.2c0,0,0,0.1-0.1,0.1c0,0-0.1,0.1-0.2,0.1c0,0,0-0.1,0-0.1c0,0,0-0.1,0-0.1
				c-0.1,0-0.2,0.1-0.2,0.1c0,0.1,0,0.1,0.1,0.2c0,0,0,0,0.1,0.1c0,0-0.1,0-0.1,0.1c0,0-0.1,0-0.1,0c-0.1-0.1-0.2,0.1-0.2,0.1
				c0.1,0.1-1.2,0.3-0.5,0.4c0.1,0-0.1,0.2-0.2,0.3c0,0,0-0.1-0.1-0.1c-0.1,0-0.2,0.1-0.3,0.1c0,0,0,0.1,0,0.1c0,0,0.1,0,0.2-0.1
				c0,0,0.1,0,0.1,0c0,0,0,0,0,0.1c-0.1,0.1-0.3,0.2-0.4,0.2c-0.4,0.1-0.7,0.3-1.1,0.5c0,0-0.2,0-0.2,0c0.1-0.1,0-0.1-0.1-0.1
				c-0.1,0-0.1,0-0.1,0c0,0,0.1,0,0.1,0c0,0,0.1-0.1,0.1-0.1c-0.1,0-0.2,0-0.2,0c-0.1,0-0.1-0.1-0.1-0.1l0.2,0l0,0c0,0,0,0,0,0
				c0,0,0,0,0,0c0,0,0,0,0,0l-0.1,0l0,0l0,0l-0.2,0c0,0-0.1,0-0.1,0c0.3-0.3,0-0.3-0.1-0.3c0,0,0,0,0.1,0c0,0,0,0,0,0c0,0,0,0,0,0
				c0,0,0.1,0,0.1-0.1c0,0,0,0,0.1,0c0,0,0,0,0,0c0.1-0.1-0.4,0.1,0-0.1l-0.2-0.1l-0.1,0.1l-0.2,0c-0.1,0-0.1,0-0.1-0.1
				c-0.2,0,0-0.2,0-0.3c0,0-0.1,0-0.1,0c0,0,0-0.1-0.1-0.1c-0.2-0.1-0.1,0-0.1,0.1c0,0,0,0,0,0l-0.1-0.1c0,0,0.1,0,0.1-0.1
				c0,0,0.1,0,0.1,0c0,0-0.1,0-0.1,0c0,0-0.1,0-0.1,0c0-0.1-0.2-0.1,0.1-0.2c0,0,0,0,0.1,0c0,0,0,0-0.1,0l-0.2,0.1
				c0.1-0.1,0.2-0.1,0.3-0.2c0.1,0,0.2,0,0.3-0.1c0.1,0,0.1-0.1,0.2-0.2c0.1-0.1,0.1-0.1,0.1-0.2c0.1,0,0.1-0.1,0.1-0.1l1-0.5
				c-0.1,0.1-0.2,0.1-0.1,0.1l-0.1,0.1l0.2,0C107,133.7,107.2,133.6,107.3,133.5z M107.8,135c0,0,0,0.1,0,0.1c0,0,0.2,0,0.2,0
				c0-0.1,0-0.1,0.1-0.1C107.9,135,107.9,135,107.8,135z M107.2,134.8C107.2,134.8,107.2,134.8,107.2,134.8l0.4,0.2c0,0,0,0,0.1,0.1
				l0-0.1c-0.2,0,0.3-0.2,0-0.1C107.5,134.8,107.4,134.8,107.2,134.8z M107.2,133.8c-0.2,0.1-0.1,0.1-0.1,0.2
				c-0.1,0.1,0.2-0.1,0.2,0l0.1-0.2C107.3,133.8,107.2,133.8,107.2,133.8z"/>
			<path class="st0" d="M108.3,133.1c0.1,0-0.1,0.2,0.2,0.1l-0.1,0.1c0,0,0,0,0,0c0.3-0.1,0.2-0.2,0.3-0.3l0.1,0
				c-0.1,0-0.1,0-0.3,0.1c-0.1,0,0-0.1,0.2-0.1l0-0.1L108.3,133.1C108.2,133.1,108.2,133.1,108.3,133.1z"/>
			<path class="st0" d="M108.6,133.3c0,0.2,0,0.2,0.5-0.1C108.8,133.3,108.6,133.4,108.6,133.3C108.6,133.2,108.6,133.3,108.6,133.3
				z"/>
			<polygon class="st0" points="109,133.2 109,133.2 109.1,133.2 			"/>
			<path class="st0" d="M109.2,133.1c-0.1,0-0.1,0.1-0.2,0.1L109.2,133.1L109.2,133.1z"/>
			<path class="st0" d="M108.7,133.6C108.7,133.6,108.8,133.6,108.7,133.6c0.1-0.1,0.2-0.2,0.2-0.2c0,0-0.1,0-0.1,0
				C108.7,133.5,108.7,133.5,108.7,133.6z"/>
		</g>
		<g>
			<path class="st0" d="M105.6,130.7c0.2-0.2,0.5-0.2,0.4,0c-0.1,0.1,0,0.1-0.1,0.2c0,0,0.1,0,0.1,0c0.4-0.4,0.3,0.2,0.6-0.2
				c0,0.2,0.5,0,0.6,0.1c-0.3,0.1,0,0.1-0.2,0.2c-0.1,0.1-0.2-0.1-0.3,0.1c0,0-0.1,0-0.1,0l-0.1-0.1c0,0-0.1,0-0.1,0l0,0.3l0.2-0.1
				c0.1,0.1,0.2,0.1,0.2,0.2c0,0.2,0,0.3,0.2,0.4c0.1,0,0.2,0,0,0.1c0,0,0,0.1,0.2-0.1c0.1-0.1,0.1-0.1,0.1-0.1c0,0,0,0,0,0
				c0,0,0.1,0,0.1,0c0,0.2,0,0.4,0.4,0.5c0,0,0,0,0,0c-0.2,0.1-0.2,0.1,0,0.1l0,0c-0.1-0.1,0.1-0.1,0.2-0.2l-0.2-0.1
				c0.2-0.1,0.3-0.1,0.4,0c0,0-0.1,0.1-0.1,0.2c0,0.1,0.1,0.3,0.1,0.4c0.1,0,0.2-0.1,0.2-0.1c0.3-0.1,0,0.1,0,0.1
				c0.3,0,0.3-0.1-0.1,0.1c0,0-0.1,0.1-0.1,0.1c0.3-0.1,0,0.2,0.1,0.2c0,0,0.1,0,0.1,0c0,0,0,0,0,0l-0.1,0.1l-0.5,0.2
				c0-0.1,0.1-0.2,0.1-0.3c-0.1,0-0.2-0.1-0.3-0.1c0,0.1,0,0.3,0.1,0.4c0,0,0.1,0,0.1,0l-2.9,1.3c0,0-0.1-0.1,0-0.1c0,0,0,0,0,0
				l0,0.1l-0.1,0.1c0,0-0.1,0-0.1,0c0,0,0-0.1-0.1-0.1c0.6-0.3,0-0.2,0.2-0.3c0.1-0.1,0.1-0.2,0.1-0.2c0,0,0-0.1,0-0.1
				c0,0-0.1,0.1-0.1,0.1c-0.1,0-0.1,0-0.1,0c0,0,0-0.1,0-0.1c-0.1-0.2-0.3-0.3-0.3-0.5c0-0.1,0-0.1-0.1-0.2c-0.2-0.1-0.2-0.4,0-0.6
				c-0.1,0-0.1,0.1-0.2,0.1c-0.1,0-0.2,0.1-0.2,0c0,0,0.1-0.1,0.1-0.2c0-0.1,0.2-0.3-0.1-0.2c0,0,0-0.1,0-0.1
				c-0.3,0.1-0.2,0.1,0-0.1c-0.2-0.1,0.2-0.3,0.4-0.4c0.3-0.1,0.3-0.2,0.2-0.3c0,0,0.1,0,0.1,0c0,0,0,0.1,0.1,0.1c0,0,0.1,0,0.2,0
				c0,0,0.1-0.1,0.1-0.1c0,0,0-0.1,0-0.1c0,0,0,0.1,0.1,0.1c0.2,0.1,0.4-0.2,0.6-0.2c0,0-0.1-0.1-0.1-0.1
				C105.6,130.8,105.5,130.7,105.6,130.7z M107.3,133c0,0.1-0.1,0.2-0.1,0.3c0,0,0.1,0,0.1,0c0.1-0.1,0.1-0.2,0.2-0.3L107.3,133z
				 M108,132.6c0,0.1,0,0.1,0,0.2c0,0,0.1,0,0.1-0.1c0.2-0.1,0.2-0.1,0-0.1c-0.2,0,0.3-0.1,0.1-0.1
				C108.2,132.5,108.1,132.6,108,132.6z M107.4,132.4c-0.1,0-0.1,0.1-0.2,0.1c0,0,0.1,0,0.1,0.1c0,0,0,0.1,0,0.1
				c0,0-0.1-0.1-0.2,0.1c0,0.1,0,0.1-0.1,0.2c0.1,0,0.1-0.1,0.2-0.1c0,0,0.2,0,0.2,0c0.1,0.1,0.2,0.1,0.4-0.1c0,0,0.1-0.1,0.1-0.1
				c-0.1,0-0.2,0-0.2,0l0,0l-0.1,0.1l-0.1-0.1L107.4,132.4z M107,132.3c0,0.1-0.2,0.3-0.1,0.4c0.1,0.1,0.1,0,0.1-0.1
				c0.2-0.1-0.1-0.1,0.1-0.2L107,132.3z"/>
			<path class="st0" d="M104.1,131.3C104.1,131.3,104.1,131.3,104.1,131.3l0.5-0.4c-0.1,0-0.2,0.1-0.3,0.1L104.1,131.3z"/>
		</g>
		<g>
			<polygon class="st0" points="101.1,125.4 101,125.4 101.1,125.4 			"/>
			<path class="st0" d="M102,122.7l0.8-0.4c-0.1,0.1-0.1,0.1-0.1,0.1c0.1,0.1,0.4,0.1,0.4,0.3c0,0,0.1,0,0.1,0
				c0.2,0-0.1,0.1-0.1,0.1c-0.2,0.2-0.3,0.1-0.4,0.1c0,0-0.1,0.1-0.2,0.1c-0.1,0.1-0.1,0.1-0.2,0.2c0.1,0,0.1-0.1,0.1-0.1
				c0.1,0.2,0.7-0.3,0.8-0.1c0,0,0.1,0,0.1,0c0.3-0.2,0.3-0.1,0.4-0.1c0,0,0,0,0,0.1c0,0,0,0,0,0l0-0.1l0-0.1c0,0,0.1,0,0.1,0
				c0,0.2,0,0.5,0.1,0.7c0,0.1,0.2,0.1,0.2,0.2c0,0,0,0.1-0.1,0.1c0,0-0.1,0.1-0.2,0.1c0,0,0-0.1,0-0.1c0,0,0-0.1,0-0.1
				c-0.1,0-0.2,0.1-0.2,0.1c0,0.1,0,0.1,0.1,0.2c0,0,0,0,0.1,0.1c0,0,0,0-0.1,0.1c0,0-0.1,0-0.1,0c-0.1-0.1-0.1,0.1-0.2,0.1
				c0.1,0.1-1.2,0.4-0.5,0.5c0.1,0-0.1,0.2-0.2,0.3c0,0,0-0.1-0.1-0.1c-0.1,0-0.2,0.1-0.3,0.1c0,0,0,0.1,0,0.1c0,0,0.1,0,0.2-0.1
				c0,0,0.1,0,0.1,0c0,0,0,0,0,0.1c-0.1,0.1-0.3,0.2-0.4,0.2c-0.4,0.1-0.7,0.3-1,0.5c0,0-0.2,0-0.2,0c0.1-0.1,0-0.2-0.1-0.1
				c-0.1,0-0.1,0-0.1,0c0,0,0.1,0,0.1,0c0,0,0.1-0.1,0.1-0.1c-0.1,0-0.2,0-0.2,0c-0.1,0-0.1-0.1-0.1-0.1l0.2-0.1l0,0c0,0,0,0,0,0
				c0,0,0,0,0,0c0,0,0,0,0,0l-0.1,0l0,0l0,0l-0.2,0c0,0-0.1,0-0.1,0c0.3-0.3,0-0.3-0.1-0.3c0,0,0,0,0.1-0.1c0,0,0,0,0,0c0,0,0,0,0,0
				c0,0,0.1,0,0.1-0.1c0,0,0,0,0.1,0c0,0,0,0,0,0c0.1-0.1-0.4,0.1,0-0.1l-0.2-0.1l-0.1,0.1l-0.2,0c-0.1,0-0.1,0-0.2,0
				c-0.2,0,0-0.2,0-0.3c0,0-0.1,0-0.1,0c0,0,0-0.1-0.1-0.1c-0.2-0.1,0,0-0.1,0.1c0,0,0,0,0,0l-0.1,0c0,0,0.1,0,0.1-0.1
				c0,0,0.1,0,0.1,0c0,0-0.1,0-0.1,0c0,0-0.1,0-0.1,0c0-0.1-0.2-0.1,0.1-0.2c0,0,0,0,0,0c0,0,0,0-0.1,0l-0.2,0.1
				c0.1-0.1,0.2-0.1,0.3-0.2c0.1,0,0.2,0,0.3-0.1c0.1,0,0.1-0.1,0.2-0.2c0.1-0.1,0.1-0.1,0.1-0.2c0.1-0.1,0.1-0.1,0.1-0.1l1-0.5
				c-0.1,0.1-0.2,0.1-0.1,0.1l0,0.1l0.2,0C101.7,123,101.8,122.8,102,122.7z M102.5,124.2c0,0,0,0.1,0,0.1c0,0,0.2,0,0.2,0
				c0-0.1,0-0.1,0.1-0.1C102.7,124.2,102.6,124.2,102.5,124.2z M102,124C102,124,101.9,124,102,124l0.4,0.2c0,0,0,0,0.1,0.1l0-0.1
				c-0.2,0.1,0.3-0.2,0-0.1C102.2,124,102.1,124,102,124z M101.8,123c-0.2,0.1-0.1,0.1-0.1,0.2c-0.1,0.2,0.2-0.1,0.2,0l0.1-0.2
				C102,123,101.9,123,101.8,123z"/>
			<path class="st0" d="M102.9,122.3c0.1,0-0.1,0.2,0.2,0.1l-0.1,0.1c0,0,0,0,0,0c0.3-0.1,0.2-0.2,0.3-0.3l0,0c-0.1,0-0.1,0-0.3,0.1
				c-0.1,0,0-0.1,0.2-0.1l0-0.1L102.9,122.3C102.9,122.3,102.9,122.3,102.9,122.3z"/>
			<path class="st0" d="M103.2,122.5c0,0.2,0,0.2,0.5-0.1C103.5,122.5,103.3,122.5,103.2,122.5C103.3,122.4,103.2,122.4,103.2,122.5
				z"/>
			<polygon class="st0" points="103.7,122.4 103.7,122.4 103.7,122.4 			"/>
			<path class="st0" d="M103.9,122.3c-0.1,0-0.1,0.1-0.2,0.1L103.9,122.3L103.9,122.3z"/>
			<path class="st0" d="M103.4,122.8C103.4,122.8,103.5,122.8,103.4,122.8c0.1-0.1,0.2-0.2,0.2-0.3c0,0-0.1,0-0.1,0
				C103.3,122.7,103.4,122.7,103.4,122.8z"/>
		</g>
		<g>
			<path class="st0" d="M100.2,120c0.2-0.2,0.5-0.2,0.4,0c-0.1,0.1,0,0.1-0.1,0.2c0,0,0.1,0,0.1,0c0.4-0.4,0.3,0.2,0.6-0.2
				c0,0.2,0.5-0.1,0.6,0c-0.3,0.1,0,0.1-0.2,0.2c-0.1,0.1-0.2-0.1-0.3,0.1c0,0-0.1,0-0.1,0l-0.1-0.1c0,0-0.1,0-0.1,0.1l0,0.3
				l0.2-0.2c0.1,0.1,0.2,0.1,0.2,0.2c0,0.2,0,0.3,0.2,0.4c0.1,0,0.2,0,0,0.1c0,0,0,0.1,0.2-0.1c0.1-0.1,0.1-0.1,0.1-0.1c0,0,0,0,0,0
				c0,0,0.1,0,0.1,0c0,0.2,0.1,0.4,0.5,0.4c0,0,0,0,0,0c-0.2,0.1-0.2,0.1,0,0.1l0,0c-0.1-0.1,0.1-0.1,0.2-0.2l-0.2-0.1
				c0.2-0.1,0.3-0.1,0.4,0c0,0-0.1,0.1-0.1,0.2c0,0.1,0.1,0.3,0.1,0.4c0.1,0,0.2-0.1,0.2-0.1c0.3-0.1,0,0.1,0,0.1
				c0.3-0.1,0.3-0.1-0.1,0.2c0,0-0.1,0.1-0.1,0.1c0.3-0.1,0,0.2,0.1,0.2c0,0,0.1,0,0.1,0c0,0,0,0,0,0l-0.1,0.1l-0.5,0.2
				c0-0.1,0.1-0.2,0.1-0.3c-0.1,0-0.2-0.1-0.3-0.1c0,0.1,0,0.3,0.1,0.4c0,0,0.1,0,0.1,0l-2.8,1.5c0,0-0.1,0,0-0.1c0,0,0,0-0.1,0
				l0,0.1l-0.1,0.1c0,0-0.1,0-0.1,0c0,0,0-0.1-0.1-0.1c0.6-0.3,0-0.2,0.2-0.3c0.1-0.1,0.1-0.2,0.1-0.2c0,0,0-0.1,0-0.1
				c0,0-0.1,0.1-0.1,0.1c-0.1,0-0.1,0-0.1,0c0,0,0-0.1,0-0.1c-0.1-0.2-0.3-0.3-0.4-0.5c0-0.1,0-0.1-0.1-0.2
				c-0.2-0.1-0.2-0.4-0.1-0.6c-0.1,0-0.1,0.1-0.2,0.1c-0.1,0-0.2,0.1-0.2,0c0,0,0.1-0.1,0.1-0.2c0-0.1,0.2-0.3-0.1-0.2
				c0,0,0-0.1,0-0.1c-0.3,0.1-0.2,0.1,0-0.1c-0.2-0.1,0.1-0.3,0.3-0.4c0.3-0.1,0.2-0.2,0.2-0.3c0,0,0.1,0,0.1,0c0,0,0.1,0.1,0.1,0.1
				c0,0,0.1,0,0.2,0c0,0,0.1-0.1,0.1-0.1c0,0,0-0.1,0-0.1c0,0,0,0.1,0.1,0.1c0.2,0.1,0.4-0.2,0.6-0.3c0,0-0.1-0.1-0.1-0.1
				C100.2,120.2,100.1,120,100.2,120z M102,122.2c0,0.1-0.1,0.2-0.1,0.3c0,0,0.1,0,0.1,0c0-0.1,0.1-0.2,0.2-0.3L102,122.2z
				 M102.6,121.8c0,0.1,0,0.1,0,0.2c0,0,0.1,0,0.1-0.1c0.2-0.1,0.2-0.1,0-0.1c-0.2,0.1,0.2-0.2,0.1-0.1
				C102.9,121.7,102.7,121.8,102.6,121.8z M102,121.6c-0.1,0-0.1,0.1-0.1,0.1c0,0,0.1,0,0.1,0.1c0,0,0,0.1,0,0.1
				c0,0-0.1-0.1-0.2,0.1c0,0.1,0,0.1-0.1,0.2c0.1,0,0.1-0.1,0.2-0.2c0,0,0.1,0,0.2,0c0.1,0.1,0.2,0.1,0.4-0.2c0,0,0.1-0.1,0.1-0.1
				c-0.1,0-0.2,0-0.2,0l0,0l-0.1,0.1l-0.1-0.1L102,121.6z M101.7,121.6c0,0.1-0.1,0.3-0.1,0.4c0.1,0.1,0.1,0,0.1-0.1
				c0.2-0.1-0.1-0.1,0.1-0.2L101.7,121.6z"/>
			<path class="st0" d="M98.7,120.7C98.7,120.7,98.7,120.7,98.7,120.7l0.5-0.4c-0.1,0-0.2,0.1-0.3,0.1L98.7,120.7z"/>
		</g>
		<g>
			<polygon class="st0" points="95.4,114.9 95.4,114.9 95.4,114.9 			"/>
			<path class="st0" d="M96.2,112.2l0.8-0.5c-0.1,0.1-0.1,0.1-0.1,0.1c0.1,0.1,0.4,0.1,0.4,0.3c0,0,0.1,0,0.1,0
				c0.2,0-0.1,0.1-0.1,0.2c-0.2,0.2-0.3,0.1-0.4,0.1c0,0-0.1,0.1-0.2,0.1c-0.1,0.1-0.1,0.1-0.2,0.2c0,0,0.1-0.1,0.1-0.1
				c0.1,0.1,0.7-0.3,0.8-0.2c0,0,0.1,0,0.1,0c0.3-0.2,0.3-0.1,0.4-0.1c0,0,0,0,0,0.1c0,0,0,0,0,0l0-0.1l0-0.1c0,0,0.1,0,0.1,0
				c0,0.2,0.1,0.5,0.1,0.7c0,0.1,0.2,0.1,0.2,0.2c0,0,0,0.1,0,0.1c0,0-0.1,0.1-0.2,0.1c0,0,0-0.1,0-0.1c0,0,0-0.1,0-0.1
				c-0.1,0-0.2,0.1-0.2,0.1c0,0.1,0.1,0.1,0.1,0.2c0,0,0.1,0,0.1,0.1c0,0,0,0-0.1,0.1c0,0-0.1,0-0.1,0c-0.1-0.1-0.1,0.1-0.2,0.1
				c0.1,0.1-1.2,0.4-0.5,0.5c0.1,0-0.1,0.2-0.1,0.3c0,0,0-0.1-0.1,0c-0.1,0-0.2,0.1-0.3,0.1c0,0,0,0.1,0,0.1c0,0,0.1,0,0.2-0.1
				c0,0,0.1,0,0.1,0c0,0,0,0,0,0.1c-0.1,0.1-0.3,0.2-0.4,0.2c-0.4,0.2-0.7,0.3-1,0.6c0,0-0.2,0-0.2,0c0.1-0.1,0-0.2-0.1-0.1
				c-0.1,0-0.1,0-0.1,0c0,0,0.1,0,0.1,0c0,0,0.1-0.1,0.1-0.1c-0.1,0-0.2,0-0.2,0c-0.1,0-0.1-0.1-0.1-0.1l0.2-0.1l0,0c0,0,0,0,0,0
				c0,0,0,0,0,0c0,0,0,0,0,0l-0.1,0l0,0l0,0l-0.2,0c0,0-0.1,0-0.1,0c0.3-0.3,0-0.3-0.1-0.3c0,0,0,0,0.1-0.1c0,0,0,0,0,0c0,0,0,0,0,0
				c0,0,0.1,0,0.1-0.1c0,0,0,0,0.1,0c0,0,0,0,0,0c0.1-0.1-0.4,0.2,0-0.1l-0.2-0.1l0,0.1l-0.2,0c-0.1,0-0.1,0-0.2,0
				c-0.2,0,0-0.2-0.1-0.3c0,0-0.1,0-0.1,0c0,0,0-0.1-0.1-0.1c-0.2,0,0,0-0.1,0.1c0,0,0,0,0,0l-0.1,0c0,0,0.1,0,0.1-0.1
				c0,0,0.1,0,0.1,0c0,0-0.1,0-0.1,0c0,0-0.1,0-0.1,0c0-0.1-0.2,0,0.1-0.2c0,0,0,0,0,0c0,0,0,0-0.1,0l-0.2,0.1
				c0.1-0.1,0.2-0.1,0.2-0.2c0.1,0,0.2,0,0.3-0.1c0.1,0,0.1-0.1,0.2-0.2c0.1-0.1,0.1-0.1,0.1-0.2c0.1-0.1,0.1-0.1,0.1-0.1l1-0.6
				c-0.1,0.1-0.2,0.1-0.1,0.1l0,0.1l0.2-0.1C95.9,112.4,96.1,112.3,96.2,112.2z M96.8,113.6c0,0,0,0.1,0,0.1c0,0,0.2,0,0.2,0
				c0-0.1,0-0.1,0-0.1C97,113.6,96.9,113.6,96.8,113.6z M96.3,113.5C96.3,113.5,96.3,113.5,96.3,113.5l0.4,0.2c0,0,0,0,0.1,0.1
				l0-0.1c-0.2,0.1,0.3-0.2,0-0.1C96.5,113.5,96.4,113.4,96.3,113.5z M96.1,112.5c-0.2,0.1-0.1,0.1-0.1,0.2c-0.1,0.2,0.2-0.1,0.2,0
				l0.1-0.2C96.3,112.4,96.2,112.5,96.1,112.5z"/>
			<path class="st0" d="M97.2,111.7c0.1,0-0.1,0.2,0.2,0.1l-0.1,0.1c0,0,0,0,0,0c0.3-0.1,0.2-0.2,0.3-0.3l0,0
				c-0.1,0-0.1,0.1-0.3,0.1c-0.1,0,0-0.1,0.2-0.1l0-0.1L97.2,111.7C97.1,111.7,97.1,111.7,97.2,111.7z"/>
			<path class="st0" d="M97.5,111.9c0,0.2,0,0.2,0.5-0.1C97.7,111.9,97.6,111.9,97.5,111.9C97.5,111.8,97.5,111.8,97.5,111.9z"/>
			<polygon class="st0" points="98,111.8 98,111.8 98,111.8 			"/>
			<path class="st0" d="M98.1,111.7c-0.1,0-0.1,0.1-0.2,0.1L98.1,111.7L98.1,111.7z"/>
			<path class="st0" d="M97.7,112.2C97.7,112.2,97.7,112.2,97.7,112.2c0.1-0.1,0.2-0.2,0.2-0.3c0,0-0.1,0-0.1,0
				C97.6,112.1,97.7,112.1,97.7,112.2z"/>
		</g>
		<g>
			<path class="st0" d="M94.4,109.5c0.2-0.2,0.5-0.2,0.4-0.1c-0.1,0.1,0,0.1-0.1,0.2c0,0,0.1,0,0.1,0c0.3-0.4,0.3,0.1,0.6-0.3
				c0,0.2,0.5-0.1,0.6,0c-0.3,0.2,0,0.1-0.2,0.2c-0.1,0.1-0.2-0.1-0.3,0.1c0,0-0.1,0-0.1,0l-0.1-0.1c0,0-0.1,0-0.1,0.1l0,0.3
				l0.2-0.2c0.1,0.1,0.2,0.1,0.2,0.2c0,0.2,0,0.3,0.2,0.4c0.1,0,0.2,0,0,0.1c0,0,0,0.1,0.2-0.1c0.1-0.1,0.1-0.1,0.1-0.2c0,0,0,0,0,0
				c0,0,0.1,0,0.1,0c0,0.2,0.1,0.4,0.5,0.4c0,0,0,0,0,0c-0.2,0.1-0.2,0.2,0,0.1h0c-0.1-0.1,0.1-0.2,0.2-0.2l-0.2-0.1
				c0.2-0.1,0.3-0.1,0.4,0c0,0-0.1,0.1-0.1,0.2c0,0.1,0.1,0.3,0.1,0.4c0.1,0,0.1-0.1,0.2-0.1c0.3-0.1,0,0.1,0,0.1
				c0.3-0.1,0.3-0.1-0.1,0.2c0,0-0.1,0.1-0.1,0.1c0.3-0.1,0,0.2,0.1,0.1c0,0,0.1,0,0.1,0c0,0,0,0,0,0l-0.1,0.1l-0.5,0.3
				c0-0.1,0-0.2,0.1-0.3c-0.1,0-0.2,0-0.3-0.1c0,0.1,0.1,0.3,0.1,0.4c0,0,0.1,0,0.1,0l-2.8,1.6c0,0-0.1,0,0-0.1c0,0,0,0-0.1,0l0,0.1
				l-0.1,0.1c0,0-0.1,0-0.1,0c0,0,0-0.1-0.1-0.1c0.6-0.3,0-0.2,0.2-0.3c0.1-0.1,0-0.2,0.1-0.2c0,0,0-0.1-0.1-0.1
				c0,0-0.1,0.1-0.1,0.1c-0.1,0-0.1,0-0.1,0c0,0,0-0.1,0-0.1c-0.1-0.2-0.3-0.3-0.4-0.5c0-0.1,0-0.1-0.1-0.2
				c-0.2-0.1-0.2-0.4-0.1-0.6c-0.1,0-0.1,0.1-0.2,0.1c-0.1,0-0.2,0.1-0.2,0.1c0,0,0.1-0.1,0.1-0.2c0-0.1,0.2-0.3-0.1-0.2
				c0,0,0-0.1,0-0.1c-0.2,0.1-0.2,0.1,0-0.1c-0.2-0.1,0.1-0.3,0.3-0.4c0.2-0.2,0.2-0.2,0.2-0.3c0,0,0.1,0,0.1,0c0,0,0.1,0.1,0.1,0.1
				c0,0,0.1,0,0.2,0c0,0,0.1-0.1,0.1-0.1c0,0,0-0.1,0-0.1c0,0,0,0.1,0.1,0.1c0.2,0,0.4-0.2,0.6-0.3c0,0-0.1-0.1-0.1-0.1
				C94.3,109.7,94.3,109.6,94.4,109.5z M96.2,111.6c0,0.1-0.1,0.2-0.1,0.3c0,0,0.1,0,0.1,0c0-0.1,0.1-0.2,0.1-0.3L96.2,111.6z
				 M96.9,111.2c0,0.1,0,0.1,0.1,0.2c0,0,0.1,0,0.1-0.1c0.2-0.1,0.2-0.1,0-0.1c-0.2,0.1,0.2-0.2,0.1-0.1
				C97.1,111.1,97,111.2,96.9,111.2z M96.3,111.1c-0.1,0-0.1,0.1-0.1,0.1c0,0,0.1,0,0.1,0.1c0,0,0,0.1,0,0.1c0,0-0.1-0.1-0.2,0.1
				c0,0.1,0,0.1-0.1,0.2c0.1,0,0.1-0.1,0.2-0.2c0,0,0.1-0.1,0.2,0c0.1,0.1,0.2,0.1,0.4-0.2c0,0,0.1-0.1,0.1-0.1c-0.1,0-0.2,0-0.2,0
				l0,0l-0.1,0.1l-0.1-0.1L96.3,111.1z M95.9,111c0,0.1-0.1,0.3-0.1,0.4c0.1,0.1,0.1,0,0.1-0.1c0.2-0.1-0.1-0.1,0.1-0.2L95.9,111z"
				/>
			<path class="st0" d="M92.9,110.3C92.9,110.3,92.9,110.3,92.9,110.3l0.5-0.4c-0.1,0-0.1,0.1-0.3,0.1L92.9,110.3z"/>
		</g>
		<g>
			<polygon class="st0" points="89.4,104.6 89.4,104.6 89.4,104.6 			"/>
			<path class="st0" d="M90.1,101.9l0.8-0.5c-0.1,0.1-0.1,0.1-0.1,0.1c0.1,0.1,0.4,0,0.4,0.3c0,0,0.1,0,0.1,0c0.2,0-0.1,0.1-0.1,0.2
				c-0.2,0.2-0.3,0.1-0.4,0.1c0,0-0.1,0.1-0.1,0.1c-0.1,0.1-0.1,0.1-0.2,0.2c0,0,0.1-0.1,0.1-0.1c0.1,0.1,0.7-0.3,0.8-0.2
				c0,0,0.1,0,0.1,0c0.3-0.2,0.3-0.1,0.4-0.1c0,0,0,0,0,0.1c0,0,0,0,0,0l0-0.1l0-0.1c0,0,0.1,0,0.1,0c0.1,0.2,0.1,0.5,0.1,0.7
				c0,0.1,0.2,0.1,0.2,0.1c0,0,0,0.1,0,0.1c0,0-0.1,0.1-0.2,0.1c0,0,0-0.1,0-0.1c0,0,0-0.1,0-0.1c-0.1,0-0.2,0.1-0.2,0.1
				c0,0.1,0.1,0.1,0.1,0.2c0,0,0.1,0,0.1,0.1c0,0,0,0-0.1,0.1c0,0-0.1,0-0.1,0c-0.1-0.1-0.1,0.1-0.2,0.1c0.1,0.1-1.2,0.5-0.4,0.5
				c0.1,0-0.1,0.2-0.1,0.3c0,0,0-0.1-0.1,0c-0.1,0-0.2,0.1-0.3,0.1c0,0,0,0.1,0,0.1c0,0,0.1-0.1,0.2-0.1c0,0,0,0,0,0c0,0,0,0,0,0.1
				c-0.1,0.1-0.3,0.2-0.4,0.3c-0.4,0.2-0.7,0.4-1,0.6c0,0-0.2,0.1-0.2,0c0.1-0.1,0-0.2-0.1-0.1c-0.1,0-0.1,0-0.1,0
				c0,0,0.1,0,0.1-0.1c0,0,0.1-0.1,0.1-0.1c-0.1,0-0.2,0-0.2,0c-0.1,0-0.1,0-0.1-0.1l0.2-0.1l0,0c0,0,0,0,0,0.1c0,0,0,0,0,0
				c0,0,0,0,0,0l-0.1,0l0,0l0,0l-0.2,0c0,0-0.1,0-0.1,0c0.3-0.3,0-0.3-0.1-0.3c0,0,0,0,0-0.1c0,0,0,0,0,0c0,0,0,0,0,0
				c0,0,0,0,0.1-0.1c0,0,0,0,0.1,0c0,0,0,0,0,0c0.1-0.1-0.4,0.2,0-0.1l-0.2-0.1l0,0.1l-0.2,0c-0.1,0-0.1,0-0.2,0
				c-0.2,0,0-0.2-0.1-0.3c0,0-0.1,0-0.1,0c0,0,0-0.1-0.1-0.1c-0.2,0,0,0-0.1,0.1c0,0,0,0,0,0l-0.1,0c0,0,0.1-0.1,0.1-0.1
				c0,0,0.1,0,0.1,0c0,0-0.1,0-0.1,0c0,0-0.1,0-0.1,0c0-0.1-0.2,0,0.1-0.2c0,0,0,0,0,0c0,0,0,0-0.1,0l-0.2,0.1
				c0.1-0.1,0.2-0.1,0.2-0.2c0.1,0,0.2-0.1,0.3-0.1c0.1,0,0.1-0.1,0.2-0.2c0.1-0.1,0.1-0.1,0.1-0.2c0.1-0.1,0.1-0.1,0.1-0.1l1-0.6
				c-0.1,0.1-0.1,0.1-0.1,0.1l0,0.1l0.2-0.1C89.8,102.1,90,102,90.1,101.9z M90.8,103.3c0,0,0,0.1,0,0.1c0,0,0.2,0,0.2,0
				c0-0.1,0-0.1,0-0.1C90.9,103.3,90.9,103.3,90.8,103.3z M90.2,103.1C90.2,103.1,90.2,103.1,90.2,103.1l0.4,0.1c0,0,0,0,0.1,0.1
				l0-0.2c-0.2,0.1,0.3-0.2,0-0.1C90.5,103.1,90.3,103.1,90.2,103.1z M90,102.2c-0.2,0.1-0.1,0.1-0.1,0.2c-0.1,0.2,0.2-0.1,0.2-0.1
				l0.1-0.2C90.2,102.1,90.1,102.1,90,102.2z"/>
			<path class="st0" d="M91.1,101.3c0.1,0-0.1,0.2,0.2,0.1l-0.1,0.1c0,0,0,0,0,0c0.3-0.1,0.2-0.2,0.3-0.3l0,0
				c-0.1,0-0.1,0.1-0.3,0.1c-0.1,0,0-0.1,0.2-0.1l0-0.1L91.1,101.3C91,101.3,91,101.3,91.1,101.3z"/>
			<path class="st0" d="M91.4,101.5c0,0.2,0.1,0.2,0.5-0.1C91.6,101.5,91.5,101.6,91.4,101.5C91.4,101.4,91.4,101.5,91.4,101.5z"/>
			<polygon class="st0" points="91.8,101.4 91.8,101.4 91.8,101.4 			"/>
			<path class="st0" d="M92,101.2c-0.1,0-0.1,0.1-0.2,0.1L92,101.2L92,101.2z"/>
			<path class="st0" d="M91.6,101.8C91.6,101.8,91.6,101.8,91.6,101.8c0.1-0.1,0.2-0.2,0.2-0.3c0,0-0.1,0-0.1,0
				C91.5,101.7,91.6,101.7,91.6,101.8z"/>
		</g>
		<g>
			<path class="st0" d="M88.2,99.2c0.2-0.2,0.5-0.3,0.4-0.1c-0.1,0.1,0,0.1-0.1,0.2c0,0,0.1,0,0.1,0c0.3-0.4,0.3,0.1,0.6-0.3
				c0,0.2,0.5-0.1,0.6,0c-0.3,0.2,0,0.1-0.1,0.2c-0.1,0.1-0.2,0-0.3,0.2c0,0-0.1,0-0.1,0l-0.1-0.1c0,0-0.1,0-0.1,0.1l0,0.3l0.2-0.2
				c0.1,0.1,0.2,0.1,0.2,0.2c0,0.2,0,0.3,0.2,0.4c0.1,0,0.2,0,0,0.1c0,0,0,0.1,0.2-0.1C90,100,90,99.9,90,99.9c0,0,0,0,0,0
				c0,0,0.1,0,0.1,0c0,0.2,0.1,0.4,0.5,0.4c0,0,0,0,0,0c-0.2,0.1-0.2,0.2,0,0.1l0,0c-0.1-0.1,0.1-0.2,0.2-0.3l-0.2,0
				c0.2-0.1,0.3-0.1,0.4-0.1c0,0-0.1,0.1-0.1,0.2c0,0.1,0.1,0.3,0.1,0.4c0.1-0.1,0.1-0.1,0.2-0.2c0.3-0.1,0,0.1,0,0.1
				c0.3-0.1,0.3-0.1-0.1,0.2c0,0-0.1,0.1,0,0.1c0.3-0.1,0,0.2,0.1,0.1c0,0,0.1,0,0.1,0c0,0,0,0,0,0l-0.1,0.2l-0.5,0.3
				c0-0.1,0-0.2,0.1-0.3c-0.1,0-0.2,0-0.3-0.1c0,0.1,0.1,0.3,0.1,0.4c0,0,0.1,0,0.1,0l-2.7,1.7c0,0-0.1,0-0.1-0.1c0,0,0,0-0.1,0
				l0,0.1l-0.1,0.1c0,0-0.1,0-0.1,0c0,0,0,0-0.1-0.1c0.6-0.3,0-0.2,0.1-0.3c0.1-0.1,0-0.2,0-0.2c0,0,0-0.1-0.1-0.1
				c0,0-0.1,0.1-0.1,0.1c-0.1,0-0.1,0-0.1,0c0,0,0-0.1,0-0.1c-0.1-0.1-0.3-0.3-0.4-0.4c0-0.1,0-0.1-0.1-0.2
				c-0.2-0.1-0.2-0.3-0.1-0.6c-0.1,0-0.1,0.1-0.2,0.1c-0.1,0-0.2,0.1-0.2,0.1c0,0,0.1-0.1,0.1-0.2c0-0.1,0.2-0.3-0.1-0.2
				c0,0,0-0.1,0-0.1c-0.2,0.1-0.2,0.1,0-0.1c-0.2-0.1,0.1-0.3,0.3-0.4c0.2-0.2,0.2-0.2,0.2-0.3c0,0,0.1,0,0.1,0c0,0,0.1,0.1,0.1,0.1
				c0,0,0.1,0,0.2,0c0,0,0.1-0.1,0.1-0.1c0,0,0-0.1,0-0.1c0,0,0,0.1,0.1,0.1c0.2,0,0.4-0.2,0.6-0.3c0,0-0.1-0.1-0.1-0.1
				C88.1,99.4,88.1,99.3,88.2,99.2z M90.1,101.3c0,0.1-0.1,0.2-0.1,0.3c0,0,0.1,0,0.1,0c0-0.1,0.1-0.2,0.1-0.3L90.1,101.3z
				 M90.7,100.9c0,0.1,0,0.1,0.1,0.2c0,0,0.1,0,0.1-0.1c0.2-0.1,0.2-0.1,0-0.1c-0.2,0.1,0.2-0.2,0.1-0.2
				C90.9,100.8,90.8,100.8,90.7,100.9z M90.1,100.7c0,0-0.1,0.1-0.1,0.1c0,0,0.1,0,0.1,0c0,0,0,0.1,0,0.1c0,0-0.1,0-0.2,0.1
				c0,0.1,0,0.1-0.1,0.2c0.1,0,0.1-0.1,0.2-0.2c0,0,0.1-0.1,0.2,0c0.1,0.1,0.2,0.1,0.4-0.2c0,0,0.1-0.1,0-0.1c-0.1,0-0.1,0-0.2,0
				l0,0l-0.1,0.1l-0.1-0.1L90.1,100.7z M89.7,100.7c0,0.1-0.1,0.3-0.1,0.4c0.1,0.1,0.1,0,0.1-0.1c0.2-0.1-0.1-0.1,0.1-0.2
				L89.7,100.7z"/>
			<path class="st0" d="M86.7,100C86.7,100,86.7,100,86.7,100l0.5-0.4c-0.1,0-0.1,0.1-0.2,0.1C86.8,99.8,86.8,99.9,86.7,100z"/>
		</g>
		<g>
			<polygon class="st0" points="83.1,94.5 83,94.5 83.1,94.5 			"/>
			<path class="st0" d="M83.7,91.7l0.8-0.5c-0.1,0.1-0.1,0.1-0.1,0.2c0.1,0.1,0.4,0,0.4,0.2c0,0,0.1,0,0.1,0c0.2,0-0.1,0.1-0.1,0.2
				c-0.2,0.2-0.2,0.1-0.4,0.1c0,0-0.1,0.1-0.1,0.1c-0.1,0.1-0.1,0.1-0.2,0.2c0,0,0.1-0.1,0.1-0.1c0.1,0.1,0.7-0.4,0.8-0.2
				c0,0,0.1,0,0.1,0c0.3-0.2,0.3-0.1,0.4-0.1c0,0,0,0.1,0,0.1c0,0,0,0,0,0l0-0.1l0-0.1c0,0,0.1,0,0.1,0c0.1,0.2,0.1,0.5,0.2,0.7
				c0,0.1,0.2,0.1,0.2,0.1c0,0,0,0.1,0,0.1c0,0-0.1,0.1-0.2,0.1c0,0,0-0.1,0-0.1c0,0,0-0.1,0-0.1c-0.1,0-0.2,0.1-0.2,0.1
				c0,0.1,0.1,0.1,0.1,0.2c0,0,0.1,0,0.1,0c0,0,0,0-0.1,0.1c0,0-0.1,0-0.1,0c-0.1-0.1-0.1,0.1-0.2,0.1c0.1,0.1-1.1,0.5-0.4,0.5
				c0.1,0-0.1,0.2-0.1,0.3c0,0,0-0.1-0.1,0c-0.1,0-0.2,0.1-0.3,0.1c0,0,0,0.1,0,0.1c0,0,0.1-0.1,0.2-0.1c0,0,0,0,0,0c0,0,0,0,0,0
				c-0.1,0.1-0.3,0.2-0.4,0.3c-0.3,0.2-0.7,0.4-1,0.6c0,0-0.2,0.1-0.2,0c0.1-0.1,0-0.2-0.1-0.1c-0.1,0-0.1,0-0.1,0
				c0,0,0.1,0,0.1-0.1c0,0,0.1-0.1,0.1-0.1c-0.1,0-0.2,0-0.2,0c-0.1,0-0.1,0-0.1-0.1l0.2-0.1l0,0c0,0,0,0,0,0.1c0,0,0,0,0,0
				c0,0,0,0,0,0l-0.1,0l0,0l0,0l-0.2,0c0,0-0.1,0-0.1,0c0.3-0.3,0-0.3-0.2-0.3c0,0,0,0,0-0.1c0,0,0,0,0,0c0,0,0,0,0,0
				c0,0,0,0,0.1-0.1c0,0,0,0,0.1,0c0,0,0,0,0,0c0.1-0.1-0.4,0.2,0-0.1l-0.2-0.1l0,0.1l-0.2,0c-0.1,0-0.1,0-0.2,0
				c-0.2,0,0-0.2-0.1-0.3c0,0-0.1,0-0.1,0c0,0,0-0.1-0.1-0.1c-0.2,0,0,0-0.1,0.1c0,0,0,0,0,0l-0.1,0c0,0,0.1-0.1,0.1-0.1
				c0,0,0.1,0,0.1,0c0,0-0.1,0-0.1,0c0,0-0.1,0-0.1,0c0-0.1-0.2,0,0-0.2c0,0,0,0,0-0.1c0,0,0,0-0.1,0l-0.2,0.1
				c0.1-0.1,0.1-0.2,0.2-0.2c0.1-0.1,0.2-0.1,0.3-0.1c0.1,0,0.1-0.1,0.2-0.2c0-0.1,0-0.1,0.1-0.2c0.1-0.1,0.1-0.1,0.1-0.1l1-0.6
				c-0.1,0.1-0.1,0.1-0.1,0.1l0,0.1l0.2-0.1C83.4,92,83.6,91.8,83.7,91.7z M84.4,93.1c0,0,0,0.1,0,0.1c0,0,0.2,0,0.2,0
				c0-0.1,0-0.1,0-0.1C84.5,93.1,84.5,93.1,84.4,93.1z M83.8,93C83.8,93,83.8,93,83.8,93l0.4,0.1c0,0,0,0,0.1,0.1l0-0.2
				c-0.2,0.1,0.3-0.2,0-0.1C84.1,93,83.9,93,83.8,93z M83.6,92c-0.2,0.1-0.1,0.1-0.1,0.2c-0.1,0.2,0.2-0.2,0.2-0.1l0.1-0.2
				C83.7,92,83.6,92,83.6,92z"/>
			<path class="st0" d="M84.6,91.2c0.1,0-0.1,0.2,0.2,0.1l-0.1,0.1c0,0,0,0,0,0c0.3-0.1,0.2-0.2,0.3-0.3l0,0c-0.1,0-0.1,0.1-0.3,0.1
				c-0.1,0,0-0.1,0.1-0.1l0-0.1L84.6,91.2C84.5,91.2,84.6,91.2,84.6,91.2z"/>
			<path class="st0" d="M84.9,91.3c0,0.2,0.1,0.2,0.5-0.1C85.2,91.3,85,91.4,84.9,91.3C85,91.3,84.9,91.3,84.9,91.3z"/>
			<polygon class="st0" points="85.4,91.2 85.4,91.2 85.4,91.2 			"/>
			<polygon class="st0" points="85.5,91.1 85.4,91.2 85.6,91.1 			"/>
			<path class="st0" d="M85.1,91.6C85.1,91.6,85.2,91.6,85.1,91.6c0.1-0.1,0.2-0.2,0.2-0.3c0,0-0.1,0-0.1,0
				C85,91.5,85.1,91.5,85.1,91.6z"/>
		</g>
		<g>
			<path class="st0" d="M81.6,89.1c0.2-0.2,0.5-0.3,0.4-0.1c-0.1,0.1,0,0.1,0,0.2c0,0,0.1,0,0.1,0c0.3-0.4,0.3,0.1,0.6-0.3
				c0,0.2,0.5-0.1,0.6,0c-0.3,0.2,0,0.1-0.1,0.2c-0.1,0.1-0.2,0-0.3,0.2c0,0-0.1,0-0.1,0l-0.1-0.1c0,0-0.1,0-0.1,0.1l0,0.3l0.2-0.2
				c0.1,0.1,0.2,0.1,0.2,0.2c0,0.2,0.1,0.3,0.2,0.4c0.1,0,0.2,0,0,0.1c0,0,0,0.1,0.2-0.1c0.1-0.1,0.1-0.1,0.1-0.2c0,0,0,0,0,0
				c0,0,0.1,0,0.1,0c0,0.2,0.1,0.4,0.5,0.4c0,0,0,0,0,0c-0.1,0.1-0.2,0.2,0,0.1l0,0c-0.1-0.1,0.1-0.2,0.2-0.3l-0.2,0
				c0.2-0.1,0.3-0.1,0.4-0.1c0,0-0.1,0.1,0,0.2c0,0.1,0.1,0.3,0.1,0.4c0.1-0.1,0.1-0.1,0.2-0.2c0.2-0.1,0,0.1,0,0.1
				c0.3-0.1,0.3-0.1-0.1,0.2c0,0-0.1,0.1,0,0.1c0.2-0.1,0,0.2,0.1,0.1c0,0,0.1,0,0.1,0c0,0,0,0,0,0L84.8,91l-0.4,0.3
				c0-0.1,0-0.2,0-0.3c-0.1,0-0.2,0-0.3-0.1c0,0.1,0.1,0.3,0.1,0.4c0,0,0.1,0,0.1,0L81.7,93c0,0-0.1,0-0.1-0.1c0,0,0,0-0.1,0l0,0.1
				l-0.1,0.1c0,0-0.1,0-0.1,0c0,0,0,0-0.1-0.1c0.6-0.4,0-0.2,0.1-0.3c0.1-0.1,0-0.2,0-0.2c0,0,0-0.1-0.1-0.1c0,0-0.1,0.1-0.1,0.1
				c-0.1,0-0.1,0-0.1,0c0,0,0-0.1,0-0.1c-0.1-0.1-0.3-0.3-0.4-0.4c0-0.1,0-0.1-0.1-0.2c-0.2-0.1-0.2-0.3-0.1-0.6
				c-0.1,0-0.1,0.1-0.2,0.1c-0.1,0-0.2,0.1-0.2,0.1c0,0,0.1-0.1,0.1-0.2c0-0.1,0.1-0.3-0.1-0.2c0,0,0-0.1,0-0.1
				c-0.2,0.1-0.2,0.1,0-0.1c-0.2-0.1,0.1-0.3,0.3-0.4c0.2-0.2,0.2-0.2,0.2-0.3c0,0,0.1,0,0.1,0c0,0,0.1,0,0.1,0.1c0,0,0.1,0,0.2,0
				c0,0,0.1-0.1,0.1-0.1c0,0,0-0.1,0-0.1c0,0,0,0.1,0.1,0.1c0.2,0,0.4-0.2,0.6-0.3c0,0-0.1-0.1-0.1-0.1
				C81.6,89.3,81.5,89.2,81.6,89.1z M83.6,91.2c0,0.1-0.1,0.2-0.1,0.3c0,0,0.1,0,0.1,0c0-0.1,0.1-0.2,0.1-0.3L83.6,91.2z M84.2,90.7
				c0,0.1,0,0.1,0.1,0.2c0,0,0.1,0,0.1-0.1c0.2-0.1,0.2-0.1,0-0.1c-0.2,0.1,0.2-0.2,0.1-0.2C84.4,90.6,84.3,90.7,84.2,90.7z
				 M83.6,90.6c0,0.1-0.1,0.1-0.1,0.1c0,0,0.1,0,0.1,0c0,0,0,0.1,0,0.1c0,0-0.1,0-0.2,0.1c0,0.1,0,0.1,0,0.2
				c0.1-0.1,0.1-0.1,0.2-0.2c0,0,0.1-0.1,0.2-0.1c0.1,0,0.2,0,0.4-0.2c0,0,0.1-0.1,0-0.1c-0.1,0-0.1,0-0.2,0l0,0l0,0.1l-0.1-0.1
				L83.6,90.6z M83.2,90.6c0,0.1-0.1,0.3,0,0.4c0.1,0.1,0.1,0,0.1-0.1c0.2-0.1-0.1-0.1,0.1-0.2L83.2,90.6z"/>
			<path class="st0" d="M80.2,90C80.2,90,80.2,90,80.2,90l0.5-0.5c-0.1,0-0.1,0.1-0.2,0.1C80.3,89.8,80.2,89.9,80.2,90z"/>
		</g>
		<g>
			<polygon class="st0" points="76.4,84.6 76.3,84.6 76.4,84.6 			"/>
			<path class="st0" d="M76.9,81.8l0.8-0.5c-0.1,0.1-0.1,0.1-0.1,0.2c0.1,0.1,0.4,0,0.4,0.2c0,0,0.1,0,0.1,0c0.2,0-0.1,0.1-0.1,0.2
				c-0.2,0.2-0.2,0.1-0.3,0.2c0,0-0.1,0.1-0.1,0.1c-0.1,0.1-0.1,0.1-0.2,0.2c0,0,0.1-0.1,0.1-0.1c0.1,0.1,0.7-0.4,0.7-0.2
				c0,0,0.1,0,0.1,0c0.3-0.2,0.3-0.1,0.4-0.1c0,0,0,0.1,0,0.1c0,0,0,0,0,0l0-0.1l0-0.1c0,0,0.1,0,0.1,0c0.1,0.2,0.1,0.5,0.2,0.7
				c0,0.1,0.2,0.1,0.2,0.1c0,0,0,0.1,0,0.1c0,0-0.1,0.1-0.2,0.1c0,0,0-0.1,0-0.1c0,0,0-0.1,0-0.1c-0.1,0-0.2,0.1-0.2,0.1
				c0,0.1,0.1,0.1,0.1,0.2c0,0,0.1,0,0.1,0c0,0,0,0-0.1,0.1c0,0-0.1,0-0.1,0c-0.1-0.1-0.1,0.1-0.2,0.1c0.2,0.1-1.1,0.6-0.4,0.5
				c0.1,0-0.1,0.2-0.1,0.3c0,0,0-0.1-0.1,0c-0.1,0-0.2,0.1-0.3,0.1c0,0,0,0.1,0,0.1c0,0,0.1-0.1,0.2-0.1c0,0,0,0,0,0c0,0,0,0,0,0
				c-0.1,0.1-0.3,0.2-0.4,0.3c-0.3,0.2-0.7,0.4-1,0.7c0,0-0.2,0.1-0.2,0.1c0.1-0.1,0-0.2-0.1-0.1c-0.1,0-0.1,0-0.1,0
				c0,0,0.1,0,0.1-0.1c0,0,0.1-0.1,0.1-0.1c-0.1,0-0.2,0.1-0.2,0c-0.1,0-0.1,0-0.1-0.1l0.2-0.1l0,0c0,0,0,0,0,0.1c0,0,0,0,0,0
				c0,0,0,0,0,0l-0.1,0l0,0l0,0l-0.2,0c0,0-0.1,0-0.1,0c0.3-0.3,0-0.3-0.2-0.3c0,0,0,0,0-0.1c0,0,0,0,0,0c0,0,0,0,0,0
				c0,0,0,0,0.1-0.1c0,0,0,0,0.1,0c0,0,0,0,0,0c0.1-0.1-0.4,0.2,0-0.1l-0.2-0.1l0,0.1l-0.2,0c-0.1,0-0.1,0-0.2,0
				c-0.2,0,0-0.2-0.1-0.3c0,0-0.1,0-0.1,0c0,0-0.1-0.1-0.1-0.1c-0.2,0,0,0-0.1,0.1c0,0,0,0,0,0l-0.1,0c0,0,0.1-0.1,0.1-0.1
				c0,0,0.1,0,0.1-0.1c0,0-0.1,0-0.1,0c0,0-0.1,0.1-0.1,0c0-0.1-0.2,0,0-0.2c0,0,0,0,0-0.1c0,0,0,0,0,0l-0.2,0.1
				c0.1-0.1,0.1-0.2,0.2-0.2c0.1-0.1,0.2-0.1,0.3-0.1c0.1,0,0.1-0.1,0.2-0.2c0-0.1,0-0.1,0.1-0.2c0.1-0.1,0.1-0.1,0.1-0.1l0.9-0.7
				c-0.1,0.1-0.1,0.1-0.1,0.1l0,0.1l0.2-0.1C76.6,82.1,76.8,81.9,76.9,81.8z M77.6,83.2c0,0,0,0.1,0,0.1c0,0,0.2,0,0.2,0
				c0-0.1,0-0.1,0-0.1C77.8,83.2,77.7,83.2,77.6,83.2z M77.1,83.1C77.1,83.1,77.1,83.1,77.1,83.1l0.4,0.1c0,0,0,0,0.1,0l0-0.2
				c-0.2,0.1,0.3-0.2,0-0.1C77.3,83,77.2,83,77.1,83.1z M76.8,82.1c-0.2,0.2-0.1,0.1-0.1,0.2c-0.1,0.2,0.2-0.2,0.2-0.1L77,82
				C77,82.1,76.9,82.1,76.8,82.1z"/>
			<path class="st0" d="M77.8,81.2c0.1,0-0.1,0.2,0.2,0.1l-0.1,0.1c0,0,0,0,0,0c0.3-0.1,0.2-0.2,0.3-0.3l0,0c-0.1,0-0.1,0.1-0.3,0.1
				c-0.1,0,0-0.1,0.1-0.1l0-0.1L77.8,81.2C77.7,81.2,77.8,81.2,77.8,81.2z"/>
			<path class="st0" d="M78.1,81.4c0,0.2,0.1,0.2,0.5-0.1C78.4,81.3,78.2,81.4,78.1,81.4C78.2,81.3,78.1,81.3,78.1,81.4z"/>
			<polygon class="st0" points="78.6,81.2 78.6,81.2 78.6,81.2 			"/>
			<polygon class="st0" points="78.8,81.1 78.6,81.2 78.8,81.1 			"/>
			<path class="st0" d="M78.3,81.7C78.3,81.7,78.4,81.6,78.3,81.7c0.1-0.1,0.2-0.2,0.2-0.3c0,0-0.1,0-0.1,0
				C78.2,81.5,78.3,81.6,78.3,81.7z"/>
		</g>
		<g>
			<path class="st0" d="M74.8,79.3c0.2-0.2,0.5-0.3,0.3-0.1c-0.1,0.1,0,0.1,0,0.2c0,0,0.1,0,0.1,0c0.3-0.4,0.3,0.1,0.6-0.3
				c0,0.2,0.5-0.1,0.6,0c-0.3,0.2,0,0.1-0.1,0.2c-0.1,0.1-0.2,0-0.3,0.2c0,0-0.1,0-0.1,0l-0.1-0.1c0,0-0.1,0-0.1,0.1l0,0.3l0.2-0.2
				c0.1,0.1,0.2,0.1,0.2,0.2c0,0.2,0.1,0.3,0.3,0.4c0.1,0,0.2,0,0,0.1c0,0,0,0.1,0.2-0.1c0.1-0.1,0.1-0.1,0.1-0.2c0,0,0,0,0,0
				c0,0,0.1,0,0.1,0c0,0.2,0.1,0.4,0.5,0.4c0,0,0,0,0,0c-0.1,0.1-0.1,0.2,0,0.1l0,0c-0.1,0,0.1-0.2,0.2-0.3l-0.2,0
				c0.2-0.1,0.3-0.1,0.4-0.1c0,0-0.1,0.1,0,0.2c0,0.1,0.1,0.3,0.1,0.4c0.1-0.1,0.1-0.1,0.2-0.2c0.2-0.1,0,0.1,0,0.1
				c0.3-0.1,0.3-0.1-0.1,0.2c0,0-0.1,0.1,0,0.1c0.2-0.1,0,0.2,0.2,0.1c0,0,0.1,0,0.1,0c0,0,0,0,0,0L78,81.1l-0.4,0.3
				c0-0.1,0-0.2,0-0.3c-0.1,0-0.2,0-0.3,0c0,0.1,0.1,0.3,0.1,0.4c0,0,0.1,0,0.1,0l-2.6,1.8c0,0-0.1,0-0.1-0.1c0,0,0,0-0.1,0l0,0.1
				l0,0.1c0,0-0.1,0-0.1,0c0,0,0,0-0.1-0.1c0.6-0.4,0-0.2,0.1-0.4c0.1-0.1,0-0.2,0-0.2c0,0,0,0-0.1-0.1c0,0-0.1,0.1-0.1,0.1
				c-0.1,0-0.1,0-0.1,0c0,0,0-0.1,0-0.1c-0.1-0.1-0.3-0.2-0.4-0.4c0-0.1,0-0.1-0.1-0.2c-0.2-0.1-0.2-0.3-0.2-0.6
				c-0.1,0-0.1,0.1-0.2,0.1c-0.1,0-0.2,0.1-0.2,0.1c0,0,0.1-0.1,0.1-0.2c0-0.1,0.1-0.3-0.1-0.2c0,0,0-0.1,0-0.1
				c-0.2,0.1-0.2,0.1,0-0.1c-0.2,0,0.1-0.3,0.3-0.4c0.2-0.2,0.2-0.2,0.2-0.3c0,0,0.1,0,0.1,0c0,0,0.1,0,0.1,0.1c0,0,0.1,0,0.2,0
				c0,0,0.1-0.1,0.1-0.1c0,0,0-0.1,0-0.1c0,0,0,0.1,0.1,0.1c0.2,0,0.4-0.2,0.6-0.3c0,0-0.1-0.1-0.1-0.1
				C74.8,79.5,74.7,79.4,74.8,79.3z M76.8,81.3c0,0.1-0.1,0.2-0.1,0.3c0,0,0.1,0,0.1,0c0-0.1,0.1-0.2,0.1-0.3L76.8,81.3z M77.4,80.8
				c0,0.1,0,0.1,0.1,0.2c0,0,0.1-0.1,0.1-0.1c0.2-0.1,0.2-0.1,0-0.1c-0.2,0.1,0.2-0.2,0.1-0.2C77.6,80.7,77.5,80.8,77.4,80.8z
				 M76.8,80.7c0,0.1-0.1,0.1-0.1,0.2c0,0,0.1,0,0.1,0c0,0,0,0.1,0,0.1c0,0-0.1,0-0.2,0.1c0,0.1,0,0.1,0,0.2
				c0.1-0.1,0.1-0.1,0.2-0.2c0,0,0.1-0.1,0.2-0.1c0.1,0,0.2,0,0.4-0.2c0,0,0.1-0.1,0-0.1c-0.1,0-0.1,0-0.2,0l0,0l0,0.1L77,80.8
				L76.8,80.7z M76.4,80.7c0,0.1-0.1,0.3,0,0.4c0.1,0.1,0.1,0,0.1-0.1c0.2-0.1-0.1-0.1,0.1-0.2L76.4,80.7z"/>
			<path class="st0" d="M73.3,80.2C73.3,80.2,73.4,80.2,73.3,80.2l0.4-0.5c-0.1,0-0.1,0.1-0.2,0.2C73.5,80,73.4,80.1,73.3,80.2z"/>
		</g>
		<g>
			<polygon class="st0" points="69.4,74.9 69.3,74.9 69.4,74.9 			"/>
			<path class="st0" d="M69.8,72.1l0.7-0.6c-0.1,0.1-0.1,0.1-0.1,0.2c0.1,0.1,0.4,0,0.4,0.2c0,0,0.1,0,0.1,0c0.2,0-0.1,0.1-0.1,0.2
				c-0.2,0.3-0.2,0.1-0.3,0.2c0,0-0.1,0.1-0.1,0.1c-0.1,0.1-0.1,0.1-0.2,0.2c0,0,0.1-0.1,0.1-0.1c0.1,0.1,0.6-0.4,0.7-0.3
				c0,0,0.1,0,0.1,0c0.3-0.2,0.3-0.1,0.4-0.1c0,0,0,0.1,0,0.1c0,0,0,0,0,0l0-0.1l0-0.1c0,0,0.1,0,0.1,0c0.1,0.2,0.1,0.5,0.2,0.7
				c0,0.1,0.2,0.1,0.2,0.1c0,0,0,0.1,0,0.1c0,0-0.1,0.1-0.2,0.1c0,0,0-0.1,0-0.1c0,0,0,0,0-0.1c-0.1,0-0.2,0.1-0.1,0.1
				c0,0.1,0.1,0.1,0.1,0.2c0,0,0.1,0,0.1,0c0,0,0,0-0.1,0.1c0,0-0.1,0-0.1,0c-0.1-0.1-0.1,0.1-0.2,0.1c0.2,0.1-1.1,0.6-0.4,0.5
				c0.1,0-0.1,0.2-0.1,0.3c0,0,0-0.1-0.1,0c-0.1,0-0.2,0.1-0.2,0.2c0,0,0,0.1,0,0.1c0,0,0.1-0.1,0.2-0.1c0,0,0,0,0,0c0,0,0,0,0,0
				c-0.1,0.1-0.3,0.2-0.4,0.3c-0.3,0.2-0.6,0.4-0.9,0.7c0,0-0.2,0.1-0.2,0.1c0.1-0.1,0-0.2-0.1-0.1c-0.1,0-0.1,0-0.1,0
				c0,0,0.1,0,0.1-0.1c0,0,0.1-0.1,0.1-0.1c-0.1,0-0.2,0.1-0.2,0.1c-0.1,0-0.1,0-0.1-0.1l0.2-0.1l0,0c0,0,0,0,0,0.1c0,0,0,0,0,0
				c0,0,0,0,0,0l-0.1,0l0,0l0,0l-0.2,0c0,0-0.1,0-0.1,0c0.3-0.3,0-0.3-0.2-0.3c0,0,0,0,0-0.1c0,0,0,0,0.1,0c0,0,0,0,0,0
				c0,0,0,0,0.1-0.1c0,0,0,0,0.1,0c0,0,0,0,0,0c0.1-0.1-0.4,0.2,0-0.1l-0.2-0.1l0,0.1l-0.2,0c-0.1,0-0.1,0-0.2,0
				c-0.2,0,0-0.2-0.1-0.3c0,0-0.1,0-0.1,0c0,0-0.1-0.1-0.1-0.1c-0.2,0,0,0.1-0.1,0.1c0,0,0,0,0,0l-0.1,0c0,0,0.1-0.1,0.1-0.1
				c0,0,0.1,0,0.1-0.1c0,0-0.1,0-0.1,0c0,0-0.1,0.1-0.1,0c0-0.1-0.2,0,0-0.2c0,0,0,0,0-0.1c0,0,0,0,0,0l-0.2,0.1
				c0.1-0.1,0.1-0.2,0.2-0.2c0.1-0.1,0.2-0.1,0.3-0.1c0.1,0,0.1-0.1,0.2-0.2c0-0.1,0-0.1,0.1-0.2c0.1-0.1,0.1-0.1,0.1-0.1l0.9-0.7
				c-0.1,0.1-0.1,0.1-0.1,0.1l0,0.1l0.2-0.1C69.5,72.4,69.7,72.2,69.8,72.1z M70.6,73.5c0,0,0,0.1,0,0.1c0,0,0.2,0,0.2,0
				c0-0.1,0-0.1,0-0.1C70.8,73.4,70.7,73.5,70.6,73.5z M70,73.4C70,73.4,70,73.4,70,73.4l0.4,0.1c0,0,0,0,0.1,0l0-0.2
				c-0.2,0.1,0.3-0.3,0-0.1C70.3,73.3,70.2,73.3,70,73.4z M69.8,72.4c-0.2,0.2-0.1,0.1,0,0.2c-0.1,0.2,0.2-0.2,0.2-0.1l0.1-0.2
				C69.9,72.4,69.8,72.4,69.8,72.4z"/>
			<path class="st0" d="M70.7,71.5c0.1,0,0,0.2,0.2,0.1l-0.1,0.1c0,0,0,0,0,0c0.3-0.1,0.2-0.2,0.3-0.3l0-0.1c-0.1,0-0.1,0.1-0.3,0.2
				c-0.1,0,0-0.1,0.1-0.2l0-0.1L70.7,71.5C70.6,71.5,70.7,71.5,70.7,71.5z"/>
			<path class="st0" d="M71,71.6c0,0.2,0.1,0.2,0.4-0.2C71.3,71.6,71.1,71.7,71,71.6C71.1,71.6,71,71.6,71,71.6z"/>
			<polygon class="st0" points="71.5,71.5 71.5,71.5 71.5,71.5 			"/>
			<polygon class="st0" points="71.6,71.3 71.5,71.5 71.7,71.4 			"/>
			<path class="st0" d="M71.2,71.9C71.3,71.9,71.3,71.9,71.2,71.9c0.1-0.1,0.1-0.2,0.2-0.3c0,0-0.1,0-0.1,0
				C71.2,71.8,71.2,71.8,71.2,71.9z"/>
		</g>
		<g>
			<path class="st0" d="M67.6,69.7c0.2-0.2,0.4-0.3,0.3-0.1c-0.1,0.1,0,0.1,0,0.2c0,0,0.1,0,0.1,0c0.3-0.4,0.3,0.1,0.6-0.3
				c0,0.2,0.5-0.1,0.6-0.1c-0.3,0.2,0,0.1-0.1,0.2c-0.1,0.1-0.2,0-0.3,0.2c0,0-0.1,0-0.1,0l-0.1-0.1c0,0-0.1,0-0.1,0.1l0.1,0.3
				l0.2-0.2c0.1,0.1,0.2,0.1,0.2,0.2c0,0.2,0.1,0.3,0.3,0.4c0.1,0,0.2,0,0,0.1c0,0,0,0.1,0.2-0.1c0.1-0.1,0.1-0.1,0.1-0.2
				c0,0,0,0,0,0c0,0,0.1,0,0.1,0c0,0.2,0.1,0.4,0.5,0.4c0,0,0,0,0,0c-0.1,0.1-0.1,0.2,0,0.1l0,0c-0.1,0,0.1-0.2,0.2-0.3l-0.2,0
				c0.2-0.1,0.3-0.1,0.4-0.1c0,0,0,0.1,0,0.2c0,0.1,0.1,0.3,0.2,0.4c0.1-0.1,0.1-0.1,0.2-0.2c0.2-0.1,0,0.1,0,0.1
				c0.3-0.1,0.3-0.1,0,0.2c0,0-0.1,0.1,0,0.1c0.2-0.1,0,0.2,0.2,0.1c0,0,0.1,0,0.1,0c0,0,0,0,0,0l-0.1,0.2l-0.4,0.3
				c0-0.1,0-0.2,0-0.3c-0.1,0-0.2,0-0.3,0c0,0.1,0.1,0.3,0.1,0.4c0,0,0.1,0,0.1,0l-2.5,1.9c0,0-0.1,0-0.1-0.1c0,0,0,0-0.1,0l0,0.1
				l0,0.1c0,0-0.1,0-0.1,0c0,0,0,0-0.1-0.1c0.6-0.4,0-0.2,0.1-0.4c0.1-0.1,0-0.2,0-0.2c0,0,0,0-0.1-0.1c0,0-0.1,0.1-0.1,0.1
				c-0.1,0-0.1,0-0.1,0c0,0,0-0.1,0-0.1c-0.1-0.1-0.3-0.2-0.4-0.4c0-0.1,0-0.1-0.1-0.2c-0.2-0.1-0.2-0.3-0.2-0.6
				c-0.1,0-0.1,0.1-0.2,0.1c-0.1,0-0.2,0.1-0.2,0.1c0,0,0.1-0.1,0.1-0.2c0-0.1,0.1-0.3-0.1-0.2c0,0,0-0.1,0-0.1
				c-0.2,0.1-0.2,0.1,0-0.1c-0.2,0,0.1-0.3,0.3-0.4c0.2-0.2,0.2-0.2,0.2-0.3c0,0,0.1,0,0.1,0c0,0,0.1,0,0.1,0.1c0,0,0.1,0,0.2,0
				c0,0,0.1-0.1,0.1-0.1c0,0,0-0.1,0-0.1c0,0,0,0.1,0.1,0.1c0.2,0,0.4-0.2,0.5-0.4c0,0-0.1-0.1-0.1-0.1
				C67.6,69.9,67.5,69.8,67.6,69.7z M69.7,71.6c0,0.1-0.1,0.2-0.1,0.3c0,0,0.1,0,0.1,0c0-0.1,0.1-0.2,0.1-0.3L69.7,71.6z M70.3,71.1
				c0,0.1,0,0.1,0.1,0.2c0,0,0.1-0.1,0.1-0.1c0.2-0.1,0.1-0.1,0-0.1c-0.2,0.1,0.2-0.2,0.1-0.2C70.5,71,70.4,71,70.3,71.1z M69.7,71
				c0,0.1-0.1,0.1-0.1,0.2c0,0,0.1,0,0.1,0c0,0,0,0.1,0,0.1c0,0-0.1,0-0.2,0.1c0,0.1,0,0.1,0,0.2c0.1-0.1,0.1-0.1,0.2-0.2
				c0,0,0.1-0.1,0.2-0.1c0.1,0,0.2,0,0.4-0.2c0,0,0.1-0.1,0-0.1c-0.1,0-0.1,0-0.2,0.1l0,0l0,0.1l-0.1-0.1L69.7,71z M69.3,71
				c0,0.1-0.1,0.3,0,0.4c0.1,0.1,0.1,0,0.1-0.1c0.2-0.1-0.1-0.1,0.1-0.2L69.3,71z"/>
			<path class="st0" d="M66.2,70.6C66.2,70.6,66.3,70.6,66.2,70.6l0.4-0.5c-0.1,0-0.1,0.1-0.2,0.2C66.3,70.4,66.3,70.5,66.2,70.6z"
				/>
		</g>
		<g>
			<polygon class="st0" points="62.1,65.4 62.1,65.5 62.1,65.5 			"/>
			<path class="st0" d="M62.4,62.6l0.7-0.6c-0.1,0.1-0.1,0.1-0.1,0.2c0.1,0.1,0.4,0,0.4,0.2c0,0,0.1,0,0.1,0c0.2,0-0.1,0.1-0.1,0.2
				c-0.2,0.3-0.2,0.1-0.3,0.2c0,0-0.1,0.1-0.1,0.1C63,62.9,63,63,62.9,63.1C63,63,63,63,63,63c0.1,0.1,0.6-0.4,0.7-0.3
				c0,0,0.1,0,0.1,0c0.3-0.3,0.3-0.1,0.4-0.1c0,0,0,0.1,0,0.1c0,0,0,0,0,0l0-0.1l0-0.1c0,0,0.1,0,0.1,0c0.1,0.2,0.1,0.5,0.2,0.7
				c0,0.1,0.2,0.1,0.2,0.1c0,0,0,0.1,0,0.1c0,0-0.1,0.1-0.2,0.1c0,0,0-0.1,0-0.1c0,0,0,0,0-0.1c-0.1,0.1-0.1,0.1-0.1,0.1
				c0,0.1,0.1,0.1,0.1,0.2c0,0,0.1,0,0.1,0c0,0,0,0.1-0.1,0.1c0,0-0.1,0-0.1,0c-0.1-0.1-0.1,0.1-0.2,0.1c0.2,0.1-1.1,0.6-0.4,0.5
				c0.1,0-0.1,0.2-0.1,0.3c0,0,0-0.1-0.1,0c-0.1,0-0.2,0.1-0.2,0.2c0,0,0,0.1,0,0.1c0,0,0.1-0.1,0.2-0.1c0,0,0,0,0,0c0,0,0,0,0,0
				c-0.1,0.1-0.3,0.2-0.4,0.3c-0.3,0.2-0.6,0.4-0.9,0.7c0,0-0.2,0.1-0.2,0.1c0.1-0.1,0-0.2-0.1-0.1c-0.1,0-0.1,0-0.1,0
				c0,0,0.1,0,0.1-0.1c0,0,0.1-0.1,0.1-0.1c-0.1,0-0.2,0.1-0.2,0.1c-0.1,0-0.1,0-0.1-0.1l0.2-0.1l0,0c0,0,0,0,0,0.1c0,0,0,0,0,0
				c0,0,0,0,0,0l-0.1,0l0,0l0,0l-0.2,0c0,0-0.1,0-0.1,0c0.3-0.3,0-0.3-0.2-0.3c0,0,0,0,0-0.1c0,0,0,0,0.1,0c0,0,0,0,0,0
				c0,0,0,0,0.1-0.1c0,0,0,0,0.1,0c0,0,0,0,0,0c0.1-0.1-0.4,0.2,0-0.1l-0.2-0.1l0,0.1l-0.2,0c-0.1,0-0.1,0-0.2,0
				c-0.2,0,0-0.2-0.1-0.3c0,0-0.1,0-0.1,0c0,0-0.1-0.1-0.1-0.1c-0.2,0,0,0.1-0.1,0.1c0,0,0,0,0,0l-0.1,0c0,0,0.1-0.1,0.1-0.1
				c0,0,0.1,0,0.1-0.1c0,0-0.1,0-0.1,0c0,0-0.1,0.1-0.1,0.1c0-0.1-0.2,0,0-0.2c0,0,0,0,0-0.1c0,0,0,0,0,0l-0.2,0.1
				c0.1-0.1,0.1-0.2,0.2-0.2c0.1-0.1,0.2-0.1,0.3-0.1c0.1,0,0.1-0.1,0.2-0.2c0-0.1,0-0.1,0.1-0.2c0.1-0.1,0.1-0.1,0.1-0.1l0.9-0.7
				C62.1,63,62,63,62,63l0,0.1l0.2-0.1C62.2,62.9,62.4,62.8,62.4,62.6z M63.3,64c0,0,0,0.1,0,0.1c0,0,0.2,0,0.2,0c0-0.1,0-0.1,0-0.1
				C63.4,63.9,63.4,63.9,63.3,64z M62.7,63.9C62.7,63.9,62.7,63.9,62.7,63.9l0.4,0.1c0,0,0,0,0.1,0l0-0.2c-0.2,0.1,0.3-0.3,0-0.1
				C62.9,63.8,62.8,63.8,62.7,63.9z M62.4,63c-0.2,0.2-0.1,0.1,0,0.2c-0.1,0.2,0.2-0.2,0.2-0.1l0.1-0.2C62.5,62.9,62.4,62.9,62.4,63
				z"/>
			<path class="st0" d="M63.3,62c0.1,0,0,0.2,0.2,0.1l-0.1,0.1c0,0,0,0,0,0c0.3-0.2,0.2-0.2,0.2-0.3l0-0.1c-0.1,0-0.1,0.1-0.3,0.2
				c-0.1,0,0-0.1,0.1-0.2l0-0.1L63.3,62C63.2,62,63.3,62,63.3,62z"/>
			<path class="st0" d="M63.6,62.1c0,0.2,0.1,0.2,0.4-0.2C63.9,62.1,63.7,62.2,63.6,62.1C63.7,62.1,63.6,62.1,63.6,62.1z"/>
			<polygon class="st0" points="64.1,61.9 64.1,61.9 64.1,61.9 			"/>
			<polygon class="st0" points="64.3,61.8 64.1,61.9 64.3,61.8 			"/>
			<path class="st0" d="M63.9,62.4C63.9,62.4,63.9,62.4,63.9,62.4c0.1-0.1,0.1-0.2,0.2-0.3c0,0-0.1,0-0.1,0
				C63.8,62.3,63.9,62.3,63.9,62.4z"/>
		</g>
		<g>
			<path class="st0" d="M60.2,60.2c0.2-0.2,0.4-0.3,0.3-0.1c-0.1,0.1,0,0.1,0,0.2c0,0,0.1,0,0.1,0c0.3-0.4,0.3,0.1,0.6-0.3
				c0,0.2,0.5-0.2,0.6-0.1c-0.3,0.2,0,0.1-0.1,0.3c-0.1,0.1-0.2,0-0.3,0.2c0,0-0.1,0-0.1,0l-0.1-0.1c0,0-0.1,0-0.1,0.1l0.1,0.3
				l0.2-0.2c0.1,0.1,0.2,0.1,0.2,0.2c0,0.2,0.1,0.3,0.3,0.3c0.1,0,0.2,0,0,0.1c0,0,0,0.1,0.2-0.1c0.1-0.1,0-0.1,0.1-0.2c0,0,0,0,0,0
				c0,0,0.1,0,0.1,0c0.1,0.2,0.1,0.4,0.5,0.3c0,0,0,0,0,0c-0.1,0.1-0.1,0.2,0,0.1l0,0c-0.1,0,0.1-0.2,0.2-0.3l-0.2,0
				c0.2-0.1,0.3-0.2,0.3-0.1c0,0,0,0.1,0,0.2c0,0.1,0.1,0.3,0.2,0.4c0.1-0.1,0.1-0.1,0.2-0.2c0.2-0.1,0,0.1,0,0.1
				c0.3-0.1,0.3-0.1,0,0.2c0,0,0,0.1,0,0.1c0.2-0.1,0,0.2,0.2,0.1c0,0,0.1,0,0.1,0c0,0,0,0,0,0l-0.1,0.2L63,62.2c0-0.1,0-0.2,0-0.3
				c-0.1,0-0.2,0-0.3,0c0,0.1,0.1,0.3,0.2,0.4c0,0,0.1,0,0.1,0l-2.5,2c0,0-0.1,0-0.1-0.1c0,0,0,0-0.1,0l0,0.1l0,0.1c0,0-0.1,0-0.1,0
				c0,0,0,0-0.1-0.1c0.5-0.4,0-0.2,0.1-0.4c0.1-0.1,0-0.2,0-0.2c0,0,0,0-0.1-0.1c0,0-0.1,0.1-0.1,0.1c0,0-0.1,0-0.1,0
				c0,0,0-0.1,0-0.1c-0.1-0.1-0.3-0.2-0.4-0.4c0-0.1,0-0.1-0.1-0.2c-0.2-0.1-0.2-0.3-0.2-0.6c-0.1,0-0.1,0.1-0.2,0.1
				c-0.1,0-0.2,0.1-0.2,0.1c0,0,0.1-0.1,0.1-0.2c0-0.1,0.1-0.3-0.2-0.2c0,0,0-0.1,0-0.1c-0.2,0.1-0.2,0.1,0-0.1
				c-0.2,0,0.1-0.3,0.3-0.4c0.2-0.2,0.2-0.2,0.2-0.3c0,0,0.1,0,0.1,0c0,0,0.1,0,0.1,0.1c0,0,0.1,0,0.2,0c0,0,0.1-0.1,0.1-0.1
				c0,0,0-0.1,0-0.1c0,0,0,0.1,0.1,0.1c0.2,0,0.4-0.3,0.5-0.4c0,0-0.1-0.1-0.1-0.1C60.2,60.4,60.1,60.4,60.2,60.2z M62.3,62.1
				c0,0.1-0.1,0.2-0.1,0.3c0,0,0.1,0,0.1,0c0-0.1,0.1-0.2,0.1-0.3L62.3,62.1z M62.9,61.6c0,0.1,0.1,0.1,0.1,0.2c0,0,0.1-0.1,0.1-0.1
				c0.2-0.2,0.1-0.1,0-0.1c-0.2,0.1,0.2-0.2,0.1-0.2C63.1,61.5,63,61.5,62.9,61.6z M62.3,61.5c0,0.1-0.1,0.1-0.1,0.2
				c0,0,0.1,0,0.1,0c0,0,0,0.1,0,0.1c0,0-0.1,0-0.2,0.1c0,0.1,0,0.1,0,0.2c0.1-0.1,0.1-0.1,0.2-0.2c0,0,0.1-0.1,0.2-0.1
				c0.1,0,0.2,0,0.4-0.2c0,0,0.1-0.1,0-0.1c-0.1,0-0.1,0-0.2,0.1l0,0l0,0.1l-0.1-0.1L62.3,61.5z M61.9,61.5c0,0.1-0.1,0.3,0,0.4
				c0.1,0.1,0.1,0,0.1-0.1c0.2-0.1-0.1-0.1,0.1-0.2L61.9,61.5z"/>
			<path class="st0" d="M58.8,61.3C58.8,61.3,58.9,61.3,58.8,61.3l0.4-0.5c-0.1,0-0.1,0.1-0.2,0.2C58.9,61.1,58.9,61.2,58.8,61.3z"
				/>
		</g>
		<g>
			<polygon class="st0" points="54.5,56.2 54.5,56.2 54.5,56.2 			"/>
			<path class="st0" d="M54.8,53.4l0.7-0.6c0,0.1-0.1,0.1-0.1,0.2c0.1,0.1,0.4,0,0.4,0.2c0,0,0.1,0,0.1,0c0.2,0-0.1,0.1-0.1,0.2
				c-0.2,0.3-0.2,0.2-0.3,0.2c0,0-0.1,0.1-0.1,0.1c-0.1,0.1-0.1,0.2-0.1,0.2c0,0,0.1-0.1,0.1-0.1c0.1,0.1,0.6-0.4,0.7-0.3
				c0,0,0.1,0,0.1,0c0.3-0.3,0.3-0.1,0.4-0.1c0,0,0,0.1,0,0.1c0,0,0,0,0,0l0-0.1l0-0.1c0,0,0.1,0,0.1,0c0.1,0.2,0.1,0.4,0.2,0.6
				c0,0.1,0.2,0.1,0.2,0.1c0,0,0,0.1,0,0.1c0,0-0.1,0.1-0.2,0.1c0,0,0-0.1,0-0.1c0,0,0,0,0-0.1c0,0.1-0.1,0.1-0.1,0.1
				c0,0.1,0.1,0.1,0.1,0.2c0,0,0.1,0,0.1,0c0,0,0,0.1-0.1,0.1c0,0-0.1,0-0.1,0c-0.1-0.1-0.1,0.1-0.2,0.1c0.2,0.1-1.1,0.7-0.4,0.6
				c0.1,0-0.1,0.2-0.1,0.3c0,0-0.1-0.1-0.1,0c-0.1,0-0.2,0.1-0.2,0.2c0,0,0,0.1,0,0.1c0,0,0.1-0.1,0.2-0.1c0,0,0,0,0,0c0,0,0,0,0,0
				c-0.1,0.1-0.3,0.2-0.4,0.3c-0.3,0.2-0.6,0.5-0.9,0.7c0,0-0.2,0.1-0.2,0.1c0.1-0.1,0-0.2-0.1-0.1c-0.1,0-0.1,0-0.1,0
				c0,0,0.1,0,0.1-0.1c0,0,0.1-0.1,0.1-0.1c-0.1,0-0.1,0.1-0.2,0.1c-0.1,0-0.1,0-0.1-0.1l0.2-0.1l0,0c0,0,0,0,0,0.1c0,0,0,0,0,0
				c0,0,0,0,0,0l-0.1,0l0,0l0,0l-0.2,0c0,0-0.1,0-0.1,0c0.2-0.4,0-0.3-0.2-0.3c0,0,0,0,0-0.1c0,0,0,0,0.1,0c0,0,0,0,0,0
				c0,0,0,0,0.1-0.1c0,0,0,0,0.1,0c0,0,0,0,0,0c0-0.1-0.4,0.2,0-0.1L54,55.6l0,0.1l-0.2,0c-0.1,0-0.1,0-0.2,0c-0.2,0,0-0.2-0.1-0.3
				c0,0-0.1,0-0.1,0c0,0-0.1-0.1-0.1-0.1c-0.2,0,0,0.1-0.1,0.1c0,0,0,0,0,0l-0.1,0c0,0,0.1-0.1,0.1-0.1c0,0,0.1,0,0.1-0.1
				c0,0-0.1,0-0.1,0c0,0-0.1,0.1-0.1,0.1c0-0.1-0.2,0,0-0.2c0,0,0,0,0-0.1c0,0,0,0,0,0l-0.2,0.2c0.1-0.1,0.1-0.2,0.2-0.2
				c0.1-0.1,0.2-0.1,0.2-0.1c0.1-0.1,0.1-0.1,0.2-0.2c0-0.1,0-0.1,0.1-0.2c0.1-0.1,0.1-0.1,0.1-0.1l0.9-0.7
				c-0.1,0.1-0.1,0.1-0.1,0.1l0,0.1l0.2-0.1C54.5,53.7,54.7,53.5,54.8,53.4z M55.7,54.7c0,0,0,0.1,0,0.1c0,0,0.1,0,0.2-0.1
				c0-0.1,0-0.1,0-0.2C55.8,54.6,55.7,54.7,55.7,54.7z M55.1,54.6C55.1,54.6,55.1,54.6,55.1,54.6l0.4,0.1c0,0,0,0,0.1,0l0-0.2
				c-0.2,0.1,0.3-0.3-0.1-0.1C55.3,54.6,55.2,54.6,55.1,54.6z M54.8,53.7c-0.2,0.2-0.1,0.1,0,0.2c-0.1,0.2,0.2-0.2,0.2-0.1l0.1-0.2
				C54.9,53.6,54.8,53.6,54.8,53.7z"/>
			<path class="st0" d="M55.7,52.7c0.1,0,0,0.2,0.2,0l-0.1,0.1c0,0,0,0,0,0c0.3-0.2,0.1-0.2,0.2-0.3l0-0.1c-0.1,0-0.1,0.1-0.3,0.2
				c-0.1,0,0-0.1,0.1-0.2l0-0.1L55.7,52.7C55.6,52.7,55.6,52.7,55.7,52.7z"/>
			<path class="st0" d="M56,52.8c0,0.2,0.1,0.2,0.4-0.2C56.2,52.8,56.1,52.9,56,52.8C56,52.8,56,52.8,56,52.8z"/>
			<polygon class="st0" points="56.4,52.6 56.4,52.6 56.4,52.6 			"/>
			<polygon class="st0" points="56.6,52.5 56.4,52.6 56.6,52.5 			"/>
			<path class="st0" d="M56.2,53.1C56.2,53.1,56.3,53.1,56.2,53.1c0.1-0.1,0.1-0.2,0.2-0.3c0,0-0.1,0-0.1,0
				C56.1,53,56.2,53,56.2,53.1z"/>
		</g>
		<g>
			<path class="st0" d="M52.5,51.1c0.2-0.2,0.4-0.3,0.3-0.1c0,0.1,0,0.1,0,0.2c0,0,0.1,0,0.1,0c0.3-0.5,0.3,0.1,0.6-0.4
				c0,0.2,0.5-0.2,0.6-0.1c-0.3,0.2,0,0.1-0.1,0.3c-0.1,0.1-0.2,0-0.3,0.2c0,0-0.1,0-0.1,0L53.5,51c0,0-0.1,0-0.1,0.1l0.1,0.3
				l0.2-0.2c0.1,0.1,0.2,0.1,0.2,0.2c0,0.2,0.1,0.3,0.3,0.3c0.1,0,0.1,0,0,0.1c0,0,0,0.1,0.2-0.1c0.1-0.1,0-0.1,0.1-0.2c0,0,0,0,0,0
				c0,0,0.1,0,0.1,0c0.1,0.2,0.2,0.4,0.6,0.3c0,0,0,0,0,0c-0.1,0.1-0.1,0.2,0,0.1l0,0c-0.1,0,0.1-0.2,0.2-0.3l-0.2,0
				c0.2-0.1,0.3-0.2,0.3-0.1c0,0,0,0.1,0,0.2c0.1,0.1,0.1,0.2,0.2,0.4c0.1-0.1,0.1-0.1,0.2-0.2c0.2-0.1,0,0.1,0,0.1
				c0.3-0.1,0.3-0.1,0,0.2c0,0,0,0.1,0,0.1c0.2-0.1,0,0.2,0.2,0.1c0,0,0.1,0,0.1,0c0,0,0,0,0,0l-0.1,0.2l-0.4,0.3c0-0.1,0-0.2,0-0.3
				c-0.1,0-0.2,0-0.3,0c0.1,0.1,0.1,0.3,0.2,0.4c0,0,0.1,0,0.1,0l-2.4,2c0,0-0.1,0-0.1-0.1c0,0,0,0-0.1,0l0,0.1l0,0.1
				c0,0-0.1,0-0.1,0c0,0-0.1,0-0.1-0.1c0.5-0.4,0-0.2,0.1-0.4c0.1-0.1,0-0.2,0-0.2c0,0,0,0-0.1-0.1c0,0-0.1,0.1-0.1,0.1
				c0,0-0.1,0-0.1,0c0,0,0-0.1-0.1-0.1c-0.2-0.1-0.4-0.2-0.5-0.4c0-0.1,0-0.1-0.1-0.2c-0.2-0.1-0.2-0.3-0.2-0.6c0,0-0.1,0.1-0.1,0.1
				c-0.1,0-0.2,0.1-0.2,0.1c0,0,0.1-0.1,0.1-0.2c0-0.1,0.1-0.3-0.2-0.2c0,0,0-0.1,0-0.1C51,53,51,53,51.2,52.8
				c-0.2,0,0.1-0.3,0.2-0.4c0.2-0.2,0.2-0.2,0.2-0.3c0,0,0.1,0,0.1-0.1c0,0,0.1,0,0.1,0c0,0,0.1,0,0.2,0c0,0,0.1-0.1,0.1-0.1
				c0,0,0-0.1,0-0.1c0,0,0,0.1,0.1,0.1c0.2,0,0.3-0.3,0.5-0.4c0,0-0.1-0.1-0.1-0.1C52.5,51.3,52.4,51.2,52.5,51.1z M54.7,52.8
				c0,0.1-0.1,0.2-0.1,0.3c0,0,0.1,0,0.1,0c0-0.1,0.1-0.2,0.1-0.3L54.7,52.8z M55.3,52.3c0,0.1,0.1,0.1,0.1,0.2c0,0,0.1-0.1,0.1-0.1
				c0.2-0.2,0.1-0.1,0-0.1c-0.2,0.1,0.2-0.2,0.1-0.2C55.4,52.2,55.3,52.3,55.3,52.3z M54.6,52.3c0,0.1-0.1,0.1-0.1,0.2
				c0,0,0.1,0,0.1,0c0,0,0,0.1,0,0.1c0,0-0.1,0-0.1,0.1c0,0.1,0,0.1,0,0.2c0.1-0.1,0.1-0.1,0.2-0.2c0,0,0.1-0.1,0.2-0.1
				c0.1,0,0.2,0,0.4-0.2c0,0,0.1-0.1,0-0.1c-0.1,0-0.1,0-0.2,0.1l0,0l0,0.1l-0.1,0L54.6,52.3z M54.2,52.3c0,0.1-0.1,0.3,0,0.4
				c0.1,0.1,0.1,0,0.1-0.1c0.2-0.1-0.1-0.1,0.1-0.2L54.2,52.3z"/>
			<path class="st0" d="M51.1,52.1C51.1,52.1,51.2,52.1,51.1,52.1l0.4-0.5c-0.1,0.1-0.1,0.1-0.2,0.2C51.2,51.9,51.2,52,51.1,52.1z"
				/>
		</g>
		<g>
			<polygon class="st0" points="46.7,47.2 46.7,47.2 46.7,47.2 			"/>
			<path class="st0" d="M46.9,44.3l0.7-0.6c0,0.1-0.1,0.1-0.1,0.2c0.1,0.1,0.4,0,0.4,0.2c0,0,0.1,0,0.1,0c0.2,0-0.1,0.1-0.1,0.2
				c-0.2,0.3-0.2,0.2-0.3,0.2c0,0-0.1,0.1-0.1,0.1c-0.1,0.1-0.1,0.2-0.1,0.2c0,0,0.1-0.1,0.1-0.1c0.1,0.1,0.6-0.5,0.7-0.3
				c0,0,0.1,0,0.1,0c0.3-0.3,0.3-0.1,0.4-0.2c0,0,0,0.1,0,0.1c0,0,0,0,0,0l0-0.1l0-0.1c0,0,0.1,0,0.1,0c0.1,0.2,0.2,0.4,0.3,0.6
				c0,0.1,0.2,0.1,0.2,0.1c0,0,0,0.1,0,0.1c0,0-0.1,0.1-0.2,0.1c0,0,0-0.1,0-0.1c0,0,0,0,0-0.1c0,0.1-0.1,0.1-0.1,0.2
				c0,0.1,0.1,0.1,0.1,0.2c0,0,0.1,0,0.1,0c0,0,0,0.1-0.1,0.1c0,0-0.1,0-0.1,0c-0.1-0.1-0.1,0.1-0.2,0.1c0.2,0.1-1.1,0.7-0.3,0.6
				c0.1,0,0,0.2-0.1,0.3c0,0-0.1,0-0.1,0c-0.1,0-0.2,0.1-0.2,0.2c0,0,0,0.1,0,0.1c0,0,0.1-0.1,0.1-0.1c0,0,0,0,0,0c0,0,0,0,0.1,0
				c-0.1,0.1-0.2,0.2-0.4,0.3c-0.3,0.2-0.6,0.5-0.9,0.8c0,0-0.2,0.1-0.2,0.1c0.1-0.1,0-0.2-0.1-0.1c-0.1,0-0.1,0-0.1,0
				c0,0,0.1-0.1,0.1-0.1c0,0,0.1-0.1,0.1-0.1c-0.1,0-0.1,0.1-0.2,0.1c-0.1,0-0.1,0-0.1-0.1l0.2-0.1l0,0c0,0,0,0,0,0.1c0,0,0,0,0,0
				c0,0,0,0,0,0l-0.1,0l0,0l0,0l-0.2,0c0,0-0.1,0-0.1,0c0.2-0.4,0-0.3-0.2-0.3c0,0,0,0,0-0.1c0,0,0,0,0.1,0c0,0,0,0,0,0
				c0,0,0-0.1,0.1-0.1c0,0,0,0,0.1,0c0,0,0,0,0,0c0-0.1-0.4,0.2,0-0.1l-0.2-0.1l0,0.1l-0.2,0c-0.1,0-0.1,0-0.2,0
				c-0.2,0.1,0-0.2-0.1-0.3c0,0-0.1,0-0.1,0c0,0-0.1-0.1-0.1-0.1c-0.2,0,0,0.1-0.1,0.1c0,0,0,0,0,0l-0.1,0c0,0,0.1-0.1,0.1-0.1
				c0,0,0.1,0,0.1-0.1c0,0-0.1,0-0.1,0c0,0-0.1,0.1-0.1,0.1c0-0.1-0.2,0,0-0.2c0,0,0,0,0-0.1c0,0,0,0,0,0L45,46.3
				c0.1-0.1,0.1-0.2,0.2-0.2c0.1-0.1,0.2-0.1,0.2-0.1c0.1-0.1,0.1-0.1,0.1-0.2c0-0.1,0-0.1,0.1-0.2c0.1-0.1,0.1-0.1,0.1-0.1l0.9-0.8
				c-0.1,0.1-0.1,0.2-0.1,0.1l0,0.1l0.2-0.1C46.6,44.6,46.8,44.5,46.9,44.3z M47.8,45.6c0,0,0,0.1,0,0.1c0,0,0.1,0,0.2-0.1
				c0-0.1,0-0.1,0-0.2C48,45.6,47.9,45.6,47.8,45.6z M47.2,45.6C47.2,45.6,47.2,45.6,47.2,45.6l0.4,0.1c0,0,0.1,0,0.1,0l0-0.2
				c-0.2,0.1,0.3-0.3-0.1-0.1C47.5,45.5,47.3,45.5,47.2,45.6z M46.9,44.7c-0.2,0.2-0.1,0.1,0,0.2C46.8,45,47,44.7,47,44.8l0-0.2
				C47,44.6,46.9,44.6,46.9,44.7z"/>
			<path class="st0" d="M47.7,43.7c0.1,0,0,0.2,0.2,0l-0.1,0.1c0,0,0,0,0,0c0.3-0.2,0.1-0.2,0.2-0.3l0-0.1c-0.1,0-0.1,0.1-0.3,0.2
				c-0.1,0,0-0.1,0.1-0.2l0-0.1L47.7,43.7C47.7,43.7,47.7,43.7,47.7,43.7z"/>
			<path class="st0" d="M48.1,43.7c0,0.1,0.1,0.2,0.4-0.2C48.3,43.7,48.1,43.8,48.1,43.7C48.1,43.7,48.1,43.7,48.1,43.7z"/>
			<polygon class="st0" points="48.5,43.5 48.5,43.5 48.5,43.5 			"/>
			<polygon class="st0" points="48.6,43.4 48.5,43.5 48.7,43.4 			"/>
			<path class="st0" d="M48.3,44C48.3,44,48.3,44,48.3,44c0.1-0.1,0.1-0.2,0.2-0.3c0,0-0.1,0-0.1,0C48.2,43.9,48.3,43.9,48.3,44z"/>
		</g>
		<g>
			<path class="st0" d="M44.5,42.1c0.2-0.2,0.4-0.3,0.3-0.1c0,0.1,0,0.1,0,0.2c0,0,0.1,0,0.1,0c0.3-0.5,0.3,0.1,0.6-0.4
				c0,0.2,0.5-0.2,0.6-0.1c-0.3,0.2,0,0.1-0.1,0.3c-0.1,0.1-0.2,0-0.3,0.2c0,0-0.1,0-0.1,0L45.5,42c0,0-0.1,0.1-0.1,0.1l0.1,0.3
				l0.2-0.2c0.1,0,0.2,0.1,0.2,0.2c0,0.2,0.1,0.3,0.3,0.3c0.1,0,0.1-0.1,0,0.1c0,0,0,0.1,0.1-0.1c0.1-0.1,0-0.1,0.1-0.2c0,0,0,0,0,0
				c0,0,0.1,0,0.1,0c0.1,0.2,0.2,0.4,0.6,0.3c0,0,0,0,0,0c-0.1,0.1-0.1,0.2,0,0.1l0,0c-0.1,0,0-0.2,0.2-0.3l-0.2,0
				c0.2-0.1,0.3-0.2,0.3-0.1c0,0,0,0.1,0,0.2c0.1,0.1,0.1,0.2,0.2,0.4c0.1-0.1,0.1-0.2,0.2-0.2c0.2-0.1,0,0.1,0,0.1
				c0.3-0.1,0.3-0.1,0,0.2c0,0,0,0.1,0,0.1c0.2-0.1,0,0.2,0.2,0.1c0,0,0.1,0,0.1,0c0,0,0,0,0,0l-0.1,0.2l-0.4,0.4c0-0.1,0-0.2,0-0.3
				c-0.1,0-0.2,0-0.3,0c0.1,0.1,0.1,0.3,0.2,0.4c0,0,0.1,0,0.1,0l-2.4,2.1c0,0-0.1,0-0.1-0.1c0,0,0,0-0.1,0l0,0.1l0,0.1
				c0,0-0.1,0-0.1,0c0,0-0.1,0-0.1-0.1c0.5-0.4,0-0.2,0.1-0.4c0.1-0.1,0-0.2,0-0.2c0,0,0,0-0.1-0.1c0,0-0.1,0.1-0.1,0.1
				c0,0-0.1,0-0.1,0c0,0,0-0.1-0.1-0.1c-0.2-0.1-0.4-0.2-0.5-0.4c0-0.1,0-0.1-0.1-0.2c-0.2-0.1-0.3-0.3-0.2-0.6c0,0-0.1,0.1-0.1,0.1
				c-0.1,0-0.2,0.1-0.2,0.1c0,0,0.1-0.1,0.1-0.2c0-0.1,0.1-0.3-0.2-0.2c0,0,0-0.1,0-0.1c-0.2,0.2-0.2,0.1,0-0.1
				c-0.2,0,0.1-0.3,0.2-0.4c0.2-0.2,0.2-0.3,0.2-0.3c0,0,0.1,0,0.1-0.1c0,0,0.1,0,0.1,0c0,0,0.1,0,0.2,0C44,43,44,43,44,42.9
				c0,0,0-0.1,0-0.1c0,0,0,0.1,0.1,0.1c0.2,0,0.3-0.3,0.5-0.4c0,0-0.1-0.1-0.1-0.1C44.5,42.3,44.4,42.2,44.5,42.1z M46.8,43.8
				c0,0.1,0,0.2,0,0.3c0,0,0.1,0,0.1,0c0-0.1,0-0.2,0.1-0.3L46.8,43.8z M47.3,43.3c0,0.1,0.1,0.1,0.1,0.2c0,0,0.1-0.1,0.1-0.1
				c0.2-0.2,0.1-0.1,0-0.1c-0.2,0.1,0.2-0.2,0.1-0.2C47.5,43.1,47.4,43.2,47.3,43.3z M46.7,43.3c0,0.1-0.1,0.1-0.1,0.2
				c0,0,0.1,0,0.1,0c0,0,0,0.1,0,0.1c0,0-0.1,0-0.1,0.1c0,0.1,0,0.1,0,0.2c0.1-0.1,0.1-0.1,0.2-0.2c0,0,0.1-0.1,0.2-0.1
				c0.1,0,0.2,0,0.4-0.3c0,0,0-0.1,0-0.1c-0.1,0-0.1,0-0.2,0.1l0,0l0,0.1l-0.1,0L46.7,43.3z M46.3,43.3c0,0.1-0.1,0.3,0,0.4
				c0.1,0.1,0.1,0,0.1-0.1c0.2-0.1-0.1-0.1,0.1-0.2L46.3,43.3z"/>
			<path class="st0" d="M43.2,43.2C43.2,43.2,43.2,43.2,43.2,43.2l0.4-0.5c-0.1,0.1-0.1,0.1-0.2,0.2C43.3,43,43.2,43.1,43.2,43.2z"
				/>
		</g>
		<g>
			<polygon class="st0" points="38.6,38.4 38.6,38.4 38.6,38.4 			"/>
			<path class="st0" d="M38.7,35.5l0.7-0.6c0,0.1-0.1,0.2-0.1,0.2c0.1,0.1,0.4-0.1,0.4,0.2c0,0,0.1,0,0.1,0c0.2,0-0.1,0.1-0.1,0.2
				c-0.2,0.3-0.2,0.2-0.3,0.2c0,0-0.1,0.1-0.1,0.1c-0.1,0.1-0.1,0.2-0.1,0.2c0,0,0.1-0.1,0.1-0.1c0.1,0.1,0.6-0.5,0.7-0.3
				c0,0,0.1,0,0.1,0c0.2-0.3,0.3-0.2,0.4-0.2c0,0,0,0.1,0,0.1c0,0,0,0,0,0l0-0.1l0-0.1c0,0,0.1,0,0.1,0c0.1,0.2,0.2,0.4,0.3,0.6
				c0,0.1,0.2,0.1,0.2,0.1c0,0,0,0.1,0,0.1c0,0-0.1,0.1-0.2,0.1c0,0,0-0.1,0-0.1c0,0,0,0,0-0.1c0,0.1-0.1,0.1-0.1,0.2
				c0,0.1,0.1,0.1,0.1,0.1c0,0,0.1,0,0.1,0c0,0,0,0.1-0.1,0.1c0,0-0.1,0-0.1,0c-0.1-0.1-0.1,0.1-0.2,0.1c0.2,0.1-1,0.7-0.3,0.6
				c0.1,0,0,0.2-0.1,0.3c0,0-0.1,0-0.1,0c-0.1,0-0.2,0.1-0.2,0.2c0,0,0,0.1,0,0.1c0,0,0.1-0.1,0.1-0.1c0,0,0,0,0,0c0,0,0,0,0.1,0
				c-0.1,0.1-0.2,0.2-0.4,0.3c-0.3,0.2-0.6,0.5-0.9,0.8c0,0-0.2,0.1-0.2,0.1c0.1-0.1,0-0.2-0.1-0.1c-0.1,0-0.1,0-0.1,0
				c0,0,0.1-0.1,0.1-0.1c0,0,0.1-0.1,0.1-0.1c-0.1,0-0.1,0.1-0.2,0.1c-0.1,0-0.1,0-0.1-0.1l0.1-0.1l0,0c0,0,0,0,0,0.1c0,0,0,0,0,0
				c0,0,0-0.1,0-0.1l-0.1,0l0,0l0,0l-0.2,0c0,0-0.1,0-0.1,0c0.2-0.4-0.1-0.3-0.2-0.3c0,0,0,0,0-0.1c0,0,0,0,0.1,0c0,0,0,0,0,0
				c0,0,0-0.1,0.1-0.1c0,0,0,0,0.1,0c0,0,0,0,0,0c0-0.1-0.4,0.3,0-0.1L38,37.8l0,0.1l-0.2,0c-0.1,0-0.1,0-0.2,0
				c-0.2,0.1,0-0.2-0.1-0.3c0,0-0.1,0-0.1,0c0,0-0.1-0.1-0.1-0.1c-0.2,0,0,0.1-0.1,0.1c0,0,0,0,0,0l-0.1,0c0,0,0.1-0.1,0.1-0.1
				c0,0,0.1,0,0.1-0.1c0,0-0.1,0-0.1,0c0,0-0.1,0.1-0.1,0.1c0-0.1-0.2,0,0-0.2c0,0,0,0,0-0.1c0,0,0,0,0,0l-0.2,0.2
				c0.1-0.1,0.1-0.2,0.2-0.2c0.1-0.1,0.2-0.1,0.2-0.2c0.1-0.1,0.1-0.1,0.1-0.2c0-0.1,0-0.1,0.1-0.2c0.1-0.1,0.1-0.1,0.1-0.1l0.8-0.8
				c-0.1,0.1-0.1,0.2-0.1,0.1l0,0.1l0.2-0.1C38.5,35.8,38.7,35.7,38.7,35.5z M39.7,36.8c0,0,0,0.1,0.1,0.1c0,0,0.1,0,0.2-0.1
				c0-0.1,0-0.1,0-0.2C39.8,36.7,39.8,36.8,39.7,36.8z M39.1,36.7C39.1,36.8,39.1,36.8,39.1,36.7l0.4,0.1c0,0,0.1,0,0.1,0l0-0.2
				c-0.2,0.1,0.2-0.3-0.1-0.1C39.3,36.7,39.2,36.7,39.1,36.7z M38.7,35.8c-0.2,0.2-0.1,0.1,0,0.2c0,0.2,0.2-0.2,0.2-0.1l0-0.2
				C38.8,35.8,38.8,35.8,38.7,35.8z"/>
			<path class="st0" d="M39.6,34.8c0.1,0,0,0.2,0.2,0L39.7,35c0,0,0,0,0,0c0.3-0.2,0.1-0.2,0.2-0.3l0-0.1c-0.1,0-0.1,0.1-0.3,0.2
				c-0.1,0,0-0.1,0.1-0.2l0-0.1L39.6,34.8C39.5,34.8,39.5,34.8,39.6,34.8z"/>
			<path class="st0" d="M39.9,34.9c0,0.1,0.1,0.2,0.4-0.2C40.1,34.9,40,35,39.9,34.9C39.9,34.8,39.9,34.9,39.9,34.9z"/>
			<polygon class="st0" points="40.3,34.7 40.3,34.7 40.3,34.7 			"/>
			<polygon class="st0" points="40.5,34.5 40.3,34.7 40.5,34.6 			"/>
			<path class="st0" d="M40.1,35.2C40.1,35.2,40.2,35.1,40.1,35.2c0.1-0.1,0.1-0.2,0.2-0.3c0,0-0.1,0-0.1,0
				C40,35.1,40.1,35.1,40.1,35.2z"/>
		</g>
		<g>
			<path class="st0" d="M36.3,33.3c0.2-0.2,0.4-0.3,0.3-0.1c0,0.1,0,0.1,0,0.2c0,0,0.1,0,0.1,0c0.2-0.5,0.3,0.1,0.6-0.4
				c0,0.2,0.5-0.2,0.6-0.1c-0.3,0.2,0,0.1-0.1,0.3c-0.1,0.1-0.2,0-0.3,0.2c0,0-0.1,0-0.1,0l-0.1-0.1c0,0-0.1,0.1-0.1,0.1l0.1,0.3
				l0.2-0.2c0.1,0,0.2,0.1,0.2,0.2c0,0.2,0.1,0.3,0.3,0.3c0.1,0,0.1-0.1,0,0.1c0,0,0,0.1,0.1-0.1c0-0.1,0-0.1,0-0.2c0,0,0,0,0,0
				c0,0,0.1,0,0.1,0c0.1,0.2,0.2,0.4,0.6,0.3c0,0,0,0,0,0c-0.1,0.1-0.1,0.2,0,0.1l0,0c-0.1,0,0-0.2,0.2-0.3l-0.2,0
				c0.2-0.1,0.3-0.2,0.3-0.1c0,0,0,0.1,0,0.2c0.1,0.1,0.1,0.2,0.2,0.4c0.1-0.1,0.1-0.2,0.2-0.2c0.2-0.2,0,0.1,0,0.1
				c0.3-0.1,0.3-0.1,0,0.2c0,0,0,0.1,0,0.1c0.2-0.1,0,0.2,0.2,0.1c0,0,0.1,0,0.1,0c0,0,0,0,0,0l-0.1,0.2L39.3,35c0-0.1,0-0.2,0-0.3
				c-0.1,0-0.2,0-0.3,0c0.1,0.1,0.1,0.2,0.2,0.4c0,0,0.1,0,0.1,0L37,37.2c0,0-0.1,0-0.1-0.1c0,0,0,0-0.1,0l0,0.1l0,0.1
				c0,0-0.1,0-0.1,0c0,0-0.1,0-0.1-0.1c0.5-0.5,0-0.2,0.1-0.4c0.1-0.1,0-0.2,0-0.2c0,0,0,0-0.1-0.1c0,0-0.1,0.1-0.1,0.1
				c0,0-0.1,0.1-0.1,0c0,0,0-0.1-0.1-0.1c-0.2-0.1-0.4-0.2-0.5-0.4c0-0.1,0-0.1-0.1-0.2c-0.2-0.1-0.3-0.3-0.2-0.6
				c0,0-0.1,0.1-0.1,0.1c-0.1,0-0.2,0.1-0.2,0.1c0,0,0.1-0.1,0.1-0.2c0-0.1,0.1-0.3-0.2-0.2c0,0,0-0.1,0-0.1c-0.2,0.2-0.2,0.1,0-0.1
				c-0.2,0,0.1-0.3,0.2-0.4c0.2-0.2,0.2-0.3,0.1-0.3c0,0,0.1,0,0.1-0.1c0,0,0.1,0,0.1,0c0,0,0.1,0,0.2,0c0-0.1,0.1-0.1,0.1-0.2
				c0,0,0-0.1,0-0.1c0,0,0,0.1,0.1,0.1c0.2,0,0.3-0.3,0.5-0.4c0,0-0.1-0.1-0.1-0.1C36.3,33.5,36.2,33.5,36.3,33.3z M38.6,35
				c0,0.1,0,0.2,0,0.3c0,0,0.1,0,0.1,0c0-0.1,0-0.2,0.1-0.3L38.6,35z M39.1,34.4c0,0.1,0.1,0.1,0.1,0.2c0,0,0.1-0.1,0.1-0.1
				c0.2-0.2,0.1-0.1,0,0c-0.2,0.1,0.2-0.2,0-0.2C39.3,34.3,39.2,34.4,39.1,34.4z M38.5,34.4c0,0.1-0.1,0.1-0.1,0.2c0,0,0.1,0,0.1,0
				c0,0,0,0.1,0,0.1c0,0-0.1,0-0.1,0.1c0,0.1,0,0.1,0,0.2c0.1-0.1,0.1-0.1,0.2-0.2c0,0,0.1-0.1,0.2-0.1c0.1,0,0.2,0,0.4-0.3
				c0,0,0-0.1,0-0.1c-0.1,0-0.1,0.1-0.2,0.1l0,0l0,0.1l-0.1,0L38.5,34.4z M38.1,34.5c0,0.1-0.1,0.3,0,0.4c0.1,0.1,0.1,0,0.1-0.1
				c0.2-0.1-0.1,0,0.1-0.2L38.1,34.5z"/>
			<path class="st0" d="M35,34.5C35,34.5,35,34.5,35,34.5l0.4-0.5c-0.1,0.1-0.1,0.1-0.2,0.2C35.1,34.2,35,34.4,35,34.5z"/>
		</g>
		<g>
			<polygon class="st0" points="30.3,29.8 30.3,29.8 30.3,29.8 			"/>
			<path class="st0" d="M30.3,26.9l0.6-0.7c0,0.1-0.1,0.2,0,0.2c0.1,0.1,0.4-0.1,0.4,0.2c0,0,0.1,0,0.1,0c0.2,0-0.1,0.1-0.1,0.2
				c-0.2,0.3-0.2,0.2-0.3,0.2c0,0-0.1,0.1-0.1,0.1c0,0.1-0.1,0.2-0.1,0.2c0,0,0.1-0.1,0.1-0.1c0.1,0.1,0.6-0.5,0.7-0.4
				c0,0,0.1,0,0.1,0c0.2-0.3,0.3-0.2,0.4-0.2c0,0,0,0.1,0,0.1c0,0,0,0,0,0l0-0.1l0-0.1c0,0,0.1,0,0.1,0c0.1,0.2,0.2,0.4,0.3,0.6
				c0,0.1,0.2,0,0.2,0.1c0,0,0,0.1,0,0.1c0,0-0.1,0.1-0.2,0.2c0,0,0-0.1,0-0.1c0,0,0,0,0-0.1c0,0.1-0.1,0.2-0.1,0.2
				c0,0.1,0.1,0.1,0.1,0.1c0,0,0.1,0,0.1,0c0,0,0,0.1-0.1,0.1c0,0-0.1,0-0.1,0c-0.1-0.1-0.1,0.1-0.2,0.2c0.2,0.1-1,0.7-0.3,0.6
				c0.1,0,0,0.2-0.1,0.3c0,0-0.1,0-0.1,0c-0.1,0-0.1,0.1-0.2,0.2c0,0,0,0.1,0,0.1c0,0,0.1-0.1,0.1-0.1c0,0,0,0,0,0c0,0,0,0,0.1,0
				c-0.1,0.1-0.2,0.3-0.3,0.3c-0.3,0.2-0.6,0.5-0.8,0.8c0,0-0.2,0.1-0.2,0.1c0.1-0.1,0-0.2-0.1-0.1c-0.1,0-0.1,0-0.1,0
				c0,0,0.1-0.1,0.1-0.1c0,0,0.1-0.1,0-0.1c-0.1,0-0.1,0.1-0.2,0.1c-0.1,0-0.1,0-0.1-0.1l0.1-0.1l0,0c0,0,0,0,0,0.1c0,0,0,0,0,0
				c0,0,0-0.1,0-0.1l0,0l0,0l0,0l-0.2,0c0,0-0.1,0-0.1,0c0.2-0.4-0.1-0.3-0.2-0.3c0,0,0,0,0-0.1c0,0,0,0,0.1,0c0,0,0,0,0,0
				c0,0,0-0.1,0.1-0.1c0,0,0,0,0.1,0c0,0,0,0,0,0c0-0.1-0.4,0.3-0.1-0.1l-0.2-0.1l0,0.1l-0.2,0c-0.1,0-0.1,0-0.2,0
				c-0.2,0.1-0.1-0.2-0.1-0.3c0,0-0.1,0-0.1,0c0,0-0.1-0.1-0.1-0.1c-0.2,0,0,0.1-0.1,0.1c0,0,0,0,0,0l-0.1,0c0,0,0.1-0.1,0.1-0.1
				c0,0,0.1,0,0.1-0.1c0,0-0.1,0-0.1,0c0,0-0.1,0.1-0.1,0.1c0-0.1-0.2,0,0-0.2c0,0,0,0,0-0.1c0,0,0,0,0,0L28.5,29
				c0.1-0.1,0.1-0.2,0.2-0.2c0.1-0.1,0.2-0.1,0.2-0.2c0.1-0.1,0.1-0.1,0.1-0.2c0-0.1,0-0.1,0.1-0.2c0.1-0.1,0.1-0.1,0.1-0.1l0.8-0.8
				c-0.1,0.1-0.1,0.2-0.1,0.1l0,0.1l0.2-0.1C30.1,27.3,30.3,27.1,30.3,26.9z M31.3,28.2c0,0,0,0.1,0.1,0.1c0,0,0.1,0,0.2-0.1
				c0-0.1,0-0.1,0-0.2C31.5,28.1,31.4,28.1,31.3,28.2z M30.7,28.2C30.7,28.2,30.7,28.2,30.7,28.2l0.4,0c0,0,0.1,0,0.1,0l0-0.2
				c-0.2,0.1,0.2-0.3-0.1-0.1C31,28.1,30.9,28.1,30.7,28.2z M30.3,27.3c-0.2,0.2-0.1,0.1,0,0.2c0,0.2,0.2-0.2,0.2-0.1l0-0.2
				C30.4,27.2,30.4,27.2,30.3,27.3z"/>
			<path class="st0" d="M31.1,26.2c0.1,0,0,0.2,0.2,0l-0.1,0.1c0,0,0,0,0,0c0.3-0.2,0.1-0.2,0.2-0.3l0-0.1c-0.1,0-0.1,0.1-0.2,0.2
				c-0.1,0,0-0.1,0.1-0.2l0-0.1L31.1,26.2C31.1,26.2,31.1,26.2,31.1,26.2z"/>
			<path class="st0" d="M31.5,26.3c0,0.1,0.1,0.2,0.4-0.2C31.7,26.2,31.6,26.3,31.5,26.3C31.5,26.2,31.5,26.3,31.5,26.3z"/>
			<polygon class="st0" points="31.9,26.1 31.9,26.1 31.9,26.1 			"/>
			<polygon class="st0" points="32,25.9 31.9,26.1 32.1,25.9 			"/>
			<path class="st0" d="M31.7,26.5C31.7,26.6,31.8,26.5,31.7,26.5c0.1-0.1,0.1-0.2,0.1-0.3c0,0-0.1,0-0.1,0
				C31.6,26.4,31.7,26.5,31.7,26.5z"/>
		</g>
		<g>
			<path class="st0" d="M27.8,24.8c0.1-0.2,0.4-0.4,0.3-0.2c0,0.1,0,0.1,0,0.2c0,0,0.1,0,0.1,0c0.2-0.5,0.3,0.1,0.5-0.4
				c0,0.2,0.4-0.2,0.6-0.1c-0.2,0.2,0,0.1-0.1,0.3c-0.1,0.1-0.2,0-0.3,0.2c0,0-0.1,0-0.1,0l-0.1-0.1c0,0-0.1,0.1-0.1,0.1l0.1,0.3
				l0.2-0.2c0.1,0,0.2,0.1,0.2,0.1c0,0.2,0.1,0.3,0.3,0.3c0.1,0,0.1-0.1,0,0.1c0,0,0,0.1,0.1-0.1c0-0.1,0-0.1,0-0.2c0,0,0,0,0,0
				c0,0,0.1,0,0.1,0c0.1,0.2,0.2,0.4,0.6,0.3c0,0,0,0,0,0c-0.1,0.1-0.1,0.2,0,0.1l0,0c-0.1,0,0-0.2,0.1-0.3l-0.2,0
				c0.2-0.1,0.3-0.2,0.3-0.1c0,0,0,0.1,0,0.2c0.1,0.1,0.1,0.2,0.2,0.4c0.1-0.1,0.1-0.2,0.2-0.2c0.2-0.2,0,0.1,0,0.1
				c0.3-0.1,0.3-0.1,0,0.2c0,0,0,0.1,0,0.1c0.2-0.1,0,0.2,0.2,0.1c0,0,0.1,0,0.1,0c0,0,0,0,0,0L31.3,26l-0.4,0.4c0-0.1,0-0.2,0-0.3
				c-0.1,0-0.2,0-0.3,0c0.1,0.1,0.1,0.2,0.2,0.4c0,0,0.1,0,0.1,0l-2.2,2.2c0,0-0.1,0-0.1-0.1c0,0,0,0-0.1,0l0,0.1l0,0.1
				c0,0-0.1,0-0.1,0c0,0-0.1,0-0.1-0.1c0.5-0.5,0-0.2,0.1-0.4c0.1-0.1,0-0.2,0-0.2c0,0,0,0-0.1-0.1c0,0-0.1,0.1-0.1,0.1
				c0,0-0.1,0.1-0.1,0c0,0,0-0.1-0.1-0.1c-0.2-0.1-0.4-0.2-0.5-0.3c0-0.1-0.1-0.1-0.1-0.2c-0.2-0.1-0.3-0.3-0.3-0.6
				c0,0-0.1,0.1-0.1,0.1c-0.1,0-0.2,0.1-0.2,0.1c0,0,0.1-0.1,0.1-0.2c0-0.1,0.1-0.3-0.2-0.2c0,0,0-0.1,0-0.1c-0.2,0.2-0.2,0.1,0-0.1
				c-0.2,0,0.1-0.3,0.2-0.5c0.2-0.2,0.2-0.3,0.1-0.3c0,0,0-0.1,0.1-0.1c0,0,0.1,0,0.1,0c0,0,0.1,0,0.2,0c0-0.1,0.1-0.1,0.1-0.2
				c0,0,0-0.1,0-0.1c0,0,0,0,0.1,0c0.2,0,0.3-0.3,0.5-0.4c0,0-0.1-0.1-0.1-0.1C27.8,25,27.7,24.9,27.8,24.8z M30.2,26.4
				c0,0.1,0,0.2,0,0.3c0,0,0.1,0,0.1,0c0-0.1,0-0.2,0.1-0.3L30.2,26.4z M30.7,25.9c0,0.1,0.1,0.1,0.1,0.2c0,0,0.1-0.1,0.1-0.1
				c0.2-0.2,0.1-0.1,0,0c-0.2,0.1,0.2-0.2,0-0.2C30.9,25.7,30.8,25.8,30.7,25.9z M30.1,25.9C30,25.9,30,26,30,26c0,0,0.1,0,0.1,0
				c0,0,0,0.1,0,0.1c0,0-0.1,0-0.1,0.1c0,0.1,0,0.1,0,0.2c0.1-0.1,0.1-0.1,0.2-0.2c0,0,0.1-0.1,0.1-0.1c0.1,0,0.2,0,0.4-0.3
				c0,0,0-0.1,0-0.1c-0.1,0-0.1,0.1-0.2,0.1l0,0l0,0.1l-0.1,0L30.1,25.9z M29.7,25.9c0,0.1-0.1,0.3,0,0.4c0.1,0.1,0.1,0,0.1-0.1
				c0.2-0.2-0.1,0,0.1-0.2L29.7,25.9z"/>
			<path class="st0" d="M26.6,26C26.6,26,26.6,26,26.6,26l0.3-0.5c-0.1,0.1-0.1,0.1-0.2,0.2C26.7,25.8,26.6,25.9,26.6,26z"/>
		</g>
		<g>
			<polygon class="st0" points="21.8,21.4 21.7,21.4 21.8,21.4 			"/>
			<path class="st0" d="M21.7,18.6l0.6-0.7c0,0.1-0.1,0.2,0,0.2c0.1,0.1,0.4-0.1,0.4,0.1c0,0,0.1,0,0.1,0c0.2,0-0.1,0.1-0.1,0.2
				c-0.2,0.3-0.2,0.2-0.3,0.2c0,0-0.1,0.1-0.1,0.1c0,0.1-0.1,0.2-0.1,0.2c0,0,0.1-0.1,0.1-0.1c0.1,0.1,0.6-0.5,0.7-0.4
				c0,0,0.1,0,0.1,0c0.2-0.3,0.3-0.2,0.4-0.2c0,0,0,0.1,0,0.1c0,0,0,0,0,0l0-0.1l0-0.1c0,0,0.1,0,0.1,0c0.1,0.2,0.2,0.4,0.3,0.6
				c0,0.1,0.2,0,0.2,0.1c0,0,0,0.1,0,0.1c0,0-0.1,0.1-0.2,0.2c0,0,0-0.1,0-0.1c0,0,0,0-0.1-0.1c0,0.1-0.1,0.2-0.1,0.2
				c0,0.1,0.1,0.1,0.1,0.1c0,0,0.1,0,0.1,0c0,0,0,0.1-0.1,0.1c0,0-0.1,0-0.1,0c-0.1-0.1-0.1,0.1-0.2,0.2c0.2,0.1-1,0.8-0.3,0.6
				c0.1,0,0,0.2,0,0.4c0,0-0.1,0-0.1,0c-0.1,0-0.1,0.1-0.2,0.2c0,0,0,0.1,0,0.1c0,0,0.1-0.1,0.1-0.1c0,0,0,0,0,0c0,0,0,0,0.1,0
				c-0.1,0.1-0.2,0.3-0.3,0.4c-0.3,0.3-0.6,0.5-0.8,0.8c0,0-0.2,0.1-0.2,0.1c0.1-0.1,0-0.2-0.1-0.1c-0.1,0-0.1,0-0.1,0
				c0,0,0.1-0.1,0.1-0.1c0,0,0.1-0.1,0-0.1c-0.1,0-0.1,0.1-0.2,0.1c-0.1,0-0.1,0-0.1,0l0.1-0.1l0,0c0,0,0,0,0,0.1c0,0,0,0,0,0
				c0,0,0-0.1,0-0.1l0,0l0,0l0,0l-0.2,0c0,0-0.1,0-0.1,0c0.2-0.4-0.1-0.3-0.2-0.3c0,0,0,0,0-0.1c0,0,0,0,0.1,0c0,0,0,0,0,0
				c0,0,0-0.1,0.1-0.1c0,0,0,0,0.1,0c0,0,0,0,0,0c0-0.1-0.4,0.3-0.1-0.1l-0.3-0.1l0,0.1L21,21c-0.1,0-0.1,0-0.2,0
				c-0.2,0.1-0.1-0.2-0.1-0.3c0,0-0.1,0-0.1,0c0,0-0.1,0-0.1,0c-0.2,0,0,0.1-0.1,0.1c0,0,0,0,0,0l-0.1,0c0,0,0.1-0.1,0.1-0.1
				c0,0,0.1,0,0.1-0.1c0,0-0.1,0-0.1,0c0,0-0.1,0.1-0.1,0.1c0-0.1-0.2,0,0-0.2c0,0,0,0,0-0.1c0,0,0,0,0,0l-0.2,0.2
				c0.1-0.1,0.1-0.2,0.2-0.3c0.1-0.1,0.2-0.1,0.2-0.2c0.1-0.1,0.1-0.2,0.1-0.2c0-0.1,0-0.1,0.1-0.2c0.1-0.1,0.1-0.1,0.1-0.1l0.8-0.8
				c-0.1,0.1-0.1,0.2-0.1,0.1l0,0.1l0.1-0.1C21.5,18.9,21.6,18.7,21.7,18.6z M22.7,19.8c0,0,0,0.1,0.1,0.1c0,0,0.1-0.1,0.2-0.1
				c0-0.1,0-0.1,0-0.2C22.9,19.7,22.8,19.8,22.7,19.8z M22.1,19.8C22.1,19.8,22.1,19.8,22.1,19.8l0.4,0c0,0,0.1,0,0.1,0l0-0.2
				c-0.2,0.1,0.2-0.3-0.1-0.1C22.4,19.7,22.3,19.7,22.1,19.8z M21.7,18.9c-0.2,0.2-0.1,0.1,0,0.2c0,0.2,0.2-0.2,0.2-0.1l0-0.2
				C21.8,18.8,21.8,18.9,21.7,18.9z"/>
			<path class="st0" d="M22.5,17.8c0.1,0,0,0.2,0.2,0L22.6,18c0,0,0,0,0,0c0.3-0.2,0.1-0.2,0.2-0.4l0-0.1c-0.1,0-0.1,0.1-0.2,0.2
				c-0.1,0,0-0.1,0.1-0.2l0-0.1L22.5,17.8C22.4,17.9,22.5,17.8,22.5,17.8z"/>
			<path class="st0" d="M22.8,17.9c0,0.1,0.1,0.2,0.4-0.2C23.1,17.8,22.9,18,22.8,17.9C22.9,17.8,22.8,17.9,22.8,17.9z"/>
			<polygon class="st0" points="23.2,17.7 23.2,17.7 23.3,17.7 			"/>
			<polygon class="st0" points="23.4,17.5 23.3,17.7 23.4,17.5 			"/>
			<path class="st0" d="M23.1,18.1C23.1,18.2,23.1,18.1,23.1,18.1c0.1-0.1,0.1-0.2,0.1-0.3c0,0-0.1,0-0.1,0
				C23,18.1,23.1,18.1,23.1,18.1z"/>
		</g>
		<g>
			<path class="st0" d="M19.1,16.5c0.1-0.2,0.4-0.4,0.3-0.2c0,0.1,0,0.1,0,0.2c0,0,0.1,0,0.1,0c0.2-0.5,0.3,0.1,0.5-0.4
				c0,0.2,0.4-0.2,0.6-0.2c-0.2,0.2,0,0.1-0.1,0.3c-0.1,0.1-0.2,0-0.2,0.2c0,0-0.1,0-0.1,0l-0.1-0.1c0,0-0.1,0.1-0.1,0.1l0.1,0.3
				l0.2-0.2c0.1,0,0.2,0,0.2,0.1c0,0.2,0.1,0.3,0.3,0.3c0.1,0,0.1-0.1,0.1,0.1c0,0,0,0.1,0.1-0.1c0-0.1,0-0.1,0-0.2c0,0,0,0,0,0
				c0,0,0.1,0,0.1,0c0.1,0.2,0.2,0.4,0.6,0.3c0,0,0,0,0,0c-0.1,0.2-0.1,0.2,0,0.1l0,0c-0.1,0,0-0.2,0.1-0.3l-0.2,0
				c0.2-0.1,0.3-0.2,0.3-0.1c0,0,0,0.1,0,0.2c0.1,0.1,0.1,0.2,0.2,0.3c0.1-0.1,0.1-0.2,0.1-0.2c0.2-0.2,0,0.1,0.1,0.1
				c0.2-0.1,0.2-0.2,0,0.2c0,0,0,0.1,0,0.1c0.2-0.1,0,0.2,0.2,0.1c0,0,0.1,0,0.1,0c0,0,0,0,0,0l-0.1,0.2L22.2,18c0-0.1,0-0.2,0-0.3
				c-0.1,0-0.2,0-0.3,0c0.1,0.1,0.1,0.2,0.2,0.4c0,0,0.1,0,0.1,0l-2.2,2.3c0,0-0.1,0-0.1-0.1c0,0,0,0-0.1,0l0,0.1l0,0.1
				c0,0-0.1,0-0.1,0c0,0-0.1,0-0.1-0.1c0.5-0.5,0-0.2,0-0.4c0-0.1,0-0.2,0-0.2c0,0,0,0-0.1-0.1c0,0-0.1,0.1-0.1,0.1
				c0,0-0.1,0.1-0.1,0c0,0,0-0.1-0.1-0.1c-0.2-0.1-0.4-0.2-0.5-0.3c0-0.1-0.1-0.1-0.1-0.2c-0.2-0.1-0.3-0.3-0.3-0.6
				c0,0-0.1,0.1-0.1,0.1c-0.1,0.1-0.2,0.1-0.2,0.1c0,0,0.1-0.2,0.1-0.2c0-0.1,0.1-0.3-0.2-0.2c0,0,0-0.1,0-0.1
				c-0.2,0.2-0.2,0.1,0-0.1c-0.2,0,0.1-0.3,0.2-0.5c0.2-0.2,0.2-0.3,0.1-0.3c0,0,0-0.1,0.1-0.1c0,0,0.1,0,0.1,0c0,0,0.1,0,0.2,0
				c0-0.1,0.1-0.1,0.1-0.2c0,0,0-0.1,0-0.1c0,0,0,0,0.1,0c0.2,0,0.3-0.3,0.5-0.4c0,0-0.1-0.1-0.1-0.1C19.2,16.7,19.1,16.7,19.1,16.5
				z M21.5,18.1c0,0.1,0,0.2,0,0.3c0,0,0.1,0,0.1,0c0-0.1,0-0.2,0-0.3L21.5,18.1z M22,17.5c0,0.1,0.1,0.1,0.1,0.2
				c0,0,0.1-0.1,0.1-0.1c0.2-0.2,0.1-0.1,0,0c-0.2,0.1,0.2-0.2,0-0.2C22.2,17.3,22.1,17.4,22,17.5z M21.4,17.5
				c0,0.1-0.1,0.1-0.1,0.2c0,0,0.1,0,0.1,0c0,0,0,0.1,0,0.1c0,0-0.1,0-0.1,0.1c0,0.1,0,0.1,0,0.2c0-0.1,0.1-0.1,0.2-0.2
				c0,0,0.1-0.1,0.1-0.1c0.1,0,0.2,0,0.4-0.3c0,0,0-0.1,0-0.1c-0.1,0-0.1,0.1-0.2,0.1l0,0l0,0.1l-0.1,0L21.4,17.5z M21,17.6
				c0,0.1,0,0.3,0,0.4c0.1,0.1,0.1,0,0.1-0.1c0.2-0.2-0.1,0,0.1-0.2L21,17.6z"/>
			<path class="st0" d="M17.9,17.7C17.9,17.7,18,17.7,17.9,17.7l0.3-0.5c-0.1,0.1-0.1,0.1-0.2,0.2C18,17.5,18,17.6,17.9,17.7z"/>
		</g>
		<g>
			<polygon class="st0" points="13,13.3 13,13.3 13,13.3 			"/>
			<path class="st0" d="M12.9,10.5l0.6-0.7c0,0.1-0.1,0.2,0,0.2c0.1,0.1,0.4-0.1,0.4,0.1c0,0,0.1,0,0.1,0c0.2,0,0,0.1-0.1,0.2
				c-0.1,0.3-0.2,0.2-0.3,0.2c0,0-0.1,0.1-0.1,0.1c0,0.1-0.1,0.2-0.1,0.2c0,0,0.1-0.1,0.1-0.1c0.1,0.1,0.5-0.5,0.7-0.4
				c0,0,0.1,0,0.1,0c0.2-0.3,0.3-0.2,0.4-0.2c0,0,0,0.1,0,0.1c0,0,0,0,0,0l0-0.1l0-0.1c0,0,0.1,0,0.1,0c0.1,0.2,0.2,0.4,0.3,0.6
				c0,0.1,0.2,0,0.3,0.1c0,0,0,0.1,0,0.1c0,0-0.1,0.1-0.1,0.2c0,0,0-0.1,0-0.1c0,0,0,0-0.1-0.1c0,0.1-0.1,0.2-0.1,0.2
				c0,0.1,0.1,0.1,0.1,0.1c0,0,0.1,0,0.1,0c0,0,0,0.1,0,0.1c0,0-0.1,0-0.1,0C15,11,15,11.3,14.9,11.3c0.2,0.1-1,0.8-0.3,0.6
				c0.1,0,0,0.2,0,0.4c0,0-0.1,0-0.1,0c-0.1,0-0.1,0.1-0.2,0.2c0,0,0,0.1,0,0.1c0,0,0.1-0.1,0.1-0.1c0,0,0,0,0,0c0,0,0,0,0.1,0
				c-0.1,0.1-0.2,0.3-0.3,0.4c-0.3,0.3-0.5,0.5-0.8,0.9c0,0-0.2,0.1-0.2,0.1c0-0.1,0-0.2-0.1-0.1c-0.1,0-0.1,0-0.1,0
				c0,0,0.1-0.1,0.1-0.1c0,0,0.1-0.1,0-0.1c-0.1,0-0.1,0.1-0.2,0.1c-0.1,0-0.1,0-0.1,0l0.1-0.1l0,0c0,0,0,0,0,0.1c0,0,0,0,0,0
				c0,0,0-0.1,0-0.1l0,0l0,0l0,0l-0.2,0c0,0-0.1,0-0.1,0c0.2-0.4-0.1-0.3-0.2-0.3c0,0,0,0,0-0.1c0,0,0,0,0.1,0c0,0,0,0,0,0
				c0,0,0-0.1,0-0.1c0,0,0,0,0.1,0c0,0,0,0,0,0c0-0.1-0.4,0.3-0.1-0.1l-0.3,0l0,0.1l-0.2,0c-0.1,0-0.1,0-0.2,0
				c-0.2,0.1-0.1-0.2-0.2-0.3c0,0-0.1,0-0.1,0c0,0-0.1,0-0.1,0c-0.2,0,0,0.1-0.1,0.1c0,0,0,0,0,0l-0.1,0c0,0,0.1-0.1,0.1-0.1
				c0,0,0.1,0,0.1-0.1c0,0-0.1,0-0.1,0c0,0-0.1,0.1-0.1,0.1c0-0.1-0.2,0,0-0.2c0,0,0,0,0-0.1c0,0,0,0,0,0l-0.2,0.2
				c0.1-0.1,0.1-0.2,0.2-0.3c0.1-0.1,0.2-0.1,0.2-0.2c0.1-0.1,0.1-0.2,0.1-0.2c0-0.1,0-0.1,0.1-0.2c0.1-0.1,0.1-0.1,0.1-0.1l0.8-0.9
				c-0.1,0.1-0.1,0.2-0.1,0.1l0,0.1l0.1-0.1C12.7,10.8,12.8,10.6,12.9,10.5z M13.9,11.6c0,0,0,0.1,0.1,0.1c0,0,0.1-0.1,0.2-0.1
				c0-0.1,0-0.1,0-0.2C14.1,11.6,14,11.6,13.9,11.6z M13.3,11.6C13.3,11.7,13.3,11.7,13.3,11.6l0.4,0c0,0,0.1,0,0.1,0l0-0.1
				c-0.2,0.1,0.2-0.3-0.1-0.1C13.6,11.6,13.4,11.6,13.3,11.6z M12.9,10.8c-0.2,0.2-0.1,0.1,0,0.2c0,0.2,0.2-0.2,0.2-0.1l0-0.2
				C13,10.7,12.9,10.7,12.9,10.8z"/>
			<path class="st0" d="M13.6,9.7c0.1,0,0,0.2,0.2,0l-0.1,0.1c0,0,0,0,0,0c0.3-0.2,0.1-0.2,0.2-0.4l0-0.1c-0.1,0-0.1,0.1-0.2,0.2
				c-0.1,0,0-0.1,0.1-0.2l0-0.1L13.6,9.7C13.6,9.7,13.6,9.7,13.6,9.7z"/>
			<path class="st0" d="M14,9.7c0,0.1,0.1,0.2,0.4-0.2C14.2,9.7,14.1,9.8,14,9.7C14,9.7,14,9.7,14,9.7z"/>
			<polygon class="st0" points="14.4,9.5 14.4,9.5 14.4,9.5 			"/>
			<polygon class="st0" points="14.5,9.3 14.4,9.5 14.5,9.4 			"/>
			<path class="st0" d="M14.2,10C14.2,10,14.3,10,14.2,10c0.1-0.1,0.1-0.2,0.1-0.3c0,0-0.1,0-0.1,0C14.1,9.9,14.2,9.9,14.2,10z"/>
		</g>
		<g>
			<path class="st0" d="M10.2,8.5c0.1-0.2,0.4-0.4,0.3-0.2c0,0.1,0,0.1,0,0.2c0,0,0.1,0,0.1,0C10.9,8,11,8.5,11.2,8
				c0,0.2,0.4-0.2,0.6-0.2c-0.2,0.2,0,0.1-0.1,0.3c-0.1,0.1-0.2,0-0.2,0.2c0,0-0.1,0-0.1,0l-0.1-0.1c0,0-0.1,0.1-0.1,0.1l0.1,0.3
				l0.2-0.2c0.1,0,0.2,0,0.2,0.1c0.1,0.2,0.1,0.3,0.3,0.3c0.1,0,0.1-0.1,0.1,0.1c0,0,0,0.1,0.1-0.1c0-0.1,0-0.1,0-0.2c0,0,0,0,0,0
				c0,0,0.1,0,0.1,0c0.1,0.2,0.2,0.4,0.6,0.3c0,0,0,0,0,0C12.8,9,12.8,9,12.9,9l0,0c-0.1,0,0-0.2,0.1-0.3l-0.2,0
				c0.2-0.2,0.3-0.2,0.3-0.2c0,0,0,0.1,0,0.2c0.1,0.1,0.2,0.2,0.2,0.3c0-0.1,0.1-0.2,0.1-0.2c0.2-0.2,0,0.1,0.1,0.1
				c0.2-0.2,0.2-0.2,0,0.2c0,0,0,0.1,0,0.1c0.2-0.2,0,0.2,0.2,0.1c0,0,0.1,0,0.1,0c0,0,0,0,0,0l-0.1,0.2l-0.4,0.4c0-0.1,0-0.2,0-0.3
				c-0.1,0-0.2,0-0.3,0c0.1,0.1,0.1,0.2,0.2,0.3c0,0,0.1,0,0.1,0l-2.1,2.4c0,0-0.1,0-0.1-0.1c0,0,0,0-0.1,0l0,0.1l0,0.1
				c0,0-0.1,0-0.1,0c0,0-0.1,0-0.1-0.1c0.5-0.5,0-0.2,0-0.4c0-0.1,0-0.2,0-0.2c0,0,0,0-0.1-0.1c0,0-0.1,0.1-0.1,0.1
				c0,0-0.1,0.1-0.1,0c0,0,0-0.1-0.1-0.1c-0.2-0.1-0.4-0.2-0.5-0.3c0-0.1-0.1-0.1-0.1-0.2c-0.2-0.1-0.3-0.3-0.3-0.6
				c0,0-0.1,0.1-0.1,0.1c-0.1,0.1-0.2,0.1-0.2,0.1c0,0,0.1-0.2,0.1-0.2c0-0.1,0.1-0.3-0.2-0.2c0,0,0-0.1,0-0.1
				c-0.2,0.2-0.2,0.1,0-0.1c-0.2,0,0-0.3,0.2-0.5c0.2-0.2,0.2-0.3,0.1-0.3c0,0,0-0.1,0.1-0.1c0,0,0.1,0,0.1,0c0,0,0.1,0,0.2,0
				c0-0.1,0-0.1,0.1-0.2c0,0,0-0.1,0-0.1c0,0,0,0,0.1,0c0.2,0,0.3-0.3,0.5-0.4c0,0-0.1-0.1-0.1-0.1C10.3,8.7,10.2,8.6,10.2,8.5z
				 M12.7,10c0,0.1,0,0.2,0,0.3c0,0,0.1,0,0.1,0c0-0.1,0-0.2,0-0.3L12.7,10z M13.2,9.4c0,0.1,0.1,0.1,0.1,0.2c0,0,0.1-0.1,0.1-0.1
				c0.2-0.2,0.1-0.1,0,0c-0.2,0.1,0.2-0.2,0-0.2C13.4,9.2,13.3,9.3,13.2,9.4z M12.5,9.4c0,0.1-0.1,0.2-0.1,0.2c0,0,0.1,0,0.1,0
				c0,0,0,0.1,0,0.1c0,0-0.1,0-0.1,0.1c0,0.1,0,0.1,0,0.2c0-0.1,0.1-0.1,0.2-0.2c0,0,0.1-0.1,0.1-0.1c0.1,0,0.2,0,0.4-0.3
				c0,0,0-0.1,0-0.1c-0.1,0-0.1,0.1-0.2,0.1l0,0l0,0.1l-0.1,0L12.5,9.4z M12.2,9.5c0,0.1,0,0.3,0,0.4c0.1,0.1,0.1,0,0.1-0.1
				c0.2-0.2-0.1,0,0.1-0.2L12.2,9.5z"/>
			<path class="st0" d="M9.1,9.7C9.1,9.7,9.1,9.7,9.1,9.7l0.3-0.6C9.3,9.2,9.3,9.3,9.2,9.4C9.1,9.5,9.1,9.6,9.1,9.7z"/>
		</g>
		<g>
			<polygon class="st0" points="4,5.4 4,5.4 4,5.4 			"/>
			<path class="st0" d="M3.8,2.6l0.6-0.7C4.4,2,4.4,2,4.4,2c0.1,0,0.4-0.1,0.4,0.1c0,0,0.1,0,0.1,0c0.2-0.1,0,0.1-0.1,0.2
				C4.7,2.6,4.7,2.5,4.6,2.5c0,0-0.1,0.1-0.1,0.1c0,0.1-0.1,0.2-0.1,0.2c0,0,0.1-0.1,0.1-0.1C4.6,2.9,5,2.3,5.1,2.4c0,0,0.1,0,0.1,0
				C5.5,2,5.5,2.1,5.6,2.1c0,0,0,0.1,0,0.1c0,0,0,0,0,0l0-0.1l0-0.1c0,0,0.1,0,0.1,0c0.1,0.2,0.2,0.4,0.3,0.6c0,0.1,0.2,0,0.3,0.1
				c0,0,0,0.1,0,0.1c0,0-0.1,0.1-0.1,0.2c0,0,0-0.1,0-0.1c0,0,0,0-0.1-0.1C6.1,2.8,6,2.9,6,2.9C6,3,6.1,3,6.1,3c0,0,0.1,0,0.1,0
				c0,0,0,0.1,0,0.1c0,0-0.1,0-0.1,0C6,3.1,6,3.3,5.9,3.3c0.2,0.1-1,0.8-0.3,0.6c0.1,0,0,0.2,0,0.4c0,0-0.1,0-0.1,0
				c-0.1,0-0.1,0.1-0.2,0.2c0,0,0,0.1,0,0.1c0,0,0.1-0.1,0.1-0.1c0,0,0,0,0,0c0,0,0,0,0.1,0C5.4,4.5,5.3,4.7,5.2,4.8
				C4.9,5.1,4.7,5.3,4.4,5.7c0,0-0.2,0.1-0.2,0.1c0-0.1,0-0.2-0.2-0.1c0,0-0.1,0-0.1,0c0,0,0.1-0.1,0.1-0.1c0,0,0-0.1,0-0.1
				C4.1,5.5,4,5.6,4,5.6c-0.1,0-0.1,0-0.1,0L4,5.4l0,0c0,0,0,0,0,0.1c0,0,0,0,0,0c0,0,0-0.1,0-0.1l0,0l0,0l0,0l-0.2,0
				c0,0-0.1,0-0.1,0c0.2-0.4-0.1-0.3-0.2-0.3c0,0,0,0,0-0.1c0,0,0,0,0.1,0c0,0,0,0,0,0c0,0,0-0.1,0-0.1c0,0,0,0,0.1,0c0,0,0,0,0,0
				c0-0.1-0.4,0.3-0.1-0.1l-0.3,0l0,0.1L3.2,5c-0.1,0-0.1,0-0.2,0C2.8,5.1,3,4.8,2.9,4.8c0,0-0.1,0-0.1,0c0,0-0.1,0-0.1,0
				c-0.2,0,0,0.1-0.1,0.1c0,0,0,0,0,0l-0.1,0c0,0,0-0.1,0.1-0.1c0,0,0.1,0,0.1-0.1c0,0-0.1,0-0.1,0c0,0-0.1,0.1-0.1,0.1
				c0-0.1-0.2,0,0-0.2c0,0,0,0,0-0.1l0,0L2.2,4.8c0.1-0.1,0.1-0.2,0.2-0.3c0.1-0.1,0.2-0.1,0.2-0.2c0.1-0.1,0.1-0.2,0.1-0.2
				c0-0.1,0-0.1,0.1-0.2c0.1-0.1,0.1-0.1,0.1-0.1l0.7-0.9C3.5,3,3.5,3.1,3.5,3l0,0.1L3.6,3C3.6,2.9,3.8,2.7,3.8,2.6z M4.9,3.7
				c0,0,0,0.1,0.1,0.1c0,0,0.1-0.1,0.2-0.1c0-0.1,0-0.1,0-0.2C5,3.6,5,3.7,4.9,3.7z M4.3,3.7C4.3,3.7,4.3,3.8,4.3,3.7l0.4,0
				c0,0,0.1,0,0.1,0l0-0.1C4.6,3.8,5,3.3,4.7,3.5C4.6,3.6,4.4,3.7,4.3,3.7z M3.8,2.9c-0.2,0.2,0,0.2,0,0.2C3.8,3.2,4,2.9,4,3l0-0.2
				C3.9,2.8,3.9,2.8,3.8,2.9z"/>
			<path class="st0" d="M4.6,1.8c0.1-0.1,0,0.2,0.2,0L4.7,1.9c0,0,0,0,0,0C5,1.7,4.9,1.7,4.9,1.6l0-0.1c-0.1,0-0.1,0.1-0.2,0.2
				c-0.1,0.1,0-0.1,0.1-0.2l0-0.1L4.6,1.8C4.5,1.8,4.5,1.8,4.6,1.8z"/>
			<path class="st0" d="M4.9,1.8C5,2,5,2,5.3,1.6C5.1,1.7,5,1.9,4.9,1.8C4.9,1.8,4.9,1.8,4.9,1.8z"/>
			<polygon class="st0" points="5.3,1.6 5.3,1.6 5.3,1.6 			"/>
			<polygon class="st0" points="5.4,1.4 5.3,1.6 5.5,1.4 			"/>
			<path class="st0" d="M5.2,2.1C5.2,2.1,5.2,2,5.2,2.1c0.1-0.1,0.1-0.2,0.1-0.3c0,0-0.1,0-0.1,0C5.1,2,5.2,2,5.2,2.1z"/>
		</g>
		<g>
			<path class="st0" d="M1.1,0.6c0.1-0.2,0.4-0.4,0.3-0.2c0,0.1,0,0.1,0,0.2c0,0,0.1,0,0.1,0c0.2-0.5,0.3,0,0.5-0.5
				C2.2,0.4,2.5,0,2.7,0c-0.2,0.2,0,0.1-0.1,0.3c-0.1,0.1-0.2,0-0.2,0.2c0,0-0.1,0-0.1,0L2.2,0.4c0,0-0.1,0.1-0.1,0.1l0.1,0.3
				l0.2-0.2c0.1,0,0.2,0,0.2,0.1c0.1,0.2,0.1,0.3,0.3,0.3C3,0.9,3.1,0.9,3,1c0,0,0,0.1,0.1-0.1c0-0.1,0-0.1,0-0.2c0,0,0,0,0,0
				c0,0,0.1,0,0.1,0C3.3,0.9,3.4,1,3.8,0.9c0,0,0,0,0,0c-0.1,0.2-0.1,0.2,0,0.1l0,0C3.8,1,3.9,0.9,4,0.7l-0.2,0
				C3.9,0.6,4,0.6,4.1,0.6c0,0,0,0.1,0,0.2C4.2,0.9,4.3,1,4.3,1.1c0-0.1,0.1-0.2,0.1-0.2C4.7,0.7,4.5,1,4.5,1c0.2-0.2,0.2-0.2,0,0.2
				c0,0,0,0.1,0,0.1c0.2-0.2,0,0.2,0.2,0.1c0,0,0.1,0,0.1,0c0,0,0,0,0,0L4.7,1.6L4.3,2c0-0.1,0-0.2,0-0.3c-0.1,0-0.2,0-0.3,0
				C4.1,1.8,4.1,1.9,4.2,2c0,0,0.1,0,0.1-0.1l-2,2.4c0,0-0.1,0-0.1-0.1c0,0,0,0-0.1,0l0,0.1l0,0.1c0,0-0.1,0-0.1,0
				c0,0-0.1,0-0.1-0.1c0.5-0.5,0-0.2,0-0.4C2,4,2,3.9,2,3.8c0,0,0,0-0.1-0.1c0,0-0.1,0.1-0.1,0.1c0,0-0.1,0.1-0.1,0.1
				c0,0,0-0.1-0.1-0.1C1.5,3.7,1.2,3.7,1.1,3.5C1.1,3.5,1,3.4,1,3.4C0.7,3.3,0.7,3.1,0.7,2.8c0,0-0.1,0.1-0.1,0.1
				C0.5,3,0.4,3.1,0.4,3.1c0,0,0.1-0.2,0-0.2c0-0.1,0.1-0.3-0.2-0.2c0,0,0-0.1,0-0.1C0,2.8,0,2.8,0.2,2.6c-0.2,0,0-0.3,0.2-0.5
				c0.2-0.2,0.2-0.3,0.1-0.3c0,0,0-0.1,0-0.1c0,0,0.1,0,0.1,0c0,0,0.1,0,0.2,0c0-0.1,0-0.1,0-0.2c0,0,0-0.1,0-0.1c0,0,0,0,0.1,0
				c0.2,0,0.3-0.3,0.5-0.5c0,0-0.1-0.1-0.1-0.1C1.2,0.8,1.1,0.8,1.1,0.6z M3.6,2.1c0,0.1,0,0.2,0,0.3c0,0,0.1,0,0.1,0
				c0-0.1,0-0.2,0-0.3L3.6,2.1z M4.1,1.4c0,0.1,0.1,0.1,0.1,0.1c0,0,0.1-0.1,0.1-0.1c0.2-0.2,0.1-0.1,0,0c-0.2,0.1,0.2-0.2,0-0.2
				C4.3,1.3,4.2,1.4,4.1,1.4z M3.5,1.5c0,0.1-0.1,0.2-0.1,0.2c0,0,0.1,0,0.1,0c0,0,0,0.1,0,0.1c0,0-0.1,0-0.1,0.1c0,0.1,0,0.1,0,0.2
				C3.4,2,3.5,2,3.5,1.9c0,0,0.1-0.1,0.1-0.1c0.1,0,0.2,0,0.3-0.3c0,0,0-0.1,0-0.1C4,1.4,3.9,1.4,3.8,1.5l0,0l0,0.1l-0.1,0L3.5,1.5z
				 M3.1,1.6c0,0.1,0,0.3,0.1,0.4c0.1,0.1,0.1,0,0.1-0.1c0.2-0.2-0.1,0,0.1-0.2L3.1,1.6z"/>
			<path class="st0" d="M0,1.9C0,1.9,0,1.9,0,1.9l0.3-0.6C0.3,1.4,0.2,1.5,0.1,1.6C0.1,1.7,0,1.8,0,1.9z"/>
		</g>
	</g>
</g>
</svg>
