<?xml version="1.0" encoding="utf-8"?>
<!-- Generator: Adobe Illustrator 22.0.1, SVG Export Plug-In . SVG Version: 6.00 Build 0)  -->
<svg version="1.1" id="Capa_1" xmlns="http://www.w3.org/2000/svg" xmlns:xlink="http://www.w3.org/1999/xlink" x="0px" y="0px"
	 viewBox="0 0 463.6 370.3" style="enable-background:new 0 0 463.6 370.3;" xml:space="preserve">
<style type="text/css">
	.st0{fill:#FFFFFF;}
</style>
<g>
	<circle class="st0" cx="275.3" cy="201.5" r="2.6"/>
	<path class="st0" d="M264.6,189.2c-1.1,1-1.2,2.6-0.3,3.7c1,1.1,2.6,1.2,3.7,0.3c1.1-1,1.2-2.6,0.3-3.7
		C267.4,188.3,265.7,188.2,264.6,189.2z"/>
	<path class="st0" d="M292.7,204.8c1,1.1,2.6,1.2,3.7,0.3c0.5-0.5,0.8-1.1,0.9-1.7c-1.7-0.4-3.3-0.9-5-1.4
		C291.9,202.8,292,203.9,292.7,204.8z"/>
	<path class="st0" d="M315.8,206.3c0.2-0.1,0.3-0.3,0.4-0.5c-1.5-0.1-3-0.2-4.5-0.3c0.1,0.2,0.2,0.3,0.3,0.5
		C313,207.2,314.7,207.3,315.8,206.3z"/>
	<circle class="st0" cx="303.6" cy="213.3" r="2.6"/>
	<path class="st0" d="M331.5,207.5c1,1.1,2.6,1.2,3.7,0.3c0.5-0.4,0.8-1,0.9-1.6c-1.7,0-3.5,0-5.2,0
		C331,206.7,331.2,207.1,331.5,207.5z"/>
	<path class="st0" d="M321.4,212.8c-1.1,1-1.2,2.6-0.3,3.7c1,1.1,2.6,1.2,3.7,0.3c1.1-1,1.2-2.6,0.3-3.7
		C324.1,212,322.5,211.9,321.4,212.8z"/>
	<path class="st0" d="M311,221.8c-1.1,1-1.2,2.6-0.3,3.7c1,1.1,2.6,1.2,3.7,0.3c1.1-1,1.2-2.6,0.3-3.7
		C313.7,221,312.1,220.9,311,221.8z"/>
	<path class="st0" d="M350.9,208.8c1,1.1,2.6,1.2,3.7,0.3c0.6-0.5,0.9-1.1,0.9-1.8c-1.8-0.2-3.5-0.4-5.2-0.5
		C350.2,207.5,350.3,208.2,350.9,208.8z"/>
	<path class="st0" d="M340.7,214.1c-1.1,1-1.2,2.6-0.3,3.7c1,1.1,2.6,1.2,3.7,0.3c1.1-1,1.2-2.6,0.3-3.7
		C343.5,213.3,341.8,213.2,340.7,214.1z"/>
	<path class="st0" d="M330.3,223.1c-1.1,1-1.2,2.6-0.3,3.7c1,1.1,2.6,1.2,3.7,0.3c1.1-1,1.2-2.6,0.3-3.7
		C333.1,222.3,331.4,222.2,330.3,223.1z"/>
	<circle class="st0" cx="321.6" cy="234.1" r="2.6"/>
	<path class="st0" d="M373.3,211c-1-0.3-2-0.6-3.1-0.9c0,0.1,0.1,0.1,0.1,0.2C371.1,211.2,372.3,211.4,373.3,211z"/>
	<path class="st0" d="M360.2,215.6c-1.1,1-1.2,2.6-0.3,3.7c1,1.1,2.6,1.2,3.7,0.3c1.1-1,1.2-2.6,0.3-3.7
		C363,214.7,361.3,214.6,360.2,215.6z"/>
	<path class="st0" d="M349.8,224.6c-1.1,1-1.2,2.6-0.3,3.7c1,1.1,2.6,1.2,3.7,0.3c1.1-1,1.2-2.6,0.3-3.7
		C352.6,223.8,350.9,223.6,349.8,224.6z"/>
	<path class="st0" d="M339.4,233.6c-1.1,1-1.2,2.6-0.3,3.7c1,1.1,2.6,1.2,3.7,0.3c1.1-1,1.2-2.6,0.3-3.7
		C342.2,232.8,340.5,232.7,339.4,233.6z"/>
	<path class="st0" d="M329,242.6c-1.1,1-1.2,2.6-0.3,3.7c1,1.1,2.6,1.2,3.7,0.3c1.1-1,1.2-2.6,0.3-3.7
		C331.7,241.8,330.1,241.7,329,242.6z"/>
	<path class="st0" d="M379.5,216.9c-1.1,1-1.2,2.6-0.3,3.7c1,1.1,2.6,1.2,3.7,0.3c1.1-1,1.2-2.6,0.3-3.7
		C382.3,216,380.6,215.9,379.5,216.9z"/>
	<path class="st0" d="M369.1,225.9c-1.1,1-1.2,2.6-0.3,3.7c1,1.1,2.6,1.2,3.7,0.3c1.1-1,1.2-2.6,0.3-3.7
		C371.9,225.1,370.2,224.9,369.1,225.9z"/>
	<path class="st0" d="M358.7,234.9c-1.1,1-1.2,2.6-0.3,3.7c1,1.1,2.6,1.2,3.7,0.3c1.1-1,1.2-2.6,0.3-3.7
		C361.5,234.1,359.8,234,358.7,234.9z"/>
	<path class="st0" d="M348.3,243.9c-1.1,1-1.2,2.6-0.3,3.7c1,1.1,2.6,1.2,3.7,0.3c1.1-1,1.2-2.6,0.3-3.7
		C351.1,243.1,349.4,243,348.3,243.9z"/>
	<circle class="st0" cx="339.6" cy="254.9" r="2.6"/>
	<path class="st0" d="M388.6,227.4c-1.1,1-1.2,2.6-0.3,3.7c1,1.1,2.6,1.2,3.7,0.3c1.1-1,1.2-2.6,0.3-3.7
		C391.4,226.5,389.7,226.4,388.6,227.4z"/>
	<path class="st0" d="M378.2,236.4c-1.1,1-1.2,2.6-0.3,3.7c1,1.1,2.6,1.2,3.7,0.3c1.1-1,1.2-2.6,0.3-3.7
		C381,235.5,379.3,235.4,378.2,236.4z"/>
	<path class="st0" d="M367.8,245.4c-1.1,1-1.2,2.6-0.3,3.7c1,1.1,2.6,1.2,3.7,0.3c1.1-1,1.2-2.6,0.3-3.7
		C370.6,244.6,368.9,244.4,367.8,245.4z"/>
	<path class="st0" d="M357.4,254.4c-1.1,1-1.2,2.6-0.3,3.7c1,1.1,2.6,1.2,3.7,0.3c1.1-1,1.2-2.6,0.3-3.7
		C360.2,253.6,358.5,253.5,357.4,254.4z"/>
	<path class="st0" d="M347,263.4c-1.1,1-1.2,2.6-0.3,3.7c1,1.1,2.6,1.2,3.7,0.3c1.1-1,1.2-2.6,0.3-3.7
		C349.8,262.6,348.1,262.5,347,263.4z"/>
	<circle class="st0" cx="357.6" cy="275.7" r="2.6"/>
	<path class="st0" d="M366.3,264.7c-1.1,1-1.2,2.6-0.3,3.7c1,1.1,2.6,1.2,3.7,0.3c1.1-1,1.2-2.6,0.3-3.7S367.4,263.8,366.3,264.7z"
		/>
	<path class="st0" d="M376.7,255.7c-1.1,1-1.2,2.6-0.3,3.7c1,1.1,2.6,1.2,3.7,0.3c1.1-1,1.2-2.6,0.3-3.7S377.8,254.8,376.7,255.7z"
		/>
	<path class="st0" d="M387.1,246.7c-1.1,1-1.2,2.6-0.3,3.7c1,1.1,2.6,1.2,3.7,0.3c1.1-1,1.2-2.6,0.3-3.7
		C389.9,245.9,388.2,245.7,387.1,246.7z"/>
	<path class="st0" d="M397.6,237.7c-1.1,1-1.2,2.6-0.3,3.7c1,1.1,2.6,1.2,3.7,0.3c1.1-1,1.2-2.6,0.3-3.7
		C400.3,236.8,398.7,236.7,397.6,237.7z"/>
	<path class="st0" d="M407.7,232.4c1,1.1,2.6,1.2,3.7,0.3c0.7-0.6,1-1.6,0.9-2.5c-1.2-0.7-2.3-1.3-3.5-2c-0.3,0.1-0.6,0.3-0.8,0.5
		C406.9,229.6,406.7,231.3,407.7,232.4z"/>
	<circle class="st0" cx="347.3" cy="284.7" r="2.6"/>
	<path class="st0" d="M282.6,210c-1.1,1-1.2,2.6-0.3,3.7c1,1.1,2.6,1.2,3.7,0.3c1.1-1,1.2-2.6,0.3-3.7
		C285.4,209.1,283.7,209,282.6,210z"/>
	<circle class="st0" cx="293.3" cy="222.3" r="2.6"/>
	<path class="st0" d="M300.7,230.8c-1.1,1-1.2,2.6-0.3,3.7c1,1.1,2.6,1.2,3.7,0.3c1.1-1,1.2-2.6,0.3-3.7
		C303.4,229.9,301.8,229.8,300.7,230.8z"/>
	<circle class="st0" cx="311.3" cy="243.1" r="2.6"/>
	<path class="st0" d="M318.7,251.6c-1.1,1-1.2,2.6-0.3,3.7c1,1.1,2.6,1.2,3.7,0.3s1.2-2.6,0.3-3.7
		C321.4,250.7,319.8,250.6,318.7,251.6z"/>
	<circle class="st0" cx="329.3" cy="263.9" r="2.6"/>
	<path class="st0" d="M336.7,272.4c-1.1,1-1.2,2.6-0.3,3.7c1,1.1,2.6,1.2,3.7,0.3c1.1-1,1.2-2.6,0.3-3.7
		C339.4,271.5,337.8,271.4,336.7,272.4z"/>
	<path class="st0" d="M417,239.1c-1.1,1-1.2,2.6-0.3,3.7c1,1.1,2.6,1.2,3.7,0.3c1.1-1,1.2-2.6,0.3-3.7
		C419.8,238.3,418.1,238.2,417,239.1z"/>
	<path class="st0" d="M406.6,248.2c-1.1,1-1.2,2.6-0.3,3.7c1,1.1,2.6,1.2,3.7,0.3c1.1-1,1.2-2.6,0.3-3.7
		C409.4,247.3,407.7,247.2,406.6,248.2z"/>
	<path class="st0" d="M396.2,257.2c-1.1,1-1.2,2.6-0.3,3.7c1,1.1,2.6,1.2,3.7,0.3c1.1-1,1.2-2.6,0.3-3.7
		C399,256.3,397.3,256.2,396.2,257.2z"/>
	<path class="st0" d="M385.8,266.2c-1.1,1-1.2,2.6-0.3,3.7c1,1.1,2.6,1.2,3.7,0.3c1.1-1,1.2-2.6,0.3-3.7
		C388.6,265.4,386.9,265.2,385.8,266.2z"/>
	<path class="st0" d="M375.4,275.2c-1.1,1-1.2,2.6-0.3,3.7c1,1.1,2.6,1.2,3.7,0.3c1.1-1,1.2-2.6,0.3-3.7
		C378.2,274.4,376.5,274.2,375.4,275.2z"/>
	<path class="st0" d="M365,284.2c-1.1,1-1.2,2.6-0.3,3.7c1,1.1,2.6,1.2,3.7,0.3c1.1-1,1.2-2.6,0.3-3.7
		C367.8,283.4,366.1,283.3,365,284.2z"/>
	<path class="st0" d="M426,249.5c-1.1,1-1.2,2.6-0.3,3.7c1,1.1,2.6,1.2,3.7,0.3c1.1-1,1.2-2.6,0.3-3.7
		C428.7,248.6,427.1,248.5,426,249.5z"/>
	<path class="st0" d="M415.6,258.5c-1.1,1-1.2,2.6-0.3,3.7s2.6,1.2,3.7,0.3c1.1-1,1.2-2.6,0.3-3.7
		C418.3,257.6,416.7,257.5,415.6,258.5z"/>
	<path class="st0" d="M405.2,267.5c-1.1,1-1.2,2.6-0.3,3.7s2.6,1.2,3.7,0.3c1.1-1,1.2-2.6,0.3-3.7
		C407.9,266.7,406.3,266.5,405.2,267.5z"/>
	<path class="st0" d="M394.7,276.5c-1.1,1-1.2,2.6-0.3,3.7c1,1.1,2.6,1.2,3.7,0.3c1.1-1,1.2-2.6,0.3-3.7S395.8,275.5,394.7,276.5z"
		/>
	<path class="st0" d="M384.3,285.5c-1.1,1-1.2,2.6-0.3,3.7c1,1.1,2.6,1.2,3.7,0.3c1.1-1,1.2-2.6,0.3-3.7S385.4,284.6,384.3,285.5z"
		/>
	<circle class="st0" cx="375.7" cy="296.5" r="2.6"/>
	<path class="st0" d="M438.5,263.9c1.1-1,1.2-2.6,0.3-3.7c-1-1.1-2.6-1.2-3.7-0.3c-1.1,1-1.2,2.6-0.3,3.7
		C435.7,264.8,437.4,264.9,438.5,263.9z"/>
	<path class="st0" d="M424.6,269c-1.1,1-1.2,2.6-0.3,3.7c1,1.1,2.6,1.2,3.7,0.3c1.1-1,1.2-2.6,0.3-3.7
		C427.4,268.1,425.7,268,424.6,269z"/>
	<path class="st0" d="M414.2,278c-1.1,1-1.2,2.6-0.3,3.7c1,1.1,2.6,1.2,3.7,0.3c1.1-1,1.2-2.6,0.3-3.7
		C417,277.1,415.3,277,414.2,278z"/>
	<path class="st0" d="M403.8,287c-1.1,1-1.2,2.6-0.3,3.7c1,1.1,2.6,1.2,3.7,0.3c1.1-1,1.2-2.6,0.3-3.7
		C406.6,286.1,404.9,286,403.8,287z"/>
	<path class="st0" d="M393.4,296c-1.1,1-1.2,2.6-0.3,3.7c1,1.1,2.6,1.2,3.7,0.3c1.1-1,1.2-2.6,0.3-3.7
		C396.2,295.2,394.5,295,393.4,296z"/>
	<path class="st0" d="M383,305c-1.1,1-1.2,2.6-0.3,3.7c1,1.1,2.6,1.2,3.7,0.3c1.1-1,1.2-2.6,0.3-3.7
		C385.8,304.2,384.1,304.1,383,305z"/>
	<path class="st0" d="M433.6,279.3c-1.1,1-1.2,2.6-0.3,3.7c1,1.1,2.6,1.2,3.7,0.3s1.2-2.6,0.3-3.7S434.7,278.3,433.6,279.3z"/>
	<path class="st0" d="M426.6,292.3c1.1-1,1.2-2.6,0.3-3.7s-2.6-1.2-3.7-0.3c-1.1,1-1.2,2.6-0.3,3.7
		C423.8,293.1,425.5,293.2,426.6,292.3z"/>
	<path class="st0" d="M412.7,297.3c-1.1,1-1.2,2.6-0.3,3.7s2.6,1.2,3.7,0.3c1.1-1,1.2-2.6,0.3-3.7
		C415.5,296.5,413.9,296.3,412.7,297.3z"/>
	<path class="st0" d="M402.3,306.3c-1.1,1-1.2,2.6-0.3,3.7c1,1.1,2.6,1.2,3.7,0.3c1.1-1,1.2-2.6,0.3-3.7
		C405.1,305.5,403.4,305.4,402.3,306.3z"/>
	<circle class="st0" cx="393.7" cy="317.3" r="2.6"/>
	<path class="st0" d="M354.7,293.1c-1.1,1-1.2,2.6-0.3,3.7c1,1.1,2.6,1.2,3.7,0.3s1.2-2.6,0.3-3.7
		C357.4,292.3,355.8,292.2,354.7,293.1z"/>
	<circle class="st0" cx="365.3" cy="305.5" r="2.6"/>
	<path class="st0" d="M372.7,313.9c-1.1,1-1.2,2.6-0.3,3.7c1,1.1,2.6,1.2,3.7,0.3c1.1-1,1.2-2.6,0.3-3.7
		C375.5,313.1,373.8,313,372.7,313.9z"/>
	<path class="st0" d="M381.6,324.3c-1.1,0.9-1.2,2.6-0.3,3.7c1.5-0.8,3.1-1.5,4.6-2.3c-0.1-0.4-0.3-0.8-0.6-1.1
		C384.4,323.4,382.7,323.3,381.6,324.3z"/>
	<path class="st0" d="M115.6,143.3c0.4-0.4,0.7-0.8,0.8-1.3c-1.7,0-3.4,0.1-5,0.2c0.1,0.3,0.3,0.6,0.5,0.8
		C112.8,144.1,114.5,144.2,115.6,143.3z"/>
	<circle class="st0" cx="103.5" cy="150.3" r="2.6"/>
	<path class="st0" d="M131.2,144.3c1,1.1,2.6,1.2,3.7,0.3c0.7-0.6,1-1.4,0.9-2.2c-1.8-0.1-3.5-0.1-5.2-0.2
		C130.5,142.9,130.7,143.7,131.2,144.3z"/>
	<path class="st0" d="M121.1,149.6c-1.1,1-1.2,2.6-0.3,3.7c1,1.1,2.6,1.2,3.7,0.3c1.1-1,1.2-2.6,0.3-3.7
		C123.8,148.8,122.2,148.6,121.1,149.6z"/>
	<circle class="st0" cx="112.4" cy="160.6" r="2.6"/>
	<path class="st0" d="M150.7,145.8c1,1.1,2.6,1.2,3.7,0.3c0.9-0.8,1.1-2,0.7-3c-1.6,0-3.2-0.1-4.8-0.1
		C149.9,143.8,150,145,150.7,145.8z"/>
	<path class="st0" d="M140.6,151.1c-1.1,1-1.2,2.6-0.3,3.7c1,1.1,2.6,1.2,3.7,0.3c1.1-1,1.2-2.6,0.3-3.7
		C143.3,150.2,141.7,150.1,140.6,151.1z"/>
	<path class="st0" d="M130.1,160.1c-1.1,1-1.2,2.6-0.3,3.7c1,1.1,2.6,1.2,3.7,0.3c1.1-1,1.2-2.6,0.3-3.7S131.3,159.1,130.1,160.1z"
		/>
	<circle class="st0" cx="121.5" cy="171.1" r="2.6"/>
	<circle class="st0" cx="130.4" cy="181.4" r="2.6"/>
	<path class="st0" d="M139.1,170.4c-1.1,1-1.2,2.6-0.3,3.7c1,1.1,2.6,1.2,3.7,0.3c1.1-1,1.2-2.6,0.3-3.7
		C141.9,169.6,140.2,169.4,139.1,170.4z"/>
	<path class="st0" d="M159.9,152.4c-1.1,1-1.2,2.6-0.3,3.7c1,1.1,2.6,1.2,3.7,0.3c1.1-1,1.2-2.6,0.3-3.7
		C162.7,151.5,161,151.4,159.9,152.4z"/>
	<path class="st0" d="M170,147.1c1,1.1,2.6,1.2,3.7,0.3c1.1-0.9,1.2-2.5,0.4-3.6c-1.3-0.1-2.6-0.3-3.9-0.3
		C169.2,144.4,169.1,146,170,147.1z"/>
	<circle class="st0" cx="120.1" cy="190.3" r="2.6"/>
	<circle class="st0" cx="93.1" cy="159.2" r="2.6"/>
	<circle class="st0" cx="102.1" cy="169.5" r="2.6"/>
	<circle class="st0" cx="111.2" cy="180" r="2.6"/>
	<path class="st0" d="M152.9,165.4c1.1-1,1.2-2.6,0.3-3.7c-1-1.1-2.6-1.2-3.7-0.3c-1.1,1-1.2,2.6-0.3,3.7
		C150.2,166.2,151.8,166.3,152.9,165.4z"/>
	<path class="st0" d="M189.5,148.5c1,1.1,2.6,1.2,3.7,0.3c0.4-0.3,0.6-0.7,0.8-1.1c-1.7-0.5-3.4-0.9-5.1-1.3
		C188.8,147.1,189,147.9,189.5,148.5z"/>
	<path class="st0" d="M179.4,153.8c-1.1,1-1.2,2.6-0.3,3.7c1,1.1,2.6,1.2,3.7,0.3c1.1-1,1.2-2.6,0.3-3.7
		C182.2,153,180.5,152.9,179.4,153.8z"/>
	<path class="st0" d="M169,162.8c-1.1,1-1.2,2.6-0.3,3.7c1,1.1,2.6,1.2,3.7,0.3c1.1-1,1.2-2.6,0.3-3.7
		C171.7,162,170.1,161.9,169,162.8z"/>
	<path class="st0" d="M162,175.8c1.1-1,1.2-2.6,0.3-3.7c-1-1.1-2.6-1.2-3.7-0.3c-1.1,1-1.2,2.6-0.3,3.7
		C159.3,176.7,160.9,176.8,162,175.8z"/>
	<path class="st0" d="M148.2,180.9c-1.1,1-1.2,2.6-0.3,3.7c1,1.1,2.6,1.2,3.7,0.3c1.1-1,1.2-2.6,0.3-3.7
		C150.9,180,149.3,179.9,148.2,180.9z"/>
	<path class="st0" d="M137.7,189.9c-1.1,1-1.2,2.6-0.3,3.7c1,1.1,2.6,1.2,3.7,0.3c1.1-1,1.2-2.6,0.3-3.7
		C140.5,189,138.8,188.9,137.7,189.9z"/>
	<path class="st0" d="M198.7,155.1c-1.1,1-1.2,2.6-0.3,3.7c1,1.1,2.6,1.2,3.7,0.3c1.1-1,1.2-2.6,0.3-3.7
		C201.5,154.3,199.8,154.2,198.7,155.1z"/>
	<path class="st0" d="M188.3,164.1c-1.1,1-1.2,2.6-0.3,3.7c1,1.1,2.6,1.2,3.7,0.3c1.1-1,1.2-2.6,0.3-3.7
		C191.1,163.3,189.4,163.2,188.3,164.1z"/>
	<path class="st0" d="M177.9,173.2c-1.1,1-1.2,2.6-0.3,3.7c1,1.1,2.6,1.2,3.7,0.3c1.1-1,1.2-2.6,0.3-3.7
		C180.7,172.3,179,172.2,177.9,173.2z"/>
	<path class="st0" d="M167.5,182.2c-1.1,1-1.2,2.6-0.3,3.7c1,1.1,2.6,1.2,3.7,0.3c1.1-1,1.2-2.6,0.3-3.7
		C170.3,181.3,168.6,181.2,167.5,182.2z"/>
	<path class="st0" d="M157.1,191.2c-1.1,1-1.2,2.6-0.3,3.7c1,1.1,2.6,1.2,3.7,0.3c1.1-1,1.2-2.6,0.3-3.7
		C159.9,190.3,158.2,190.2,157.1,191.2z"/>
	<circle class="st0" cx="148.4" cy="202.2" r="2.6"/>
	<path class="st0" d="M217.9,160.3c1,1.1,2.6,1.2,3.7,0.3c0.5-0.5,0.8-1.1,0.9-1.7c-1.5-0.7-3-1.5-4.5-2.1
		C217.1,157.7,217,159.3,217.9,160.3z"/>
	<path class="st0" d="M207.8,165.6c-1.1,1-1.2,2.6-0.3,3.7c1,1.1,2.6,1.2,3.7,0.3c1.1-1,1.2-2.6,0.3-3.7
		C210.6,164.8,208.9,164.7,207.8,165.6z"/>
	<path class="st0" d="M197.4,174.6c-1.1,1-1.2,2.6-0.3,3.7c1,1.1,2.6,1.2,3.7,0.3c1.1-1,1.2-2.6,0.3-3.7
		C200.2,173.8,198.5,173.7,197.4,174.6z"/>
	<path class="st0" d="M187,183.6c-1.1,1-1.2,2.6-0.3,3.7c1,1.1,2.6,1.2,3.7,0.3c1.1-1,1.2-2.6,0.3-3.7
		C189.8,182.8,188.1,182.7,187,183.6z"/>
	<path class="st0" d="M176.6,192.6c-1.1,1-1.2,2.6-0.3,3.7c1,1.1,2.6,1.2,3.7,0.3c1.1-1,1.2-2.6,0.3-3.7
		C179.3,191.8,177.7,191.7,176.6,192.6z"/>
	<path class="st0" d="M166.2,201.7c-1.1,1-1.2,2.6-0.3,3.7c1,1.1,2.6,1.2,3.7,0.3c1.1-1,1.2-2.6,0.3-3.7
		C168.9,200.8,167.3,200.7,166.2,201.7z"/>
	<path class="st0" d="M155.8,210.7c-1.1,1-1.2,2.6-0.3,3.7c1,1.1,2.6,1.2,3.7,0.3c1.1-1,1.2-2.6,0.3-3.7
		C158.5,209.8,156.9,209.7,155.8,210.7z"/>
	<path class="st0" d="M227.1,166.9c-1.1,1-1.2,2.6-0.3,3.7c1,1.1,2.6,1.2,3.7,0.3c1.1-1,1.2-2.6,0.3-3.7
		C229.9,166.1,228.2,166,227.1,166.9z"/>
	<path class="st0" d="M216.7,175.9c-1.1,1-1.2,2.6-0.3,3.7c1,1.1,2.6,1.2,3.7,0.3c1.1-1,1.2-2.6,0.3-3.7
		C219.5,175.1,217.8,175,216.7,175.9z"/>
	<path class="st0" d="M206.3,184.9c-1.1,1-1.2,2.6-0.3,3.7c1,1.1,2.6,1.2,3.7,0.3c1.1-1,1.2-2.6,0.3-3.7
		C209.1,184.1,207.4,184,206.3,184.9z"/>
	<path class="st0" d="M195.9,193.9c-1.1,1-1.2,2.6-0.3,3.7c1,1.1,2.6,1.2,3.7,0.3c1.1-1,1.2-2.6,0.3-3.7
		C198.7,193.1,197,193,195.9,193.9z"/>
	<path class="st0" d="M185.5,203c-1.1,1-1.2,2.6-0.3,3.7c1,1.1,2.6,1.2,3.7,0.3c1.1-1,1.2-2.6,0.3-3.7
		C188.3,202.1,186.6,202,185.5,203z"/>
	<path class="st0" d="M175.1,212c-1.1,1-1.2,2.6-0.3,3.7c1,1.1,2.6,1.2,3.7,0.3c1.1-1,1.2-2.6,0.3-3.7
		C177.9,211.1,176.2,211,175.1,212z"/>
	<circle class="st0" cx="166.4" cy="223" r="2.6"/>
	<path class="st0" d="M236.2,177.4c-1.1,1-1.2,2.6-0.3,3.7c1,1.1,2.6,1.2,3.7,0.3c1.1-1,1.2-2.6,0.3-3.7
		C239,176.6,237.3,176.4,236.2,177.4z"/>
	<path class="st0" d="M225.8,186.4c-1.1,1-1.2,2.6-0.3,3.7c1,1.1,2.6,1.2,3.7,0.3c1.1-1,1.2-2.6,0.3-3.7
		C228.6,185.6,226.9,185.4,225.8,186.4z"/>
	<path class="st0" d="M215.4,195.4c-1.1,1-1.2,2.6-0.3,3.7c1,1.1,2.6,1.2,3.7,0.3c1.1-1,1.2-2.6,0.3-3.7
		C218.2,194.6,216.5,194.5,215.4,195.4z"/>
	<path class="st0" d="M205,204.4c-1.1,1-1.2,2.6-0.3,3.7c1,1.1,2.6,1.2,3.7,0.3c1.1-1,1.2-2.6,0.3-3.7
		C207.8,203.6,206.1,203.5,205,204.4z"/>
	<path class="st0" d="M194.6,213.4c-1.1,1-1.2,2.6-0.3,3.7c1,1.1,2.6,1.2,3.7,0.3c1.1-1,1.2-2.6,0.3-3.7
		C197.4,212.6,195.7,212.5,194.6,213.4z"/>
	<path class="st0" d="M184.2,222.5c-1.1,1-1.2,2.6-0.3,3.7c1,1.1,2.6,1.2,3.7,0.3c1.1-1,1.2-2.6,0.3-3.7
		C186.9,221.6,185.3,221.5,184.2,222.5z"/>
	<path class="st0" d="M173.8,231.5c-1.1,1-1.2,2.6-0.3,3.7c1,1.1,2.6,1.2,3.7,0.3c1.1-1,1.2-2.6,0.3-3.7
		C176.5,230.6,174.9,230.5,173.8,231.5z"/>
	<path class="st0" d="M245.2,187.7c-1.1,1-1.2,2.6-0.3,3.7c1,1.1,2.6,1.2,3.7,0.3c1.1-1,1.2-2.6,0.3-3.7
		C247.9,186.9,246.3,186.7,245.2,187.7z"/>
	<path class="st0" d="M234.7,196.7c-1.1,1-1.2,2.6-0.3,3.7c1,1.1,2.6,1.2,3.7,0.3c1.1-1,1.2-2.6,0.3-3.7
		C237.5,195.9,235.8,195.8,234.7,196.7z"/>
	<path class="st0" d="M224.3,205.7c-1.1,1-1.2,2.6-0.3,3.7c1,1.1,2.6,1.2,3.7,0.3c1.1-1,1.2-2.6,0.3-3.7
		C227.1,204.9,225.4,204.8,224.3,205.7z"/>
	<path class="st0" d="M213.9,214.7c-1.1,1-1.2,2.6-0.3,3.7c1,1.1,2.6,1.2,3.7,0.3c1.1-1,1.2-2.6,0.3-3.7
		C216.7,213.9,215,213.8,213.9,214.7z"/>
	<path class="st0" d="M203.5,223.8c-1.1,1-1.2,2.6-0.3,3.7c1,1.1,2.6,1.2,3.7,0.3c1.1-1,1.2-2.6,0.3-3.7
		C206.3,222.9,204.6,222.8,203.5,223.8z"/>
	<path class="st0" d="M193.1,232.8c-1.1,1-1.2,2.6-0.3,3.7c1,1.1,2.6,1.2,3.7,0.3c1.1-1,1.2-2.6,0.3-3.7
		C195.9,231.9,194.2,231.8,193.1,232.8z"/>
	<circle class="st0" cx="184.4" cy="243.8" r="2.6"/>
	<path class="st0" d="M254.2,198.2c-1.1,1-1.2,2.6-0.3,3.7c1,1.1,2.6,1.2,3.7,0.3c1.1-1,1.2-2.6,0.3-3.7
		C257,197.3,255.3,197.2,254.2,198.2z"/>
	<path class="st0" d="M243.8,207.2c-1.1,1-1.2,2.6-0.3,3.7c1,1.1,2.6,1.2,3.7,0.3c1.1-1,1.2-2.6,0.3-3.7
		C246.6,206.4,244.9,206.2,243.8,207.2z"/>
	<path class="st0" d="M233.4,216.2c-1.1,1-1.2,2.6-0.3,3.7c1,1.1,2.6,1.2,3.7,0.3c1.1-1,1.2-2.6,0.3-3.7
		C236.2,215.4,234.5,215.3,233.4,216.2z"/>
	<path class="st0" d="M223,225.2c-1.1,1-1.2,2.6-0.3,3.7c1,1.1,2.6,1.2,3.7,0.3c1.1-1,1.2-2.6,0.3-3.7
		C225.8,224.4,224.1,224.3,223,225.2z"/>
	<path class="st0" d="M212.6,234.2c-1.1,1-1.2,2.6-0.3,3.7c1,1.1,2.6,1.2,3.7,0.3c1.1-1,1.2-2.6,0.3-3.7
		C215.4,233.4,213.7,233.3,212.6,234.2z"/>
	<path class="st0" d="M202.2,243.3c-1.1,1-1.2,2.6-0.3,3.7c1,1.1,2.6,1.2,3.7,0.3c1.1-1,1.2-2.6,0.3-3.7
		C205,242.4,203.3,242.3,202.2,243.3z"/>
	<path class="st0" d="M191.8,252.3c-1.1,1-1.2,2.6-0.3,3.7c1,1.1,2.6,1.2,3.7,0.3c1.1-1,1.2-2.6,0.3-3.7
		C194.5,251.4,192.9,251.3,191.8,252.3z"/>
	<path class="st0" d="M255.3,182.4c1,1.1,2.6,1.2,3.7,0.3c0.4-0.3,0.6-0.7,0.8-1.1c-1.4-1-2.8-1.9-4.1-2.9c0,0-0.1,0-0.1,0.1
		C254.5,179.6,254.3,181.3,255.3,182.4z"/>
	<circle class="st0" cx="202.4" cy="264.6" r="2.6"/>
	<path class="st0" d="M211.1,253.6c-1.1,1-1.2,2.6-0.3,3.7c1,1.1,2.6,1.2,3.7,0.3c1.1-1,1.2-2.6,0.3-3.7
		C213.9,252.7,212.2,252.6,211.1,253.6z"/>
	<path class="st0" d="M221.5,244.6c-1.1,1-1.2,2.6-0.3,3.7c1,1.1,2.6,1.2,3.7,0.3c1.1-1,1.2-2.6,0.3-3.7
		C224.3,243.7,222.6,243.6,221.5,244.6z"/>
	<path class="st0" d="M231.9,235.5c-1.1,1-1.2,2.6-0.3,3.7c1,1.1,2.6,1.2,3.7,0.3c1.1-1,1.2-2.6,0.3-3.7
		C234.7,234.7,233,234.6,231.9,235.5z"/>
	<path class="st0" d="M242.3,226.5c-1.1,1-1.2,2.6-0.3,3.7c1,1.1,2.6,1.2,3.7,0.3c1.1-1,1.2-2.6,0.3-3.7
		C245.1,225.7,243.4,225.6,242.3,226.5z"/>
	<path class="st0" d="M252.8,217.5c-1.1,1-1.2,2.6-0.3,3.7c1,1.1,2.6,1.2,3.7,0.3c1.1-1,1.2-2.6,0.3-3.7
		C255.5,216.7,253.9,216.6,252.8,217.5z"/>
	<path class="st0" d="M263.2,208.5c-1.1,1-1.2,2.6-0.3,3.7c1,1.1,2.6,1.2,3.7,0.3c1.1-1,1.2-2.6,0.3-3.7
		C265.9,207.7,264.3,207.5,263.2,208.5z"/>
	<circle class="st0" cx="192.1" cy="273.5" r="2.6"/>
	<path class="st0" d="M127.4,198.8c-1.1,1-1.2,2.6-0.3,3.7c1,1.1,2.6,1.2,3.7,0.3c1.1-1,1.2-2.6,0.3-3.7
		C130.2,198,128.5,197.9,127.4,198.8z"/>
	<circle class="st0" cx="138.1" cy="211.1" r="2.6"/>
	<path class="st0" d="M145.4,219.6c-1.1,1-1.2,2.6-0.3,3.7c1,1.1,2.6,1.2,3.7,0.3c1.1-1,1.2-2.6,0.3-3.7
		C148.2,218.8,146.5,218.7,145.4,219.6z"/>
	<circle class="st0" cx="156.1" cy="231.9" r="2.6"/>
	<path class="st0" d="M163.4,240.4c-1.1,1-1.2,2.6-0.3,3.7c1,1.1,2.6,1.2,3.7,0.3c1.1-1,1.2-2.6,0.3-3.7
		C166.2,239.6,164.6,239.5,163.4,240.4z"/>
	<circle class="st0" cx="174.1" cy="252.7" r="2.6"/>
	<path class="st0" d="M181.5,261.2c-1.1,1-1.2,2.6-0.3,3.7c1,1.1,2.6,1.2,3.7,0.3c1.1-1,1.2-2.6,0.3-3.7
		C184.2,260.4,182.6,260.2,181.5,261.2z"/>
	<path class="st0" d="M272.2,219c-1.1,1-1.2,2.6-0.3,3.7c1,1.1,2.6,1.2,3.7,0.3c1.1-1,1.2-2.6,0.3-3.7
		C275,218.1,273.3,218,272.2,219z"/>
	<path class="st0" d="M261.8,228c-1.1,1-1.2,2.6-0.3,3.7c1,1.1,2.6,1.2,3.7,0.3c1.1-1,1.2-2.6,0.3-3.7
		C264.6,227.2,262.9,227,261.8,228z"/>
	<path class="st0" d="M251.4,237c-1.1,1-1.2,2.6-0.3,3.7c1,1.1,2.6,1.2,3.7,0.3c1.1-1,1.2-2.6,0.3-3.7
		C254.2,236.2,252.5,236.1,251.4,237z"/>
	<path class="st0" d="M241,246c-1.1,1-1.2,2.6-0.3,3.7c1,1.1,2.6,1.2,3.7,0.3c1.1-1,1.2-2.6,0.3-3.7
		C243.8,245.2,242.1,245.1,241,246z"/>
	<path class="st0" d="M230.6,255c-1.1,1-1.2,2.6-0.3,3.7c1,1.1,2.6,1.2,3.7,0.3c1.1-1,1.2-2.6,0.3-3.7
		C233.4,254.2,231.7,254.1,230.6,255z"/>
	<path class="st0" d="M220.2,264.1c-1.1,1-1.2,2.6-0.3,3.7c1,1.1,2.6,1.2,3.7,0.3c1.1-1,1.2-2.6,0.3-3.7
		C223,263.2,221.3,263.1,220.2,264.1z"/>
	<path class="st0" d="M209.8,273.1c-1.1,1-1.2,2.6-0.3,3.7c1,1.1,2.6,1.2,3.7,0.3c1.1-1,1.2-2.6,0.3-3.7
		C212.5,272.2,210.9,272.1,209.8,273.1z"/>
	<path class="st0" d="M281.2,229.3c-1.1,1-1.2,2.6-0.3,3.7c1,1.1,2.6,1.2,3.7,0.3c1.1-1,1.2-2.6,0.3-3.7
		C283.9,228.5,282.3,228.3,281.2,229.3z"/>
	<path class="st0" d="M270.8,238.3c-1.1,1-1.2,2.6-0.3,3.7c1,1.1,2.6,1.2,3.7,0.3c1.1-1,1.2-2.6,0.3-3.7
		C273.5,237.5,271.9,237.4,270.8,238.3z"/>
	<path class="st0" d="M260.3,247.3c-1.1,1-1.2,2.6-0.3,3.7c1,1.1,2.6,1.2,3.7,0.3c1.1-1,1.2-2.6,0.3-3.7
		C263.1,246.5,261.5,246.4,260.3,247.3z"/>
	<path class="st0" d="M249.9,256.3c-1.1,1-1.2,2.6-0.3,3.7s2.6,1.2,3.7,0.3c1.1-1,1.2-2.6,0.3-3.7
		C252.7,255.5,251,255.4,249.9,256.3z"/>
	<path class="st0" d="M239.5,265.4c-1.1,1-1.2,2.6-0.3,3.7c1,1.1,2.6,1.2,3.7,0.3c1.1-1,1.2-2.6,0.3-3.7
		C242.3,264.5,240.6,264.4,239.5,265.4z"/>
	<path class="st0" d="M229.1,274.4c-1.1,1-1.2,2.6-0.3,3.7c1,1.1,2.6,1.2,3.7,0.3c1.1-1,1.2-2.6,0.3-3.7
		C231.9,273.5,230.2,273.4,229.1,274.4z"/>
	<circle class="st0" cx="220.4" cy="285.4" r="2.6"/>
	<path class="st0" d="M290.2,239.8c-1.1,1-1.2,2.6-0.3,3.7c1,1.1,2.6,1.2,3.7,0.3c1.1-1,1.2-2.6,0.3-3.7
		C293,238.9,291.3,238.8,290.2,239.8z"/>
	<path class="st0" d="M279.8,248.8c-1.1,1-1.2,2.6-0.3,3.7c1,1.1,2.6,1.2,3.7,0.3c1.1-1,1.2-2.6,0.3-3.7
		C282.6,248,280.9,247.8,279.8,248.8z"/>
	<path class="st0" d="M269.4,257.8c-1.1,1-1.2,2.6-0.3,3.7c1,1.1,2.6,1.2,3.7,0.3c1.1-1,1.2-2.6,0.3-3.7
		C272.2,257,270.5,256.8,269.4,257.8z"/>
	<path class="st0" d="M259,266.8c-1.1,1-1.2,2.6-0.3,3.7c1,1.1,2.6,1.2,3.7,0.3c1.1-1,1.2-2.6,0.3-3.7
		C261.8,266,260.1,265.9,259,266.8z"/>
	<path class="st0" d="M248.6,275.8c-1.1,1-1.2,2.6-0.3,3.7c1,1.1,2.6,1.2,3.7,0.3c1.1-1,1.2-2.6,0.3-3.7
		C251.4,275,249.7,274.9,248.6,275.8z"/>
	<path class="st0" d="M238.2,284.8c-1.1,1-1.2,2.6-0.3,3.7c1,1.1,2.6,1.2,3.7,0.3c1.1-1,1.2-2.6,0.3-3.7
		C241,284,239.3,283.9,238.2,284.8z"/>
	<path class="st0" d="M227.8,293.9c-1.1,1-1.2,2.6-0.3,3.7c1,1.1,2.6,1.2,3.7,0.3c1.1-1,1.2-2.6,0.3-3.7
		C230.6,293,228.9,292.9,227.8,293.9z"/>
	<path class="st0" d="M299.2,250.1c-1.1,1-1.2,2.6-0.3,3.7c1,1.1,2.6,1.2,3.7,0.3c1.1-1,1.2-2.6,0.3-3.7
		C301.9,249.3,300.3,249.1,299.2,250.1z"/>
	<path class="st0" d="M288.8,259.1c-1.1,1-1.2,2.6-0.3,3.7c1,1.1,2.6,1.2,3.7,0.3c1.1-1,1.2-2.6,0.3-3.7S289.9,258.1,288.8,259.1z"
		/>
	<path class="st0" d="M278.4,268.1c-1.1,1-1.2,2.6-0.3,3.7c1,1.1,2.6,1.2,3.7,0.3c1.1-1,1.2-2.6,0.3-3.7S279.5,267.2,278.4,268.1z"
		/>
	<path class="st0" d="M267.9,277.1c-1.1,1-1.2,2.6-0.3,3.7c1,1.1,2.6,1.2,3.7,0.3c1.1-1,1.2-2.6,0.3-3.7S269,276.2,267.9,277.1z"/>
	<path class="st0" d="M257.5,286.1c-1.1,1-1.2,2.6-0.3,3.7c1,1.1,2.6,1.2,3.7,0.3c1.1-1,1.2-2.6,0.3-3.7
		C260.3,285.3,258.6,285.2,257.5,286.1z"/>
	<path class="st0" d="M247.1,295.2c-1.1,1-1.2,2.6-0.3,3.7c1,1.1,2.6,1.2,3.7,0.3c1.1-1,1.2-2.6,0.3-3.7
		C249.9,294.3,248.2,294.2,247.1,295.2z"/>
	<circle class="st0" cx="238.4" cy="306.2" r="2.6"/>
	<path class="st0" d="M308.3,260.6c-1.1,1-1.2,2.6-0.3,3.7c1,1.1,2.6,1.2,3.7,0.3c1.1-1,1.2-2.6,0.3-3.7
		C311,259.7,309.4,259.6,308.3,260.6z"/>
	<path class="st0" d="M297.8,269.6c-1.1,1-1.2,2.6-0.3,3.7c1,1.1,2.6,1.2,3.7,0.3c1.1-1,1.2-2.6,0.3-3.7
		C300.6,268.7,298.9,268.6,297.8,269.6z"/>
	<path class="st0" d="M287.4,278.6c-1.1,1-1.2,2.6-0.3,3.7c1,1.1,2.6,1.2,3.7,0.3c1.1-1,1.2-2.6,0.3-3.7
		C290.2,277.8,288.5,277.6,287.4,278.6z"/>
	<path class="st0" d="M277,287.6c-1.1,1-1.2,2.6-0.3,3.7c1,1.1,2.6,1.2,3.7,0.3c1.1-1,1.2-2.6,0.3-3.7
		C279.8,286.8,278.1,286.7,277,287.6z"/>
	<path class="st0" d="M266.6,296.6c-1.1,1-1.2,2.6-0.3,3.7c1,1.1,2.6,1.2,3.7,0.3c1.1-1,1.2-2.6,0.3-3.7
		C269.4,295.8,267.7,295.7,266.6,296.6z"/>
	<path class="st0" d="M256.2,305.6c-1.1,1-1.2,2.6-0.3,3.7c1,1.1,2.6,1.2,3.7,0.3c1.1-1,1.2-2.6,0.3-3.7
		C259,304.8,257.3,304.7,256.2,305.6z"/>
	<path class="st0" d="M245.8,314.7c-1.1,1-1.2,2.6-0.3,3.7c1,1.1,2.6,1.2,3.7,0.3c1.1-1,1.2-2.6,0.3-3.7
		C248.6,313.8,246.9,313.7,245.8,314.7z"/>
	<path class="st0" d="M317.2,270.9c-1.1,1-1.2,2.6-0.3,3.7s2.6,1.2,3.7,0.3c1.1-1,1.2-2.6,0.3-3.7
		C320,270.1,318.3,269.9,317.2,270.9z"/>
	<path class="st0" d="M306.8,279.9c-1.1,1-1.2,2.6-0.3,3.7s2.6,1.2,3.7,0.3c1.1-1,1.2-2.6,0.3-3.7
		C309.5,279.1,307.9,278.9,306.8,279.9z"/>
	<path class="st0" d="M296.4,288.9c-1.1,1-1.2,2.6-0.3,3.7c1,1.1,2.6,1.2,3.7,0.3c1.1-1,1.2-2.6,0.3-3.7
		C299.1,288.1,297.5,288,296.4,288.9z"/>
	<path class="st0" d="M286,297.9c-1.1,1-1.2,2.6-0.3,3.7c1,1.1,2.6,1.2,3.7,0.3c1.1-1,1.2-2.6,0.3-3.7S287.1,297,286,297.9z"/>
	<path class="st0" d="M275.5,306.9c-1.1,1-1.2,2.6-0.3,3.7s2.6,1.2,3.7,0.3c1.1-1,1.2-2.6,0.3-3.7
		C278.3,306.1,276.6,306,275.5,306.9z"/>
	<path class="st0" d="M265.1,316c-1.1,1-1.2,2.6-0.3,3.7s2.6,1.2,3.7,0.3c1.1-1,1.2-2.6,0.3-3.7C267.9,315.1,266.2,315,265.1,316z"
		/>
	<circle class="st0" cx="256.5" cy="327" r="2.6"/>
	<path class="st0" d="M326.3,281.4c-1.1,1-1.2,2.6-0.3,3.7c1,1.1,2.6,1.2,3.7,0.3c1.1-1,1.2-2.6,0.3-3.7
		C329,280.5,327.4,280.4,326.3,281.4z"/>
	<path class="st0" d="M315.8,290.4c-1.1,1-1.2,2.6-0.3,3.7c1,1.1,2.6,1.2,3.7,0.3c1.1-1,1.2-2.6,0.3-3.7
		C318.6,289.5,317,289.4,315.8,290.4z"/>
	<path class="st0" d="M305.4,299.4c-1.1,1-1.2,2.6-0.3,3.7c1,1.1,2.6,1.2,3.7,0.3c1.1-1,1.2-2.6,0.3-3.7
		C308.2,298.6,306.5,298.4,305.4,299.4z"/>
	<path class="st0" d="M295,308.4c-1.1,1-1.2,2.6-0.3,3.7c1,1.1,2.6,1.2,3.7,0.3c1.1-1,1.2-2.6,0.3-3.7
		C297.8,307.6,296.1,307.5,295,308.4z"/>
	<path class="st0" d="M284.6,317.4c-1.1,1-1.2,2.6-0.3,3.7c1,1.1,2.6,1.2,3.7,0.3c1.1-1,1.2-2.6,0.3-3.7
		C287.4,316.6,285.7,316.5,284.6,317.4z"/>
	<path class="st0" d="M274.2,326.4c-1.1,1-1.2,2.6-0.3,3.7c1,1.1,2.6,1.2,3.7,0.3c1.1-1,1.2-2.6,0.3-3.7
		C277,325.6,275.3,325.5,274.2,326.4z"/>
	<path class="st0" d="M263.8,335.5c-1.1,1-1.2,2.6-0.3,3.7c1,1.1,2.6,1.2,3.7,0.3c1.1-1,1.2-2.6,0.3-3.7
		C266.6,334.6,264.9,334.5,263.8,335.5z"/>
	<path class="st0" d="M283.1,336.8c-1.1,1-1.2,2.6-0.3,3.7c1,1.1,2.6,1.2,3.7,0.3c1.1-1,1.2-2.6,0.3-3.7S284.2,335.8,283.1,336.8z"
		/>
	<path class="st0" d="M293.6,327.7c-1.1,1-1.2,2.6-0.3,3.7c1,1.1,2.6,1.2,3.7,0.3c1.1-1,1.2-2.6,0.3-3.7S294.7,326.8,293.6,327.7z"
		/>
	<path class="st0" d="M304,318.7c-1.1,1-1.2,2.6-0.3,3.7c1,1.1,2.6,1.2,3.7,0.3c1.1-1,1.2-2.6,0.3-3.7
		C306.7,317.9,305.1,317.8,304,318.7z"/>
	<path class="st0" d="M314.4,309.7c-1.1,1-1.2,2.6-0.3,3.7c1,1.1,2.6,1.2,3.7,0.3c1.1-1,1.2-2.6,0.3-3.7
		C317.1,308.9,315.5,308.8,314.4,309.7z"/>
	<path class="st0" d="M324.8,300.7c-1.1,1-1.2,2.6-0.3,3.7c1,1.1,2.6,1.2,3.7,0.3c1.1-1,1.2-2.6,0.3-3.7
		C327.6,299.9,325.9,299.7,324.8,300.7z"/>
	<path class="st0" d="M335.2,291.7c-1.1,1-1.2,2.6-0.3,3.7c1,1.1,2.6,1.2,3.7,0.3c1.1-1,1.2-2.6,0.3-3.7S336.3,290.7,335.2,291.7z"
		/>
	<path class="st0" d="M199.5,282c-1.1,1-1.2,2.6-0.3,3.7c1,1.1,2.6,1.2,3.7,0.3c1.1-1,1.2-2.6,0.3-3.7
		C202.2,281.2,200.6,281,199.5,282z"/>
	<circle class="st0" cx="210.1" cy="294.3" r="2.6"/>
	<path class="st0" d="M217.5,302.8c-1.1,1-1.2,2.6-0.3,3.7c1,1.1,2.6,1.2,3.7,0.3c1.1-1,1.2-2.6,0.3-3.7
		C220.2,302,218.6,301.8,217.5,302.8z"/>
	<circle class="st0" cx="228.1" cy="315.1" r="2.6"/>
	<path class="st0" d="M235.5,323.6c-1.1,1-1.2,2.6-0.3,3.7c1,1.1,2.6,1.2,3.7,0.3c1.1-1,1.2-2.6,0.3-3.7
		C238.2,322.8,236.6,322.6,235.5,323.6z"/>
	<circle class="st0" cx="246.1" cy="335.9" r="2.6"/>
	<path class="st0" d="M344.3,302.2c-1.1,1-1.2,2.6-0.3,3.7c1,1.1,2.6,1.2,3.7,0.3c1.1-1,1.2-2.6,0.3-3.7
		C347,301.3,345.4,301.2,344.3,302.2z"/>
	<path class="st0" d="M333.9,311.2c-1.1,1-1.2,2.6-0.3,3.7c1,1.1,2.6,1.2,3.7,0.3c1.1-1,1.2-2.6,0.3-3.7
		C336.6,310.3,335,310.2,333.9,311.2z"/>
	<path class="st0" d="M323.4,320.2c-1.1,1-1.2,2.6-0.3,3.7c1,1.1,2.6,1.2,3.7,0.3s1.2-2.6,0.3-3.7
		C326.2,319.4,324.5,319.2,323.4,320.2z"/>
	<path class="st0" d="M313,329.2c-1.1,1-1.2,2.6-0.3,3.7c1,1.1,2.6,1.2,3.7,0.3c1.1-1,1.2-2.6,0.3-3.7
		C315.8,328.4,314.1,328.2,313,329.2z"/>
	<path class="st0" d="M302.6,338.2c-1.1,1-1.2,2.6-0.3,3.7c1,1.1,2.6,1.2,3.7,0.3c1.1-1,1.2-2.6,0.3-3.7
		C305.4,337.4,303.7,337.3,302.6,338.2z"/>
	<path class="st0" d="M353.2,312.5c-1.1,1-1.2,2.6-0.3,3.7c1,1.1,2.6,1.2,3.7,0.3c1.1-1,1.2-2.6,0.3-3.7
		C356,311.6,354.3,311.5,353.2,312.5z"/>
	<path class="st0" d="M342.8,321.5c-1.1,1-1.2,2.6-0.3,3.7c1,1.1,2.6,1.2,3.7,0.3c1.1-1,1.2-2.6,0.3-3.7S343.9,320.5,342.8,321.5z"
		/>
	<path class="st0" d="M335.8,334.5c1.1-1,1.2-2.6,0.3-3.7c-1-1.1-2.6-1.2-3.7-0.3c-1.1,1-1.2,2.6-0.3,3.7S334.7,335.5,335.8,334.5z"
		/>
	<path class="st0" d="M325.4,343.5c1.1-1,1.2-2.6,0.3-3.7c-1-1.1-2.6-1.2-3.7-0.3c-1.1,1-1.2,2.6-0.3,3.7S324.3,344.5,325.4,343.5z"
		/>
	<path class="st0" d="M362.3,323c-1.1,1-1.2,2.6-0.3,3.7c1,1.1,2.6,1.2,3.7,0.3c1.1-1,1.2-2.6,0.3-3.7
		C365,322.1,363.4,322,362.3,323z"/>
	<path class="st0" d="M351.9,332c-1.1,1-1.2,2.6-0.3,3.7c1,1.1,2.6,1.2,3.7,0.3c1.1-1,1.2-2.6,0.3-3.7
		C354.6,331.1,353,331,351.9,332z"/>
	<path class="st0" d="M341.5,341c-0.7,0.6-1,1.4-0.9,2.2c1.6-0.4,3.3-0.8,5-1.3c-0.1-0.2-0.2-0.5-0.4-0.7
		C344.2,340.2,342.6,340,341.5,341z"/>
	<path class="st0" d="M75.4,159.7c1.1-1,1.2-2.6,0.3-3.7c-0.4-0.4-0.9-0.7-1.4-0.8c-1.1,0.9-2.1,2-3.2,3c0.1,0.5,0.3,0.9,0.6,1.3
		C72.6,160.6,74.3,160.7,75.4,159.7z"/>
	<path class="st0" d="M65,168.8c1.1-0.9,1.2-2.5,0.3-3.6c-1,1.3-1.9,2.7-2.8,4.2C63.3,169.5,64.3,169.4,65,168.8z"/>
	<path class="st0" d="M81,166.2c-1.1,1-1.2,2.6-0.3,3.7c1,1.1,2.6,1.2,3.7,0.3c1.1-1,1.2-2.6,0.3-3.7
		C83.8,165.4,82.1,165.3,81,166.2z"/>
	<path class="st0" d="M70.6,175.3c-1.1,1-1.2,2.6-0.3,3.7c1,1.1,2.6,1.2,3.7,0.3c1.1-1,1.2-2.6,0.3-3.7
		C73.4,174.4,71.7,174.3,70.6,175.3z"/>
	<path class="st0" d="M60.2,184.3c-1.1,1-1.2,2.6-0.3,3.7c1,1.1,2.6,1.2,3.7,0.3s1.2-2.6,0.3-3.7C63,183.4,61.3,183.3,60.2,184.3z"
		/>
	<path class="st0" d="M53.2,197.3c1.1-1,1.2-2.6,0.3-3.7c-0.7-0.8-1.7-1.1-2.6-0.8c-0.5,1.4-1,2.9-1.4,4.3
		C50.5,198.1,52.1,198.2,53.2,197.3z"/>
	<path class="st0" d="M89.9,176.6c-1.1,1-1.2,2.6-0.3,3.7c1,1.1,2.6,1.2,3.7,0.3c1.1-1,1.2-2.6,0.3-3.7
		C92.7,175.7,91,175.6,89.9,176.6z"/>
	<path class="st0" d="M79.5,185.6c-1.1,1-1.2,2.6-0.3,3.7c1,1.1,2.6,1.2,3.7,0.3c1.1-1,1.2-2.6,0.3-3.7
		C82.3,184.7,80.6,184.6,79.5,185.6z"/>
	<path class="st0" d="M69.1,194.6c-1.1,1-1.2,2.6-0.3,3.7c1,1.1,2.6,1.2,3.7,0.3c1.1-1,1.2-2.6,0.3-3.7
		C71.9,193.7,70.2,193.6,69.1,194.6z"/>
	<path class="st0" d="M58.7,203.6c-1.1,1-1.2,2.6-0.3,3.7c1,1.1,2.6,1.2,3.7,0.3c1.1-1,1.2-2.6,0.3-3.7
		C61.5,202.8,59.8,202.6,58.7,203.6z"/>
	<path class="st0" d="M48.3,212.6c-0.5,0.4-0.8,1-0.9,1.7c0,0.3,0,0.7,0.1,1c0.1,0.4,0.3,0.7,0.5,1c1,1.1,2.6,1.2,3.7,0.3
		c1.1-1,1.2-2.6,0.3-3.7C51.1,211.8,49.4,211.7,48.3,212.6z"/>
	<path class="st0" d="M99,187c-1.1,1-1.2,2.6-0.3,3.7c1,1.1,2.6,1.2,3.7,0.3c1.1-1,1.2-2.6,0.3-3.7C101.8,186.2,100.1,186.1,99,187z
		"/>
	<path class="st0" d="M88.6,196c-1.1,1-1.2,2.6-0.3,3.7c1,1.1,2.6,1.2,3.7,0.3c1.1-1,1.2-2.6,0.3-3.7
		C91.4,195.2,89.7,195.1,88.6,196z"/>
	<path class="st0" d="M78.2,205.1c-1.1,1-1.2,2.6-0.3,3.7c1,1.1,2.6,1.2,3.7,0.3c1.1-1,1.2-2.6,0.3-3.7
		C81,204.2,79.3,204.1,78.2,205.1z"/>
	<path class="st0" d="M67.8,214.1c-1.1,1-1.2,2.6-0.3,3.7c1,1.1,2.6,1.2,3.7,0.3c1.1-1,1.2-2.6,0.3-3.7
		C70.6,213.2,68.9,213.1,67.8,214.1z"/>
	<path class="st0" d="M57.4,223.1c-1.1,1-1.2,2.6-0.3,3.7c1,1.1,2.6,1.2,3.7,0.3c1.1-1,1.2-2.6,0.3-3.7
		C60.1,222.3,58.5,222.1,57.4,223.1z"/>
	<path class="st0" d="M85.8,150.7c1-0.9,1.2-2.3,0.5-3.4c-1.6,0.7-3.1,1.5-4.7,2.4c0.1,0.2,0.2,0.5,0.4,0.7
		C83,151.6,84.7,151.7,85.8,150.7z"/>
	<path class="st0" d="M66.3,233.4c-1.1,1-1.2,2.6-0.3,3.7c1,1.1,2.6,1.2,3.7,0.3c1.1-1,1.2-2.6,0.3-3.7
		C69.1,232.6,67.4,232.4,66.3,233.4z"/>
	<path class="st0" d="M76.7,224.4c-1.1,1-1.2,2.6-0.3,3.7c1,1.1,2.6,1.2,3.7,0.3c1.1-1,1.2-2.6,0.3-3.7
		C79.5,223.6,77.8,223.4,76.7,224.4z"/>
	<path class="st0" d="M87.1,215.4c-1.1,1-1.2,2.6-0.3,3.7c1,1.1,2.6,1.2,3.7,0.3c1.1-1,1.2-2.6,0.3-3.7
		C89.9,214.5,88.2,214.4,87.1,215.4z"/>
	<path class="st0" d="M97.5,206.4c-1.1,1-1.2,2.6-0.3,3.7c1,1.1,2.6,1.2,3.7,0.3c1.1-1,1.2-2.6,0.3-3.7
		C100.3,205.5,98.6,205.4,97.5,206.4z"/>
	<path class="st0" d="M107.9,197.3c-1.1,1-1.2,2.6-0.3,3.7c1,1.1,2.6,1.2,3.7,0.3c1.1-1,1.2-2.6,0.3-3.7
		C110.7,196.5,109,196.4,107.9,197.3z"/>
	<path class="st0" d="M60,243.3c-0.1-0.2-0.2-0.5-0.4-0.7c-0.1-0.2-0.3-0.3-0.4-0.4C59.5,242.6,59.7,243,60,243.3z"/>
	<path class="st0" d="M117,207.8c-1.1,1-1.2,2.6-0.3,3.7c1,1.1,2.6,1.2,3.7,0.3c1.1-1,1.2-2.6,0.3-3.7
		C119.8,207,118.1,206.9,117,207.8z"/>
	<path class="st0" d="M106.6,216.8c-1.1,1-1.2,2.6-0.3,3.7c1,1.1,2.6,1.2,3.7,0.3c1.1-1,1.2-2.6,0.3-3.7
		C109.4,216,107.7,215.9,106.6,216.8z"/>
	<path class="st0" d="M96.2,225.9c-1.1,1-1.2,2.6-0.3,3.7c1,1.1,2.6,1.2,3.7,0.3s1.2-2.6,0.3-3.7C99,225,97.3,224.9,96.2,225.9z"/>
	<path class="st0" d="M85.8,234.9c-1.1,1-1.2,2.6-0.3,3.7c1,1.1,2.6,1.2,3.7,0.3c1.1-1,1.2-2.6,0.3-3.7
		C88.6,234,86.9,233.9,85.8,234.9z"/>
	<path class="st0" d="M75.4,243.9c-1.1,1-1.2,2.6-0.3,3.7c1,1.1,2.6,1.2,3.7,0.3c1.1-1,1.2-2.6,0.3-3.7
		C78.2,243,76.5,242.9,75.4,243.9z"/>
	<path class="st0" d="M126,218.1c-1.1,1-1.2,2.6-0.3,3.7c1,1.1,2.6,1.2,3.7,0.3c1.1-1,1.2-2.6,0.3-3.7
		C128.7,217.3,127.1,217.2,126,218.1z"/>
	<path class="st0" d="M115.5,227.2c-1.1,1-1.2,2.6-0.3,3.7c1,1.1,2.6,1.2,3.7,0.3c1.1-1,1.2-2.6,0.3-3.7
		C118.3,226.3,116.6,226.2,115.5,227.2z"/>
	<path class="st0" d="M105.1,236.2c-1.1,1-1.2,2.6-0.3,3.7c1,1.1,2.6,1.2,3.7,0.3c1.1-1,1.2-2.6,0.3-3.7
		C107.9,235.3,106.2,235.2,105.1,236.2z"/>
	<path class="st0" d="M94.7,245.2c-1.1,1-1.2,2.6-0.3,3.7c1,1.1,2.6,1.2,3.7,0.3c1.1-1,1.2-2.6,0.3-3.7
		C97.5,244.4,95.8,244.2,94.7,245.2z"/>
	<path class="st0" d="M84.3,254.2c-1.1,1-1.2,2.6-0.3,3.7c1,1.1,2.6,1.2,3.7,0.3c1.1-1,1.2-2.6,0.3-3.7
		C87.1,253.4,85.4,253.2,84.3,254.2z"/>
	<path class="st0" d="M135,228.6c-1.1,1-1.2,2.6-0.3,3.7c1,1.1,2.6,1.2,3.7,0.3c1.1-1,1.2-2.6,0.3-3.7
		C137.8,227.8,136.1,227.7,135,228.6z"/>
	<path class="st0" d="M124.6,237.6c-1.1,1-1.2,2.6-0.3,3.7c1,1.1,2.6,1.2,3.7,0.3c1.1-1,1.2-2.6,0.3-3.7
		C127.4,236.8,125.7,236.7,124.6,237.6z"/>
	<path class="st0" d="M114.2,246.7c-1.1,1-1.2,2.6-0.3,3.7c1,1.1,2.6,1.2,3.7,0.3c1.1-1,1.2-2.6,0.3-3.7
		C117,245.8,115.3,245.7,114.2,246.7z"/>
	<path class="st0" d="M103.8,255.7c-1.1,1-1.2,2.6-0.3,3.7c1,1.1,2.6,1.2,3.7,0.3c1.1-1,1.2-2.6,0.3-3.7
		C106.6,254.8,104.9,254.7,103.8,255.7z"/>
	<path class="st0" d="M93.4,264.7c-1.1,1-1.2,2.6-0.3,3.7c1,1.1,2.6,1.2,3.7,0.3c1.1-1,1.2-2.6,0.3-3.7
		C96.2,263.8,94.5,263.7,93.4,264.7z"/>
	<path class="st0" d="M144,238.9c-1.1,1-1.2,2.6-0.3,3.7c1,1.1,2.6,1.2,3.7,0.3c1.1-1,1.2-2.6,0.3-3.7
		C146.7,238.1,145.1,238,144,238.9z"/>
	<path class="st0" d="M133.6,248c-1.1,1-1.2,2.6-0.3,3.7c1,1.1,2.6,1.2,3.7,0.3c1.1-1,1.2-2.6,0.3-3.7
		C136.3,247.1,134.7,247,133.6,248z"/>
	<path class="st0" d="M123.1,257c-1.1,1-1.2,2.6-0.3,3.7c1,1.1,2.6,1.2,3.7,0.3c1.1-1,1.2-2.6,0.3-3.7S124.2,256,123.1,257z"/>
	<path class="st0" d="M112.7,266c-1.1,1-1.2,2.6-0.3,3.7c1,1.1,2.6,1.2,3.7,0.3c1.1-1,1.2-2.6,0.3-3.7
		C115.5,265.1,113.8,265,112.7,266z"/>
	<path class="st0" d="M102.3,275c-1.1,1-1.2,2.6-0.3,3.7s2.6,1.2,3.7,0.3c1.1-1,1.2-2.6,0.3-3.7C105.1,274.2,103.4,274,102.3,275z"
		/>
	<path class="st0" d="M153,249.4c-1.1,1-1.2,2.6-0.3,3.7c1,1.1,2.6,1.2,3.7,0.3c1.1-1,1.2-2.6,0.3-3.7
		C155.8,248.6,154.1,248.5,153,249.4z"/>
	<path class="st0" d="M142.6,258.4c-1.1,1-1.2,2.6-0.3,3.7c1,1.1,2.6,1.2,3.7,0.3c1.1-1,1.2-2.6,0.3-3.7
		C145.4,257.6,143.7,257.5,142.6,258.4z"/>
	<path class="st0" d="M132.2,267.4c-1.1,1-1.2,2.6-0.3,3.7c1,1.1,2.6,1.2,3.7,0.3c1.1-1,1.2-2.6,0.3-3.7
		C135,266.6,133.3,266.5,132.2,267.4z"/>
	<path class="st0" d="M121.8,276.5c-1.1,1-1.2,2.6-0.3,3.7c1,1.1,2.6,1.2,3.7,0.3c1.1-1,1.2-2.6,0.3-3.7
		C124.6,275.6,122.9,275.5,121.8,276.5z"/>
	<path class="st0" d="M114.9,289.5c1.1-1,1.2-2.6,0.3-3.7c-1-1.1-2.6-1.2-3.7-0.3c-1.1,1-1.2,2.6-0.3,3.7
		C112.1,290.3,113.8,290.4,114.9,289.5z"/>
	<path class="st0" d="M162,259.7c-1.1,1-1.2,2.6-0.3,3.7c1,1.1,2.6,1.2,3.7,0.3c1.1-1,1.2-2.6,0.3-3.7
		C164.7,258.9,163.1,258.8,162,259.7z"/>
	<path class="st0" d="M151.6,268.7c-1.1,1-1.2,2.6-0.3,3.7c1,1.1,2.6,1.2,3.7,0.3c1.1-1,1.2-2.6,0.3-3.7
		C154.3,267.9,152.7,267.8,151.6,268.7z"/>
	<path class="st0" d="M141.2,277.8c-1.1,1-1.2,2.6-0.3,3.7c1,1.1,2.6,1.2,3.7,0.3c1.1-1,1.2-2.6,0.3-3.7
		C143.9,276.9,142.3,276.8,141.2,277.8z"/>
	<path class="st0" d="M130.7,286.8c-1.1,1-1.2,2.6-0.3,3.7c1,1.1,2.6,1.2,3.7,0.3c1.1-1,1.2-2.6,0.3-3.7
		C133.5,285.9,131.8,285.8,130.7,286.8z"/>
	<path class="st0" d="M123.8,299.8c1.1-1,1.2-2.6,0.3-3.7c-1-1.1-2.6-1.2-3.7-0.3c-0.5,0.4-0.8,1-0.9,1.6c1.3,0.9,2.6,1.8,3.8,2.7
		C123.5,300,123.6,299.9,123.8,299.8z"/>
	<path class="st0" d="M171,270.2c-1.1,1-1.2,2.6-0.3,3.7c1,1.1,2.6,1.2,3.7,0.3c1.1-1,1.2-2.6,0.3-3.7
		C173.8,269.4,172.1,269.3,171,270.2z"/>
	<path class="st0" d="M160.6,279.2c-1.1,1-1.2,2.6-0.3,3.7c1,1.1,2.6,1.2,3.7,0.3c1.1-1,1.2-2.6,0.3-3.7
		C163.4,278.4,161.7,278.3,160.6,279.2z"/>
	<path class="st0" d="M150.2,288.2c-1.1,1-1.2,2.6-0.3,3.7c1,1.1,2.6,1.2,3.7,0.3c1.1-1,1.2-2.6,0.3-3.7
		C153,287.4,151.3,287.3,150.2,288.2z"/>
	<path class="st0" d="M139.8,297.3c-1.1,1-1.2,2.6-0.3,3.7c1,1.1,2.6,1.2,3.7,0.3c1.1-1,1.2-2.6,0.3-3.7
		C142.6,296.4,140.9,296.3,139.8,297.3z"/>
	<path class="st0" d="M131.8,305.7c0.4,0.3,0.8,0.5,1.2,0.8C132.7,306.1,132.3,305.8,131.8,305.7z"/>
	<path class="st0" d="M159.2,298.6c-1.1,1-1.2,2.6-0.3,3.7c1,1.1,2.6,1.2,3.7,0.3c1.1-1,1.2-2.6,0.3-3.7
		C161.9,297.7,160.3,297.6,159.2,298.6z"/>
	<path class="st0" d="M169.6,289.5c-1.1,1-1.2,2.6-0.3,3.7s2.6,1.2,3.7,0.3c1.1-1,1.2-2.6,0.3-3.7
		C172.3,288.7,170.7,288.6,169.6,289.5z"/>
	<path class="st0" d="M180,280.5c-1.1,1-1.2,2.6-0.3,3.7c1,1.1,2.6,1.2,3.7,0.3c1.1-1,1.2-2.6,0.3-3.7
		C182.7,279.7,181.1,279.6,180,280.5z"/>
	<path class="st0" d="M152.2,311.6c1.1-1,1.2-2.6,0.3-3.7c-1-1.1-2.6-1.2-3.7-0.3c-1.1,1-1.2,2.6-0.3,3.7
		C149.4,312.4,151.1,312.5,152.2,311.6z"/>
	<path class="st0" d="M189.1,291c-1.1,1-1.2,2.6-0.3,3.7c1,1.1,2.6,1.2,3.7,0.3c1.1-1,1.2-2.6,0.3-3.7
		C191.8,290.2,190.2,290.1,189.1,291z"/>
	<path class="st0" d="M178.6,300c-1.1,1-1.2,2.6-0.3,3.7c1,1.1,2.6,1.2,3.7,0.3c1.1-1,1.2-2.6,0.3-3.7
		C181.4,299.2,179.7,299.1,178.6,300z"/>
	<path class="st0" d="M168.2,309c-1.1,1-1.2,2.6-0.3,3.7c1,1.1,2.6,1.2,3.7,0.3c1.1-1,1.2-2.6,0.3-3.7
		C171,308.2,169.3,308.1,168.2,309z"/>
	<path class="st0" d="M161.5,318.3c-1-1.1-2.6-1.2-3.7-0.3c-0.3,0.2-0.5,0.5-0.6,0.8c1.6,0.7,3.2,1.3,4.9,1.9
		C162.3,319.9,162.2,319,161.5,318.3z"/>
	<path class="st0" d="M198,301.3c-1.1,1-1.2,2.6-0.3,3.7c1,1.1,2.6,1.2,3.7,0.3c1.1-1,1.2-2.6,0.3-3.7
		C200.8,300.5,199.1,300.4,198,301.3z"/>
	<path class="st0" d="M187.6,310.3c-1.1,1-1.2,2.6-0.3,3.7s2.6,1.2,3.7,0.3c1.1-1,1.2-2.6,0.3-3.7
		C190.3,309.5,188.7,309.4,187.6,310.3z"/>
	<path class="st0" d="M177.2,319.4c-1.1,1-1.2,2.6-0.3,3.7c1,1.1,2.6,1.2,3.7,0.3c1.1-1,1.2-2.6,0.3-3.7S178.3,318.4,177.2,319.4z"
		/>
	<path class="st0" d="M207.1,311.8c-1.1,1-1.2,2.6-0.3,3.7c1,1.1,2.6,1.2,3.7,0.3c1.1-1,1.2-2.6,0.3-3.7
		C209.8,311,208.2,310.9,207.1,311.8z"/>
	<path class="st0" d="M200.1,324.8c1.1-1,1.2-2.6,0.3-3.7c-1-1.1-2.6-1.2-3.7-0.3c-1.1,1-1.2,2.6-0.3,3.7
		C197.3,325.6,199,325.8,200.1,324.8z"/>
	<path class="st0" d="M216,322.1c-1.1,1-1.2,2.6-0.3,3.7c1,1.1,2.6,1.2,3.7,0.3c1.1-1,1.2-2.6,0.3-3.7
		C218.8,321.3,217.1,321.2,216,322.1z"/>
	<path class="st0" d="M209.3,331.4c-1-1.1-2.6-1.2-3.7-0.3c-0.4,0.3-0.7,0.8-0.8,1.2c1.7,0.3,3.4,0.7,5.2,1
		C210,332.7,209.8,332,209.3,331.4z"/>
	<path class="st0" d="M228.8,332.9c-1-1.1-2.6-1.2-3.7-0.3c-1,0.8-1.2,2.2-0.6,3.3c1.4,0.2,2.7,0.4,4.1,0.7
		C229.6,335.6,229.7,333.9,228.8,332.9z"/>
</g>
</svg>
