<?xml version="1.0" encoding="utf-8"?>
<!-- Generator: Adobe Illustrator 22.0.1, SVG Export Plug-In . SVG Version: 6.00 Build 0)  -->
<svg version="1.1" id="Capa_1" xmlns="http://www.w3.org/2000/svg" xmlns:xlink="http://www.w3.org/1999/xlink" x="0px" y="0px"
	 viewBox="0 0 463.6 370.3" style="enable-background:new 0 0 463.6 370.3;" xml:space="preserve">
<style type="text/css">
	.st0{fill:#41D3BC;}
</style>
<path class="st0" d="M402,121.5c1.7-8.2,2.6-17-0.2-24.9c-2.9-7.9-10.5-14.7-18.9-13.9c-6.9,0.6-12.5,5.8-17.1,11
	c-6.9,7.8-13,16.3-18.3,25.3c-6.8,11.5-12.5,24.5-23.7,31.9c-9.9,6.6-22.3,7.7-34.2,8.2c-12.7,0.6-25.4,0.7-38.1,0.4
	c-7.8-0.2-17.1,0.2-21.5,6.7c-5.1,7.7,1.2,18.6,9.8,22.1c8.6,3.4,18.2,1.8,27.3,0.8c9.2-0.9,19.3-0.8,26.4,5.1c3.1,2.6,5.2,6.1,8,9
	c10.6,11.2,29,12,43.1,5.6C376.5,194.2,395.3,153.9,402,121.5z"/>
</svg>
