<?xml version="1.0" encoding="utf-8"?>
<!-- Generator: Adobe Illustrator 22.0.1, SVG Export Plug-In . SVG Version: 6.00 Build 0)  -->
<svg version="1.1" id="Capa_1" xmlns="http://www.w3.org/2000/svg" xmlns:xlink="http://www.w3.org/1999/xlink" x="0px" y="0px"
	 viewBox="0 0 463.6 370.3" style="enable-background:new 0 0 463.6 370.3;" xml:space="preserve">
<style type="text/css">
	.st0{fill:#A9FFF7;}
</style>
<g>
	<path class="st0" d="M171.5,245.5c6.3-8.1,21.4-23.4,30.5-27.5c25.7-11.7,26.1-11.2,49.1-0.9c22.7,10.2,52.8-0.2,74.9-18.6
		s10.8-13.5,26-38c4.3-7,6-28.5-2-46c-2.4-6.9-16.9-21.6-31-34.5c-6-5.5-12.2-11.2-20.3-13.3c-18.5-4.9-47.4,4.2-60.2,21.8
		S225,115.3,218,134c-15.5,47.9-136.8,19.6-157,51.5c-26.3,36.1-33.5,102.5,39,112C122,305.5,147.8,276,171.5,245.5z"/>
</g>
</svg>
