<svg xmlns="http://www.w3.org/2000/svg" viewBox="0 0 365 65.3"><title>logo_ns</title><path d="M451.4,357.5q0,.5-4.2,3.3c-.9.6-2.3,1.5-4.3,2.6-.5,0-1.9-.9-4.1-2.7s-3.8-3.9-3.8-5.2V334.3a6.4,6.4,0,0,0-1.1-4.1,18.6,18.6,0,0,0-4.9-4.4l-9.9,5.8v24.6c0,2.2.4,3.5,1.1,3.9a2.1,2.1,0,0,1,.6,1.7v1h-2.4l-.9-.6a10,10,0,0,0-4.6-1,11.7,11.7,0,0,0-5,1.6h-1.3c0-.2-.1-.4-.1-.6v-.5a1.1,1.1,0,0,0,.1-.5,15.3,15.3,0,0,1,1.1-3.7,21.5,21.5,0,0,0,1.2-3.6V330.4c0-2.1-1.2-3.6-3.5-4.4s-3.4-1.4-3.4-1.9.4-.6,1.1-1.3a17.7,17.7,0,0,1,3.3-2.4l4.4-2.9a5,5,0,0,1,2.8,1,10.2,10.2,0,0,1,2.5,3.1l3.3,5.9,16-9.6a18.7,18.7,0,0,1,6.8,5.4c2.4,3,3.6,5.6,3.6,8v18.6c0,4.1,1,6.2,2.8,6.3S451.4,356.7,451.4,357.5Z" transform="translate(-402 -298.1)" style="fill:#6991ab"/><path d="M497.6,359.2q-5,3.3-5.4,3.3c-1.3,0-2.5-.8-3.7-2.3l-3.8-4.9-5.8,3.7c-3.7,2.5-5.8,3.8-6.2,3.8-3.3,0-6.6-1.7-10.1-5a19.7,19.7,0,0,1-6.2-14.5q0-7.8,8.1-16.5c5.7-6.2,11.6-9.3,17.6-9.3,1.2,0,3.1.9,5.7,2.6s4.3,2.6,5.4,2.6,3.5-1.1,6.1-3.2h1.3v1.3a49.3,49.3,0,0,0-4.2,5.8,13.4,13.4,0,0,0-2,6.9v14.7a5.7,5.7,0,0,0,3.9,5.8c2.7,1,4,1.7,4,2Zm-8.3-28a3.3,3.3,0,0,0-1.7-.4h-1.1l-.8.3c-1.9,0-3.9-1.1-6.2-3.3s-4.2-3.2-5.5-3.2-4,1.1-5.6,3.2a13,13,0,0,0-2.2,7.5,4.5,4.5,0,0,1-.3,1.1,3.1,3.1,0,0,0-.4,1.5c0,3,1.6,6.5,4.8,10.6s5.1,4.7,8.2,4.7a10.6,10.6,0,0,0,3.8-.7l2.1-.9v-13a8.6,8.6,0,0,1,.7-1l.6-1c.5-.8,1.1-1.7,1.7-2.8l1.9-3.6Z" transform="translate(-402 -298.1)" style="fill:#6991ab"/><path d="M556.3,357.5q0,.5-4.2,3.3c-.9.6-2.3,1.5-4.3,2.6-.5,0-1.9-.9-4.1-2.7s-3.8-3.9-3.8-5.2V334.3a7.1,7.1,0,0,0-1.1-4.1,18.6,18.6,0,0,0-4.9-4.4l-9.9,5.8v24.6c0,2.2.3,3.5,1.1,3.9a2.1,2.1,0,0,1,.6,1.7v1h-2.4l-.9-.6a10,10,0,0,0-4.6-1,11.7,11.7,0,0,0-5,1.6h-1.3c0-.2-.1-.4-.1-.6v-.5a1.1,1.1,0,0,0,.1-.5,15.3,15.3,0,0,1,1.1-3.7,21.5,21.5,0,0,0,1.2-3.6V330.4c0-2.1-1.2-3.6-3.5-4.4s-3.4-1.4-3.4-1.9.4-.6,1.1-1.3a17.7,17.7,0,0,1,3.3-2.4l4.4-2.9a5,5,0,0,1,2.8,1,10.2,10.2,0,0,1,2.5,3.1l3.3,5.9,16-9.6a18.7,18.7,0,0,1,6.8,5.4c2.4,3,3.6,5.6,3.6,8v18.6c0,4.1,1,6.2,2.8,6.3S556.3,356.7,556.3,357.5Z" transform="translate(-402 -298.1)" style="fill:#6991ab"/><path d="M602.1,340.1c0,6-2.6,11.5-8,16.4s-8.8,6.3-12.5,6.3c-5.9,0-11-2.6-15.2-7.7s-5.1-7.7-5.1-10.7v-4.3c0-4.3,2-9,6.1-14.3s8.5-8.3,12.6-8.3h3.7c3.8,0,7.6,2.1,11.6,6.2A22.5,22.5,0,0,1,602.1,340.1Zm-6.3,7.8v-4.4l-2.7-4.8a49.9,49.9,0,0,0-3.3-4.8,40.5,40.5,0,0,0-3.5-3.6q-5.1-4.5-10.8-4.5a7.2,7.2,0,0,0-5.5,2.6,8.8,8.8,0,0,0-2.4,6.2c0,4,2.5,8.3,7.4,12.8s9.2,6.8,13.2,6.8a6,6,0,0,0,4.3-1.8Z" transform="translate(-402 -298.1)" style="fill:#6991ab"/><path d="M645.4,346.1c0,3.8-2.1,7.4-6.1,10.9a23.6,23.6,0,0,1-16.1,5.8,22.8,22.8,0,0,1-11.3-2.7c-3.8-2.1-5.7-4.9-5.7-8.5a6.1,6.1,0,0,1,1.7-4.3,5.2,5.2,0,0,1,3.7-1.9,7.1,7.1,0,0,1,2.9.9c.8.4,1.2.7,1.2,1.1s-.2.7-.8,1-1.7,2.2-1.7,4.1a5.7,5.7,0,0,0,3,4.9,14.4,14.4,0,0,0,7.3,1.9,11.9,11.9,0,0,0,8.8-3.8,11.6,11.6,0,0,0,3.7-8.4,7.9,7.9,0,0,0-2-5.3,6.1,6.1,0,0,0-4.7-2.4,4.5,4.5,0,0,0-3.6,2,5.6,5.6,0,0,0-1.2,2.8,1.6,1.6,0,0,0,.4,1.2l.6.7v1.3c-4.9,0-8.9-1.2-11.9-3.7a15.7,15.7,0,0,1-4.9-7.2,8.3,8.3,0,0,1-.6-2.1l-.6-2.1a3.1,3.1,0,0,1,.6-1.3,12.6,12.6,0,0,1,4.2-9.9,12.9,12.9,0,0,1,9.3-3.6,20,20,0,0,1,6.8,1.3l6.7,2.6c.5,0,.9-.3,1.5-.9a2.1,2.1,0,0,1,1.7-1h1.6v1l-2.9,5.1a5.7,5.7,0,0,1-5.1,3.2H629c-1,0-3.1-1-6.4-2.9s-5.7-2.9-7.4-2.9a6.9,6.9,0,0,0-1.6.9,5.7,5.7,0,0,0-1.6,4.2c0,1.8,1,3.5,3.1,5.1a13.1,13.1,0,0,0,8.7,2.9c.8,0,2.5-1,5.4-3.1a6.1,6.1,0,0,1,3.6-1.4h2.6c2,0,4.1,1,6.2,3a10.7,10.7,0,0,1,3.8,8Z" transform="translate(-402 -298.1)" style="fill:#6991ab"/><path d="M690.1,340.1c0,6-2.6,11.5-8,16.4s-8.8,6.3-12.5,6.3c-5.9,0-11-2.6-15.2-7.7s-5.1-7.7-5.1-10.7v-4.3c0-4.3,2-9,6.1-14.3s8.5-8.3,12.6-8.3h3.8c3.7,0,7.5,2.1,11.5,6.2A22.5,22.5,0,0,1,690.1,340.1Zm-6.3,7.8v-4.4l-2.7-4.8a49.9,49.9,0,0,0-3.3-4.8,30.1,30.1,0,0,0-3.5-3.6q-5.1-4.5-10.8-4.5a7.3,7.3,0,0,0-5.5,2.6,8.8,8.8,0,0,0-2.4,6.2c0,4,2.5,8.3,7.4,12.8s9.2,6.8,13.2,6.8a6,6,0,0,0,4.3-1.8Z" transform="translate(-402 -298.1)" style="fill:#6991ab"/><path d="M723.3,317c0,4.3-2.4,7.4-7.1,9.4a30.7,30.7,0,0,1-7.1,1.7v17.3c0,3.1,1.1,5.4,3.1,6.8a9.9,9.9,0,0,0,5.5,1.4H720a2.8,2.8,0,0,1,1.5.3,1.3,1.3,0,0,1,.5,1.1c0,.3-2,1.7-6,4.1s-6.3,3.8-6.9,3.8-2.9-1.2-5.8-3.5-5.1-5-5.1-7.1V327.4a1.6,1.6,0,0,0-1,.1,2.6,2.6,0,0,0-.9.5l-.6.5-.4.3v-.2c0-.1-.4,0-1.1.2v-3a21.8,21.8,0,0,1,3.9-6.2c.5-.6.8-1,.8-1.4v-7.6c0-4.4.3-7.1,1-8s3.2-2.1,8.3-4.5h.9v19.5h6.6a8.1,8.1,0,0,0,3.9-.8l2.4-1.9c.2,0,.5.2.8.6A2.5,2.5,0,0,1,723.3,317Z" transform="translate(-402 -298.1)" style="fill:#6991ab"/><path d="M767,340.1c0,6-2.7,11.5-8,16.4s-8.8,6.3-12.6,6.3c-5.9,0-10.9-2.6-15.1-7.7s-5.1-7.7-5.1-10.7v-4.3c0-4.3,2-9,6.1-14.3s8.5-8.3,12.6-8.3h3.7c3.7,0,7.6,2.1,11.6,6.2A22.9,22.9,0,0,1,767,340.1Zm-6.3,7.8v-4.4l-2.8-4.8a28.9,28.9,0,0,0-3.3-4.8,24,24,0,0,0-3.5-3.6c-3.4-3-7-4.5-10.7-4.5a7,7,0,0,0-5.5,2.6,8.8,8.8,0,0,0-2.4,6.2c0,4,2.4,8.3,7.3,12.8s9.3,6.8,13.2,6.8a6.2,6.2,0,0,0,4.4-1.8Z" transform="translate(-402 -298.1)" style="fill:#6991ab"/></svg>