<?xml version="1.0" encoding="utf-8"?>
<!-- Generator: Adobe Illustrator 22.0.1, SVG Export Plug-In . SVG Version: 6.00 Build 0)  -->
<svg version="1.1" id="Capa_1" xmlns="http://www.w3.org/2000/svg" xmlns:xlink="http://www.w3.org/1999/xlink" x="0px" y="0px"
	 viewBox="0 0 294.4 403.4" style="enable-background:new 0 0 294.4 403.4;" xml:space="preserve">
<style type="text/css">
	.st0{fill:none;stroke:#A9FFF7;stroke-width:10;stroke-miterlimit:10;}
</style>
<g>
	<g>
		<path class="st0" d="M10.3,100.8c1.4-21.7,5.6-37.7,12.7-49.1c6.9-11,17.9-19.6,34.6-27C90.8,10,129.3,6.1,169,13.3
			c9,1.6,18.5,4.1,26.3,10.8c12.8,11.1,18.3,30.3,22.9,49l41.3,170.5l4.7-1.1l-4.7,1.1c6.3,26.1,8.4,50.7,6,71.1
			c-2.4,20.7-9.4,37-20.2,47.4c-7.3,7-16.6,11.4-27.4,13.1c-11.8,1.9-25.7,0.5-41.2-4c-23-6.7-46.7-20.1-68.5-38.7
			c-21.6-18.4-41-41.5-56.2-66.8C21.9,215.7,6.8,155.6,10.3,100.8z"/>
	</g>
</g>
</svg>
