<?xml version="1.0" encoding="utf-8"?>
<!-- Generator: Adobe Illustrator 22.0.1, SVG Export Plug-In . SVG Version: 6.00 Build 0)  -->
<svg version="1.1" id="Capa_1" xmlns="http://www.w3.org/2000/svg" xmlns:xlink="http://www.w3.org/1999/xlink" x="0px" y="0px"
	 viewBox="0 0 463.6 370.3" style="enable-background:new 0 0 463.6 370.3;" xml:space="preserve">
<style type="text/css">
	.st0{fill:#A9FFF7;}
</style>
<g>
	<path class="st0" d="M212.4,242.8c6.3-8.1,13-16.6,22.1-20.7c25.7-11.7,43.6,18.1,66.6,28.4c22.7,10.2,52.8-0.2,74.9-18.6
		c22.1-18.4,37.8-43.4,53-67.9c20.2-32.5,41.5-70.3,32.7-103.6c-5.1-19.4-19.7-33.3-33.8-46.2c-6-5.5-12.2-11.2-20.3-13.3
		C389.1-4,367.8,11.2,355,28.8c-12.8,17.6-20.6,38.3-33.7,55.7C234.5,200.2,84.4,56.2,21.8,155.4c-28.6,45.3-48.3,209.4,69.6,214.8
		C163.3,373.4,188.7,273.3,212.4,242.8z"/>
</g>
</svg>
