<?xml version="1.0" encoding="utf-8"?>
<!-- Generator: Adobe Illustrator 22.0.1, SVG Export Plug-In . SVG Version: 6.00 Build 0)  -->
<svg version="1.1" id="Capa_1" xmlns="http://www.w3.org/2000/svg" xmlns:xlink="http://www.w3.org/1999/xlink" x="0px" y="0px"
	 viewBox="0 0 124.3 50.6" style="enable-background:new 0 0 124.3 50.6;" xml:space="preserve">
<style type="text/css">
	.st0{fill:#41D3BC;}
</style>
<g>
	<g>
		<g>
			<polygon class="st0" points="122.2,50.2 122.2,50.3 122.2,50.2 			"/>
			<path class="st0" d="M121.7,47.5l0.5-0.8c0,0.1,0,0.2,0,0.2c0.1,0,0.4-0.2,0.5,0.1c0,0,0.1,0,0.1-0.1c0.2-0.1,0,0.1-0.1,0.2
				c-0.1,0.3-0.2,0.2-0.3,0.3c0,0-0.1,0.1-0.1,0.1c0,0.1,0,0.2-0.1,0.3c0,0,0.1-0.1,0.1-0.1c0.1,0.1,0.5-0.6,0.6-0.5
				c0,0,0.1,0,0.1-0.1c0.2-0.3,0.2-0.2,0.3-0.2c0,0,0,0.1,0,0.1c0,0,0,0,0-0.1l0-0.1l0-0.1c0,0,0.1-0.1,0.1,0
				c0.1,0.2,0.3,0.4,0.4,0.5c0.1,0.1,0.2,0,0.3,0c0,0,0,0.1,0,0.1c0,0-0.1,0.1-0.1,0.2c0,0,0-0.1,0-0.1c0,0,0,0-0.1-0.1
				c0,0.1-0.1,0.2-0.1,0.2c0,0.1,0.1,0.1,0.2,0.1c0,0,0.1,0,0.1,0c0,0,0,0.1,0,0.1c0,0-0.1,0-0.1,0c-0.1-0.1-0.1,0.2-0.1,0.2
				c0.2,0-0.9,0.9-0.2,0.6c0.1,0,0,0.2,0,0.3c0,0-0.1,0-0.1,0c-0.1,0-0.1,0.1-0.2,0.2c0,0,0,0.1,0,0.1c0,0,0.1-0.1,0.1-0.1
				c0,0,0,0,0,0c0,0,0,0,0.1,0c-0.1,0.1-0.2,0.3-0.3,0.4c-0.3,0.3-0.5,0.6-0.7,0.9c0,0-0.2,0.1-0.2,0.1c0-0.1,0-0.1-0.2-0.1
				c0,0-0.1,0-0.1,0c0,0,0.1-0.1,0.1-0.1c0,0,0-0.1,0-0.1c-0.1,0-0.1,0.1-0.2,0.1c-0.1,0-0.1,0-0.1,0l0.1-0.1l0,0c0,0,0,0,0,0.1
				c0,0,0,0,0,0c0,0,0-0.1,0-0.1l0,0l0,0l0,0l-0.2,0.1c0,0-0.1,0-0.1,0c0.1-0.4-0.1-0.2-0.3-0.2c0,0,0,0,0-0.1c0,0,0,0,0.1,0
				c0,0,0,0,0,0c0,0,0-0.1,0-0.1c0,0,0,0,0,0c0,0,0,0,0,0c0-0.1-0.3,0.3-0.1-0.1l-0.3,0l0,0.1l-0.1,0c-0.1,0-0.1,0-0.2,0
				c-0.2,0.1-0.1-0.2-0.2-0.3c0,0-0.1,0.1-0.1,0.1c0,0-0.1,0-0.1,0c-0.2,0,0,0.1-0.1,0.1c0,0,0,0,0,0l-0.1,0c0,0,0-0.1,0.1-0.1
				c0,0,0.1-0.1,0.1-0.1c0,0-0.1,0-0.1,0c0,0-0.1,0.1-0.1,0.1c0-0.1-0.2,0.1,0-0.2c0,0,0,0,0-0.1l0,0l-0.1,0.2
				c0-0.1,0.1-0.2,0.1-0.3c0.1-0.1,0.1-0.1,0.2-0.2c0-0.1,0.1-0.2,0.1-0.2c0-0.1,0-0.1,0-0.2c0-0.1,0.1-0.1,0.1-0.1l0.6-1
				c0,0.1-0.1,0.2,0,0.1l0,0.1l0.1-0.1C121.5,47.8,121.6,47.6,121.7,47.5z M122.9,48.5c0,0,0,0.1,0.1,0.1c0,0,0.1-0.1,0.2-0.1
				c0-0.1,0-0.1,0-0.1C123.1,48.4,123,48.4,122.9,48.5z M122.3,48.6C122.3,48.6,122.3,48.6,122.3,48.6l0.4,0c0,0,0.1,0,0.1,0l0-0.1
				c-0.2,0.2,0.2-0.3-0.1-0.1C122.6,48.5,122.4,48.5,122.3,48.6z M121.7,47.8c-0.1,0.2,0,0.2,0,0.2c0,0.2,0.1-0.2,0.1-0.1l0-0.2
				C121.8,47.7,121.8,47.8,121.7,47.8z"/>
			<path class="st0" d="M122.3,46.6c0.1-0.1,0,0.2,0.2,0l-0.1,0.1c0,0,0,0,0,0c0.2-0.2,0.1-0.2,0.1-0.4l0-0.1c0,0.1-0.1,0.1-0.2,0.2
				c-0.1,0.1,0-0.1,0.1-0.2l-0.1-0.1L122.3,46.6C122.3,46.7,122.3,46.6,122.3,46.6z"/>
			<path class="st0" d="M122.7,46.6c0.1,0.1,0.2,0.2,0.4-0.3C122.9,46.5,122.8,46.7,122.7,46.6C122.7,46.6,122.7,46.6,122.7,46.6z"
				/>
			<polygon class="st0" points="123,46.3 123,46.3 123.1,46.3 			"/>
			<polygon class="st0" points="123.2,46.1 123.1,46.3 123.2,46.2 			"/>
			<path class="st0" d="M123,46.8C123,46.8,123,46.8,123,46.8c0.1-0.1,0.1-0.2,0.1-0.3c0,0-0.1,0-0.1,0
				C122.9,46.7,123,46.8,123,46.8z"/>
		</g>
		<g>
			<path class="st0" d="M118.8,46c0.1-0.2,0.3-0.4,0.3-0.2c0,0.1,0,0.1,0,0.2c0,0,0.1,0,0.1,0c0.1-0.5,0.3,0,0.4-0.5
				c0.1,0.2,0.4-0.3,0.5-0.3c-0.2,0.3,0,0.1,0,0.3c-0.1,0.1-0.2,0.1-0.2,0.3c0,0-0.1,0-0.1,0l-0.1-0.1c0,0,0,0.1-0.1,0.1l0.1,0.2
				l0.1-0.2c0.1,0,0.2,0,0.2,0.1c0.1,0.2,0.2,0.3,0.4,0.2c0.1,0,0.1-0.1,0.1,0.1c0,0,0,0.1,0.1-0.1c0-0.1,0-0.1,0-0.2c0,0,0,0,0,0
				c0,0,0.1,0,0.1,0c0.1,0.2,0.3,0.4,0.6,0.2c0,0,0,0,0,0c-0.1,0.2-0.1,0.2,0,0.1l0,0c-0.1,0,0-0.2,0.1-0.3l-0.2,0.1
				c0.1-0.2,0.2-0.2,0.3-0.2c0,0,0,0.1,0,0.2c0.1,0.1,0.2,0.2,0.3,0.3c0-0.1,0.1-0.2,0.1-0.2c0.2-0.2,0,0.1,0.1,0.1
				c0.2-0.2,0.2-0.2,0,0.2c0,0,0,0.1,0,0.1c0.2-0.2,0.1,0.2,0.2,0.1c0,0,0,0,0.1,0c0,0,0,0,0,0l0,0.2l-0.3,0.4
				c0-0.1-0.1-0.2-0.1-0.3c-0.1,0-0.2,0-0.3,0.1c0.1,0.1,0.2,0.2,0.3,0.3c0,0,0.1,0,0.1-0.1l-1.7,2.6c0,0-0.1,0-0.1-0.1
				c0,0,0,0-0.1,0l0,0.1l0,0.1c0,0,0,0-0.1,0c0,0-0.1,0-0.1,0c0.4-0.6-0.1-0.2,0-0.4c0-0.1,0-0.2-0.1-0.2c0,0-0.1,0-0.1,0
				c0,0,0,0.1-0.1,0.1c0,0-0.1,0.1-0.1,0.1c0,0,0-0.1-0.1-0.1c-0.2-0.1-0.4-0.1-0.5-0.2c-0.1,0-0.1-0.1-0.2-0.1
				c-0.2,0-0.3-0.2-0.4-0.5c0,0.1-0.1,0.1-0.1,0.2c-0.1,0.1-0.2,0.2-0.2,0.1c0,0,0-0.2,0-0.2c0-0.1,0-0.3-0.2-0.1c0,0,0-0.1,0-0.1
				c-0.2,0.2-0.2,0.2,0-0.1c-0.2,0,0-0.3,0.1-0.5c0.1-0.3,0.1-0.3,0.1-0.3c0,0,0-0.1,0-0.1c0,0,0.1,0,0.1,0c0,0,0.1,0,0.2-0.1
				c0-0.1,0-0.1,0-0.2c0,0,0-0.1,0-0.1c0,0,0.1,0,0.1,0c0.2,0,0.3-0.4,0.4-0.5c0,0-0.1,0-0.1-0.1C118.8,46.2,118.7,46.1,118.8,46z
				 M121.4,47c0,0.1,0,0.2,0,0.3c0,0,0.1,0,0.1,0c0-0.1,0-0.2,0-0.3L121.4,47z M121.8,46.4c0,0,0.1,0.1,0.1,0.1c0,0,0.1-0.1,0.1-0.1
				c0.1-0.2,0.1-0.2,0,0c-0.2,0.2,0.1-0.3,0-0.2C122,46.2,121.9,46.3,121.8,46.4z M121.2,46.5c0,0.1-0.1,0.2-0.1,0.2
				c0,0,0.1,0,0.1,0c0,0,0,0.1,0,0.1c0,0-0.1,0-0.1,0.1c0,0.1,0,0.1,0,0.2c0-0.1,0.1-0.1,0.1-0.3c0,0,0.1-0.1,0.1-0.1
				c0.1,0,0.2,0,0.3-0.4c0,0,0-0.1,0-0.1c-0.1,0-0.1,0.1-0.2,0.1l0,0l0,0.1l-0.1,0L121.2,46.5z M120.8,46.6c0,0.1,0,0.3,0.1,0.3
				c0.2,0.1,0.1,0,0.1-0.1c0.2-0.2-0.1,0,0-0.2L120.8,46.6z"/>
			<path class="st0" d="M117.8,47.4C117.8,47.4,117.9,47.4,117.8,47.4l0.2-0.6c0,0.1-0.1,0.1-0.2,0.2
				C117.9,47.2,117.8,47.3,117.8,47.4z"/>
		</g>
		<g>
			<polygon class="st0" points="112.1,44.2 112,44.2 112.1,44.2 			"/>
			<path class="st0" d="M111.3,41.5l0.4-0.8c0,0.1,0,0.2,0,0.2c0.1,0,0.4-0.2,0.5,0c0,0,0.1-0.1,0.1-0.1c0.1-0.1,0,0.1,0,0.2
				c-0.1,0.3-0.2,0.2-0.2,0.3c0,0-0.1,0.1-0.1,0.1c0,0.1,0,0.2,0,0.3c0,0,0.1-0.1,0.1-0.1c0.1,0.1,0.4-0.6,0.6-0.5
				c0,0,0.1,0,0.1-0.1c0.1-0.3,0.2-0.2,0.3-0.3c0,0,0,0.1,0,0.1c0,0,0,0,0-0.1l0-0.1l0-0.1c0,0,0.1-0.1,0.1-0.1
				c0.2,0.2,0.3,0.4,0.5,0.5c0.1,0.1,0.2,0,0.3,0c0,0,0,0.1,0,0.1c0,0-0.1,0.1-0.1,0.2c0,0,0-0.1,0-0.1c0,0,0,0-0.1-0.1
				c0,0.1-0.1,0.2-0.1,0.2c0,0,0.1,0.1,0.2,0.1c0,0,0.1,0,0.1,0c0,0,0,0.1,0,0.1c0,0-0.1,0.1-0.1,0c-0.1-0.1-0.1,0.2-0.1,0.2
				c0.2,0-0.8,1-0.1,0.6c0.1,0,0,0.2,0,0.3c0,0-0.1,0-0.1,0c0,0-0.1,0.2-0.2,0.2c0,0,0,0.1,0,0.1c0,0,0.1-0.1,0.1-0.2c0,0,0,0,0,0
				c0,0,0,0,0.1,0c-0.1,0.1-0.1,0.3-0.2,0.4c-0.2,0.3-0.4,0.7-0.6,1c0,0-0.1,0.1-0.1,0.1c0-0.2-0.1-0.1-0.2-0.1c0,0-0.1,0-0.1,0
				c0,0,0.1-0.1,0.1-0.1c0,0,0-0.1,0-0.1c0,0-0.1,0.1-0.2,0.1c0,0-0.1,0-0.1,0l0.1-0.1l0,0c0,0,0,0,0,0.1c0,0,0,0,0,0
				c0,0,0-0.1,0-0.1l0,0l0,0l0,0l-0.2,0.1c0,0-0.1,0-0.1,0c0.1-0.4-0.1-0.2-0.3-0.2c0,0,0,0,0-0.1c0,0,0,0,0,0c0,0,0,0,0,0
				c0,0,0-0.1,0-0.1c0,0,0,0,0,0c0,0,0,0,0,0c0-0.1-0.3,0.4-0.1-0.1l-0.3,0l0,0.1l-0.1,0.1c-0.1,0-0.1,0-0.2,0
				c-0.2,0.1-0.1-0.2-0.2-0.3c0,0-0.1,0.1-0.1,0.1c0,0-0.1,0-0.1,0c-0.2,0,0,0.1,0,0.1c0,0,0,0,0,0l-0.1,0c0,0,0-0.1,0.1-0.1
				c0,0,0-0.1,0.1-0.1c0,0-0.1,0-0.1,0.1c0,0-0.1,0.1-0.1,0.1c0-0.1-0.2,0.1-0.1-0.2c0,0,0,0,0-0.1c0,0,0,0,0,0l-0.1,0.2
				c0-0.1,0.1-0.2,0.1-0.3c0-0.1,0.1-0.1,0.2-0.2c0-0.1,0.1-0.2,0.1-0.2c0-0.1,0-0.1,0-0.2c0-0.1,0-0.1,0-0.1l0.5-1
				c0,0.1-0.1,0.2,0,0.1l0,0.1l0.1-0.1C111.2,41.8,111.3,41.6,111.3,41.5z M112.6,42.4c0,0,0,0.1,0.1,0.1c0,0,0.1-0.1,0.2-0.1
				c0-0.1,0-0.1,0-0.1C112.7,42.3,112.6,42.3,112.6,42.4z M112,42.5C112,42.5,112,42.5,112,42.5l0.4-0.1c0,0,0.1,0,0.1,0l-0.1-0.1
				c-0.2,0.2,0.1-0.3-0.1-0.1C112.2,42.4,112.1,42.4,112,42.5z M111.4,41.8c-0.1,0.2,0,0.2,0,0.2c0,0.2,0.1-0.2,0.1-0.1l0-0.2
				C111.5,41.7,111.4,41.7,111.4,41.8z"/>
			<path class="st0" d="M111.8,40.5c0.1-0.1,0.1,0.2,0.2,0l-0.1,0.1c0,0,0,0,0,0c0.2-0.3,0.1-0.3,0.1-0.4l0-0.1
				c0,0.1-0.1,0.1-0.2,0.3c-0.1,0.1,0-0.1,0.1-0.2l-0.1-0.1L111.8,40.5C111.8,40.6,111.8,40.6,111.8,40.5z"/>
			<path class="st0" d="M112.2,40.5c0.1,0.1,0.2,0.2,0.3-0.3C112.4,40.4,112.3,40.5,112.2,40.5C112.2,40.4,112.2,40.5,112.2,40.5z"
				/>
			<polygon class="st0" points="112.5,40.2 112.5,40.2 112.5,40.2 			"/>
			<path class="st0" d="M112.6,40c0,0.1-0.1,0.1-0.1,0.2L112.6,40L112.6,40z"/>
			<path class="st0" d="M112.5,40.7C112.5,40.7,112.6,40.6,112.5,40.7c0.1-0.1,0.1-0.2,0-0.3c0,0-0.1,0-0.1,0
				C112.4,40.6,112.5,40.6,112.5,40.7z"/>
		</g>
		<g>
			<path class="st0" d="M108.3,40.2c0.1-0.3,0.3-0.5,0.3-0.2c0,0.1,0,0.1,0.1,0.2c0,0,0.1,0,0.1-0.1c0.1-0.5,0.3,0,0.4-0.6
				c0.1,0.2,0.4-0.3,0.5-0.3c-0.2,0.3,0.1,0.1,0,0.3c0,0.1-0.2,0.1-0.2,0.3c0,0,0,0-0.1,0l-0.1-0.1c0,0,0,0.1-0.1,0.1l0.2,0.2
				l0.1-0.3c0.1,0,0.2,0,0.3,0.1c0.1,0.2,0.2,0.3,0.4,0.2c0.1,0,0.1-0.1,0.1,0.1c0,0,0.1,0.1,0.1-0.1c0-0.1,0-0.1,0-0.2c0,0,0,0,0,0
				c0,0,0.1,0,0.1,0c0.1,0.2,0.3,0.3,0.6,0.1c0,0,0,0,0,0c-0.1,0.2-0.1,0.2,0,0.1l0,0c-0.1,0,0-0.2,0.1-0.3l-0.2,0.1
				c0.1-0.2,0.2-0.3,0.3-0.2c0,0,0,0.1,0,0.2c0.1,0.1,0.2,0.2,0.3,0.3c0-0.1,0.1-0.2,0.1-0.2c0.2-0.2,0,0.1,0.1,0.1
				c0.2-0.2,0.2-0.2,0,0.2c0,0,0,0.1,0,0.1c0.2-0.2,0.1,0.2,0.2,0.1c0,0,0-0.1,0.1-0.1c0,0,0,0,0,0l0,0.2l-0.3,0.5
				c0-0.1-0.1-0.2-0.1-0.3c-0.1,0-0.2,0.1-0.3,0.1c0.1,0.1,0.2,0.2,0.3,0.3c0,0,0.1,0,0.1-0.1l-1.5,2.8c0,0-0.1,0-0.1-0.1
				c0,0,0,0-0.1,0l0,0.1l0,0.1c0,0,0,0-0.1,0c0,0-0.1,0-0.1,0c0.3-0.6-0.1-0.2,0-0.4c0-0.1,0-0.2-0.1-0.2c0,0-0.1,0-0.1,0
				c0,0,0,0.1,0,0.1c0,0-0.1,0.1-0.1,0.1c0,0-0.1-0.1-0.1-0.1c-0.2-0.1-0.4-0.1-0.6-0.2c-0.1,0-0.1-0.1-0.2-0.1
				c-0.2,0-0.3-0.2-0.4-0.5c0,0.1-0.1,0.1-0.1,0.2c-0.1,0.1-0.1,0.2-0.1,0.2c0,0,0-0.2,0-0.2c0-0.1,0-0.3-0.2-0.1c0,0,0-0.1,0-0.1
				c-0.2,0.2-0.2,0.2,0-0.1c-0.2,0,0-0.3,0.1-0.5c0.1-0.3,0.1-0.3,0-0.3c0,0,0-0.1,0-0.1c0,0,0.1,0,0.1,0c0,0,0.1-0.1,0.2-0.1
				c0-0.1,0-0.1,0-0.2c0,0,0-0.1-0.1-0.1c0,0,0.1,0,0.1,0c0.2-0.1,0.2-0.4,0.3-0.5c0,0-0.1,0-0.1-0.1
				C108.3,40.3,108.2,40.3,108.3,40.2z M111,41c0,0.1,0,0.2,0.1,0.3c0,0,0.1,0,0.1,0c0-0.1,0-0.2,0-0.3L111,41z M111.3,40.3
				c0,0,0.1,0.1,0.1,0.1c0,0,0-0.1,0.1-0.1c0.1-0.2,0.1-0.2,0,0c-0.2,0.2,0.1-0.3,0-0.2C111.5,40.1,111.4,40.2,111.3,40.3z
				 M110.7,40.5c0,0.1-0.1,0.2,0,0.2c0,0,0.1,0,0.1,0c0,0,0,0.1,0,0.1c0,0-0.1,0-0.1,0.1c0,0.1,0,0.1,0,0.2c0-0.1,0.1-0.2,0.1-0.3
				c0,0,0.1-0.1,0.1-0.1c0.1,0,0.2-0.1,0.3-0.4c0,0,0-0.1,0-0.1c-0.1,0-0.1,0.1-0.2,0.1l0,0l0,0.1l-0.1,0L110.7,40.5z M110.4,40.7
				c0,0.1,0,0.3,0.1,0.3c0.2,0,0.1-0.1,0.1-0.1c0.1-0.2-0.1,0,0-0.2L110.4,40.7z"/>
			<path class="st0" d="M107.4,41.6C107.4,41.6,107.5,41.6,107.4,41.6l0.2-0.6c0,0.1-0.1,0.1-0.1,0.2
				C107.4,41.4,107.4,41.5,107.4,41.6z"/>
		</g>
		<g>
			<polygon class="st0" points="101.5,38.7 101.5,38.7 101.5,38.7 			"/>
			<path class="st0" d="M100.6,36l0.4-0.8c0,0.1,0,0.2,0,0.2c0.1,0,0.4-0.2,0.5,0c0,0,0.1-0.1,0.1-0.1c0.1-0.1,0,0.1,0,0.2
				c-0.1,0.3-0.1,0.2-0.2,0.3c0,0-0.1,0.1-0.1,0.2c0,0.1,0,0.2,0,0.3c0,0,0.1-0.1,0.1-0.1c0.2,0.1,0.4-0.7,0.5-0.6
				c0,0,0.1,0,0.1-0.1c0.1-0.3,0.2-0.2,0.3-0.3c0,0,0,0.1,0,0.1c0,0,0,0,0-0.1l0-0.1l0-0.1c0,0,0.1-0.1,0.1-0.1
				c0.2,0.2,0.3,0.3,0.5,0.5c0.1,0.1,0.2,0,0.3,0c0,0,0,0.1,0,0.1c0,0-0.1,0.1-0.1,0.2c0,0,0-0.1,0-0.1c0,0,0,0-0.1,0
				c0,0.1-0.1,0.2-0.1,0.2c0,0,0.1,0.1,0.2,0.1c0,0,0.1,0,0.1,0c0,0,0,0.1,0,0.1c0,0-0.1,0.1-0.1,0.1c-0.1-0.1-0.1,0.2-0.1,0.2
				c0.2,0-0.7,1-0.1,0.6c0.1,0,0,0.2,0.1,0.3c0,0-0.1,0-0.1,0c0,0.1-0.1,0.2-0.2,0.2c0,0,0,0.1,0,0.1c0,0,0.1-0.1,0.1-0.2
				c0,0,0,0,0,0c0,0,0,0,0.1,0c-0.1,0.1-0.1,0.3-0.2,0.4c-0.2,0.3-0.4,0.7-0.5,1c0,0-0.1,0.2-0.1,0.1c0-0.2-0.1-0.1-0.2,0
				c0,0-0.1,0-0.1,0c0,0,0.1-0.1,0.1-0.1c0,0,0-0.1,0-0.1c0,0-0.1,0.1-0.2,0.1c0,0-0.1,0-0.1,0l0.1-0.1l0,0c0,0,0,0,0,0.1
				c0,0,0,0,0,0c0,0,0-0.1,0-0.1l0,0l0,0l0,0l-0.1,0.1c0,0-0.1,0-0.1,0c0.1-0.4-0.1-0.2-0.3-0.2c0,0,0,0,0-0.1c0,0,0,0,0,0
				c0,0,0,0,0,0c0,0,0-0.1,0-0.1c0,0,0,0,0,0c0,0,0,0,0,0c0-0.1-0.3,0.4-0.1-0.1l-0.3,0l0,0.1l-0.1,0.1c-0.1,0-0.1,0-0.1,0.1
				c-0.2,0.1-0.1-0.2-0.2-0.2c0,0-0.1,0.1-0.1,0.1c0,0-0.1,0-0.1,0c-0.2,0.1,0,0.1,0,0.1c0,0,0,0,0,0l-0.1,0c0,0,0-0.1,0-0.1
				c0,0,0-0.1,0.1-0.1c0,0-0.1,0-0.1,0.1c0,0-0.1,0.1-0.1,0.1c0-0.1-0.2,0.1-0.1-0.2c0,0,0,0,0-0.1c0,0,0,0,0,0l-0.1,0.2
				c0-0.1,0.1-0.2,0.1-0.3c0-0.1,0.1-0.1,0.2-0.2c0-0.1,0.1-0.2,0.1-0.2c0-0.1,0-0.1,0-0.2c0-0.1,0-0.1,0-0.1l0.5-1
				c0,0.1-0.1,0.2,0,0.1l0,0.1l0.1-0.1C100.5,36.4,100.6,36.2,100.6,36z M101.9,36.9C101.9,36.9,102,37,101.9,36.9
				c0.1,0.1,0.2,0,0.3,0c0-0.1,0-0.1,0-0.1C102,36.7,102,36.8,101.9,36.9z M101.3,37C101.4,37,101.4,37.1,101.3,37l0.4-0.1
				c0,0,0.1,0,0.1,0l-0.1-0.1c-0.1,0.2,0.1-0.4-0.1-0.1C101.6,36.9,101.5,36.9,101.3,37z M100.7,36.3c-0.1,0.2,0,0.2,0,0.2
				c0,0.2,0.1-0.2,0.1-0.1l0-0.2C100.8,36.2,100.7,36.3,100.7,36.3z"/>
			<path class="st0" d="M101.1,35.1c0.1-0.1,0.1,0.2,0.2-0.1l-0.1,0.1c0,0,0,0,0,0c0.2-0.3,0-0.3,0.1-0.4l0-0.1
				c0,0.1-0.1,0.1-0.2,0.3c-0.1,0.1,0-0.1,0.1-0.2l-0.1-0.1L101.1,35.1C101.1,35.1,101.1,35.1,101.1,35.1z"/>
			<path class="st0" d="M101.4,35c0.1,0.1,0.2,0.2,0.3-0.3C101.7,34.9,101.6,35,101.4,35C101.5,35,101.4,35,101.4,35z"/>
			<polygon class="st0" points="101.8,34.7 101.8,34.7 101.8,34.7 			"/>
			<path class="st0" d="M101.9,34.5c0,0.1-0.1,0.1-0.1,0.2L101.9,34.5L101.9,34.5z"/>
			<path class="st0" d="M101.8,35.2C101.8,35.2,101.8,35.1,101.8,35.2c0-0.1,0-0.2,0-0.3c0,0-0.1,0-0.1,0
				C101.6,35.1,101.7,35.1,101.8,35.2z"/>
		</g>
		<g>
			<path class="st0" d="M97.5,34.8c0.1-0.3,0.3-0.5,0.3-0.3c0,0.1,0,0.1,0.1,0.2c0,0,0.1,0,0.1-0.1c0.1-0.5,0.3,0,0.4-0.6
				c0.1,0.2,0.4-0.3,0.5-0.3c-0.2,0.3,0.1,0.1,0,0.3c0,0.1-0.2,0.1-0.2,0.3c0,0,0,0-0.1,0l-0.1-0.1c0,0,0,0.1-0.1,0.1l0.2,0.2
				l0.1-0.3c0.1,0,0.2,0,0.3,0.1c0.1,0.2,0.2,0.2,0.4,0.2c0.1,0,0.1-0.1,0.1,0.1c0,0,0.1,0.1,0.1-0.1c0-0.1,0-0.1,0-0.2c0,0,0,0,0,0
				c0,0,0.1-0.1,0.1,0c0.1,0.2,0.3,0.3,0.6,0.1c0,0,0,0,0,0c-0.1,0.2,0,0.2,0.1,0.1l0,0c-0.1,0,0-0.2,0-0.3l-0.2,0.1
				c0.1-0.2,0.2-0.3,0.3-0.2c0,0,0,0.1,0,0.2c0.1,0.1,0.2,0.2,0.3,0.3c0-0.1,0.1-0.2,0.1-0.2c0.2-0.2,0,0.1,0.1,0.1
				c0.2-0.2,0.2-0.2,0,0.2c0,0,0,0.1,0,0.1c0.2-0.2,0.1,0.2,0.2,0c0,0,0-0.1,0-0.1c0,0,0,0,0,0l0,0.2l-0.2,0.5
				c0-0.1-0.1-0.2-0.1-0.3c-0.1,0-0.2,0.1-0.3,0.1c0.1,0.1,0.2,0.2,0.3,0.3c0,0,0.1-0.1,0.1-0.1l-1.4,2.8c0,0-0.1,0-0.1-0.1
				c0,0,0,0-0.1,0l0,0.1l0,0.1c0,0,0,0-0.1,0c0,0-0.1,0-0.1,0c0.3-0.6-0.1-0.2-0.1-0.4c0-0.1-0.1-0.2-0.1-0.2c0,0-0.1,0-0.1,0
				c0,0,0,0.1,0,0.1c0,0-0.1,0.1-0.1,0.1c0,0-0.1-0.1-0.1-0.1c-0.2-0.1-0.4-0.1-0.6-0.2c-0.1,0-0.1-0.1-0.2-0.1
				c-0.2,0-0.4-0.2-0.4-0.5c0,0.1-0.1,0.1-0.1,0.2c0,0.1-0.1,0.2-0.1,0.2c0,0,0-0.2,0-0.2c0-0.1,0-0.3-0.2-0.1c0,0,0-0.1-0.1-0.1
				c-0.1,0.2-0.2,0.2,0-0.1c-0.2,0,0-0.3,0.1-0.5c0.1-0.3,0.1-0.3,0-0.3c0,0,0-0.1,0-0.1c0,0,0.1,0,0.1,0c0,0,0.1-0.1,0.1-0.1
				c0-0.1,0-0.1,0-0.2c0,0,0-0.1-0.1-0.1c0,0,0.1,0,0.1,0c0.2-0.1,0.2-0.4,0.3-0.6c0,0-0.1,0-0.1-0.1C97.6,35,97.5,35,97.5,34.8z
				 M100.3,35.6c0,0.1,0,0.2,0.1,0.3c0,0,0.1,0,0.1,0c0-0.1,0-0.2-0.1-0.3L100.3,35.6z M100.6,34.9c0,0,0.1,0.1,0.1,0.1
				c0,0,0-0.1,0.1-0.1c0.1-0.2,0.1-0.2,0,0c-0.2,0.2,0.1-0.3,0-0.2C100.7,34.7,100.6,34.8,100.6,34.9z M100,35.1
				c0,0.1-0.1,0.2,0,0.2c0,0,0.1,0,0.1,0c0,0,0,0.1,0.1,0.1c0,0-0.1,0-0.1,0.1c0,0.1,0,0.1,0,0.2c0-0.1,0.1-0.2,0.1-0.3
				c0,0,0.1-0.1,0.1-0.1c0.1,0,0.2-0.1,0.3-0.4c0,0,0-0.1,0-0.1c-0.1,0-0.1,0.1-0.2,0.1l0,0l0,0.1l-0.1,0L100,35.1z M99.7,35.2
				c0,0.1,0.1,0.3,0.1,0.3c0.2,0,0.1-0.1,0-0.1c0.1-0.2-0.1,0,0-0.2L99.7,35.2z"/>
			<path class="st0" d="M96.7,36.3C96.7,36.4,96.8,36.3,96.7,36.3l0.2-0.6c0,0.1-0.1,0.1-0.1,0.3C96.7,36.1,96.7,36.2,96.7,36.3z"/>
		</g>
		<g>
			<polygon class="st0" points="90.7,33.6 90.7,33.7 90.7,33.7 			"/>
			<path class="st0" d="M89.7,31l0.4-0.8c0,0.1,0,0.2,0,0.2c0.1,0,0.4-0.2,0.5,0c0,0,0.1-0.1,0.1-0.1c0.1-0.1,0,0.1,0,0.2
				c-0.1,0.3-0.1,0.2-0.2,0.3c0,0-0.1,0.1-0.1,0.2c0,0.1,0,0.2,0,0.3c0,0,0.1-0.1,0.1-0.1c0.2,0.1,0.4-0.7,0.5-0.6
				c0,0,0.1-0.1,0.1-0.1c0.1-0.3,0.2-0.3,0.3-0.3c0,0,0,0.1,0,0.1c0,0,0,0,0-0.1l0-0.1l0-0.1c0,0,0.1-0.1,0.1-0.1
				c0.2,0.2,0.3,0.3,0.5,0.5c0.1,0,0.2,0,0.3,0c0,0,0,0.1,0,0.1c0,0-0.1,0.1-0.1,0.2c0,0,0-0.1,0-0.1c0,0,0,0-0.1,0
				c0,0.1-0.1,0.2-0.1,0.2c0.1,0,0.1,0.1,0.2,0.1c0,0,0.1,0,0.1,0c0,0,0,0.1,0,0.1c0,0-0.1,0.1-0.1,0.1c-0.1-0.1-0.1,0.2-0.1,0.2
				c0.2,0-0.7,1.1-0.1,0.7c0.1,0,0.1,0.2,0.1,0.3c0,0-0.1,0-0.1,0c0,0.1-0.1,0.2-0.1,0.3c0,0,0,0.1,0,0.1c0,0,0.1-0.1,0.1-0.2
				c0,0,0,0,0,0c0,0,0,0,0.1,0c-0.1,0.2-0.1,0.3-0.2,0.4c-0.2,0.3-0.4,0.7-0.5,1.1c0,0-0.1,0.2-0.1,0.1c0-0.2-0.1-0.1-0.2,0
				c0,0-0.1,0-0.1,0c0,0,0.1-0.1,0.1-0.1c0,0,0-0.1,0-0.1c0,0-0.1,0.1-0.1,0.1c0,0-0.1,0-0.1,0l0.1-0.1l0,0c0,0,0,0,0,0.1
				c0,0,0,0,0,0c0,0,0-0.1,0-0.1l0,0l0,0l0,0l-0.1,0.1c0,0-0.1,0-0.1,0c0.1-0.4-0.2-0.2-0.3-0.2c0,0,0,0,0-0.1c0,0,0,0,0,0
				c0,0,0,0,0,0c0,0,0-0.1,0-0.1c0,0,0,0,0,0c0,0,0,0,0,0c0-0.1-0.3,0.4-0.1-0.1l-0.3,0l0,0.1l-0.1,0.1c0,0-0.1,0-0.1,0.1
				c-0.2,0.1-0.1-0.2-0.2-0.2c0,0-0.1,0.1-0.1,0.1c0,0-0.1,0-0.1,0c-0.2,0.1,0,0.1,0,0.1c0,0,0,0,0,0l-0.1,0c0,0,0-0.1,0-0.1
				c0,0,0-0.1,0.1-0.1c0,0-0.1,0-0.1,0.1c0,0-0.1,0.1-0.1,0.1c0-0.1-0.2,0.1-0.1-0.2c0,0,0,0,0-0.1c0,0,0,0,0,0l-0.1,0.2
				c0-0.1,0-0.2,0.1-0.3c0-0.1,0.1-0.1,0.2-0.2c0-0.1,0-0.2,0.1-0.2c0-0.1,0-0.1,0-0.2c0-0.1,0-0.1,0-0.1l0.5-1.1c0,0.1,0,0.2,0,0.1
				l0,0.1l0.1-0.1C89.6,31.4,89.7,31.1,89.7,31z M91,31.8C91.1,31.8,91.1,31.9,91,31.8c0.1,0.1,0.2,0,0.3-0.1c0-0.1,0-0.1,0-0.1
				C91.2,31.7,91.1,31.7,91,31.8z M90.5,32C90.5,32,90.5,32,90.5,32l0.4-0.1c0,0,0.1,0,0.1,0l-0.1-0.1c-0.1,0.2,0.1-0.4-0.1-0.1
				C90.7,31.8,90.6,31.9,90.5,32z M89.8,31.3c-0.1,0.2,0,0.2,0,0.2c0,0.2,0.1-0.2,0.1-0.1l0-0.2C89.9,31.2,89.8,31.2,89.8,31.3z"/>
			<path class="st0" d="M90.2,30c0.1-0.1,0.1,0.2,0.2-0.1l-0.1,0.1c0,0,0,0,0,0c0.2-0.3,0-0.3,0.1-0.4l0-0.1c0,0.1-0.1,0.1-0.2,0.3
				c-0.1,0.1,0-0.1,0-0.2l-0.1-0.1L90.2,30C90.1,30.1,90.1,30,90.2,30z"/>
			<path class="st0" d="M90.5,30c0.1,0.1,0.2,0.2,0.3-0.4c-0.1,0.2-0.2,0.4-0.3,0.3C90.5,29.9,90.5,30,90.5,30z"/>
			<polygon class="st0" points="90.8,29.6 90.8,29.6 90.8,29.6 			"/>
			<path class="st0" d="M90.9,29.4c0,0.1-0.1,0.1-0.1,0.2L90.9,29.4L90.9,29.4z"/>
			<path class="st0" d="M90.8,30.1C90.8,30.1,90.9,30.1,90.8,30.1c0-0.1,0-0.2,0-0.3c0,0-0.1,0-0.1,0C90.7,30.1,90.8,30,90.8,30.1z"
				/>
		</g>
		<g>
			<path class="st0" d="M86.6,29.9c0.1-0.3,0.2-0.5,0.3-0.3c0,0.1,0,0.1,0.1,0.2c0,0,0.1,0,0.1-0.1c0-0.5,0.3-0.1,0.4-0.6
				c0.1,0.1,0.3-0.3,0.5-0.3c-0.1,0.3,0.1,0.1,0,0.3c0,0.1-0.2,0.1-0.2,0.3c0,0,0,0-0.1,0l-0.1-0.1c0,0,0,0.1-0.1,0.1l0.2,0.2
				l0.1-0.3c0.1,0,0.2,0,0.3,0.1c0.1,0.1,0.2,0.2,0.4,0.2c0.1,0,0.1-0.1,0.1,0.1c0,0,0.1,0.1,0.1-0.1c0-0.1,0-0.1,0-0.2c0,0,0,0,0,0
				c0,0,0.1-0.1,0.1,0c0.2,0.2,0.3,0.3,0.6,0.1c0,0,0,0,0,0c-0.1,0.2,0,0.2,0.1,0.1l0,0c-0.1,0,0-0.2,0-0.3l-0.2,0.1
				c0.1-0.2,0.2-0.3,0.3-0.2c0,0,0,0.1,0,0.2c0.1,0.1,0.2,0.2,0.3,0.3c0-0.1,0-0.2,0.1-0.2c0.1-0.2,0.1,0.1,0.1,0.1
				c0.2-0.2,0.2-0.2,0,0.2c0,0,0,0.1,0,0.1c0.2-0.2,0.1,0.2,0.2,0c0,0,0-0.1,0-0.1c0,0,0,0,0,0l0,0.2L90,30.3c0-0.1-0.1-0.2-0.1-0.3
				c-0.1,0-0.2,0.1-0.3,0.1c0.1,0.1,0.2,0.2,0.3,0.3c0,0,0.1-0.1,0.1-0.1l-1.3,2.9c0,0-0.1,0-0.1,0c0,0,0,0-0.1,0l0,0.1l0,0.1
				c0,0,0,0-0.1,0c0,0-0.1,0-0.1,0c0.3-0.6-0.1-0.2-0.1-0.4c0-0.1-0.1-0.2-0.1-0.2c0,0-0.1,0-0.1,0c0,0,0,0.1,0,0.1
				c0,0-0.1,0.1-0.1,0.1c0,0-0.1-0.1-0.1-0.1c-0.2,0-0.4,0-0.6-0.1c-0.1,0-0.1-0.1-0.2-0.1c-0.2,0-0.4-0.2-0.5-0.4
				c0,0.1-0.1,0.1-0.1,0.2c0,0.1-0.1,0.2-0.1,0.2c0,0,0-0.2,0-0.2c0-0.1,0-0.3-0.2-0.1c0,0-0.1-0.1-0.1-0.1c-0.1,0.2-0.1,0.2,0,0
				c-0.2,0.1,0-0.3,0-0.5c0.1-0.3,0.1-0.3,0-0.3c0,0,0-0.1,0-0.1c0,0,0.1,0,0.1,0c0,0,0.1-0.1,0.1-0.1c0-0.1,0-0.1,0-0.2
				c0,0,0-0.1-0.1-0.1c0,0,0.1,0,0.1,0c0.2-0.1,0.2-0.4,0.3-0.6c0,0-0.1,0-0.1-0.1C86.7,30.1,86.5,30.1,86.6,29.9z M89.3,30.6
				c0,0.1,0,0.2,0.1,0.3c0,0,0.1,0,0.1,0c0-0.1,0-0.2-0.1-0.3L89.3,30.6z M89.6,29.8c0,0,0.1,0.1,0.2,0.1c0,0,0-0.1,0.1-0.1
				c0.1-0.2,0.1-0.2,0,0c-0.2,0.2,0.1-0.3,0-0.2C89.7,29.6,89.7,29.7,89.6,29.8z M89,30.1c0,0.1,0,0.2,0,0.2c0,0,0.1,0,0.1,0
				c0,0,0,0.1,0.1,0.1c0,0-0.1,0-0.1,0.1c0,0.1,0,0.1,0,0.2c0-0.1,0.1-0.2,0.1-0.3c0,0,0.1-0.1,0.1-0.1c0.1,0,0.2-0.1,0.2-0.4
				c0,0,0-0.1,0-0.1c-0.1,0-0.1,0.1-0.2,0.2l0,0l0,0.1l-0.1,0L89,30.1z M88.7,30.3c0,0.1,0.1,0.3,0.2,0.3c0.2,0,0.1-0.1,0-0.1
				c0.1-0.2-0.1,0,0-0.2L88.7,30.3z"/>
			<path class="st0" d="M85.8,31.5C85.8,31.5,85.9,31.4,85.8,31.5l0.1-0.6c0,0.1-0.1,0.1-0.1,0.3C85.8,31.2,85.8,31.3,85.8,31.5z"/>
		</g>
		<g>
			<polygon class="st0" points="79.7,28.9 79.7,29 79.7,29 			"/>
			<path class="st0" d="M78.6,26.3l0.3-0.9c0,0.1,0,0.2,0,0.2c0.1,0,0.4-0.2,0.5,0c0,0,0.1-0.1,0.1-0.1c0.1-0.1,0,0.1,0,0.2
				c0,0.3-0.1,0.2-0.2,0.3c0,0-0.1,0.1-0.1,0.2c0,0.1,0,0.2,0,0.3c0-0.1,0.1-0.1,0.1-0.1c0.2,0.1,0.3-0.7,0.5-0.6
				c0,0,0.1-0.1,0.1-0.1c0.1-0.4,0.2-0.3,0.3-0.3c0,0,0,0.1,0,0.1c0,0,0-0.1,0-0.1l0-0.1l0-0.1c0,0,0.1-0.1,0.1-0.1
				c0.2,0.1,0.3,0.3,0.5,0.5c0.1,0,0.2,0,0.3,0c0,0,0,0.1,0,0.1c0,0-0.1,0.1-0.1,0.2c0,0,0-0.1,0-0.1c0,0,0,0-0.1,0
				c0,0.1-0.1,0.2-0.1,0.2c0.1,0,0.1,0.1,0.2,0.1c0,0,0.1,0,0.1,0c0,0,0,0.1,0,0.1c0,0-0.1,0.1-0.1,0.1c-0.1-0.1,0,0.2-0.1,0.2
				c0.2,0-0.6,1.1-0.1,0.7c0.1,0,0.1,0.2,0.1,0.3c0,0-0.1,0-0.1,0c0,0.1-0.1,0.2-0.1,0.3c0,0,0,0.1,0,0.1c0,0,0.1-0.1,0.1-0.2
				c0,0,0,0,0,0c0,0,0,0,0.1,0c-0.1,0.2-0.1,0.3-0.2,0.5c-0.2,0.3-0.3,0.7-0.5,1.1c0,0-0.1,0.2-0.1,0.1c0-0.2-0.1-0.1-0.2,0
				c0,0-0.1,0-0.1,0c0,0,0.1-0.1,0.1-0.1c0,0,0-0.1,0-0.1c0,0-0.1,0.1-0.1,0.1c0,0-0.1,0-0.1,0l0.1-0.2l0,0c0,0,0,0,0,0.1
				c0,0,0,0,0,0c0,0,0-0.1,0-0.1l0,0l0,0l0,0l-0.1,0.1c0,0-0.1,0-0.1,0c0.1-0.4-0.2-0.2-0.3-0.2c0,0,0,0,0-0.1c0,0,0,0,0,0
				c0,0,0,0,0,0c0,0,0-0.1,0-0.1c0,0,0,0,0,0c0,0,0,0,0,0c0-0.1-0.2,0.4-0.1-0.1l-0.3,0l0,0.1l-0.1,0.1c0,0-0.1,0-0.1,0.1
				c-0.2,0.2-0.1-0.2-0.2-0.2c0,0-0.1,0.1-0.1,0.1c0,0-0.1,0-0.1,0c-0.2,0.1,0,0.1,0,0.1c0,0,0,0,0,0L78.1,29c0,0,0-0.1,0-0.1
				c0,0,0-0.1,0.1-0.1c0,0-0.1,0-0.1,0.1c0,0-0.1,0.1-0.1,0.1c0-0.1-0.2,0.1-0.1-0.2c0,0,0,0,0-0.1c0,0,0,0,0,0l-0.1,0.2
				c0-0.1,0-0.2,0.1-0.3c0-0.1,0.1-0.2,0.2-0.2c0-0.1,0-0.2,0-0.3c0-0.1,0-0.1,0-0.2c0-0.1,0-0.1,0-0.1l0.4-1.1c0,0.1,0,0.2,0,0.1
				l0,0.1l0.1-0.2C78.5,26.7,78.6,26.5,78.6,26.3z M80,27.1C80,27.1,80.1,27.2,80,27.1c0.1,0.1,0.2,0,0.3-0.1c0-0.1,0-0.1-0.1-0.1
				C80.1,27,80.1,27,80,27.1z M79.4,27.3C79.5,27.3,79.5,27.3,79.4,27.3l0.4-0.1c0,0,0.1,0,0.1,0L79.8,27c-0.1,0.2,0.1-0.4-0.1-0.1
				C79.7,27.1,79.5,27.2,79.4,27.3z M78.7,26.6c-0.1,0.2,0,0.2,0,0.2c0,0.2,0.1-0.2,0.1-0.2l-0.1-0.2C78.8,26.5,78.8,26.5,78.7,26.6
				z"/>
			<path class="st0" d="M79.1,25.3c0.1-0.1,0.1,0.2,0.2-0.1l0,0.1c0,0,0,0,0,0c0.2-0.3,0-0.3,0.1-0.4l0-0.1c0,0.1-0.1,0.1-0.2,0.3
				c-0.1,0.1,0-0.1,0-0.2l-0.1-0.1L79.1,25.3C79,25.4,79,25.4,79.1,25.3z"/>
			<path class="st0" d="M79.4,25.3c0.1,0.1,0.2,0.2,0.3-0.4c-0.1,0.2-0.2,0.4-0.3,0.3C79.4,25.2,79.4,25.3,79.4,25.3z"/>
			<polygon class="st0" points="79.7,24.9 79.7,24.9 79.7,24.9 			"/>
			<path class="st0" d="M79.8,24.7c0,0.1-0.1,0.1-0.1,0.2L79.8,24.7L79.8,24.7z"/>
			<path class="st0" d="M79.8,25.4C79.8,25.4,79.8,25.4,79.8,25.4c0-0.1,0-0.2,0-0.3c0,0-0.1,0-0.1,0C79.6,25.4,79.7,25.3,79.8,25.4
				z"/>
		</g>
		<g>
			<path class="st0" d="M75.5,25.3c0.1-0.3,0.2-0.5,0.2-0.3c0,0.1,0.1,0.1,0.1,0.2c0,0,0.1,0,0.1-0.1c0-0.5,0.3-0.1,0.3-0.6
				c0.1,0.1,0.3-0.4,0.5-0.3c-0.1,0.3,0.1,0.1,0,0.3c0,0.1-0.2,0.1-0.1,0.3c0,0,0,0-0.1,0l-0.1-0.1c0,0,0,0.1-0.1,0.1l0.2,0.2
				l0.1-0.3c0.1,0,0.2,0,0.3,0c0.1,0.1,0.2,0.2,0.4,0.2c0.1,0,0.1-0.1,0.1,0.1c0,0,0.1,0.1,0.1-0.2c0-0.1,0-0.1,0-0.2c0,0,0,0,0,0
				c0,0,0.1-0.1,0.1,0c0.2,0.2,0.3,0.3,0.6,0c0,0,0,0,0,0c-0.1,0.2,0,0.2,0.1,0.1l0,0c-0.1,0,0-0.2,0-0.3L78,24.6
				c0.1-0.2,0.2-0.3,0.3-0.3c0,0,0,0.1,0.1,0.2c0.1,0.1,0.2,0.2,0.3,0.2c0-0.1,0-0.2,0.1-0.2c0.1-0.2,0.1,0.1,0.1,0.1
				c0.2-0.2,0.2-0.2,0,0.2c0,0,0,0.1,0,0.1c0.2-0.2,0.1,0.2,0.2,0c0,0,0-0.1,0-0.1c0,0,0,0,0,0l0,0.2l-0.2,0.5
				c0-0.1-0.1-0.2-0.1-0.3c-0.1,0-0.2,0.1-0.3,0.1c0.1,0.1,0.2,0.2,0.3,0.3c0,0,0.1-0.1,0.1-0.1l-1.2,2.9c0,0-0.1,0-0.1,0
				c0,0,0,0-0.1,0l0,0.1l0,0.1c0,0,0,0-0.1,0c0,0-0.1,0-0.1,0c0.3-0.6-0.1-0.2-0.1-0.4c0-0.1-0.1-0.2-0.1-0.2c0,0-0.1,0-0.1,0
				c0,0,0,0.1,0,0.1c0,0-0.1,0.1-0.1,0.1c0,0-0.1-0.1-0.1-0.1c-0.2,0-0.4,0-0.6-0.1c-0.1,0-0.1-0.1-0.2-0.1c-0.2,0-0.4-0.2-0.5-0.4
				c0,0.1,0,0.1-0.1,0.2c0,0.1-0.1,0.2-0.1,0.2c0,0,0-0.2,0-0.2c-0.1-0.1,0-0.3-0.2-0.1c0,0-0.1-0.1-0.1-0.1c-0.1,0.2-0.1,0.2-0.1,0
				c-0.2,0.1-0.1-0.3,0-0.5c0.1-0.3,0.1-0.3,0-0.3c0,0,0-0.1,0-0.1c0,0,0.1,0,0.1,0c0,0,0.1-0.1,0.1-0.1c0-0.1,0-0.1,0-0.2
				c0,0,0-0.1-0.1-0.1c0,0,0.1,0,0.1,0c0.2-0.1,0.2-0.4,0.3-0.6c0,0-0.1,0-0.1-0.1C75.6,25.5,75.4,25.5,75.5,25.3z M78.3,25.9
				c0,0.1,0,0.2,0.1,0.3c0,0,0.1,0,0.1,0c0-0.1-0.1-0.2-0.1-0.3L78.3,25.9z M78.5,25.2c0.1,0,0.1,0.1,0.2,0.1c0,0,0-0.1,0.1-0.1
				c0.1-0.2,0.1-0.2,0,0c-0.2,0.2,0.1-0.3,0-0.2C78.6,25,78.6,25.1,78.5,25.2z M78,25.4c0,0.1,0,0.2,0,0.2c0,0,0.1,0,0.1,0
				c0,0,0,0.1,0.1,0.1c0,0-0.1,0-0.1,0.2c0,0.1,0,0.1,0.1,0.2c0-0.1,0-0.2,0.1-0.3c0,0,0.1-0.1,0.1-0.1c0.1,0,0.2-0.1,0.2-0.4
				c0,0,0-0.1,0-0.1c-0.1,0-0.1,0.1-0.2,0.2l0,0l0,0.1l-0.1,0L78,25.4z M77.6,25.6c0.1,0.1,0.1,0.3,0.2,0.3c0.2,0,0.1-0.1,0-0.1
				c0.1-0.2-0.1,0,0-0.2L77.6,25.6z"/>
			<path class="st0" d="M74.8,26.9C74.8,26.9,74.8,26.9,74.8,26.9l0.1-0.6c0,0.1-0.1,0.2-0.1,0.3C74.8,26.6,74.8,26.8,74.8,26.9z"/>
		</g>
		<g>
			<polygon class="st0" points="68.6,24.6 68.6,24.6 68.6,24.6 			"/>
			<path class="st0" d="M67.4,22l0.3-0.9c0,0.1,0,0.2,0,0.2c0.1,0,0.4-0.2,0.5,0c0,0,0.1-0.1,0.1-0.1c0.1-0.1,0,0.1,0,0.2
				c0,0.3-0.1,0.2-0.2,0.3c0,0-0.1,0.1-0.1,0.2c0,0.1,0,0.2,0,0.3c0-0.1,0.1-0.1,0.1-0.1c0.2,0.1,0.3-0.7,0.5-0.6
				c0,0,0.1-0.1,0.1-0.1c0.1-0.4,0.2-0.3,0.3-0.3c0,0,0,0,0,0.1c0,0,0-0.1,0-0.1l0-0.1l0-0.1c0,0,0.1-0.1,0.1-0.1
				c0.2,0.1,0.3,0.3,0.5,0.4c0.1,0,0.2,0,0.3,0c0,0,0,0.1,0,0.1c0,0-0.1,0.1-0.1,0.2c0,0,0-0.1,0-0.1c0,0,0,0-0.1,0
				c0,0.1-0.1,0.2-0.1,0.2c0.1,0,0.1,0.1,0.2,0.1c0,0,0.1,0,0.1,0c0,0,0,0.1,0,0.1c0,0-0.1,0.1-0.1,0.1c-0.1,0,0,0.2-0.1,0.2
				c0.2,0-0.6,1.1,0,0.7c0.1,0,0.1,0.2,0.1,0.3c0,0-0.1,0-0.1,0c0,0.1-0.1,0.2-0.1,0.3c0,0,0,0.1,0,0c0,0,0.1-0.1,0.1-0.2
				c0,0,0,0,0,0c0,0,0,0,0.1,0c-0.1,0.2-0.1,0.3-0.2,0.5c-0.2,0.3-0.3,0.7-0.4,1.1c0,0-0.1,0.2-0.1,0.2c0-0.2-0.1-0.1-0.2,0
				c0,0-0.1,0-0.1,0c0,0,0.1-0.1,0.1-0.1c0,0,0-0.1,0-0.1c0,0-0.1,0.1-0.1,0.2c0,0-0.1,0-0.1,0l0.1-0.2l0,0c0,0,0,0,0,0.1
				c0,0,0,0,0,0c0,0,0-0.1,0-0.1l0,0l0,0l0,0l-0.1,0.1c0,0-0.1,0-0.1,0c0-0.4-0.2-0.2-0.3-0.2c0,0,0,0,0-0.1c0,0,0,0,0,0
				c0,0,0,0,0,0c0,0,0-0.1,0-0.1c0,0,0,0,0,0c0,0,0,0,0,0c0-0.1-0.2,0.4-0.1,0l-0.3,0l0.1,0.1l-0.1,0.1c0,0-0.1,0-0.1,0.1
				c-0.2,0.2-0.1-0.2-0.3-0.2c0,0,0,0.1-0.1,0.1c0,0-0.1,0-0.1,0c-0.2,0.1,0,0.1,0,0.1c0,0,0,0,0,0l-0.1,0.1c0,0,0-0.1,0-0.1
				c0,0,0-0.1,0.1-0.1c0,0-0.1,0-0.1,0.1c0,0-0.1,0.1-0.1,0.1c0-0.1-0.2,0.1-0.1-0.2c0,0,0,0,0-0.1c0,0,0,0,0,0l-0.1,0.2
				c0-0.1,0-0.2,0.1-0.3c0-0.1,0.1-0.2,0.1-0.2c0-0.1,0-0.2,0-0.3c0-0.1,0-0.1,0-0.2c0-0.1,0-0.1,0-0.1l0.4-1.1c0,0.1,0,0.2,0,0.1
				l0,0.1l0.1-0.2C67.4,22.3,67.4,22.1,67.4,22z M68.8,22.7c0,0,0.1,0.1,0.1,0.1c0,0,0.1-0.1,0.2-0.2c0-0.1,0-0.1-0.1-0.1
				C69,22.6,68.9,22.6,68.8,22.7z M68.3,22.9C68.3,22.9,68.3,22.9,68.3,22.9l0.4-0.1c0,0,0.1,0,0.1,0l-0.1-0.1
				c-0.1,0.2,0.1-0.4-0.1-0.1C68.5,22.7,68.4,22.8,68.3,22.9z M67.6,22.3c-0.1,0.2,0,0.2,0.1,0.2c0,0.2,0.1-0.2,0.1-0.2l-0.1-0.2
				C67.6,22.1,67.6,22.2,67.6,22.3z"/>
			<path class="st0" d="M67.9,21c0.1-0.1,0.1,0.2,0.2-0.1l0,0.1c0,0,0,0,0,0c0.2-0.3,0-0.3,0-0.4l0-0.1c0,0.1-0.1,0.1-0.1,0.3
				c-0.1,0.1,0-0.1,0-0.2L68,20.6L67.9,21C67.8,21,67.8,21,67.9,21z"/>
			<path class="st0" d="M68.2,20.9c0.1,0.1,0.2,0.2,0.3-0.4c-0.1,0.2-0.2,0.4-0.3,0.3C68.2,20.8,68.2,20.9,68.2,20.9z"/>
			<polygon class="st0" points="68.5,20.5 68.5,20.5 68.5,20.5 			"/>
			<path class="st0" d="M68.6,20.3c0,0.1,0,0.1-0.1,0.2L68.6,20.3L68.6,20.3z"/>
			<path class="st0" d="M68.5,21C68.5,21,68.6,21,68.5,21c0-0.1,0-0.2,0-0.3c0,0-0.1,0-0.1,0C68.4,21,68.5,21,68.5,21z"/>
		</g>
		<g>
			<path class="st0" d="M64.3,21.1c0-0.3,0.2-0.5,0.2-0.3c0,0.1,0.1,0.1,0.1,0.2c0,0,0.1,0,0.1-0.1c0-0.5,0.3-0.1,0.3-0.6
				c0.1,0.1,0.3-0.4,0.5-0.4c-0.1,0.3,0.1,0.1,0,0.3c0,0.1-0.2,0.1-0.1,0.3c0,0,0,0-0.1,0l-0.1-0.1c0,0,0,0.1,0,0.1l0.2,0.2l0.1-0.3
				c0.1,0,0.2,0,0.3,0c0.1,0.1,0.2,0.2,0.4,0.2c0.1,0,0.1-0.1,0.1,0.1c0,0,0.1,0.1,0.1-0.2c0-0.1,0-0.1,0-0.2c0,0,0,0,0,0
				c0,0,0.1-0.1,0.1,0c0.2,0.2,0.3,0.3,0.6,0c0,0,0,0,0,0c0,0.2,0,0.2,0.1,0.1l0,0c-0.1,0,0-0.2,0-0.3l-0.2,0.1
				C66.9,20.1,67,20,67,20c0,0,0,0.1,0.1,0.2c0.1,0.1,0.2,0.2,0.3,0.2c0-0.1,0-0.2,0.1-0.2c0.1-0.2,0.1,0.1,0.1,0.1
				c0.2-0.2,0.2-0.2,0,0.2c0,0,0,0.1,0,0.1c0.1-0.2,0.1,0.2,0.2,0c0,0,0-0.1,0-0.1c0,0,0,0,0,0l0,0.2l-0.2,0.5
				c-0.1-0.1-0.1-0.2-0.2-0.3c-0.1,0-0.2,0.1-0.3,0.1c0.1,0.1,0.2,0.2,0.3,0.2c0,0,0.1-0.1,0.1-0.1l-1.1,3c0,0-0.1,0-0.1,0
				c0,0,0,0-0.1,0l0,0.1l0,0.1c0,0,0,0-0.1,0c0,0-0.1,0-0.1,0c0.3-0.6-0.1-0.2-0.1-0.4c0-0.1-0.1-0.2-0.1-0.2c0,0-0.1,0-0.1,0
				c0,0,0,0.1,0,0.1c0,0-0.1,0.1-0.1,0.1c0,0-0.1-0.1-0.1-0.1c-0.2,0-0.4,0-0.6-0.1c-0.1,0-0.1-0.1-0.2-0.1c-0.2,0-0.4-0.2-0.5-0.4
				c0,0.1,0,0.1-0.1,0.2c0,0.1-0.1,0.2-0.1,0.2c0,0,0-0.2,0-0.2c-0.1-0.1-0.1-0.3-0.2-0.1c0,0-0.1-0.1-0.1-0.1
				c-0.1,0.2-0.1,0.2-0.1,0c-0.2,0.1-0.1-0.3,0-0.5c0.1-0.3,0.1-0.3,0-0.3c0,0,0-0.1,0-0.1c0,0,0.1,0,0.1,0c0,0,0.1-0.1,0.1-0.1
				c0-0.1,0-0.1,0-0.2c0,0,0-0.1-0.1-0.1c0,0,0.1,0,0.1,0c0.2-0.1,0.2-0.4,0.3-0.6c0,0-0.1,0-0.1-0.1C64.4,21.2,64.2,21.2,64.3,21.1
				z M67.1,21.6c0,0.1,0.1,0.2,0.1,0.3c0,0,0.1,0,0.1,0c0-0.1-0.1-0.2-0.1-0.3L67.1,21.6z M67.3,20.8c0.1,0,0.1,0.1,0.2,0.1
				c0,0,0-0.1,0.1-0.1c0.1-0.2,0.1-0.2,0,0c-0.1,0.2,0.1-0.3,0-0.2C67.4,20.6,67.4,20.7,67.3,20.8z M66.7,21.1c0,0.1,0,0.2,0,0.2
				c0,0,0.1,0,0.1,0c0,0,0,0.1,0.1,0.1c0,0-0.1,0-0.1,0.2c0,0.1,0,0.1,0.1,0.2c0-0.1,0-0.2,0.1-0.3c0,0,0.1-0.1,0.1-0.1
				c0.1,0,0.2-0.1,0.2-0.4c0,0,0-0.1,0-0.1c-0.1,0-0.1,0.1-0.2,0.2l0,0l0,0.1l-0.1,0L66.7,21.1z M66.4,21.3c0.1,0.1,0.1,0.3,0.2,0.3
				c0.2,0,0.1-0.1,0-0.1c0.1-0.2-0.1,0,0-0.2L66.4,21.3z"/>
			<path class="st0" d="M63.6,22.6C63.6,22.7,63.6,22.6,63.6,22.6l0.1-0.6c0,0.1-0.1,0.2-0.1,0.3C63.6,22.4,63.6,22.5,63.6,22.6z"/>
		</g>
		<g>
			<polygon class="st0" points="57.3,20.5 57.3,20.5 57.3,20.5 			"/>
			<path class="st0" d="M56.1,17.9l0.3-0.9c0,0.1,0,0.2,0,0.2c0.1,0,0.4-0.2,0.5,0c0,0,0.1-0.1,0.1-0.1c0.1-0.1,0,0.1,0,0.2
				c0,0.3-0.1,0.3-0.2,0.3c0,0-0.1,0.1-0.1,0.2c0,0.1,0,0.2,0,0.3c0-0.1,0.1-0.1,0.1-0.1c0.2,0.1,0.3-0.7,0.5-0.6
				c0,0,0.1-0.1,0.1-0.1c0.1-0.4,0.2-0.3,0.3-0.3c0,0,0,0,0,0.1c0,0,0-0.1,0-0.1l0-0.1l0-0.1c0,0,0.1-0.1,0.1-0.1
				c0.2,0.1,0.4,0.3,0.5,0.4c0.1,0,0.2,0,0.3,0c0,0,0,0.1,0.1,0.1c0,0,0,0.1-0.1,0.2c0,0,0-0.1,0-0.1c0,0,0,0-0.1,0
				c0,0.1-0.1,0.2,0,0.2c0.1,0,0.1,0.1,0.2,0.1c0,0,0.1,0,0.1,0c0,0,0,0.1,0,0.1c0,0-0.1,0.1-0.1,0.1c-0.1,0,0,0.2-0.1,0.2
				c0.2,0-0.6,1.1,0,0.7c0.1,0,0.1,0.2,0.1,0.3c0,0-0.1,0-0.1,0c0,0.1-0.1,0.2-0.1,0.3c0,0,0,0.1,0,0c0,0,0.1-0.1,0.1-0.2
				c0,0,0,0,0,0c0,0,0,0,0.1,0c-0.1,0.2-0.1,0.3-0.2,0.5c-0.2,0.4-0.3,0.7-0.4,1.1c0,0-0.1,0.2-0.1,0.2c0-0.2-0.1-0.1-0.2,0
				c0,0-0.1,0-0.1,0c0,0,0.1-0.1,0.1-0.1c0,0,0-0.1,0-0.1c0,0-0.1,0.1-0.1,0.2c0,0-0.1,0-0.1,0l0.1-0.2l0,0c0,0,0,0,0,0.1
				c0,0,0,0,0,0c0,0,0-0.1,0-0.1l0,0l0,0l0,0l-0.1,0.1c0,0-0.1,0.1-0.1,0c0-0.4-0.2-0.2-0.3-0.2c0,0,0,0,0-0.1c0,0,0,0,0,0
				c0,0,0,0,0,0c0,0,0-0.1,0-0.1c0,0,0,0,0,0c0,0,0,0,0,0c0-0.1-0.2,0.4-0.1,0l-0.3,0.1l0.1,0.1l-0.1,0.1c0,0-0.1,0-0.1,0.1
				c-0.2,0.2-0.2-0.2-0.3-0.2c0,0,0,0.1-0.1,0.1c0,0-0.1,0-0.1,0c-0.2,0.1,0,0.1,0,0.1c0,0,0,0,0,0l-0.1,0.1c0,0,0-0.1,0-0.1
				c0,0,0-0.1,0.1-0.1c0,0-0.1,0-0.1,0.1c0,0-0.1,0.1-0.1,0.1c0-0.1-0.2,0.1-0.1-0.2c0,0,0,0,0-0.1c0,0,0,0,0,0l-0.1,0.2
				c0-0.1,0-0.2,0.1-0.3c0-0.1,0.1-0.2,0.1-0.2c0-0.1,0-0.2,0-0.3c0-0.1,0-0.1,0-0.2c0-0.1,0-0.1,0-0.1l0.4-1.1c0,0.1,0,0.2,0,0.1
				l0,0.1l0.1-0.2C56.1,18.3,56.1,18.1,56.1,17.9z M57.6,18.6c0,0,0.1,0.1,0.1,0.1c0,0,0.1-0.1,0.2-0.2c0-0.1-0.1-0.1-0.1-0.1
				C57.7,18.5,57.6,18.5,57.6,18.6z M57,18.8C57,18.8,57,18.8,57,18.8l0.4-0.1c0,0,0.1,0,0.1,0l-0.1-0.1c-0.1,0.2,0.1-0.4-0.1-0.1
				C57.2,18.6,57.1,18.7,57,18.8z M56.3,18.2c-0.1,0.3,0,0.2,0.1,0.2c0,0.2,0.1-0.2,0.1-0.2L56.4,18C56.3,18.1,56.3,18.1,56.3,18.2z
				"/>
			<path class="st0" d="M56.5,16.9c0.1-0.1,0.1,0.2,0.2-0.1l0,0.1c0,0,0,0,0,0c0.2-0.3,0-0.3,0-0.4l0-0.1c0,0.1-0.1,0.1-0.1,0.3
				c-0.1,0.1,0-0.1,0-0.2l-0.1-0.1L56.5,16.9C56.5,16.9,56.5,16.9,56.5,16.9z"/>
			<path class="st0" d="M56.9,16.8c0.1,0.1,0.2,0.1,0.3-0.4c-0.1,0.2-0.2,0.4-0.3,0.3C56.9,16.7,56.9,16.8,56.9,16.8z"/>
			<polygon class="st0" points="57.2,16.4 57.2,16.4 57.2,16.4 			"/>
			<path class="st0" d="M57.2,16.2c0,0.1,0,0.1-0.1,0.2L57.2,16.2L57.2,16.2z"/>
			<path class="st0" d="M57.2,16.9C57.2,16.9,57.3,16.9,57.2,16.9c0-0.1,0-0.2,0-0.3c0,0-0.1,0-0.1,0C57.1,16.9,57.2,16.9,57.2,16.9
				z"/>
		</g>
		<g>
			<path class="st0" d="M52.9,17.1c0-0.3,0.2-0.5,0.2-0.3c0,0.1,0.1,0.1,0.1,0.2c0,0,0.1,0,0.1-0.1c0-0.5,0.3-0.1,0.3-0.6
				c0.1,0.1,0.3-0.4,0.4-0.4c-0.1,0.3,0.1,0.1,0,0.3c0,0.1-0.2,0.1-0.1,0.3c0,0,0,0-0.1,0l-0.1-0.1c0,0,0,0.1,0,0.1l0.2,0.2l0.1-0.3
				c0.1,0,0.2,0,0.3,0c0.1,0.1,0.2,0.2,0.4,0.1c0.1,0,0.1-0.1,0.1,0.1c0,0,0.1,0.1,0.1-0.2c0-0.1,0-0.1,0-0.2c0,0,0,0,0,0
				c0,0,0.1-0.1,0.1,0c0.2,0.2,0.3,0.3,0.6,0c0,0,0,0,0,0c0,0.2,0,0.2,0.1,0.1l0,0c-0.1,0,0-0.2,0-0.3l-0.2,0.1
				c0.1-0.2,0.2-0.3,0.2-0.3c0,0,0,0.1,0.1,0.2c0.1,0.1,0.2,0.2,0.3,0.2c0-0.1,0-0.2,0.1-0.2c0.1-0.2,0.1,0.1,0.1,0.1
				c0.2-0.2,0.2-0.2,0.1,0.2c0,0,0,0.1,0,0.1c0.1-0.2,0.1,0.2,0.2,0c0,0,0-0.1,0-0.1c0,0,0,0,0,0l0,0.2l-0.2,0.5
				c-0.1-0.1-0.1-0.2-0.2-0.3c-0.1,0-0.2,0.1-0.3,0.1c0.1,0.1,0.2,0.2,0.3,0.2c0,0,0.1-0.1,0.1-0.1l-1,3c0,0-0.1,0-0.1,0
				c0,0,0,0-0.1,0l0,0.1l0,0.1c0,0,0,0-0.1,0c0,0-0.1,0-0.1,0c0.2-0.6-0.1-0.2-0.1-0.4c0-0.1-0.1-0.2-0.1-0.2c0,0-0.1,0-0.1,0
				c0,0,0,0.1,0,0.1c0,0-0.1,0.1-0.1,0.1c0,0-0.1-0.1-0.1-0.1c-0.2,0-0.4,0-0.6-0.1c-0.1,0-0.1-0.1-0.2-0.1c-0.2,0-0.4-0.1-0.5-0.4
				c0,0.1,0,0.1-0.1,0.2c0,0.1-0.1,0.2-0.1,0.2c0,0,0-0.2,0-0.2c-0.1-0.1-0.1-0.3-0.2-0.1c0,0-0.1-0.1-0.1-0.1
				c-0.1,0.2-0.1,0.2-0.1,0c-0.2,0.1-0.1-0.3,0-0.5c0.1-0.3,0-0.3,0-0.3c0,0,0-0.1,0-0.1c0,0,0.1,0,0.1,0c0,0,0.1-0.1,0.1-0.1
				c0-0.1,0-0.1,0-0.2c0,0,0-0.1-0.1-0.1c0,0,0.1,0,0.1,0c0.2-0.1,0.2-0.4,0.3-0.6c0,0-0.1,0-0.1-0.1C53,17.3,52.9,17.2,52.9,17.1z
				 M55.8,17.5c0,0.1,0.1,0.2,0.1,0.3c0,0,0.1,0,0.1,0c0-0.1-0.1-0.2-0.1-0.3L55.8,17.5z M56,16.8c0.1,0,0.1,0.1,0.2,0.1
				c0,0,0-0.1,0.1-0.1c0.1-0.2,0.1-0.2,0,0c-0.1,0.2,0.1-0.3,0-0.2C56.1,16.6,56,16.7,56,16.8z M55.4,17.1c0,0.1,0,0.2,0,0.2
				c0,0,0.1,0,0.1,0c0,0,0,0.1,0.1,0.1c0,0-0.1,0-0.1,0.2c0,0.1,0,0.1,0.1,0.2c0-0.1,0-0.2,0.1-0.3c0,0,0.1-0.1,0.1-0.1
				c0.1,0,0.2-0.1,0.2-0.4c0,0,0-0.1,0-0.1c-0.1,0-0.1,0.1-0.2,0.2l0,0l0,0.1l-0.1,0L55.4,17.1z M55.1,17.3c0.1,0.1,0.1,0.3,0.2,0.3
				c0.2,0,0-0.1,0-0.1c0.1-0.2-0.1,0,0-0.2L55.1,17.3z"/>
			<path class="st0" d="M52.3,18.7C52.3,18.7,52.4,18.6,52.3,18.7l0.1-0.6c0,0.1-0.1,0.2-0.1,0.3C52.3,18.4,52.3,18.6,52.3,18.7z"/>
		</g>
		<g>
			<polygon class="st0" points="46,16.6 46,16.7 46,16.7 			"/>
			<path class="st0" d="M44.7,14.1l0.3-0.9c0,0.1,0,0.2,0,0.2c0.1,0,0.4-0.3,0.5-0.1c0,0,0.1-0.1,0.1-0.1c0.1-0.1,0,0.1,0,0.2
				c0,0.3-0.1,0.3-0.2,0.3c0,0-0.1,0.1-0.1,0.2c0,0.1,0,0.2,0,0.3c0-0.1,0.1-0.1,0.1-0.2c0.2,0.1,0.3-0.7,0.4-0.6
				c0,0,0.1-0.1,0.1-0.1c0.1-0.4,0.2-0.3,0.2-0.3c0,0,0,0,0,0.1c0,0,0-0.1,0-0.1l0-0.1l0-0.1c0,0,0.1-0.1,0.1-0.1
				c0.2,0.1,0.4,0.3,0.6,0.4c0.1,0,0.2,0,0.3,0c0,0,0.1,0.1,0.1,0.1c0,0,0,0.1-0.1,0.2c0,0,0-0.1,0-0.1c0,0,0,0-0.1,0
				c0,0.1,0,0.2,0,0.2c0.1,0,0.1,0.1,0.2,0.1c0,0,0.1,0,0.1,0c0,0,0,0.1,0,0.1c0,0-0.1,0.1-0.1,0.1c-0.1,0,0,0.2-0.1,0.2
				c0.2,0-0.6,1.1,0,0.7c0.1,0,0.1,0.2,0.1,0.3c0,0-0.1,0-0.1,0c0,0.1-0.1,0.2-0.1,0.3c0,0,0,0.1,0,0c0,0,0-0.1,0.1-0.2c0,0,0,0,0,0
				c0,0,0,0,0.1,0c0,0.2-0.1,0.3-0.1,0.5c-0.2,0.4-0.3,0.7-0.4,1.1c0,0.1-0.1,0.2-0.1,0.2c0-0.2-0.1-0.1-0.2,0c0,0-0.1,0-0.1,0
				c0,0,0-0.1,0.1-0.1c0,0,0-0.1,0-0.1c0,0-0.1,0.1-0.1,0.2c0,0-0.1,0-0.1,0l0.1-0.2l0,0c0,0,0,0,0,0.1c0,0,0,0,0,0c0,0,0-0.1,0-0.1
				l0,0l0,0l0,0l-0.1,0.1c0,0-0.1,0.1-0.1,0c0-0.4-0.2-0.2-0.3-0.1c0,0,0,0,0-0.1c0,0,0,0,0,0c0,0,0,0,0,0c0,0,0-0.1,0-0.1
				c0,0,0,0,0,0c0,0,0,0,0,0c0-0.1-0.2,0.4-0.1,0l-0.2,0.1l0.1,0.1l-0.1,0.1c0,0-0.1,0-0.1,0.1c-0.2,0.2-0.2-0.2-0.3-0.2
				c0,0,0,0.1-0.1,0.1c0,0-0.1,0-0.1,0c-0.2,0.1,0,0.1,0,0.1c0,0,0,0,0,0l-0.1,0.1c0,0,0-0.1,0-0.1c0,0,0-0.1,0.1-0.1
				c0,0-0.1,0-0.1,0.1c0,0-0.1,0.1-0.1,0.1c0-0.1-0.2,0.1-0.1-0.2c0,0,0,0,0-0.1c0,0,0,0,0,0l-0.1,0.2c0-0.1,0-0.2,0.1-0.3
				c0-0.1,0.1-0.2,0.1-0.3c0-0.1,0-0.2,0-0.3c0-0.1,0-0.1,0-0.2c0-0.1,0-0.1,0-0.1l0.4-1.1c0,0.1,0,0.2,0,0.1l0,0.1l0.1-0.2
				C44.7,14.5,44.7,14.3,44.7,14.1z M46.2,14.8c0,0,0.1,0.1,0.1,0.1c0,0,0.1-0.1,0.2-0.2c0-0.1-0.1-0.1-0.1-0.1
				C46.3,14.6,46.2,14.7,46.2,14.8z M45.6,15C45.6,15,45.6,15,45.6,15l0.4-0.1c0,0,0.1,0,0.1,0L46,14.7c-0.1,0.2,0.1-0.4-0.1-0.1
				C45.8,14.8,45.7,14.9,45.6,15z M44.9,14.4c-0.1,0.3,0,0.2,0.1,0.2c0,0.2,0.1-0.2,0.1-0.2L45,14.2C44.9,14.3,44.9,14.3,44.9,14.4z
				"/>
			<path class="st0" d="M45.1,13.1c0.1-0.1,0.1,0.2,0.2-0.1l0,0.1c0,0,0,0,0,0c0.2-0.3,0-0.3,0-0.4l0-0.1c0,0.1-0.1,0.1-0.1,0.3
				c-0.1,0.1,0-0.1,0-0.2l-0.1-0.1L45.1,13.1C45.1,13.1,45.1,13.1,45.1,13.1z"/>
			<path class="st0" d="M45.5,13c0.1,0.1,0.2,0.1,0.3-0.4c-0.1,0.2-0.2,0.4-0.3,0.3C45.5,12.9,45.4,13,45.5,13z"/>
			<polygon class="st0" points="45.7,12.6 45.7,12.6 45.7,12.6 			"/>
			<path class="st0" d="M45.8,12.4c0,0.1,0,0.1-0.1,0.2L45.8,12.4L45.8,12.4z"/>
			<path class="st0" d="M45.8,13.1C45.8,13.1,45.8,13.1,45.8,13.1c0-0.1,0-0.2,0-0.3c0,0-0.1,0-0.1,0C45.7,13.1,45.8,13.1,45.8,13.1
				z"/>
		</g>
		<g>
			<path class="st0" d="M41.5,13.4c0-0.3,0.2-0.5,0.2-0.3c0,0.1,0.1,0.1,0.1,0.2c0,0,0.1,0,0.1-0.1c0-0.5,0.3-0.1,0.3-0.6
				c0.1,0.1,0.3-0.4,0.4-0.4c-0.1,0.3,0.1,0.1,0,0.3c0,0.1-0.2,0.1-0.1,0.3c0,0,0,0-0.1,0l-0.1-0.1c0,0,0,0.1,0,0.1l0.2,0.2l0.1-0.3
				c0.1,0,0.2,0,0.3,0c0.1,0.1,0.2,0.2,0.4,0.1c0.1,0,0.1-0.1,0.1,0.1c0,0,0.1,0.1,0.1-0.2c0-0.1,0-0.1,0-0.2c0,0,0,0,0,0
				c0,0,0-0.1,0.1,0c0.2,0.2,0.4,0.3,0.6,0c0,0,0,0,0,0c0,0.2,0,0.2,0.1,0.1l0,0c-0.1,0,0-0.2,0-0.3L44,12.5
				c0.1-0.2,0.2-0.3,0.2-0.3c0,0,0,0.1,0.1,0.2c0.1,0.1,0.2,0.1,0.3,0.2c0-0.1,0-0.2,0-0.2c0.1-0.2,0.1,0.1,0.1,0.1
				c0.2-0.2,0.2-0.2,0.1,0.2c0,0,0,0.1,0,0.1c0.1-0.2,0.1,0.2,0.2,0c0,0,0-0.1,0-0.1c0,0,0,0,0,0l0,0.2L45,13.4
				c-0.1-0.1-0.1-0.2-0.2-0.3c-0.1,0-0.2,0.1-0.3,0.1c0.1,0.1,0.2,0.2,0.3,0.2c0,0,0.1-0.1,0.1-0.1l-1,3c0,0-0.1,0-0.1,0
				c0,0,0,0-0.1,0l0,0.1l0,0.1c0,0,0,0-0.1,0c0,0-0.1,0-0.1,0c0.2-0.6-0.1-0.2-0.1-0.4c0-0.1-0.1-0.2-0.1-0.2c0,0-0.1,0-0.1,0
				c0,0,0,0.1,0,0.1c0,0-0.1,0.1-0.1,0.1c0,0-0.1-0.1-0.1-0.1c-0.2,0-0.4,0-0.6-0.1c-0.1,0-0.1-0.1-0.2-0.1c-0.2,0-0.4-0.1-0.5-0.4
				c0,0.1,0,0.1-0.1,0.2c0,0.1-0.1,0.2-0.1,0.2c0,0,0-0.2,0-0.2c-0.1-0.1-0.1-0.3-0.2-0.1c0,0-0.1-0.1-0.1-0.1
				c-0.1,0.2-0.1,0.2-0.1,0c-0.2,0.1-0.1-0.3,0-0.5c0.1-0.3,0-0.3,0-0.3c0,0,0-0.1,0-0.1c0,0,0.1,0,0.1,0c0,0,0.1-0.1,0.1-0.1
				c0-0.1,0-0.1,0-0.2c0,0,0-0.1-0.1-0.1c0,0,0.1,0,0.1,0c0.2-0.1,0.2-0.4,0.2-0.6c0,0-0.1,0-0.1,0C41.6,13.5,41.5,13.5,41.5,13.4z
				 M44.4,13.7c0,0.1,0.1,0.2,0.1,0.3c0,0,0.1,0,0.1,0c0-0.1-0.1-0.2-0.1-0.3L44.4,13.7z M44.6,13c0.1,0,0.1,0.1,0.2,0.1
				c0,0,0-0.1,0.1-0.1c0.1-0.2,0.1-0.2,0,0c-0.1,0.2,0.1-0.3,0-0.2C44.7,12.8,44.6,12.9,44.6,13z M44,13.3c0,0.1,0,0.2,0,0.2
				c0,0,0.1,0,0.1,0c0,0,0,0.1,0.1,0.1c0,0-0.1,0-0.1,0.2c0,0.1,0,0.1,0.1,0.2c0-0.1,0-0.2,0.1-0.3c0,0,0.1-0.1,0.1-0.1
				c0.1,0,0.2-0.1,0.2-0.4c0,0,0-0.1,0-0.1c0,0-0.1,0.1-0.2,0.2l0,0l0,0.1l-0.1,0L44,13.3z M43.7,13.5c0.1,0.1,0.1,0.3,0.2,0.3
				c0.2,0,0-0.1,0-0.1c0.1-0.2-0.1,0,0-0.2L43.7,13.5z"/>
			<path class="st0" d="M41,15C41,15,41,14.9,41,15l0.1-0.6c0,0.1-0.1,0.2-0.1,0.3C40.9,14.7,41,14.8,41,15z"/>
		</g>
		<g>
			<polygon class="st0" points="34.6,13.1 34.6,13.1 34.6,13.1 			"/>
			<path class="st0" d="M33.3,10.6l0.3-0.9c0,0.1,0,0.2,0,0.2c0.1,0,0.4-0.3,0.5-0.1c0,0,0.1-0.1,0.1-0.1c0.1-0.1,0,0.1,0,0.2
				c0,0.3-0.1,0.3-0.2,0.3c0,0,0,0.1-0.1,0.2c0,0.1,0,0.2,0,0.3c0-0.1,0.1-0.1,0.1-0.2c0.2,0.1,0.3-0.7,0.4-0.7c0,0,0.1-0.1,0.1-0.1
				c0.1-0.4,0.2-0.3,0.2-0.3c0,0,0,0,0,0.1c0,0,0-0.1,0-0.1l-0.1-0.1l0-0.1c0,0,0.1-0.1,0.1-0.1c0.2,0.1,0.4,0.3,0.6,0.4
				c0.1,0,0.2,0,0.3,0c0,0,0.1,0.1,0.1,0.1c0,0,0,0.1-0.1,0.2c0,0,0-0.1-0.1-0.1c0,0,0,0-0.1,0c0,0.1,0,0.2,0,0.2
				c0.1,0,0.1,0.1,0.2,0.1c0,0,0.1,0,0.1,0c0,0,0,0.1,0,0.1c0,0-0.1,0.1-0.1,0.1c-0.1,0,0,0.2-0.1,0.2c0.2,0-0.5,1.1,0,0.7
				c0.1-0.1,0.1,0.2,0.1,0.3c0,0-0.1,0-0.1,0c0,0.1-0.1,0.2-0.1,0.3c0,0,0,0.1,0,0c0,0,0-0.1,0.1-0.2c0,0,0-0.1,0-0.1c0,0,0,0,0.1,0
				c0,0.2-0.1,0.3-0.1,0.5c-0.2,0.4-0.3,0.7-0.4,1.1c0,0.1-0.1,0.2-0.1,0.2c0-0.2-0.1-0.1-0.2,0c0,0-0.1,0-0.1,0c0,0,0-0.1,0.1-0.1
				c0,0,0-0.1,0-0.1c0,0-0.1,0.1-0.1,0.2c0,0-0.1,0-0.1,0l0.1-0.2l0,0c0,0,0,0,0,0.1c0,0,0,0,0,0c0,0,0-0.1,0-0.1l0,0l0,0l0,0
				l-0.1,0.1c0,0-0.1,0.1-0.1,0c0-0.4-0.2-0.2-0.3-0.1c0,0,0,0,0-0.1c0,0,0,0,0,0c0,0,0,0,0,0c0,0,0-0.1,0-0.1c0,0,0,0,0,0
				c0,0,0,0,0,0c0-0.1-0.2,0.4-0.1,0l-0.2,0.1l0.1,0.1l-0.1,0.1c0,0-0.1,0-0.1,0.1c-0.2,0.2-0.2-0.2-0.3-0.2c0,0,0,0.1-0.1,0.1
				c0,0-0.1,0-0.1,0c-0.2,0.1,0,0.1,0,0.1c0,0,0,0,0,0L33,13.2c0,0,0-0.1,0-0.1c0,0,0-0.1,0-0.1c0,0-0.1,0-0.1,0.1
				c0,0-0.1,0.1-0.1,0.1c0-0.1-0.2,0.1-0.1-0.2c0,0,0,0,0-0.1c0,0,0,0,0,0l-0.1,0.2c0-0.1,0-0.2,0-0.3c0-0.1,0.1-0.2,0.1-0.3
				c0-0.1,0-0.2,0-0.3c0-0.1,0-0.1,0-0.2c0-0.1,0-0.1,0-0.1l0.3-1.1c0,0.1,0,0.2,0,0.1l0,0.1l0.1-0.2C33.2,10.9,33.3,10.7,33.3,10.6
				z M34.7,11.2c0,0,0.1,0.1,0.1,0.1c0,0,0.1-0.1,0.2-0.2c0-0.1-0.1-0.1-0.1-0.1C34.8,11.1,34.8,11.1,34.7,11.2z M34.2,11.5
				C34.2,11.5,34.2,11.5,34.2,11.5l0.4-0.1c0,0,0.1,0,0.1,0l-0.1-0.1c-0.1,0.2,0.1-0.4-0.1-0.1C34.4,11.3,34.3,11.3,34.2,11.5z
				 M33.4,10.9c-0.1,0.3,0,0.2,0.1,0.2c0,0.2,0.1-0.2,0.1-0.2l-0.1-0.2C33.5,10.7,33.4,10.8,33.4,10.9z"/>
			<path class="st0" d="M33.6,9.5c0.1-0.1,0.1,0.2,0.2-0.1l0,0.1c0,0,0,0,0,0c0.2-0.3,0-0.3,0-0.4l0-0.1c0,0.1-0.1,0.1-0.1,0.3
				c-0.1,0.1,0-0.1,0-0.2l-0.1-0.1L33.6,9.5C33.6,9.6,33.6,9.6,33.6,9.5z"/>
			<path class="st0" d="M34,9.5c0.1,0.1,0.2,0.1,0.3-0.4c-0.1,0.2-0.2,0.4-0.3,0.3C34,9.4,34,9.4,34,9.5z"/>
			<polygon class="st0" points="34.2,9.1 34.2,9.1 34.2,9 			"/>
			<path class="st0" d="M34.3,8.9c0,0.1,0,0.1-0.1,0.2L34.3,8.9L34.3,8.9z"/>
			<path class="st0" d="M34.3,9.6C34.3,9.6,34.3,9.5,34.3,9.6c0-0.2,0-0.2,0-0.3c0,0-0.1,0-0.1,0C34.2,9.5,34.3,9.5,34.3,9.6z"/>
		</g>
		<g>
			<path class="st0" d="M30,9.9c0-0.3,0.2-0.5,0.2-0.3c0,0.1,0.1,0.1,0.1,0.2c0,0,0.1,0,0.1-0.1c0-0.5,0.3-0.1,0.3-0.6
				c0.1,0.1,0.3-0.4,0.4-0.4c-0.1,0.3,0.1,0.1,0,0.3c0,0.1-0.2,0.1-0.1,0.3c0,0,0,0-0.1,0l-0.1-0.1c0,0,0,0.1,0,0.1l0.2,0.2l0-0.3
				c0.1,0,0.2,0,0.3,0c0.1,0.1,0.3,0.2,0.4,0.1c0.1,0,0.1-0.1,0.1,0c0,0,0.1,0.1,0.1-0.2c0-0.1,0-0.1,0-0.2c0,0,0,0,0,0
				c0,0,0-0.1,0.1-0.1c0.2,0.2,0.4,0.3,0.6,0c0,0,0,0,0,0c0,0.2,0,0.2,0.1,0.1l0,0c-0.1,0,0-0.2,0-0.3l-0.2,0.1
				c0.1-0.2,0.2-0.3,0.2-0.3c0,0,0,0.1,0.1,0.2C32.9,8.9,33,9,33.1,9c0-0.1,0-0.2,0-0.2c0.1-0.2,0.1,0.1,0.1,0.1
				c0.2-0.2,0.2-0.2,0.1,0.2c0,0,0,0.1,0,0.1c0.1-0.2,0.1,0.2,0.2,0c0,0,0-0.1,0-0.1c0,0,0,0,0,0l0,0.2l-0.2,0.5
				c-0.1-0.1-0.1-0.2-0.2-0.3c-0.1,0.1-0.2,0.1-0.3,0.1c0.1,0.1,0.2,0.2,0.3,0.2c0,0,0.1-0.1,0.1-0.1l-0.9,3c0,0-0.1,0-0.1,0
				c0,0,0,0-0.1,0l0,0.1l0,0.1c0,0,0,0-0.1,0c0,0-0.1,0-0.1,0c0.2-0.6-0.1-0.2-0.1-0.4c0-0.1-0.1-0.2-0.1-0.2c0,0-0.1,0-0.1,0
				c0,0,0,0.1,0,0.1c0,0-0.1,0.1-0.1,0.1c0,0-0.1-0.1-0.1-0.1c-0.2,0-0.4,0-0.6-0.1c-0.1,0-0.1-0.1-0.2-0.1c-0.2,0-0.4-0.1-0.5-0.4
				c0,0.1,0,0.1-0.1,0.2c0,0.1-0.1,0.2-0.1,0.2c0,0,0-0.2,0-0.2c-0.1-0.1-0.1-0.3-0.2-0.1c0,0-0.1-0.1-0.1-0.1
				c-0.1,0.2-0.1,0.2-0.1,0c-0.2,0.1-0.1-0.3,0-0.5c0.1-0.3,0-0.3,0-0.3c0,0,0-0.1,0-0.1c0,0,0.1,0,0.1,0c0,0,0.1-0.1,0.1-0.1
				c0-0.1,0-0.1,0-0.2c0,0,0-0.1-0.1-0.1c0,0,0.1,0,0.1,0c0.2-0.1,0.1-0.4,0.2-0.6c0,0-0.1,0-0.1,0C30.2,10.1,30,10,30,9.9z
				 M32.9,10.2c0,0.1,0.1,0.2,0.1,0.3c0,0,0.1,0,0.1-0.1c0-0.1-0.1-0.2-0.1-0.3L32.9,10.2z M33.1,9.4c0.1,0,0.1,0.1,0.2,0.1
				c0,0,0-0.1,0-0.1c0.1-0.2,0.1-0.2,0,0c-0.1,0.2,0.1-0.3,0-0.2C33.2,9.2,33.1,9.3,33.1,9.4z M32.5,9.8c0,0.1,0,0.2,0,0.2
				c0,0,0.1,0,0.1,0c0,0,0,0.1,0.1,0.1c0,0-0.1,0-0.1,0.2c0,0.1,0,0.1,0.1,0.2c0-0.1,0-0.2,0.1-0.3c0,0,0.1-0.1,0.1-0.1
				c0.1,0,0.2-0.1,0.2-0.4c0,0,0-0.1,0-0.1c0,0-0.1,0.1-0.1,0.2l0,0l0,0.1l-0.1,0L32.5,9.8z M32.2,10c0.1,0.1,0.1,0.3,0.2,0.3
				c0.2,0,0-0.1,0-0.1c0.1-0.2-0.1,0,0-0.2L32.2,10z"/>
			<path class="st0" d="M29.5,11.5C29.5,11.5,29.5,11.5,29.5,11.5l0.1-0.6c0,0.1-0.1,0.2-0.1,0.3C29.5,11.3,29.5,11.4,29.5,11.5z"/>
		</g>
		<g>
			<polygon class="st0" points="23.1,9.8 23.1,9.8 23.1,9.8 			"/>
			<path class="st0" d="M21.7,7.3L22,6.4c0,0.1,0,0.2,0,0.2c0.1,0,0.3-0.3,0.5-0.1c0,0,0.1-0.1,0.1-0.1c0.1-0.1,0,0.1,0,0.2
				c0,0.3-0.1,0.3-0.2,0.3c0,0,0,0.1,0,0.2c0,0.1,0,0.2,0,0.3c0-0.1,0-0.1,0.1-0.2c0.2,0,0.3-0.7,0.4-0.7c0,0,0.1-0.1,0.1-0.1
				c0.1-0.4,0.2-0.3,0.2-0.3c0,0,0,0,0,0.1c0,0,0-0.1,0-0.1L23.1,6l0-0.1c0,0,0.1-0.1,0.1-0.1c0.2,0.1,0.4,0.3,0.6,0.4
				c0.1,0,0.2,0,0.3,0c0,0,0.1,0.1,0.1,0.1c0,0,0,0.1-0.1,0.2c0,0,0-0.1-0.1-0.1c0,0-0.1,0-0.1,0c0,0.1,0,0.2,0,0.2
				c0.1,0,0.1,0,0.2,0.1c0,0,0.1,0,0.1,0c0,0,0,0.1,0,0.1c0,0-0.1,0.1-0.1,0.1c-0.1,0,0,0.2-0.1,0.2c0.2,0-0.5,1.1,0,0.7
				C24,7.7,24,8,24.1,8.1c0,0-0.1,0-0.1,0c0,0.1-0.1,0.2-0.1,0.3c0,0,0,0.1,0,0c0,0,0-0.1,0.1-0.2c0,0,0-0.1,0-0.1c0,0,0,0,0.1,0
				c0,0.2-0.1,0.3-0.1,0.5c-0.1,0.4-0.2,0.7-0.3,1.1c0,0.1-0.1,0.2-0.1,0.2c0-0.2-0.1-0.1-0.2,0c0,0-0.1,0-0.1,0c0,0,0-0.1,0-0.1
				c0,0,0-0.1,0-0.1c0,0-0.1,0.1-0.1,0.2c0,0-0.1,0-0.1,0l0.1-0.2l0,0c0,0,0,0,0,0.1c0,0,0,0,0,0c0,0,0-0.1,0-0.1l0,0l0,0l0,0
				L23,9.9c0,0-0.1,0.1-0.1,0c0-0.4-0.2-0.2-0.3-0.1c0,0,0,0,0-0.1c0,0,0,0,0,0c0,0,0,0,0,0c0,0,0-0.1,0-0.1c0,0,0,0,0,0
				c0,0,0,0,0,0c0-0.1-0.2,0.4-0.1,0l-0.2,0.1l0.1,0.1l-0.1,0.1c0,0-0.1,0-0.1,0.1c-0.2,0.2-0.2-0.2-0.3-0.2c0,0,0,0.1-0.1,0.1
				c0,0-0.1,0-0.1,0c-0.1,0.1,0,0.1,0,0.1c0,0,0,0,0,0L21.5,10c0,0,0-0.1,0-0.1c0,0,0-0.1,0-0.1c0,0-0.1,0-0.1,0.1
				c0,0-0.1,0.1-0.1,0.1c0-0.1-0.2,0.1-0.1-0.2c0,0,0,0,0-0.1c0,0,0,0,0,0L21.2,10c0-0.1,0-0.2,0-0.3c0-0.1,0.1-0.2,0.1-0.3
				c0-0.1,0-0.2,0-0.3c0-0.1,0-0.1,0-0.2c0-0.1,0-0.1,0-0.1l0.3-1.1c0,0.1,0,0.2,0,0.1l0,0.1l0.1-0.2C21.7,7.6,21.7,7.4,21.7,7.3z
				 M23.2,7.9c0,0,0.1,0.1,0.1,0.1c0,0,0.1-0.1,0.2-0.2c0-0.1-0.1-0.1-0.1-0.1C23.3,7.7,23.2,7.8,23.2,7.9z M22.7,8.1
				C22.7,8.1,22.7,8.2,22.7,8.1L23,8c0,0,0.1,0,0.1,0L23,7.8c-0.1,0.2,0.1-0.4-0.1-0.1C22.8,7.9,22.7,8,22.7,8.1z M21.9,7.6
				c-0.1,0.3,0,0.2,0.1,0.2C22,7.9,22,7.5,22,7.6L22,7.4C21.9,7.4,21.9,7.5,21.9,7.6z"/>
			<path class="st0" d="M22.1,6.2c0.1-0.1,0.1,0.2,0.2-0.1l0,0.1c0,0,0,0,0,0c0.1-0.3,0-0.3,0-0.4l0-0.1c0,0.1-0.1,0.1-0.1,0.3
				c-0.1,0.1,0-0.1,0-0.2l-0.1-0.1L22.1,6.2C22,6.3,22,6.3,22.1,6.2z"/>
			<path class="st0" d="M22.4,6.1c0.1,0.1,0.2,0.1,0.3-0.4C22.6,6,22.5,6.1,22.4,6C22.4,6.1,22.4,6.1,22.4,6.1z"/>
			<polygon class="st0" points="22.7,5.7 22.7,5.7 22.7,5.7 			"/>
			<path class="st0" d="M22.7,5.5c0,0.1,0,0.1-0.1,0.2L22.7,5.5L22.7,5.5z"/>
			<path class="st0" d="M22.7,6.2C22.8,6.2,22.8,6.2,22.7,6.2c0-0.2,0-0.2,0-0.3c0,0-0.1,0-0.1,0.1C22.6,6.2,22.7,6.2,22.7,6.2z"/>
		</g>
		<g>
			<path class="st0" d="M18.5,6.7c0-0.3,0.2-0.5,0.2-0.3c0,0.1,0.1,0.1,0.1,0.2c0,0,0.1-0.1,0.1-0.1c0-0.5,0.3-0.1,0.3-0.6
				c0.1,0.1,0.3-0.4,0.4-0.4c-0.1,0.3,0.1,0.1,0.1,0.3c0,0.1-0.2,0.1-0.1,0.3c0,0,0,0-0.1,0L19.3,6c0,0,0,0.1,0,0.1l0.2,0.2l0-0.3
				c0.1,0,0.2-0.1,0.3,0c0.1,0.1,0.3,0.2,0.4,0.1c0.1,0,0.1-0.1,0.1,0c0,0,0.1,0.1,0.1-0.2c0-0.1,0-0.1,0-0.2c0,0,0,0,0,0
				c0,0,0-0.1,0.1-0.1c0.2,0.2,0.4,0.3,0.6,0c0,0,0,0,0,0C21,6,21,6,21.1,5.9l0,0c-0.1,0-0.1-0.2,0-0.3l-0.2,0.1
				c0.1-0.2,0.2-0.3,0.2-0.3c0,0,0,0.1,0.1,0.2c0.1,0.1,0.2,0.1,0.4,0.2c0-0.1,0-0.2,0-0.2c0.1-0.2,0.1,0.1,0.1,0.1
				c0.2-0.2,0.1-0.3,0.1,0.2c0,0,0,0.1,0,0.1c0.1-0.2,0.1,0.2,0.2,0c0,0,0-0.1,0-0.1c0,0,0,0,0,0l0,0.2l-0.1,0.5
				c-0.1-0.1-0.1-0.2-0.2-0.3c-0.1,0.1-0.2,0.1-0.2,0.1c0.1,0.1,0.2,0.2,0.3,0.2c0,0,0.1-0.1,0.1-0.1l-0.8,3c0,0-0.1,0-0.1,0
				c0,0,0,0-0.1,0l0,0.1l0,0.1c0,0,0,0-0.1,0c0,0-0.1,0-0.1,0c0.2-0.7-0.1-0.2-0.1-0.3c0-0.1-0.1-0.2-0.1-0.2c0,0-0.1,0-0.1,0
				c0,0,0,0.1,0,0.1c0,0-0.1,0.1-0.1,0.1c0,0-0.1-0.1-0.1-0.1c-0.2,0-0.4,0-0.6-0.1c-0.1,0-0.1-0.1-0.2-0.1c-0.2,0-0.4-0.1-0.5-0.4
				c0,0.1,0,0.1-0.1,0.2c0,0.1-0.1,0.2-0.1,0.2c0,0,0-0.2,0-0.2c-0.1-0.1-0.1-0.3-0.2-0.1c0,0-0.1-0.1-0.1-0.1
				c-0.1,0.2-0.1,0.2-0.1,0c-0.2,0.1-0.1-0.3,0-0.5c0.1-0.3,0-0.3,0-0.3c0,0,0-0.1,0-0.1c0,0,0.1,0,0.1,0c0,0,0.1-0.1,0.1-0.1
				c0-0.1,0-0.1,0-0.2c0,0,0-0.1-0.1-0.1c0,0,0.1,0,0.1,0c0.2-0.1,0.1-0.4,0.2-0.6c0,0-0.1,0-0.1,0C18.6,6.8,18.5,6.8,18.5,6.7z
				 M21.3,6.9c0,0.1,0.1,0.2,0.1,0.3c0,0,0.1,0,0.1-0.1c0-0.1-0.1-0.2-0.1-0.3L21.3,6.9z M21.5,6.1c0.1,0,0.1,0.1,0.2,0.1
				c0,0,0-0.1,0-0.1c0.1-0.2,0-0.2,0,0c-0.1,0.2,0.1-0.3,0-0.2C21.6,5.9,21.6,6,21.5,6.1z M21,6.5c0,0.1,0,0.2,0,0.2
				c0,0,0.1,0,0.1,0c0,0,0,0.1,0.1,0.1c0,0-0.1,0-0.1,0.2c0,0.1,0,0.1,0.1,0.2c0-0.1,0-0.2,0-0.3c0,0,0.1-0.1,0.1-0.1
				c0.1,0,0.2-0.1,0.2-0.4c0,0,0-0.1,0-0.1c0,0-0.1,0.1-0.1,0.2l0,0l0,0.1l-0.1,0L21,6.5z M20.7,6.7C20.7,6.8,20.8,7,20.9,7
				c0.2,0,0-0.1,0-0.1c0.1-0.2-0.1,0,0-0.2L20.7,6.7z"/>
			<path class="st0" d="M18,8.3C18,8.3,18,8.3,18,8.3l0-0.6c0,0.1-0.1,0.2-0.1,0.3C18,8,18,8.2,18,8.3z"/>
		</g>
		<g>
			<polygon class="st0" points="11.5,6.6 11.5,6.7 11.6,6.7 			"/>
			<path class="st0" d="M10.1,4.2l0.2-0.9c0,0.1,0,0.2,0,0.2c0.1,0,0.3-0.3,0.4-0.1c0,0,0.1-0.1,0.1-0.1c0.1-0.1,0,0.1,0,0.2
				c0,0.3-0.1,0.3-0.2,0.3c0,0,0,0.1,0,0.2c0,0.1,0,0.2,0,0.3c0-0.1,0-0.1,0-0.2c0.2,0,0.2-0.7,0.4-0.7c0,0,0.1-0.1,0.1-0.1
				C11.4,3,11.4,3.1,11.5,3c0,0,0,0,0,0.1c0,0,0-0.1,0-0.1l-0.1-0.1l-0.1-0.1c0,0,0.1-0.1,0.1-0.1c0.2,0.1,0.4,0.3,0.6,0.4
				c0.1,0,0.2,0,0.3-0.1c0,0,0.1,0.1,0.1,0.1c0,0,0,0.1-0.1,0.2c0,0,0-0.1-0.1-0.1c0,0-0.1,0-0.1,0c0,0.1,0,0.2,0,0.2
				c0.1,0,0.1,0,0.2,0.1c0,0,0.1,0,0.1,0c0,0,0,0.1,0,0.1c0,0-0.1,0.1-0.1,0.1c-0.1,0,0,0.2-0.1,0.2c0.2,0-0.5,1.2,0,0.7
				c0.1-0.1,0.1,0.2,0.1,0.3c0,0-0.1,0-0.1,0c0,0.1-0.1,0.2-0.1,0.3c0,0,0,0.1,0,0c0,0,0-0.1,0.1-0.2c0,0,0-0.1,0-0.1c0,0,0,0,0.1,0
				c0,0.2-0.1,0.3-0.1,0.5c-0.1,0.4-0.2,0.7-0.3,1.1c0,0.1-0.1,0.2-0.1,0.2c0-0.1-0.1-0.1-0.2,0c0,0-0.1,0-0.1,0c0,0,0-0.1,0-0.1
				c0,0,0-0.1,0-0.1c0,0-0.1,0.1-0.1,0.2c0,0-0.1,0-0.1,0l0.1-0.2l0,0c0,0,0,0,0,0.1c0,0,0,0,0,0c0,0,0-0.1,0-0.1l0,0l0,0l0,0
				l-0.1,0.1c0,0-0.1,0.1-0.1,0c0-0.4-0.2-0.2-0.3-0.1c0,0,0,0,0-0.1c0,0,0,0,0,0c0,0,0,0,0,0c0,0,0-0.1,0-0.1c0,0,0,0,0,0
				c0,0,0,0,0,0c0-0.1-0.2,0.4-0.1,0l-0.2,0.1l0.1,0.1l-0.1,0.1c0,0-0.1,0-0.1,0.1c-0.2,0.2-0.2-0.2-0.3-0.2c0,0,0,0.1-0.1,0.1
				c0,0-0.1,0-0.1,0c-0.1,0.1,0,0.1,0,0.1c0,0,0,0,0,0L9.9,6.9c0,0,0-0.1,0-0.1c0,0,0-0.1,0-0.1c0,0-0.1,0-0.1,0.1
				c0,0-0.1,0.1-0.1,0.1c0-0.1-0.2,0.1-0.1-0.2c0,0,0,0,0-0.1c0,0,0,0,0,0.1L9.6,6.9c0-0.1,0-0.2,0-0.3c0-0.1,0.1-0.2,0.1-0.3
				c0-0.1,0-0.2,0-0.3c0-0.1,0-0.1,0-0.2c0-0.1,0-0.1,0-0.1L10,4.6c0,0.1,0,0.2,0,0.1l0,0.1l0.1-0.2C10.1,4.6,10.1,4.3,10.1,4.2z
				 M11.6,4.8c0,0,0.1,0.1,0.1,0.1c0,0,0.1-0.1,0.2-0.2c0-0.1-0.1-0.1-0.1-0.1C11.7,4.6,11.6,4.7,11.6,4.8z M11.1,5
				C11.1,5,11.1,5.1,11.1,5l0.4-0.2c0,0,0.1,0,0.1,0l-0.1-0.1c-0.1,0.2,0.1-0.4-0.1-0.1C11.3,4.8,11.2,4.9,11.1,5z M10.3,4.5
				c-0.1,0.3,0,0.2,0.1,0.2c0.1,0.2,0-0.2,0.1-0.2l-0.1-0.2C10.3,4.3,10.3,4.4,10.3,4.5z"/>
			<path class="st0" d="M10.4,3.2c0.1-0.1,0.1,0.2,0.2-0.1l0,0.1c0,0,0,0,0,0c0.1-0.3,0-0.3,0-0.4l0-0.1c0,0.1-0.1,0.1-0.1,0.3
				c-0.1,0.1,0-0.1,0-0.2l-0.1-0.1L10.4,3.2C10.4,3.2,10.4,3.2,10.4,3.2z"/>
			<path class="st0" d="M10.8,3.1C10.9,3.2,11,3.2,11,2.6c-0.1,0.2-0.1,0.4-0.2,0.3C10.8,3,10.8,3,10.8,3.1z"/>
			<polygon class="st0" points="11,2.6 11,2.6 11,2.6 			"/>
			<path class="st0" d="M11.1,2.4c0,0.1,0,0.1-0.1,0.2L11.1,2.4L11.1,2.4z"/>
			<path class="st0" d="M11.1,3.1C11.1,3.1,11.2,3.1,11.1,3.1c0-0.2,0-0.2,0-0.3c0,0-0.1,0-0.1,0.1C11,3.1,11.1,3.1,11.1,3.1z"/>
		</g>
		<g>
			<path class="st0" d="M6.9,3.7c0-0.3,0.2-0.5,0.2-0.3c0,0.1,0.1,0.1,0.1,0.2c0,0,0.1-0.1,0.1-0.1c0-0.5,0.3-0.1,0.3-0.6
				C7.7,2.9,7.8,2.4,8,2.4C7.9,2.7,8,2.5,8,2.7C8,2.8,7.8,2.8,7.9,3c0,0,0,0-0.1,0L7.7,3c0,0,0,0.1,0,0.1l0.2,0.2l0-0.3
				C8,3,8.1,2.9,8.2,3c0.1,0.1,0.3,0.2,0.4,0.1c0.1,0,0.1-0.1,0.1,0c0,0,0.1,0.1,0.1-0.2c0-0.1,0-0.1,0-0.2c0,0,0,0,0,0
				c0,0,0-0.1,0.1-0.1C8.9,2.9,9.1,3,9.4,2.7c0,0,0,0,0,0c0,0.2,0,0.2,0.1,0.1l0,0c-0.1,0-0.1-0.2,0-0.3L9.3,2.6
				c0.1-0.2,0.2-0.3,0.2-0.3c0,0,0,0.1,0.1,0.2c0.1,0.1,0.2,0.1,0.4,0.2c0-0.1,0-0.2,0-0.2c0.1-0.3,0.1,0.1,0.1,0.1
				c0.1-0.2,0.1-0.3,0.1,0.2c0,0,0,0.1,0.1,0.1c0.1-0.2,0.1,0.1,0.2,0c0,0,0-0.1,0-0.1c0,0,0,0,0,0l0,0.2l-0.1,0.5
				c-0.1-0.1-0.1-0.2-0.2-0.3C10.1,3.2,10,3.3,9.9,3.3c0.1,0.1,0.2,0.1,0.4,0.2c0,0,0.1-0.1,0.1-0.1L9.5,6.5c0,0-0.1,0-0.1,0
				c0,0,0,0-0.1,0l0,0.1l0,0.1c0,0,0,0-0.1,0c0,0-0.1,0-0.1,0c0.2-0.7-0.1-0.2-0.1-0.3c0-0.1-0.1-0.1-0.1-0.2c0,0-0.1,0-0.1,0
				c0,0,0,0.1,0,0.1c0,0-0.1,0.1-0.1,0.1c0,0-0.1-0.1-0.1-0.1c-0.2,0-0.4,0-0.6,0C8,6.2,8,6.2,7.9,6.2C7.7,6.2,7.5,6.1,7.4,5.8
				c0,0.1,0,0.1-0.1,0.2c0,0.1-0.1,0.2-0.1,0.2c0,0,0-0.2,0-0.2C7.1,5.9,7.1,5.7,7,5.9c0,0-0.1-0.1-0.1-0.1c-0.1,0.2-0.1,0.2-0.1,0
				c-0.2,0.1-0.1-0.3,0-0.5C6.8,5,6.8,5,6.7,5c0,0,0-0.1,0-0.1c0,0,0.1,0,0.1,0c0,0,0.1-0.1,0.1-0.1c0-0.1,0-0.1,0-0.2
				c0,0,0-0.1-0.1-0.1c0,0,0.1,0,0.1,0c0.2-0.1,0.1-0.4,0.2-0.6c0,0-0.1,0-0.1,0C7,3.8,6.9,3.8,6.9,3.7z M9.7,3.8
				c0,0.1,0.1,0.2,0.1,0.3c0,0,0.1,0,0.1-0.1c0-0.1-0.1-0.2-0.1-0.3L9.7,3.8z M9.9,3.1c0.1,0,0.1,0.1,0.2,0.1c0,0,0-0.1,0-0.1
				c0.1-0.2,0-0.2,0,0c-0.1,0.2,0-0.3,0-0.2C10,2.9,9.9,3,9.9,3.1z M9.3,3.4c0,0.1,0,0.2,0,0.2c0,0,0.1,0,0.1,0c0,0,0,0.1,0.1,0.1
				c0,0-0.1,0-0.1,0.2c0,0.1,0,0.1,0.1,0.2c0-0.1,0-0.2,0-0.3c0,0,0.1-0.1,0.1-0.2c0.1,0,0.2-0.1,0.2-0.4c0,0,0-0.1,0-0.1
				c0,0-0.1,0.1-0.1,0.2l0,0l0,0.1l-0.1,0L9.3,3.4z M9.1,3.6c0.1,0.1,0.1,0.3,0.2,0.3c0.2,0,0-0.1,0-0.1c0.1-0.2-0.1,0,0-0.2
				L9.1,3.6z"/>
			<path class="st0" d="M6.4,5.3C6.4,5.3,6.4,5.2,6.4,5.3l0-0.6c0,0.1,0,0.2-0.1,0.3C6.4,5,6.4,5.2,6.4,5.3z"/>
		</g>
		<g>
			<path class="st0" d="M0.4,3.9C0.4,3.9,0.4,3.9,0.4,3.9C0.4,3.9,0.4,3.9,0.4,3.9C0.4,3.9,0.4,3.9,0.4,3.9z"/>
			<path class="st0" d="M0.8,1.9L1,1c0,0.1,0,0.2,0,0.1C1,1.1,1,0.8,1,1c0,0,0-0.1,0-0.1C1.1,0.7,1,1,1,1C0.9,1.3,0.9,1.3,0.9,1.4
				c0,0,0,0.1,0,0.2C0.9,1.6,0.8,1.7,0.8,1.9c0.1-0.1,0.1-0.2,0.1-0.2c0,0,0.2-0.7,0.2-0.7c0,0,0-0.1,0-0.1c0.1-0.4,0.1-0.3,0.1-0.4
				c0,0,0,0,0,0.1c0,0,0-0.1,0-0.1c0,0,0-0.1,0-0.1c0,0,0,0,0-0.1c0,0,0-0.1,0-0.1c0,0.1,0,0.2,0,0.2c0,0,0-0.1,0-0.1c0,0,0,0,0,0.1
				c0,0,0,0.1-0.1,0.2c0,0,0-0.1,0-0.1c0,0,0,0,0,0c0,0.1,0,0.2,0,0.2c0,0,0,0,0,0c0,0,0,0,0,0c0,0,0,0.1,0,0.1c0,0,0,0.1,0,0.1
				c0,0,0,0.2-0.1,0.2c0-0.1-0.3,1.2-0.1,0.6c0-0.1,0,0.2-0.1,0.3c0,0,0,0,0,0.1c0,0.1,0,0.2-0.1,0.3c0,0,0,0.1,0,0c0,0,0-0.1,0-0.2
				c0,0,0-0.1,0-0.1c0,0,0,0,0,0c0,0.2-0.1,0.3-0.1,0.5C0.6,3.1,0.5,3.4,0.5,3.8c0,0.1,0,0.2,0,0.2c0-0.1,0-0.1,0,0c0,0,0,0,0,0.1
				c0,0,0-0.1,0-0.1c0,0,0-0.1,0-0.1c0,0.1,0,0.2,0,0.2c0,0,0,0,0,0c0-0.1,0-0.1,0-0.2c0,0,0,0,0,0c0,0,0,0,0,0c0,0,0,0,0,0
				c0,0,0-0.1,0-0.1c0,0,0,0,0,0c0,0,0,0,0,0c0,0,0,0,0,0c0,0,0,0.1,0,0.1c0,0,0,0.1,0,0c0.1-0.4,0-0.1,0,0c0,0,0,0,0-0.1
				c0,0,0,0,0,0c0,0,0,0,0,0c0,0,0-0.1,0-0.1c0,0,0,0,0-0.1c0,0,0,0,0,0c0-0.1-0.1,0.4,0,0c0,0,0,0.1,0,0.1c0,0,0,0.1,0,0.1
				c0,0,0,0.1,0,0.1c0,0,0,0.1,0,0.1c-0.1,0.2,0-0.1,0-0.1c0,0,0,0.1,0,0.1c0,0,0,0,0,0c0,0.1,0,0.1,0,0.1c0,0,0,0,0,0
				c0,0,0,0.1,0,0.1c0,0,0-0.1,0-0.1c0,0,0-0.1,0-0.1c0,0,0,0.1,0,0.1c0,0,0,0.1,0,0.1c0-0.1,0,0.1,0-0.2c0,0,0,0,0-0.1
				c0,0,0,0,0,0.1c0,0.1,0,0.2-0.1,0.2c0-0.1,0-0.2,0.1-0.3c0-0.1,0-0.2,0.1-0.3c0-0.1,0-0.2,0.1-0.2c0-0.1,0-0.1,0-0.2
				c0-0.1,0-0.1,0-0.1l0.3-1.1c0,0.1,0,0.2,0,0.1c0,0,0,0,0,0.1c0-0.1,0-0.1,0-0.2C0.7,2.2,0.7,2,0.8,1.9z M0.8,2.1
				C0.8,2.1,0.8,2.2,0.8,2.1c0,0,0-0.1,0.1-0.2c0,0,0-0.1,0-0.1C0.9,1.9,0.8,2,0.8,2.1z M0.7,2.5C0.7,2.5,0.7,2.5,0.7,2.5
				c0-0.1,0.1-0.2,0.1-0.2c0,0,0,0,0,0c0,0,0-0.1,0-0.1c-0.1,0.2,0.1-0.4,0,0C0.8,2.2,0.7,2.3,0.7,2.5z M0.7,2.1
				c-0.1,0.3,0,0.1,0,0.1C0.7,2.4,0.8,2,0.7,2.1c0-0.1,0-0.2,0.1-0.2C0.8,2,0.7,2,0.7,2.1z"/>
			<path class="st0" d="M1,0.8c0-0.1,0,0.2,0-0.1C1.1,0.7,1,0.8,1,0.8C1,0.8,1,0.8,1,0.8c0.1-0.3,0.1-0.3,0.1-0.4c0,0,0,0,0-0.1
				c0,0.1,0,0.1-0.1,0.3c0,0.1,0,0,0-0.2c0,0,0,0,0,0L1,0.8C1,0.9,1,0.9,1,0.8z"/>
			<path class="st0" d="M1.1,0.6c0,0.1,0,0.1,0.1-0.4C1.1,0.4,1.1,0.6,1.1,0.6C1.1,0.6,1.1,0.6,1.1,0.6z"/>
			<path class="st0" d="M1.2,0.2C1.2,0.2,1.2,0.2,1.2,0.2C1.2,0.2,1.2,0.2,1.2,0.2C1.2,0.2,1.2,0.2,1.2,0.2z"/>
			<path class="st0" d="M1.2,0c0,0.1,0,0.1,0,0.2C1.2,0.1,1.2,0.1,1.2,0C1.2,0,1.2,0,1.2,0z"/>
			<path class="st0" d="M1.1,0.7C1.1,0.7,1.1,0.6,1.1,0.7c0-0.1,0.1-0.2,0.1-0.3c0,0,0,0.1,0,0.1C1.1,0.7,1.1,0.6,1.1,0.7z"/>
		</g>
		<g>
			<path class="st0" d="M0.5,2.1c0.1-0.3,0.1-0.5,0.1-0.3c0,0.1,0,0.1,0,0.1c0,0,0-0.1,0-0.1c0.1-0.5,0.1-0.2,0.2-0.7
				c0,0.1,0.1-0.4,0.1-0.5C0.8,1,0.9,0.8,0.8,0.9c0,0.1,0,0.1-0.1,0.3c0,0,0,0,0,0c0,0,0,0,0,0c0,0,0,0.1,0,0.1c0,0,0,0.1,0,0.1
				c0-0.1,0-0.2,0.1-0.3c0,0,0-0.1,0,0c0,0.1,0,0.1,0,0c0,0,0-0.1,0,0c0,0,0,0.1,0-0.2c0-0.1,0-0.1,0-0.1c0,0,0,0,0,0
				c0,0,0-0.1,0-0.1c0,0.1,0,0.2,0.1-0.2c0,0,0,0,0,0c0,0.2,0,0.2,0,0.1c0,0,0,0,0,0c0,0,0-0.1,0.1-0.3c0,0,0,0.1,0,0.1
				c0.1-0.2,0.1-0.3,0.1-0.3c0,0,0,0.1,0,0.1c0,0,0,0.1,0,0.1c0-0.1,0-0.2,0.1-0.2c0.1-0.3,0,0.1,0,0C1.2,0,1.2,0,1.1,0.4
				c0,0,0,0.1,0,0.1c0.1-0.3,0,0.1,0,0c0,0,0-0.1,0-0.1c0,0,0,0,0,0c0,0.1,0,0.1,0,0.2L0.9,1.1C1,1.1,1,1,1,0.9C1,1,0.9,1,0.9,1.1
				c0,0,0,0.1,0,0.1c0,0,0-0.1,0-0.1L0.2,4.2c0,0,0,0,0,0c0,0,0,0,0,0c0,0,0,0,0,0.1c0,0,0,0.1,0,0.1c0,0,0,0,0,0.1c0,0,0,0,0,0
				c0.2-0.7,0-0.1,0.1-0.3c0-0.1,0-0.1,0-0.2c0,0,0,0,0,0c0,0,0,0.1,0,0.1c0,0,0,0.1,0,0.1c0,0,0-0.1,0,0c0,0-0.1,0.1-0.1,0.1
				c0,0,0-0.1,0,0c0,0.1,0,0,0-0.2c0,0.1,0,0.1,0,0.2C0,4.3,0,4.4,0,4.4c0,0,0-0.2,0-0.2c0-0.1,0.1-0.3,0,0c0,0,0-0.1,0-0.1
				C0,4.4,0,4.4,0,4.2c0,0.1,0-0.2,0.1-0.5c0.1-0.3,0.1-0.3,0.1-0.3c0,0,0-0.1,0-0.1c0,0,0,0,0,0c0,0,0-0.1,0-0.1c0-0.1,0-0.1,0-0.1
				c0,0,0,0,0-0.1c0,0,0,0,0,0c0-0.1,0.1-0.4,0.2-0.6c0,0,0,0,0,0C0.5,2.2,0.5,2.2,0.5,2.1z M0.8,1.6c0,0.1,0,0.2,0,0.2
				c0,0,0,0,0-0.1c0-0.1,0-0.2,0.1-0.3C0.8,1.5,0.8,1.6,0.8,1.6z M1,0.9C1,0.9,1,0.9,1,0.9c0,0,0,0,0-0.1c0.1-0.2,0-0.2,0,0
				C1,1,1.1,0.4,1,0.6C1,0.6,1,0.8,1,0.9z M0.8,1.3c0,0.1,0,0.2,0,0.2c0,0,0-0.1,0-0.1c0,0,0,0,0,0.1c0,0,0,0,0,0.2
				c0,0.1,0,0.1,0,0.1c0-0.1,0-0.2,0.1-0.3C0.8,1.5,0.8,1.4,0.8,1.3c0,0,0.1-0.1,0.1-0.4c0,0,0-0.1,0-0.1C1,0.9,0.9,1,0.9,1
				c0,0,0,0,0,0c0,0,0,0.1,0,0.1c0,0,0,0,0,0C0.9,1.2,0.9,1.3,0.8,1.3z M0.8,1.6c0,0.1,0,0.3,0,0.2c0,0,0-0.1,0-0.1
				C0.8,1.5,0.7,1.7,0.8,1.6C0.8,1.5,0.8,1.6,0.8,1.6z"/>
			<path class="st0" d="M0.1,3.7C0.1,3.8,0.1,3.7,0.1,3.7c0.1-0.2,0.1-0.4,0.1-0.6c0,0.1,0,0.2-0.1,0.3C0.2,3.5,0.1,3.6,0.1,3.7z"/>
		</g>
	</g>
</g>
</svg>
